<svg width="1006" height="235" viewBox="0 0 1006 235" fill="none" xmlns="http://www.w3.org/2000/svg">
<rect x="1" y="53" width="202" height="45" fill="white" stroke="black" stroke-width="2"/>
<path d="M44.1016 64.8281H41.2656V86.1562H44.1016V64.8281ZM25.2109 79.9219L27.0156 82.125C28.9727 80.9297 30.2617 78.8203 30.9883 76.3359C31.7148 78.6328 32.957 80.5312 34.8672 81.6562L36.625 79.4531C33.5078 77.6719 32.3945 74.0859 32.4062 70.5469V69.3984H35.6406V67.0078H26.0312V69.3984H29.5234V70.5469C29.5234 74.168 28.3516 77.9883 25.2109 79.9219ZM34.1172 74.5547H36.9297V85.1719H39.7422V65.1797H36.9297V72.1406H34.1172V74.5547ZM58.5156 66.0703H46.8906V68.4609H51.25C51.2148 71.1211 49.5977 73.8633 46.0703 75L47.6641 77.2969C50.1367 76.4883 51.8477 74.8242 52.7969 72.75C53.7227 74.6484 55.3516 76.1719 57.7188 76.9453L59.2422 74.625C55.7852 73.5234 54.2852 70.957 54.2734 68.4609H58.5156V66.0703ZM48.9531 80.9766H60.3203V86.1562H63.3203V78.6094H48.9531V80.9766ZM60.3203 77.6953H63.3203V72.4922H66.2031V70.0078H63.3203V64.8281H60.3203V77.6953ZM78.5078 84.2344C80.043 84.2344 81.7305 83.7305 82.8906 82.6523L84.0391 84H86.8516L84.4258 81.1172C85.1641 80.1562 85.8438 78.6445 85.8438 76.2891H83.5938C83.5938 77.4258 83.3242 78.4336 82.8906 79.2773L79.4922 75.2227L80.6641 74.3672C82.0703 73.3477 82.9141 72.1641 82.9141 70.5469C82.9141 68.5547 81.3086 66.8438 78.6953 66.8438C76.1055 66.8438 74.418 68.5195 74.4062 70.875C74.418 72.3867 75.2031 73.582 76.2812 74.8945C74.3359 76.2188 73 77.4609 73 79.5C73 82.2188 75.0977 84.2344 78.5078 84.2344ZM75.5078 79.4297C75.4961 78.8906 75.9297 77.8594 77.2656 76.875L77.6875 76.5586L81.4844 81.0117C80.6172 81.7266 79.5625 82.125 78.5312 82.125C76.6914 82.125 75.4961 80.8828 75.5078 79.4297ZM76.75 70.8984C76.75 69.9258 77.5703 68.9414 78.7422 68.9297C79.8906 68.9297 80.6406 69.8203 80.6406 70.6172C80.6406 71.6133 80.0898 72.2344 79.1641 72.8438L78.1328 73.582C77.3594 72.6328 76.75 71.7656 76.75 70.8984ZM105.953 72.375H108.062C107.43 68.8477 104.652 66.7969 101.219 66.7969C96.8594 66.7969 93.707 70.1484 93.7188 75.5156C93.707 80.8828 96.8594 84.2344 101.219 84.2344C104.664 84.2344 107.453 82.1484 108.062 78.6797H105.953C105.449 81 103.457 82.2539 101.219 82.2656C98.1484 82.2539 95.7695 79.8867 95.7578 75.5156C95.7695 71.1328 98.1484 68.7656 101.219 68.7656C103.457 68.7656 105.461 70.0312 105.953 72.375ZM115.961 84.2578C119.418 84.2695 121.738 81.6445 121.727 77.6953C121.738 73.7227 119.418 71.1094 115.961 71.1094C112.492 71.1094 110.148 73.7227 110.148 77.6953C110.148 81.6445 112.492 84.2695 115.961 84.2578ZM112.164 77.6953C112.176 75.1641 113.371 72.8906 115.961 72.8906C118.527 72.8906 119.711 75.1641 119.711 77.6953C119.711 80.2383 118.527 82.4766 115.961 82.4766C113.371 82.4766 112.176 80.2383 112.164 77.6953ZM126.391 76.3594C126.391 74.1562 127.75 72.9141 129.602 72.9141C131.406 72.9141 132.484 74.0859 132.484 76.0547V84H134.5V75.9141C134.512 72.6797 132.789 71.1094 130.211 71.1094C128.277 71.1094 127.082 71.9648 126.484 73.2656H126.32V71.2734H124.375V84H126.391V76.3594ZM143.289 71.2734H140.617V68.2266H138.578V71.2734H136.656V72.9609H138.578V80.8594C138.59 83.1094 140.371 84.1641 142.07 84.1641C142.668 84.1641 143.16 84.1172 143.477 84.0703V82.1953C143.184 82.207 142.645 82.2422 142.281 82.2422C141.426 82.2422 140.605 81.9727 140.617 80.3438V72.9609H143.289V71.2734ZM145.281 80.3906C145.281 82.875 147.203 84.293 149.617 84.3047C151.832 84.293 152.992 83.1211 153.414 82.2656H153.508V84H155.5V75.6094C155.512 71.6016 152.383 71.1094 150.719 71.1094C147.906 71.1094 145.914 72.5273 145.656 74.5781H147.766C148.047 73.6055 149.02 72.8672 150.625 72.8672C152.547 72.8672 153.508 73.8047 153.508 75.4219V76.4531C152.934 76.4648 150.883 76.582 150.062 76.6406C147.859 76.8047 145.281 77.4727 145.281 80.3906ZM147.297 80.4844C147.309 79.0898 148.469 78.4453 150.297 78.3281C150.906 78.293 152.91 78.1406 153.508 78.1055V79.3828C153.508 80.9883 152.242 82.5117 149.969 82.5C148.422 82.5117 147.309 81.832 147.297 80.4844ZM163.938 84.2578C166.762 84.2695 168.637 82.5234 168.953 80.25H166.938C166.586 81.6445 165.438 82.4531 163.938 82.4531C161.629 82.4531 160.152 80.5664 160.141 77.625C160.152 74.7656 161.664 72.8906 163.938 72.8906C165.637 72.8906 166.645 73.957 166.938 75.1172H168.953C168.637 72.7148 166.598 71.1094 163.891 71.1094C160.434 71.1094 158.125 73.8281 158.125 77.6953C158.125 81.5156 160.328 84.2695 163.938 84.2578ZM176.992 71.2734H174.32V68.2266H172.281V71.2734H170.359V72.9609H172.281V80.8594C172.293 83.1094 174.074 84.1641 175.773 84.1641C176.371 84.1641 176.863 84.1172 177.18 84.0703V82.1953C176.887 82.207 176.348 82.2422 175.984 82.2422C175.129 82.2422 174.309 81.9727 174.32 80.3438V72.9609H176.992V71.2734Z" fill="black"/>
<circle cx="9.5" cy="61.5" r="2.5" fill="white" stroke="black" stroke-width="2"/>
<circle cx="193.5" cy="61.5" r="2.5" fill="white" stroke="black" stroke-width="2"/>
<circle cx="9.5" cy="89.5" r="2.5" fill="white" stroke="black" stroke-width="2"/>
<circle cx="193.5" cy="89.5" r="2.5" fill="white" stroke="black" stroke-width="2"/>
<rect x="1" y="4" width="104" height="35" rx="17.5" fill="white" stroke="black" stroke-width="2"/>
<path d="M40.5 29.2578C43.3008 29.2578 45.2578 27.875 45.8203 25.8125H43.2891C42.8672 26.5859 41.9414 27.1953 40.5234 27.1953C38.4375 27.1953 37.0078 25.8242 36.9375 23.3984H45.9844V22.5078C45.9844 17.9023 43.2305 16.1094 40.3359 16.1094C36.7852 16.1094 34.4414 18.8047 34.4531 22.7188C34.4414 26.668 36.75 29.2578 40.5 29.2578ZM36.9492 21.5234C37.0547 19.7305 38.3555 18.1602 40.3594 18.1719C42.2695 18.1602 43.5234 19.5898 43.5234 21.5234H36.9492ZM54.4219 16.2734H51.8203V13.2266H49.3359V16.2734H47.4609V18.2656H49.3359V25.7656C49.3125 28.0859 51.082 29.1641 53.0391 29.1641C53.7305 29.1641 54.2695 29.1172 54.6094 29.0703V26.8906C54.2578 26.9258 53.707 26.9609 53.3438 26.9609C52.5352 26.9492 51.832 26.6914 51.8203 25.25V18.2656H54.4219V16.2734ZM62.1094 29.2578C65.1094 29.2578 67.0664 27.4414 67.3359 24.9688H64.8984C64.582 26.3398 63.5273 27.1367 62.1094 27.125C60.0117 27.1367 58.6641 25.4141 58.6641 22.625C58.6641 19.918 60.0469 18.207 62.1094 18.1953C63.6914 18.207 64.6406 19.2031 64.8984 20.3984H67.3359C67.0664 17.8203 64.9688 16.1094 62.0625 16.1094C58.4766 16.1094 56.1445 18.8164 56.1562 22.6953C56.1445 26.5273 58.3945 29.2578 62.1094 29.2578ZM71.3438 29.1641C72.2461 29.1523 72.9961 28.4141 73.0078 27.5C72.9961 26.5859 72.2461 25.8359 71.3438 25.8359C70.4297 25.8359 69.668 26.5859 69.6797 27.5C69.668 28.4141 70.4297 29.1523 71.3438 29.1641Z" fill="black"/>
<circle cx="18.5" cy="21.5" r="2.5" fill="white" stroke="black" stroke-width="2"/>
<circle cx="87.5" cy="21.5" r="2.5" fill="white" stroke="black" stroke-width="2"/>
<rect x="272" y="140" width="342" height="39" fill="white" stroke="black" stroke-width="2"/>
<rect x="272" y="101" width="102" height="39" fill="white" stroke="black" stroke-width="2"/>
<path d="M304.34 111.07H294.379V113.391H301.129C300.66 116.262 297.941 118.629 293.137 119.859L294.285 122.18C300.66 120.539 304.34 116.695 304.34 111.07ZM296.652 130.898H310.879V122.625H296.652V130.898ZM299.629 128.555V124.969H307.949V128.555H299.629ZM307.879 121.758H310.879V109.852H307.879V121.758ZM331.691 109.828H328.715V131.156H331.691V109.828ZM313.855 124.992L314.254 127.477C318.086 127.477 322.984 127.488 327.754 126.609L327.543 124.43C322.984 125.039 317.816 125.016 313.855 124.992ZM314.277 114.773H327.238V112.43H322.27V110.062H319.246V112.43H314.277V114.773ZM315.52 119.672C315.508 122.086 317.688 123.727 320.77 123.727C323.898 123.727 326.031 122.086 326.043 119.672C326.031 117.199 323.898 115.605 320.77 115.594C317.688 115.605 315.508 117.199 315.52 119.672ZM318.355 119.672C318.332 118.535 319.328 117.867 320.77 117.867C322.211 117.867 323.184 118.535 323.184 119.672C323.184 120.809 322.211 121.441 320.77 121.453C319.328 121.441 318.332 120.809 318.355 119.672ZM352.199 110.742H336.285V113.086H342.121C341.77 114.832 339.59 116.625 335.371 117.094L336.449 119.438C340.434 118.992 343.082 117.328 344.207 115.125C345.332 117.34 347.992 118.992 351.988 119.438L353.09 117.094C348.871 116.625 346.656 114.844 346.316 113.086H352.199V110.742ZM334.48 122.836H343.012V126.516H345.965V122.836H354.004V120.445H334.48V122.836ZM336.777 130.781H351.848V128.391H339.754V124.617H336.777V130.781Z" fill="black"/>
<rect x="444" y="101" width="170" height="39" fill="white" stroke="black" stroke-width="2"/>
<path d="M482.895 109.828H479.871V131.156H482.895V109.828ZM465.035 125.109L466.605 127.5C474.223 123.902 476.484 118.523 476.496 112.055H466.184V114.398H473.449C472.969 119.133 470.543 122.508 465.035 125.109ZM499.09 111.398H494.238V109.688H491.262V111.398H486.434V113.578H499.09V111.398ZM485.801 121.57L486.199 123.844C489.949 123.832 494.941 123.762 499.488 122.977L499.277 120.984C497.66 121.184 495.949 121.312 494.238 121.406V120.375C496.57 120.047 498.082 118.934 498.105 117.305C498.082 115.324 495.914 114.059 492.762 114.07C489.527 114.059 487.406 115.324 487.418 117.305C487.406 118.945 488.883 120.047 491.262 120.375V121.512C489.316 121.57 487.453 121.57 485.801 121.57ZM488.801 127.406H500.59V131.156H503.637V125.109H488.801V127.406ZM490.301 117.305C490.289 116.473 491.238 116.062 492.762 116.062C494.227 116.062 495.223 116.473 495.223 117.305C495.223 118.078 494.227 118.488 492.762 118.477C491.238 118.488 490.289 118.078 490.301 117.305ZM500.59 124.266H503.637V109.875H500.59V124.266ZM517.887 129.258C519.375 129.246 520.992 128.824 522.234 127.828L523.277 129H526.91L524.355 126.07C525.293 124.828 525.891 123.047 525.879 120.75H522.996C522.996 121.852 522.727 122.848 522.281 123.68L519.445 120.422L520.441 119.695C521.871 118.676 522.703 117.387 522.691 115.781C522.703 113.637 521.027 111.809 518.309 111.797C515.531 111.809 513.691 113.695 513.691 116.156C513.691 117.656 514.43 118.91 515.32 120.047C513.469 121.324 512.215 122.52 512.215 124.5C512.215 127.172 514.371 129.246 517.887 129.258ZM515.59 124.312C515.59 123.656 516.035 122.895 516.996 122.203L517.113 122.121L520.359 125.742C519.633 126.199 518.836 126.445 518.051 126.445C516.551 126.457 515.59 125.531 515.59 124.312ZM516.668 116.203C516.68 115.336 517.336 114.609 518.332 114.609C519.328 114.598 519.914 115.312 519.902 115.969C519.914 116.707 519.516 117.305 518.66 117.844L517.77 118.441C517.125 117.621 516.68 116.906 516.668 116.203ZM550.934 109.828H547.91V131.203H550.934V109.828ZM534.363 126.117H536.215C540.832 126.117 543.551 126.023 546.504 125.461L546.223 123C543.539 123.48 541.184 123.586 537.363 123.586V114.141H544.746V111.703H534.363V126.117ZM561.691 115.641V114.328H565.98V111.891H554.168V114.328H558.691V115.641C558.668 119.168 556.875 123.129 553.324 124.781L555.059 127.148C557.52 125.988 559.277 123.598 560.227 120.785C561.188 123.34 562.875 125.52 565.254 126.609L566.918 124.266C563.414 122.637 561.68 118.887 561.691 115.641ZM567.645 131.156H570.645V120.469H573.785V117.961H570.645V109.828H567.645V131.156ZM592.418 109.852H589.418V125.18H592.418V109.852ZM574.887 116.578C574.887 119.754 577.441 121.992 580.723 121.992C583.992 121.992 586.547 119.754 586.559 116.578C586.547 113.449 583.992 111.199 580.723 111.211C577.441 111.199 574.887 113.449 574.887 116.578ZM577.816 116.578C577.793 114.844 579.047 113.801 580.723 113.812C582.34 113.801 583.594 114.844 583.605 116.578C583.594 118.359 582.34 119.391 580.723 119.391C579.047 119.391 577.793 118.359 577.816 116.578ZM578.121 130.781H592.98V128.391H581.145V123.633H578.121V130.781Z" fill="black"/>
<path d="M294.684 160.359C294.684 158.156 296.09 156.914 297.988 156.914C299.816 156.914 300.918 158.051 300.918 160.055V168H302.934V159.914C302.934 156.645 301.199 155.109 298.598 155.109C296.582 155.109 295.445 155.953 294.848 157.266H294.684V151.031H292.668V168H294.684V160.359ZM306.988 172.781C308.793 172.77 310.035 171.832 310.785 169.828L316.176 155.273H313.973L310.504 165.375H310.363L306.895 155.273H304.691L309.402 168.094L309.027 169.055C308.359 170.918 307.668 170.965 306.848 170.977C306.531 170.965 306.074 170.953 305.863 170.93V172.734C306.121 172.758 306.555 172.77 306.988 172.781ZM318.402 172.781H320.418V166.055H320.582C321.016 166.758 321.859 168.27 324.285 168.258C327.461 168.27 329.676 165.715 329.676 161.672C329.676 157.641 327.461 155.109 324.262 155.109C321.789 155.109 321.016 156.609 320.582 157.289H320.348V155.273H318.402V172.781ZM320.371 161.625C320.383 158.801 321.625 156.914 324.004 156.914C326.453 156.914 327.66 158.965 327.66 161.625C327.66 164.332 326.418 166.453 324.004 166.453C321.66 166.453 320.383 164.484 320.371 161.625ZM337.645 168.258C340.27 168.27 342.156 166.957 342.754 165.023H340.598C340.129 165.809 339.168 166.477 337.645 166.477C335.383 166.477 333.812 165 333.707 162.305H342.941V161.461C342.953 156.75 340.129 155.109 337.457 155.109C334 155.109 331.691 157.828 331.691 161.742C331.691 165.645 333.965 168.27 337.645 168.258ZM333.719 160.594C333.859 158.625 335.254 156.891 337.457 156.891C339.555 156.891 340.891 158.473 340.902 160.594H333.719ZM345.566 168H347.582V159.984C347.582 158.273 348.941 157.008 350.77 157.008C351.297 157.008 351.836 157.113 351.988 157.148V155.109C351.754 155.086 351.238 155.074 350.934 155.062C349.434 155.074 348.109 155.93 347.652 157.219H347.512V155.273H345.566V168ZM360.449 155.273H357.637V153.984C357.625 152.672 358.258 152.086 359.676 152.086C359.934 152.086 360.297 152.109 360.73 152.18V150.375C360.309 150.293 359.723 150.234 359.23 150.234C356.98 150.234 355.609 151.477 355.598 153.539V155.273H353.559V156.961H355.598V168H357.637V156.961H360.449V155.273ZM361.855 164.391C361.855 166.875 363.777 168.293 366.191 168.305C368.406 168.293 369.566 167.121 369.988 166.266H370.082V168H372.074V159.609C372.086 155.602 368.957 155.109 367.293 155.109C364.48 155.109 362.488 156.527 362.23 158.578H364.34C364.621 157.605 365.594 156.867 367.199 156.867C369.121 156.867 370.082 157.805 370.082 159.422V160.453C369.508 160.465 367.457 160.582 366.637 160.641C364.434 160.805 361.855 161.473 361.855 164.391ZM363.871 164.484C363.883 163.09 365.043 162.445 366.871 162.328C367.48 162.293 369.484 162.141 370.082 162.105V163.383C370.082 164.988 368.816 166.512 366.543 166.5C364.996 166.512 363.883 165.832 363.871 164.484ZM375.309 168H377.324V159.984C377.324 158.273 378.684 157.008 380.512 157.008C381.039 157.008 381.578 157.113 381.73 157.148V155.109C381.496 155.086 380.98 155.074 380.676 155.062C379.176 155.074 377.852 155.93 377.395 157.219H377.254V155.273H375.309V168ZM390.051 155.273H387.379V152.227H385.34V155.273H383.418V156.961H385.34V164.859C385.352 167.109 387.133 168.164 388.832 168.164C389.43 168.164 389.922 168.117 390.238 168.07V166.195C389.945 166.207 389.406 166.242 389.043 166.242C388.188 166.242 387.367 165.973 387.379 164.344V156.961H390.051V155.273ZM392.652 168H394.668V160.055C394.668 158.203 396.004 156.914 397.527 156.914C398.992 156.914 400.023 157.875 400.012 159.305V168H402.051V159.727C402.062 158.109 403.07 156.914 404.84 156.914C406.234 156.914 407.406 157.641 407.418 159.516V168H409.434V159.492C409.434 156.492 407.805 155.109 405.543 155.109C403.715 155.109 402.367 155.953 401.723 157.266H401.582C400.984 155.906 399.848 155.109 398.184 155.109C396.52 155.109 395.289 155.906 394.762 157.266H394.598V155.273H392.652V168ZM412.059 164.391C412.059 166.875 413.98 168.293 416.395 168.305C418.609 168.293 419.77 167.121 420.191 166.266H420.285V168H422.277V159.609C422.289 155.602 419.16 155.109 417.496 155.109C414.684 155.109 412.691 156.527 412.434 158.578H414.543C414.824 157.605 415.797 156.867 417.402 156.867C419.324 156.867 420.285 157.805 420.285 159.422V160.453C419.711 160.465 417.66 160.582 416.84 160.641C414.637 160.805 412.059 161.473 412.059 164.391ZM414.074 164.484C414.086 163.09 415.246 162.445 417.074 162.328C417.684 162.293 419.688 162.141 420.285 162.105V163.383C420.285 164.988 419.02 166.512 416.746 166.5C415.199 166.512 414.086 165.832 414.074 164.484ZM427.527 160.359C427.527 158.156 428.887 156.914 430.738 156.914C432.543 156.914 433.621 158.086 433.621 160.055V168H435.637V159.914C435.648 156.68 433.926 155.109 431.348 155.109C429.414 155.109 428.219 155.965 427.621 157.266H427.457V155.273H425.512V168H427.527V160.359ZM447.262 165.773C449.09 165.762 449.805 164.473 450.074 163.945H450.227C450.32 165.035 451.434 165.867 452.91 165.867C455.289 165.867 457.164 163.746 457.152 160.102C457.176 155.051 453.402 151.242 447.801 151.242C442.34 151.242 438.449 155.285 438.473 160.828C438.461 166.77 441.977 170.438 447.707 170.438C449.254 170.438 450.625 170.227 451.855 169.898V168.305C450.426 168.691 449.348 168.797 447.707 168.82C442.762 168.867 440.16 165.598 440.16 160.828C440.172 156.469 443.16 152.883 447.801 152.859C452.289 152.871 455.488 155.754 455.465 160.172C455.453 162.609 454.48 164.309 453.027 164.297C452.266 164.309 451.891 163.852 451.855 162.938V156.094H450.074V157.523H449.957C449.664 156.996 448.973 155.918 447.285 155.906C444.941 155.918 443.207 157.805 443.207 160.828C443.207 163.875 444.906 165.762 447.262 165.773ZM445.035 160.805C445.023 159.012 445.926 157.629 447.566 157.617C449.254 157.629 450.086 158.906 450.098 160.805C450.086 162.75 449.242 164.051 447.566 164.062C445.938 164.051 445.023 162.633 445.035 160.805ZM465.145 173.039C468.25 173.039 470.664 171.633 470.676 168.352V155.273H468.707V157.289H468.543C468.086 156.609 467.289 155.109 464.816 155.109C461.617 155.109 459.379 157.547 459.379 161.461C459.379 165.469 461.699 167.801 464.793 167.812C467.254 167.801 468.062 166.359 468.496 165.656H468.66V168.234C468.66 170.332 467.324 171.281 465.145 171.281C463.34 171.281 462.133 170.637 461.863 169.336H459.754C459.977 171.691 462.062 173.039 465.145 173.039ZM461.418 161.531C461.418 158.965 462.625 156.914 465.074 156.914C467.441 156.914 468.695 158.801 468.707 161.531C468.695 164.332 467.406 166.008 465.074 166.008C462.66 166.008 461.418 164.168 461.418 161.531ZM473.887 168H475.902V160.055C475.902 158.203 477.238 156.914 478.762 156.914C480.227 156.914 481.258 157.875 481.246 159.305V168H483.285V159.727C483.297 158.109 484.305 156.914 486.074 156.914C487.469 156.914 488.641 157.641 488.652 159.516V168H490.668V159.492C490.668 156.492 489.039 155.109 486.777 155.109C484.949 155.109 483.602 155.953 482.957 157.266H482.816C482.219 155.906 481.082 155.109 479.418 155.109C477.754 155.109 476.523 155.906 475.996 157.266H475.832V155.273H473.887V168ZM493.293 164.391C493.293 166.875 495.215 168.293 497.629 168.305C499.844 168.293 501.004 167.121 501.426 166.266H501.52V168H503.512V159.609C503.523 155.602 500.395 155.109 498.73 155.109C495.918 155.109 493.926 156.527 493.668 158.578H495.777C496.059 157.605 497.031 156.867 498.637 156.867C500.559 156.867 501.52 157.805 501.52 159.422V160.453C500.945 160.465 498.895 160.582 498.074 160.641C495.871 160.805 493.293 161.473 493.293 164.391ZM495.309 164.484C495.32 163.09 496.48 162.445 498.309 162.328C498.918 162.293 500.922 162.141 501.52 162.105V163.383C501.52 164.988 500.254 166.512 497.98 166.5C496.434 166.512 495.32 165.832 495.309 164.484ZM506.746 168H508.762V155.273H506.746V168ZM506.348 151.828C506.336 152.566 506.98 153.164 507.754 153.164C508.527 153.164 509.172 152.566 509.184 151.828C509.172 151.078 508.527 150.48 507.754 150.492C506.98 150.48 506.336 151.078 506.348 151.828ZM513.988 151.031H511.973V168H513.988V151.031ZM518.629 168.141C519.461 168.129 520.141 167.449 520.129 166.617C520.141 165.797 519.461 165.117 518.629 165.117C517.809 165.117 517.105 165.797 517.129 166.617C517.105 167.449 517.809 168.129 518.629 168.141ZM528.496 168.258C531.32 168.27 533.195 166.523 533.512 164.25H531.496C531.145 165.645 529.996 166.453 528.496 166.453C526.188 166.453 524.711 164.566 524.699 161.625C524.711 158.766 526.223 156.891 528.496 156.891C530.195 156.891 531.203 157.957 531.496 159.117H533.512C533.195 156.715 531.156 155.109 528.449 155.109C524.992 155.109 522.684 157.828 522.684 161.695C522.684 165.516 524.887 168.27 528.496 168.258ZM541.199 168.258C544.656 168.27 546.977 165.645 546.965 161.695C546.977 157.723 544.656 155.109 541.199 155.109C537.73 155.109 535.387 157.723 535.387 161.695C535.387 165.645 537.73 168.27 541.199 168.258ZM537.402 161.695C537.414 159.164 538.609 156.891 541.199 156.891C543.766 156.891 544.949 159.164 544.949 161.695C544.949 164.238 543.766 166.477 541.199 166.477C538.609 166.477 537.414 164.238 537.402 161.695ZM549.613 168H551.629V160.055C551.629 158.203 552.965 156.914 554.488 156.914C555.953 156.914 556.984 157.875 556.973 159.305V168H559.012V159.727C559.023 158.109 560.031 156.914 561.801 156.914C563.195 156.914 564.367 157.641 564.379 159.516V168H566.395V159.492C566.395 156.492 564.766 155.109 562.504 155.109C560.676 155.109 559.328 155.953 558.684 157.266H558.543C557.945 155.906 556.809 155.109 555.145 155.109C553.48 155.109 552.25 155.906 551.723 157.266H551.559V155.273H549.613V168ZM586.363 168.023L593.816 160.57L586.363 153.117L585.051 154.406L590.301 159.656H576.777V161.508H590.301L585.051 166.758L586.363 168.023Z" fill="black"/>
<path d="M358.777 101L349.04 53H302.223L311.96 101H358.777Z" fill="white" stroke="black" stroke-width="2"/>
<path d="M302.286 63H350L343.714 102H294L302.286 63Z" fill="white"/>
<path d="M293.179 101L301.134 53H348.821L340.866 101H293.179Z" fill="white" stroke="black" stroke-width="2"/>
<path d="M327.345 92.28C327.089 92.1733 326.908 91.992 326.801 91.736C326.716 91.48 326.726 91.224 326.833 90.968L329.969 83.512H321.649C321.521 83.512 321.393 83.5013 321.265 83.48C321.137 83.4373 321.02 83.3733 320.913 83.288L320.017 82.68C319.91 82.5947 319.814 82.5093 319.729 82.424C319.644 82.3387 319.569 82.2427 319.505 82.136C318.822 81.1333 318.14 80.1413 317.457 79.16C317.201 78.8187 316.945 78.4773 316.689 78.136C316.454 77.7947 316.22 77.4427 315.985 77.08C315.9 76.9733 315.804 76.8667 315.697 76.76C315.59 76.6533 315.484 76.5467 315.377 76.44L305.649 67.96C305.436 67.8107 305.318 67.608 305.297 67.352C305.297 67.0747 305.382 66.84 305.553 66.648L305.585 66.616C305.756 66.4027 305.969 66.296 306.225 66.296C306.481 66.2747 306.705 66.3493 306.897 66.52L315.921 74.36C316.07 74.4667 316.23 74.5413 316.401 74.584C316.593 74.6053 316.764 74.584 316.913 74.52L317.489 74.264C317.638 74.2213 317.756 74.1573 317.841 74.072C317.948 73.9653 318.033 73.8373 318.097 73.688L323.377 62.904C323.484 62.6693 323.665 62.52 323.921 62.456C324.177 62.3707 324.412 62.3813 324.625 62.488L324.689 62.52C324.924 62.6267 325.073 62.808 325.137 63.064C325.222 63.2987 325.212 63.5333 325.105 63.768L319.601 75.064C319.58 75.0853 319.569 75.1067 319.569 75.128C319.569 75.128 319.58 75.128 319.601 75.128L322.449 79.224C322.47 79.2453 322.481 79.256 322.481 79.256C322.502 79.256 322.524 79.2453 322.545 79.224L326.225 73.784C326.31 73.656 326.406 73.5493 326.513 73.464C326.641 73.3573 326.78 73.2827 326.929 73.24L334.417 71.096C334.694 71.0107 334.95 71.0427 335.185 71.192C335.42 71.32 335.58 71.5227 335.665 71.8V71.864C335.75 72.12 335.729 72.376 335.601 72.632C335.473 72.8667 335.27 73.0267 334.993 73.112L327.793 75.16C327.793 75.16 327.782 75.1707 327.761 75.192L323.537 81.464H330.545C330.822 81.464 331.078 81.528 331.313 81.656C331.548 81.7627 331.74 81.9227 331.889 82.136L331.921 82.168C332.092 82.4027 332.188 82.6693 332.209 82.968C332.252 83.2453 332.22 83.5227 332.113 83.8L328.721 91.768C328.614 92.024 328.433 92.2053 328.177 92.312C327.921 92.4187 327.665 92.4187 327.409 92.312L327.345 92.28ZM316.497 73.272C316.305 73.272 316.113 73.24 315.921 73.176C315.772 73.112 315.622 73.0053 315.473 72.856C315.324 72.7067 315.217 72.5573 315.153 72.408C315.068 72.152 315.025 71.96 315.025 71.832C315.025 71.704 315.068 71.512 315.153 71.256C315.217 71.1067 315.324 70.9573 315.473 70.808C315.622 70.6587 315.772 70.552 315.921 70.488C316.177 70.4027 316.369 70.36 316.497 70.36C316.625 70.36 316.817 70.4027 317.073 70.488C317.222 70.552 317.372 70.6587 317.521 70.808C317.606 70.8933 317.713 71.0427 317.841 71.256C317.905 71.448 317.937 71.64 317.937 71.832C317.937 72.024 317.905 72.216 317.841 72.408C317.713 72.6213 317.606 72.7707 317.521 72.856C317.372 73.0053 317.222 73.112 317.073 73.176C316.881 73.24 316.689 73.272 316.497 73.272Z" fill="black"/>
<rect x="726" y="140" width="270" height="39" fill="white" stroke="black" stroke-width="2"/>
<path d="M751.934 173.039C755.039 173.039 757.453 171.633 757.465 168.352V155.273H755.496V157.289H755.332C754.875 156.609 754.078 155.109 751.605 155.109C748.406 155.109 746.168 157.547 746.168 161.461C746.168 165.469 748.488 167.801 751.582 167.812C754.043 167.801 754.852 166.359 755.285 165.656H755.449V168.234C755.449 170.332 754.113 171.281 751.934 171.281C750.129 171.281 748.922 170.637 748.652 169.336H746.543C746.766 171.691 748.852 173.039 751.934 173.039ZM748.207 161.531C748.207 158.965 749.414 156.914 751.863 156.914C754.23 156.914 755.484 158.801 755.496 161.531C755.484 164.332 754.195 166.008 751.863 166.008C749.449 166.008 748.207 164.168 748.207 161.531ZM765.879 168.258C768.703 168.27 770.578 166.523 770.895 164.25H768.879C768.527 165.645 767.379 166.453 765.879 166.453C763.57 166.453 762.094 164.566 762.082 161.625C762.094 158.766 763.605 156.891 765.879 156.891C767.578 156.891 768.586 157.957 768.879 159.117H770.895C770.578 156.715 768.539 155.109 765.832 155.109C762.375 155.109 760.066 157.828 760.066 161.695C760.066 165.516 762.27 168.27 765.879 168.258ZM775.395 160.359C775.395 158.156 776.801 156.914 778.699 156.914C780.527 156.914 781.629 158.051 781.629 160.055V168H783.645V159.914C783.645 156.645 781.91 155.109 779.309 155.109C777.293 155.109 776.156 155.953 775.559 157.266H775.395V151.031H773.379V168H775.395V160.359ZM789.738 168H791.754L794.496 158.297H794.684L797.449 168H799.441L803.309 155.273H801.199L798.48 164.93H798.34L795.691 155.273H793.535L790.84 164.977H790.723L788.004 155.273H785.871L789.738 168ZM810.316 168.258C813.773 168.27 816.094 165.645 816.082 161.695C816.094 157.723 813.773 155.109 810.316 155.109C806.848 155.109 804.504 157.723 804.504 161.695C804.504 165.645 806.848 168.27 810.316 168.258ZM806.52 161.695C806.531 159.164 807.727 156.891 810.316 156.891C812.883 156.891 814.066 159.164 814.066 161.695C814.066 164.238 812.883 166.477 810.316 166.477C807.727 166.477 806.531 164.238 806.52 161.695ZM823.934 168.258C827.391 168.27 829.711 165.645 829.699 161.695C829.711 157.723 827.391 155.109 823.934 155.109C820.465 155.109 818.121 157.723 818.121 161.695C818.121 165.645 820.465 168.27 823.934 168.258ZM820.137 161.695C820.148 159.164 821.344 156.891 823.934 156.891C826.5 156.891 827.684 159.164 827.684 161.695C827.684 164.238 826.5 166.477 823.934 166.477C821.344 166.477 820.148 164.238 820.137 161.695ZM840.738 165.773C842.566 165.762 843.281 164.473 843.551 163.945H843.703C843.797 165.035 844.91 165.867 846.387 165.867C848.766 165.867 850.641 163.746 850.629 160.102C850.652 155.051 846.879 151.242 841.277 151.242C835.816 151.242 831.926 155.285 831.949 160.828C831.938 166.77 835.453 170.438 841.184 170.438C842.73 170.438 844.102 170.227 845.332 169.898V168.305C843.902 168.691 842.824 168.797 841.184 168.82C836.238 168.867 833.637 165.598 833.637 160.828C833.648 156.469 836.637 152.883 841.277 152.859C845.766 152.871 848.965 155.754 848.941 160.172C848.93 162.609 847.957 164.309 846.504 164.297C845.742 164.309 845.367 163.852 845.332 162.938V156.094H843.551V157.523H843.434C843.141 156.996 842.449 155.918 840.762 155.906C838.418 155.918 836.684 157.805 836.684 160.828C836.684 163.875 838.383 165.762 840.738 165.773ZM838.512 160.805C838.5 159.012 839.402 157.629 841.043 157.617C842.73 157.629 843.562 158.906 843.574 160.805C843.562 162.75 842.719 164.051 841.043 164.062C839.414 164.051 838.5 162.633 838.512 160.805ZM860.543 158.578H862.512C862.254 156.516 860.602 155.109 857.965 155.109C855.164 155.109 853.254 156.68 853.254 158.859C853.254 160.559 854.438 161.766 856.652 162.281L858.574 162.727C860.016 163.066 860.66 163.652 860.66 164.555C860.66 165.75 859.523 166.512 857.707 166.5C856.102 166.512 855.199 165.914 854.965 164.672H852.855C853.195 166.992 854.895 168.27 857.754 168.258C860.941 168.27 862.734 166.641 862.746 164.438C862.734 162.668 861.621 161.531 859.348 160.992L857.449 160.523C855.961 160.16 855.281 159.586 855.27 158.742C855.281 157.676 856.395 156.832 857.965 156.82C859.453 156.832 860.262 157.523 860.543 158.578ZM867.387 160.359C867.387 158.156 868.746 156.914 870.598 156.914C872.402 156.914 873.48 158.086 873.48 160.055V168H875.496V159.914C875.508 156.68 873.785 155.109 871.207 155.109C869.273 155.109 868.078 155.965 867.48 157.266H867.316V155.273H865.371V168H867.387V160.359ZM886.77 162.773C886.758 165.152 884.953 166.23 883.512 166.219C881.883 166.23 880.746 165.047 880.746 163.219V155.273H878.73V163.359C878.719 166.594 880.441 168.164 882.855 168.164C884.766 168.164 886.031 167.133 886.629 165.844H886.77V168H888.762V155.273H886.77V162.773ZM893.426 168.141C894.258 168.129 894.938 167.449 894.926 166.617C894.938 165.797 894.258 165.117 893.426 165.117C892.605 165.117 891.902 165.797 891.926 166.617C891.902 167.449 892.605 168.129 893.426 168.141ZM897.48 164.391C897.48 166.875 899.402 168.293 901.816 168.305C904.031 168.293 905.191 167.121 905.613 166.266H905.707V168H907.699V159.609C907.711 155.602 904.582 155.109 902.918 155.109C900.105 155.109 898.113 156.527 897.855 158.578H899.965C900.246 157.605 901.219 156.867 902.824 156.867C904.746 156.867 905.707 157.805 905.707 159.422V160.453C905.133 160.465 903.082 160.582 902.262 160.641C900.059 160.805 897.48 161.473 897.48 164.391ZM899.496 164.484C899.508 163.09 900.668 162.445 902.496 162.328C903.105 162.293 905.109 162.141 905.707 162.105V163.383C905.707 164.988 904.441 166.512 902.168 166.5C900.621 166.512 899.508 165.832 899.496 164.484ZM916.137 168.258C918.961 168.27 920.836 166.523 921.152 164.25H919.137C918.785 165.645 917.637 166.453 916.137 166.453C913.828 166.453 912.352 164.566 912.34 161.625C912.352 158.766 913.863 156.891 916.137 156.891C917.836 156.891 918.844 157.957 919.137 159.117H921.152C920.836 156.715 918.797 155.109 916.09 155.109C912.633 155.109 910.324 157.828 910.324 161.695C910.324 165.516 912.527 168.27 916.137 168.258ZM925.066 168.141C925.898 168.129 926.578 167.449 926.566 166.617C926.578 165.797 925.898 165.117 925.066 165.117C924.246 165.117 923.543 165.797 923.566 166.617C923.543 167.449 924.246 168.129 925.066 168.141ZM929.73 168H931.746V163.254L933.094 162L937.816 168H940.371L934.605 160.723L939.973 155.273H937.488L931.98 160.898H931.746V151.031H929.73V168ZM942.129 168H944.145V159.984C944.145 158.273 945.504 157.008 947.332 157.008C947.859 157.008 948.398 157.113 948.551 157.148V155.109C948.316 155.086 947.801 155.074 947.496 155.062C945.996 155.074 944.672 155.93 944.215 157.219H944.074V155.273H942.129V168ZM967.254 168.023L974.707 160.57L967.254 153.117L965.941 154.406L971.191 159.656H957.668V161.508H971.191L965.941 166.758L967.254 168.023Z" fill="black"/>
<rect x="726" y="101" width="102" height="39" fill="white" stroke="black" stroke-width="2"/>
<path d="M758.34 111.07H748.379V113.391H755.129C754.66 116.262 751.941 118.629 747.137 119.859L748.285 122.18C754.66 120.539 758.34 116.695 758.34 111.07ZM750.652 130.898H764.879V122.625H750.652V130.898ZM753.629 128.555V124.969H761.949V128.555H753.629ZM761.879 121.758H764.879V109.852H761.879V121.758ZM779.926 112.383H775.66V109.969H772.637V112.383H768.348V114.75H772.637C772.625 117.316 771.043 119.871 767.598 120.914L769.098 123.281C771.547 122.508 773.223 120.926 774.172 118.934C775.121 120.773 776.773 122.238 779.152 122.93L780.629 120.539C777.16 119.555 775.637 117.129 775.613 114.75H779.926V112.383ZM770.855 130.781H785.457V128.391H773.832V124.219H770.855V130.781ZM781.684 125.602H784.684V118.57H787.566V116.156H784.684V109.828H781.684V125.602ZM808.004 121.758H788.48V124.195H796.707V131.18H799.66V124.195H808.004V121.758ZM790.449 115.383C790.438 118.277 793.602 120.141 798.184 120.141C802.766 120.141 805.965 118.277 805.965 115.383C805.965 112.418 802.766 110.543 798.184 110.531C793.602 110.543 790.438 112.418 790.449 115.383ZM793.52 115.383C793.508 113.801 795.324 112.934 798.184 112.922C801.066 112.934 802.871 113.801 802.871 115.383C802.871 116.906 801.066 117.762 798.184 117.773C795.324 117.762 793.508 116.906 793.52 115.383Z" fill="black"/>
<rect x="894" y="101" width="102" height="39" fill="white" stroke="black" stroke-width="2"/>
<path d="M933.605 109.828H930.746V122.953H933.605V109.828ZM914.879 117.727L915.16 119.953C916.273 119.953 917.668 119.953 919.168 119.895V122.836H922.027V119.719C923.387 119.59 924.734 119.402 925.965 119.133L925.754 117.141C922.332 117.668 917.668 117.727 914.879 117.727ZM915.77 113.742C915.77 115.676 917.668 116.941 920.457 116.953C923.258 116.941 925.168 115.676 925.168 113.742C925.168 111.773 923.258 110.555 920.457 110.555C917.668 110.555 915.77 111.773 915.77 113.742ZM918.371 130.922H933.605V123.633H930.629V125.062H921.324V123.633H918.371V130.922ZM918.488 113.742C918.477 112.98 919.215 112.617 920.457 112.617C921.699 112.617 922.496 112.98 922.496 113.742C922.496 114.516 921.699 114.855 920.457 114.867C919.215 114.855 918.477 114.516 918.488 113.742ZM921.324 128.625V127.336H930.629V128.625H921.324ZM923.457 122.203H926.668V122.93H929.48V110.18H926.668V120.211H923.457V122.203ZM954.16 109.828H951.277V117.914H949.332V110.391H946.543V130.219H949.332V120.305H951.277V131.156H954.16V109.828ZM935.504 124.711L937.238 126.773C943.25 123.281 945.031 118.406 945.043 112.453H936.582V114.844H942.125C941.727 119.027 939.852 122.156 935.504 124.711ZM960.113 110.789H957.137V120.094H967.473V110.789H964.473V113.32H960.113V110.789ZM959.27 123.797H970.449V125.133H959.316V131.016H974.035V128.648H962.246V127.266H973.426V121.477H959.27V123.797ZM960.113 117.75V115.57H964.473V117.75H960.113ZM970.426 120.68H973.426V116.391H976.309V113.977H973.426V109.828H970.426V120.68Z" fill="black"/>
<path d="M812.777 101L803.04 53H756.223L765.96 101H812.777Z" fill="white" stroke="black" stroke-width="2"/>
<path d="M756.286 63H804L797.714 102H748L756.286 63Z" fill="white"/>
<path d="M747.179 101L755.134 53H802.821L794.866 101H747.179Z" fill="white" stroke="black" stroke-width="2"/>
<path d="M769.43 93.368C769.195 93.304 769.003 93.1653 768.854 92.952C768.726 92.7387 768.683 92.5147 768.726 92.28C769.024 90.872 769.312 89.4533 769.59 88.024C769.867 86.5947 770.144 85.176 770.422 83.768C770.443 83.6827 770.464 83.5973 770.486 83.512C770.528 83.4267 770.582 83.3413 770.646 83.256L774.838 77.528L773.398 69.976L770.134 73.464C770.07 73.5493 769.995 73.624 769.91 73.688C769.824 73.7307 769.728 73.7733 769.622 73.816C768.747 74.136 767.872 74.456 766.998 74.776C766.123 75.096 765.248 75.416 764.374 75.736C764.139 75.8213 763.904 75.8107 763.67 75.704C763.435 75.576 763.275 75.3947 763.19 75.16L763.158 75.096C763.072 74.8613 763.083 74.6267 763.19 74.392C763.296 74.1573 763.467 73.9973 763.702 73.912L768.694 72.088C768.715 72.0667 768.726 72.056 768.726 72.056C769.536 71.1813 770.347 70.3173 771.158 69.464L773.302 67.16C773.387 67.0747 773.472 67 773.558 66.936C773.643 66.8507 773.739 66.776 773.846 66.712L773.878 66.68C774.134 66.552 774.39 66.4667 774.646 66.424C774.923 66.36 775.19 66.3387 775.446 66.36H775.478C775.606 66.3813 775.723 66.4133 775.83 66.456C775.936 66.4773 776.054 66.5093 776.182 66.552C777.718 67.192 779.243 67.8427 780.758 68.504C781.675 68.888 782.582 69.272 783.478 69.656C783.648 69.7413 783.798 69.8587 783.926 70.008C784.054 70.136 784.15 70.2853 784.214 70.456L784.758 72.28C785.142 73.496 785.515 74.7227 785.878 75.96C785.963 76.216 785.942 76.4613 785.814 76.696C785.686 76.9307 785.504 77.0907 785.27 77.176L785.206 77.208C784.95 77.2933 784.704 77.272 784.47 77.144C784.235 76.9947 784.075 76.792 783.99 76.536C783.478 74.808 782.955 73.0907 782.422 71.384C782.422 71.384 782.411 71.384 782.39 71.384C782.39 71.3627 782.39 71.352 782.39 71.352L777.27 69.176L780.342 84.632C780.342 84.632 780.342 84.6427 780.342 84.664L783.702 91.544C783.808 91.7787 783.819 92.0133 783.734 92.248C783.67 92.504 783.52 92.696 783.286 92.824C783.286 92.824 783.275 92.824 783.254 92.824C783.254 92.8453 783.254 92.856 783.254 92.856C783.254 92.856 783.243 92.856 783.222 92.856C782.987 92.984 782.731 93.0053 782.454 92.92C782.198 92.856 782.016 92.696 781.91 92.44C781.27 91.1813 780.63 89.912 779.99 88.632C779.456 87.5867 778.923 86.5413 778.39 85.496C778.368 85.4533 778.347 85.4107 778.326 85.368C778.304 85.304 778.294 85.2507 778.294 85.208L776.854 78.584L774.998 81.016C774.123 82.1467 773.238 83.288 772.342 84.44C772.342 84.44 772.331 84.4507 772.31 84.472C772.054 85.816 771.787 87.1707 771.51 88.536C771.318 89.4533 771.179 90.136 771.094 90.584C771.008 91.032 770.87 91.704 770.678 92.6C770.614 92.8773 770.464 93.0907 770.23 93.24C769.995 93.3893 769.739 93.432 769.462 93.368H769.43ZM773.846 65.816C773.654 65.816 773.472 65.784 773.302 65.72C773.088 65.6133 772.928 65.5067 772.822 65.4C772.694 65.272 772.598 65.1227 772.534 64.952C772.448 64.7813 772.406 64.5893 772.406 64.376C772.406 64.1627 772.448 63.9813 772.534 63.832C772.598 63.64 772.694 63.48 772.822 63.352C772.95 63.224 773.11 63.128 773.302 63.064C773.451 62.9787 773.632 62.936 773.846 62.936C774.059 62.936 774.251 62.9787 774.422 63.064C774.592 63.128 774.742 63.224 774.87 63.352C774.976 63.4587 775.083 63.6187 775.19 63.832C775.254 63.9813 775.286 64.1627 775.286 64.376C775.286 64.568 775.254 64.76 775.19 64.952C775.062 65.1653 774.955 65.3147 774.87 65.4C774.784 65.4853 774.635 65.592 774.422 65.72C774.23 65.784 774.038 65.816 773.846 65.816Z" fill="black"/>
<rect x="-1" y="1" width="36" height="15" transform="matrix(-1 0 0 1 298 188)" fill="white" stroke="black" stroke-width="2"/>
<rect x="-1" y="1" width="36" height="15" transform="matrix(-1 0 0 1 298 218)" fill="white" stroke="black" stroke-width="2"/>
<rect x="-1" y="1" width="36" height="15" transform="matrix(-1 0 0 1 334 188)" fill="white" stroke="black" stroke-width="2"/>
<rect x="-1" y="1" width="36" height="15" transform="matrix(-1 0 0 1 334 218)" fill="white" stroke="black" stroke-width="2"/>
<rect x="-1" y="1" width="36" height="15" transform="matrix(-1 0 0 1 370 188)" fill="white" stroke="black" stroke-width="2"/>
<rect x="-1" y="1" width="36" height="15" transform="matrix(-1 0 0 1 370 218)" fill="white" stroke="black" stroke-width="2"/>
<rect x="-1" y="1" width="36" height="15" transform="matrix(-1 0 0 1 406 188)" fill="white" stroke="black" stroke-width="2"/>
<rect x="-1" y="1" width="36" height="15" transform="matrix(-1 0 0 1 442 188)" fill="white" stroke="black" stroke-width="2"/>
<rect x="-1" y="1" width="36" height="15" transform="matrix(-1 0 0 1 442 218)" fill="white" stroke="black" stroke-width="2"/>
<rect x="-1" y="1" width="36" height="15" transform="matrix(-1 0 0 1 478 188)" fill="white" stroke="black" stroke-width="2"/>
<rect x="-1" y="1" width="36" height="15" transform="matrix(-1 0 0 1 478 218)" fill="white" stroke="black" stroke-width="2"/>
<rect x="-1" y="1" width="36" height="15" transform="matrix(-1 0 0 1 514 218)" fill="white" stroke="black" stroke-width="2"/>
<rect x="-1" y="1" width="36" height="15" transform="matrix(-1 0 0 1 514 188)" fill="white" stroke="black" stroke-width="2"/>
<rect x="-1" y="1" width="36" height="15" transform="matrix(-1 0 0 1 550 218)" fill="white" stroke="black" stroke-width="2"/>
<rect x="-1" y="1" width="36" height="15" transform="matrix(-1 0 0 1 586 188)" fill="white" stroke="black" stroke-width="2"/>
<rect x="-1" y="1" width="36" height="15" transform="matrix(-1 0 0 1 586 218)" fill="white" stroke="black" stroke-width="2"/>
<rect x="-1" y="1" width="36" height="15" transform="matrix(-1 0 0 1 622 188)" fill="white" stroke="black" stroke-width="2"/>
<rect x="-1" y="1" width="36" height="15" transform="matrix(-1 0 0 1 622 218)" fill="white" stroke="black" stroke-width="2"/>
<rect x="-1" y="1" width="36" height="15" transform="matrix(-1 0 0 1 752 188)" fill="white" stroke="black" stroke-width="2"/>
<rect x="-1" y="1" width="36" height="15" transform="matrix(-1 0 0 1 752 218)" fill="white" stroke="black" stroke-width="2"/>
<rect x="-1" y="1" width="36" height="15" transform="matrix(-1 0 0 1 788 188)" fill="white" stroke="black" stroke-width="2"/>
<rect x="-1" y="1" width="36" height="15" transform="matrix(-1 0 0 1 788 218)" fill="white" stroke="black" stroke-width="2"/>
<rect x="-1" y="1" width="36" height="15" transform="matrix(-1 0 0 1 824 188)" fill="white" stroke="black" stroke-width="2"/>
<rect x="-1" y="1" width="36" height="15" transform="matrix(-1 0 0 1 824 218)" fill="white" stroke="black" stroke-width="2"/>
<rect x="-1" y="1" width="36" height="15" transform="matrix(-1 0 0 1 860 218)" fill="white" stroke="black" stroke-width="2"/>
<rect x="-1" y="1" width="36" height="15" transform="matrix(-1 0 0 1 896 188)" fill="white" stroke="black" stroke-width="2"/>
<rect x="-1" y="1" width="36" height="15" transform="matrix(-1 0 0 1 932 188)" fill="white" stroke="black" stroke-width="2"/>
<rect x="-1" y="1" width="36" height="15" transform="matrix(-1 0 0 1 932 218)" fill="white" stroke="black" stroke-width="2"/>
<rect x="-1" y="1" width="36" height="15" transform="matrix(-1 0 0 1 968 188)" fill="white" stroke="black" stroke-width="2"/>
<rect x="-1" y="1" width="36" height="15" transform="matrix(-1 0 0 1 968 218)" fill="white" stroke="black" stroke-width="2"/>
<rect x="-1" y="1" width="36" height="15" transform="matrix(-1 0 0 1 1004 188)" fill="white" stroke="black" stroke-width="2"/>
<rect x="-1" y="1" width="36" height="15" transform="matrix(-1 0 0 1 1004 218)" fill="white" stroke="black" stroke-width="2"/>
<rect x="-1" y="1" width="36" height="15" transform="matrix(-1 0 0 1 316 203)" fill="white" stroke="black" stroke-width="2"/>
<rect x="-1" y="1" width="36" height="15" transform="matrix(-1 0 0 1 352 203)" fill="white" stroke="black" stroke-width="2"/>
<rect x="-1" y="1" width="36" height="15" transform="matrix(-1 0 0 1 424 203)" fill="white" stroke="black" stroke-width="2"/>
<rect x="-1" y="1" width="36" height="15" transform="matrix(-1 0 0 1 460 203)" fill="white" stroke="black" stroke-width="2"/>
<rect x="-1" y="1" width="36" height="15" transform="matrix(-1 0 0 1 496 203)" fill="white" stroke="black" stroke-width="2"/>
<rect x="-1" y="1" width="36" height="15" transform="matrix(-1 0 0 1 568 203)" fill="white" stroke="black" stroke-width="2"/>
<rect x="-1" y="1" width="36" height="15" transform="matrix(-1 0 0 1 604 203)" fill="white" stroke="black" stroke-width="2"/>
<rect x="-1" y="1" width="36" height="15" transform="matrix(-1 0 0 1 770 203)" fill="white" stroke="black" stroke-width="2"/>
<rect x="-1" y="1" width="36" height="15" transform="matrix(-1 0 0 1 806 203)" fill="white" stroke="black" stroke-width="2"/>
<rect x="-1" y="1" width="36" height="15" transform="matrix(-1 0 0 1 842 203)" fill="white" stroke="black" stroke-width="2"/>
<rect x="-1" y="1" width="36" height="15" transform="matrix(-1 0 0 1 914 203)" fill="white" stroke="black" stroke-width="2"/>
<rect x="-1" y="1" width="36" height="15" transform="matrix(-1 0 0 1 950 203)" fill="white" stroke="black" stroke-width="2"/>
<rect x="-1" y="1" width="36" height="15" transform="matrix(-1 0 0 1 986 203)" fill="white" stroke="black" stroke-width="2"/>
</svg>
