<svg width="227" height="33" viewBox="0 0 227 33" fill="none" xmlns="http://www.w3.org/2000/svg">
<rect x="1" y="1" width="225" height="31" rx="15.5" fill="white"/>
<path d="M19.3936 25C24.5649 25 27.482 21.7845 27.482 16.4807C27.482 11.2099 24.5649 8.02762 19.6091 8.02762H14.1229V25H19.3936ZM16.2279 23.1271V9.90055H19.4765C23.4213 9.90055 25.4268 12.3867 25.4268 16.4807C25.4268 20.6077 23.4213 23.1271 19.261 23.1271H16.2279ZM44.9296 16.5138C44.9296 11.1436 41.7639 7.79558 37.4214 7.79558C33.0622 7.79558 29.9131 11.1436 29.9131 16.5138C29.9131 21.884 33.0622 25.232 37.4214 25.232C41.7639 25.232 44.9296 21.884 44.9296 16.5138ZM31.9683 16.5138C31.9683 12.1381 34.3551 9.76796 37.4214 9.76796C40.4877 9.76796 42.8744 12.1381 42.8744 16.5138C42.8744 20.8895 40.4877 23.2597 37.4214 23.2597C34.3551 23.2597 31.9683 20.8895 31.9683 16.5138ZM51.1227 25H53.3106L57.0398 11.5746H57.1724L60.8851 25H63.073L67.7139 8.02762H65.5592L62.0288 21.768H61.8796L58.2829 8.02762H55.9128L52.3327 21.768H52.1669L48.6365 8.02762H46.4818L51.1227 25ZM83.4262 8.02762H81.3544V21.2707H81.1886L71.9897 8.02762H69.9511V25H72.056V11.7901H72.2218L81.4041 25H83.4262V8.02762ZM87.1776 25H97.1555V23.1271H89.2826V8.02762H87.1776V25ZM113.672 16.5138C113.672 11.1436 110.506 7.79558 106.164 7.79558C101.804 7.79558 98.6553 11.1436 98.6553 16.5138C98.6553 21.884 101.804 25.232 106.164 25.232C110.506 25.232 113.672 21.884 113.672 16.5138ZM100.711 16.5138C100.711 12.1381 103.097 9.76796 106.164 9.76796C109.23 9.76796 111.617 12.1381 111.617 16.5138C111.617 20.8895 109.23 23.2597 106.164 23.2597C103.097 23.2597 100.711 20.8895 100.711 16.5138ZM116.721 25L118.412 20.2265H125.241L126.931 25H129.152L122.937 8.02762H120.716L114.5 25H116.721ZM119.067 18.3702L121.76 10.7624H121.893L124.586 18.3702H119.067ZM136.722 25C141.893 25 144.81 21.7845 144.81 16.4807C144.81 11.2099 141.893 8.02762 136.937 8.02762H131.451V25H136.722ZM133.556 23.1271V9.90055H136.805C140.749 9.90055 142.755 12.3867 142.755 16.4807C142.755 20.6077 140.749 23.1271 136.589 23.1271H133.556ZM153.928 25H156.033V17.4254H163.375V15.5691H156.033V9.90055H164.138V8.02762H153.928V25ZM181.641 16.5138C181.641 11.1436 178.475 7.79558 174.132 7.79558C169.773 7.79558 166.624 11.1436 166.624 16.5138C166.624 21.884 169.773 25.232 174.132 25.232C178.475 25.232 181.641 21.884 181.641 16.5138ZM168.679 16.5138C168.679 12.1381 171.066 9.76796 174.132 9.76796C177.199 9.76796 179.585 12.1381 179.585 16.5138C179.585 20.8895 177.199 23.2597 174.132 23.2597C171.066 23.2597 168.679 20.8895 168.679 16.5138ZM198.2 8.02762H196.128V21.2707H195.962L186.763 8.02762H184.724V25H186.829V11.7901H186.995L196.178 25H198.2V8.02762ZM201.023 9.90055H206.36V25H208.481V9.90055H213.802V8.02762H201.023V9.90055Z" fill="black"/>
<rect x="1" y="1" width="225" height="31" rx="15.5" stroke="black" stroke-width="2"/>
</svg>
