<svg width="275" height="74" viewBox="0 0 275 74" fill="none" xmlns="http://www.w3.org/2000/svg">
<rect x="1" y="22" width="163" height="51" rx="19" fill="white"/>
<path d="M32.0859 47.9141H12.5859V50.2578H32.0859V47.9141ZM14.7891 54.0312H26.6719V58.1562H29.6953V51.6641H14.7891V54.0312ZM15.0234 46.5781H30V44.3047H18.0234V43.0156H29.3203V40.8125H18.0234V39.6172H29.8125V37.2969H15.0234V46.5781ZM51.2344 36.8516H48.2344V49.5078H51.2344V36.8516ZM33.4688 47L35.0156 49.3672C37.5469 48.5469 39.2812 46.8359 40.2422 44.7148C41.2031 46.6016 42.8789 48.1016 45.2578 48.8281L46.7812 46.4844C43.4062 45.4531 41.8008 43.0859 41.6953 40.6719H45.9844V38.2578H34.2656V40.6719H38.6484C38.5312 43.2969 36.9141 45.8867 33.4688 47ZM36.6328 54.0547C36.6211 56.6914 39.4336 58.1914 43.9688 58.1797C48.4805 58.1914 51.2812 56.6914 51.3047 54.0547C51.2812 51.4297 48.4805 49.8945 43.9688 49.9062C39.4336 49.8945 36.6211 51.4297 36.6328 54.0547ZM39.6328 54.0547C39.6328 52.8594 41.1211 52.2266 43.9688 52.2266C46.793 52.2266 48.3398 52.8594 48.3516 54.0547C48.3398 55.2734 46.793 55.8945 43.9688 55.8828C41.1211 55.8945 39.6328 55.2734 39.6328 54.0547ZM61.3828 56H63.4922V48.4297H70.8281V46.5781H63.4922V40.9062H71.6016V39.0312H61.3828V56ZM78.8906 56.2578C81.5156 56.2695 83.4023 54.957 84 53.0234H81.8438C81.375 53.8086 80.4141 54.4766 78.8906 54.4766C76.6289 54.4766 75.0586 53 74.9531 50.3047H84.1875V49.4609C84.1992 44.75 81.375 43.1094 78.7031 43.1094C75.2461 43.1094 72.9375 45.8281 72.9375 49.7422C72.9375 53.6445 75.2109 56.2695 78.8906 56.2578ZM74.9648 48.5938C75.1055 46.625 76.5 44.8906 78.7031 44.8906C80.8008 44.8906 82.1367 46.4727 82.1484 48.5938H74.9648ZM86.2031 52.3906C86.2031 54.875 88.125 56.293 90.5391 56.3047C92.7539 56.293 93.9141 55.1211 94.3359 54.2656H94.4297V56H96.4219V47.6094C96.4336 43.6016 93.3047 43.1094 91.6406 43.1094C88.8281 43.1094 86.8359 44.5273 86.5781 46.5781H88.6875C88.9688 45.6055 89.9414 44.8672 91.5469 44.8672C93.4688 44.8672 94.4297 45.8047 94.4297 47.4219V48.4531C93.8555 48.4648 91.8047 48.582 90.9844 48.6406C88.7812 48.8047 86.2031 49.4727 86.2031 52.3906ZM88.2188 52.4844C88.2305 51.0898 89.3906 50.4453 91.2188 50.3281C91.8281 50.293 93.832 50.1406 94.4297 50.1055V51.3828C94.4297 52.9883 93.1641 54.5117 90.8906 54.5C89.3438 54.5117 88.2305 53.832 88.2188 52.4844ZM105.211 43.2734H102.539V40.2266H100.5V43.2734H98.5781V44.9609H100.5V52.8594C100.512 55.1094 102.293 56.1641 103.992 56.1641C104.59 56.1641 105.082 56.1172 105.398 56.0703V54.1953C105.105 54.207 104.566 54.2422 104.203 54.2422C103.348 54.2422 102.527 53.9727 102.539 52.3438V44.9609H105.211V43.2734ZM115.852 50.7734C115.84 53.1523 114.035 54.2305 112.594 54.2188C110.965 54.2305 109.828 53.0469 109.828 51.2188V43.2734H107.812V51.3594C107.801 54.5938 109.523 56.1641 111.938 56.1641C113.848 56.1641 115.113 55.1328 115.711 53.8438H115.852V56H117.844V43.2734H115.852V50.7734ZM121.078 56H123.094V47.9844C123.094 46.2734 124.453 45.0078 126.281 45.0078C126.809 45.0078 127.348 45.1133 127.5 45.1484V43.1094C127.266 43.0859 126.75 43.0742 126.445 43.0625C124.945 43.0742 123.621 43.9297 123.164 45.2188H123.023V43.2734H121.078V56ZM134.391 56.2578C137.016 56.2695 138.902 54.957 139.5 53.0234H137.344C136.875 53.8086 135.914 54.4766 134.391 54.4766C132.129 54.4766 130.559 53 130.453 50.3047H139.688V49.4609C139.699 44.75 136.875 43.1094 134.203 43.1094C130.746 43.1094 128.438 45.8281 128.438 49.7422C128.438 53.6445 130.711 56.2695 134.391 56.2578ZM130.465 48.5938C130.605 46.625 132 44.8906 134.203 44.8906C136.301 44.8906 137.637 46.4727 137.648 48.5938H130.465ZM149.391 46.5781H151.359C151.102 44.5156 149.449 43.1094 146.812 43.1094C144.012 43.1094 142.102 44.6797 142.102 46.8594C142.102 48.5586 143.285 49.7656 145.5 50.2812L147.422 50.7266C148.863 51.0664 149.508 51.6523 149.508 52.5547C149.508 53.75 148.371 54.5117 146.555 54.5C144.949 54.5117 144.047 53.9141 143.812 52.6719H141.703C142.043 54.9922 143.742 56.2695 146.602 56.2578C149.789 56.2695 151.582 54.6406 151.594 52.4375C151.582 50.668 150.469 49.5312 148.195 48.9922L146.297 48.5234C144.809 48.1602 144.129 47.5859 144.117 46.7422C144.129 45.6758 145.242 44.832 146.812 44.8203C148.301 44.832 149.109 45.5234 149.391 46.5781Z" fill="black"/>
<rect x="1" y="22" width="163" height="51" rx="19" stroke="black" stroke-width="2"/>
<line x1="32" y1="4.37114e-08" x2="32" y2="20" stroke="black" stroke-width="2"/>
<line x1="130" y1="4.37114e-08" x2="130" y2="20" stroke="black" stroke-width="2"/>
<line x1="36" y1="4.37114e-08" x2="36" y2="20" stroke="black" stroke-width="2"/>
<line x1="134" y1="4.37114e-08" x2="134" y2="20" stroke="black" stroke-width="2"/>
<circle cx="193.5" cy="47.5" r="25.5" fill="white" stroke="black" stroke-width="2"/>
<line x1="192" y1="4.37114e-08" x2="192" y2="20" stroke="black" stroke-width="2"/>
<line x1="196" y1="4.37114e-08" x2="196" y2="20" stroke="black" stroke-width="2"/>
<path d="M192.535 62.208C192.3 62.1227 192.129 61.952 192.023 61.696C191.916 61.4613 191.916 61.2267 192.023 60.992C192.577 59.6693 193.121 58.336 193.655 56.992C194.188 55.648 194.721 54.304 195.255 52.96C195.255 52.9387 195.255 52.928 195.255 52.928C194.721 52.1173 194.177 51.3067 193.623 50.496C193.26 49.9413 192.983 49.536 192.791 49.28C192.62 49.024 192.353 48.6293 191.991 48.096L188.535 54.304C188.449 54.4747 188.321 54.6027 188.151 54.688C187.98 54.7733 187.799 54.816 187.607 54.816C187.436 54.816 187.265 54.7733 187.095 54.688C184.385 53.152 181.676 51.6267 178.967 50.112C178.732 49.984 178.572 49.792 178.487 49.536C178.423 49.28 178.444 49.0347 178.551 48.8C178.572 48.7787 178.583 48.768 178.583 48.768C178.583 48.7467 178.583 48.736 178.583 48.736C178.711 48.5013 178.903 48.3413 179.159 48.256C179.436 48.1707 179.692 48.192 179.927 48.32C180.695 48.7467 181.26 49.0667 181.623 49.28C182.007 49.472 182.572 49.7707 183.319 50.176C184.599 50.8587 185.868 51.5413 187.127 52.224C187.148 52.224 187.159 52.224 187.159 52.224C187.18 52.224 187.201 52.224 187.223 52.224C187.244 52.224 187.255 52.2133 187.255 52.192C188.172 50.4213 188.844 49.1093 189.271 48.256C189.719 47.4027 190.391 46.112 191.287 44.384C191.564 43.8507 192.417 42.1973 193.847 39.424H188.567C188.545 39.424 188.535 39.424 188.535 39.424C188.535 39.424 188.524 39.424 188.503 39.424L185.271 43.744C185.1 43.9573 184.887 44.0853 184.631 44.128C184.375 44.1493 184.14 44.0853 183.927 43.936L183.863 43.872C183.649 43.7013 183.521 43.488 183.479 43.232C183.457 42.976 183.521 42.7413 183.671 42.528C184.865 40.9707 186.049 39.4133 187.223 37.856C187.308 37.7067 187.425 37.6 187.575 37.536C187.724 37.4507 187.884 37.408 188.055 37.408H190.775C192.609 37.408 194.433 37.408 196.247 37.408C196.396 37.408 196.535 37.44 196.663 37.504C196.812 37.568 196.929 37.6533 197.015 37.76C198.295 39.1253 199.575 40.4907 200.855 41.856L201.527 42.592C201.548 42.592 201.559 42.592 201.559 42.592C203.244 42.592 204.929 42.592 206.615 42.592C206.871 42.592 207.084 42.688 207.255 42.88C207.447 43.0507 207.543 43.264 207.543 43.52V43.616C207.543 43.872 207.447 44.096 207.255 44.288C207.084 44.4587 206.871 44.544 206.615 44.544C205.676 44.544 204.983 44.544 204.535 44.544C204.087 44.544 203.404 44.544 202.487 44.544C202.039 44.544 201.58 44.544 201.111 44.544C200.961 44.544 200.823 44.5227 200.695 44.48C200.567 44.416 200.449 44.3307 200.343 44.224L197.367 41.024L194.263 47.2L197.431 52.16C197.516 52.3093 197.559 52.4693 197.559 52.64C197.58 52.8107 197.559 52.9707 197.495 53.12C196.833 54.72 196.161 56.32 195.479 57.92C195.137 58.7733 194.604 60.0533 193.879 61.76C193.793 61.9947 193.612 62.1547 193.335 62.24C193.079 62.3467 192.833 62.3467 192.599 62.24L192.535 62.208ZM197.655 37.28C197.548 37.28 197.463 37.2693 197.399 37.248C197.292 37.248 197.185 37.216 197.079 37.152C197.015 37.1093 196.951 37.0773 196.887 37.056C196.801 36.992 196.716 36.928 196.631 36.864C196.567 36.7573 196.492 36.6613 196.407 36.576C196.385 36.512 196.353 36.448 196.311 36.384C196.247 36.2773 196.215 36.1813 196.215 36.096C196.193 36.032 196.183 35.936 196.183 35.808C196.183 35.7013 196.193 35.616 196.215 35.552C196.215 35.424 196.247 35.3173 196.311 35.232C196.353 35.1467 196.385 35.072 196.407 35.008C196.428 34.9653 196.46 34.9227 196.503 34.88C196.545 34.8373 196.588 34.7947 196.631 34.752C196.716 34.6667 196.801 34.592 196.887 34.528C196.951 34.4853 197.015 34.4533 197.079 34.432C197.185 34.368 197.292 34.336 197.399 34.336C197.463 34.3147 197.548 34.304 197.655 34.304C197.783 34.304 197.868 34.3147 197.911 34.336C198.06 34.336 198.177 34.368 198.263 34.432L198.423 34.528C198.487 34.5707 198.529 34.6133 198.551 34.656C198.593 34.6773 198.647 34.7093 198.711 34.752C198.753 34.816 198.785 34.8587 198.807 34.88C198.849 34.9013 198.892 34.944 198.935 35.008C198.956 35.0507 198.967 35.0933 198.967 35.136C198.988 35.1573 199.009 35.1893 199.031 35.232C199.095 35.3173 199.127 35.424 199.127 35.552C199.148 35.616 199.159 35.7013 199.159 35.808C199.159 35.936 199.148 36.032 199.127 36.096C199.127 36.1813 199.095 36.2773 199.031 36.384C199.009 36.448 198.977 36.512 198.935 36.576C198.871 36.6613 198.796 36.7573 198.711 36.864C198.647 36.9067 198.593 36.9493 198.551 36.992C198.529 37.0133 198.487 37.0453 198.423 37.088L198.263 37.152C198.177 37.216 198.06 37.248 197.911 37.248C197.868 37.2693 197.783 37.28 197.655 37.28Z" fill="black"/>
<circle cx="248.5" cy="47.5" r="25.5" fill="white" stroke="black" stroke-width="2"/>
<line x1="247" y1="4.37114e-08" x2="247" y2="20" stroke="black" stroke-width="2"/>
<line x1="251" y1="4.37114e-08" x2="251" y2="20" stroke="black" stroke-width="2"/>
<path d="M243.43 62.368C243.195 62.304 243.003 62.1653 242.854 61.952C242.726 61.7387 242.683 61.5147 242.726 61.28C243.024 59.872 243.312 58.4533 243.59 57.024C243.867 55.5947 244.144 54.176 244.422 52.768C244.443 52.6827 244.464 52.5973 244.486 52.512C244.528 52.4267 244.582 52.3413 244.646 52.256L248.838 46.528L247.398 38.976L244.134 42.464C244.07 42.5493 243.995 42.624 243.91 42.688C243.824 42.7307 243.728 42.7733 243.622 42.816C242.747 43.136 241.872 43.456 240.998 43.776C240.123 44.096 239.248 44.416 238.374 44.736C238.139 44.8213 237.904 44.8107 237.67 44.704C237.435 44.576 237.275 44.3947 237.19 44.16L237.158 44.096C237.072 43.8613 237.083 43.6267 237.19 43.392C237.296 43.1573 237.467 42.9973 237.702 42.912L242.694 41.088C242.715 41.0667 242.726 41.056 242.726 41.056C243.536 40.1813 244.347 39.3173 245.158 38.464L247.302 36.16C247.387 36.0747 247.472 36 247.558 35.936C247.643 35.8507 247.739 35.776 247.846 35.712L247.878 35.68C248.134 35.552 248.39 35.4667 248.646 35.424C248.923 35.36 249.19 35.3387 249.446 35.36H249.478C249.606 35.3813 249.723 35.4133 249.83 35.456C249.936 35.4773 250.054 35.5093 250.182 35.552C251.718 36.192 253.243 36.8427 254.758 37.504C255.675 37.888 256.582 38.272 257.478 38.656C257.648 38.7413 257.798 38.8587 257.926 39.008C258.054 39.136 258.15 39.2853 258.214 39.456L258.758 41.28C259.142 42.496 259.515 43.7227 259.878 44.96C259.963 45.216 259.942 45.4613 259.814 45.696C259.686 45.9307 259.504 46.0907 259.27 46.176L259.206 46.208C258.95 46.2933 258.704 46.272 258.47 46.144C258.235 45.9947 258.075 45.792 257.99 45.536C257.478 43.808 256.955 42.0907 256.422 40.384C256.422 40.384 256.411 40.384 256.39 40.384C256.39 40.3627 256.39 40.352 256.39 40.352L251.27 38.176L254.342 53.632C254.342 53.632 254.342 53.6427 254.342 53.664L257.702 60.544C257.808 60.7787 257.819 61.0133 257.734 61.248C257.67 61.504 257.52 61.696 257.286 61.824C257.286 61.824 257.275 61.824 257.254 61.824C257.254 61.8453 257.254 61.856 257.254 61.856C257.254 61.856 257.243 61.856 257.222 61.856C256.987 61.984 256.731 62.0053 256.454 61.92C256.198 61.856 256.016 61.696 255.91 61.44C255.27 60.1813 254.63 58.912 253.99 57.632C253.456 56.5867 252.923 55.5413 252.39 54.496C252.368 54.4533 252.347 54.4107 252.326 54.368C252.304 54.304 252.294 54.2507 252.294 54.208L250.854 47.584L248.998 50.016C248.123 51.1467 247.238 52.288 246.342 53.44C246.342 53.44 246.331 53.4507 246.31 53.472C246.054 54.816 245.787 56.1707 245.51 57.536C245.318 58.4533 245.179 59.136 245.094 59.584C245.008 60.032 244.87 60.704 244.678 61.6C244.614 61.8773 244.464 62.0907 244.23 62.24C243.995 62.3893 243.739 62.432 243.462 62.368H243.43ZM247.846 34.816C247.654 34.816 247.472 34.784 247.302 34.72C247.088 34.6133 246.928 34.5067 246.822 34.4C246.694 34.272 246.598 34.1227 246.534 33.952C246.448 33.7813 246.406 33.5893 246.406 33.376C246.406 33.1627 246.448 32.9813 246.534 32.832C246.598 32.64 246.694 32.48 246.822 32.352C246.95 32.224 247.11 32.128 247.302 32.064C247.451 31.9787 247.632 31.936 247.846 31.936C248.059 31.936 248.251 31.9787 248.422 32.064C248.592 32.128 248.742 32.224 248.87 32.352C248.976 32.4587 249.083 32.6187 249.19 32.832C249.254 32.9813 249.286 33.1627 249.286 33.376C249.286 33.568 249.254 33.76 249.19 33.952C249.062 34.1653 248.955 34.3147 248.87 34.4C248.784 34.4853 248.635 34.592 248.422 34.72C248.23 34.784 248.038 34.816 247.846 34.816Z" fill="black"/>
</svg>
