<svg width="1069" height="228" viewBox="0 0 1069 228" fill="none" xmlns="http://www.w3.org/2000/svg">
<path d="M554.359 10.9298C549.777 10.9298 546.344 13.2501 546.344 16.7657C546.344 19.9767 549.051 22.1329 552.859 22.5665V26.2111H544.633V28.672H564.156V26.2111H555.836V22.5665C559.668 22.1447 562.387 19.9884 562.398 16.7657C562.387 13.2501 558.941 10.9298 554.359 10.9298ZM549.297 16.7657C549.297 14.6329 551.371 13.3087 554.359 13.3204C557.359 13.3087 559.434 14.6329 559.445 16.7657C559.434 19.0157 557.359 20.2697 554.359 20.2814C551.371 20.2697 549.297 19.0157 549.297 16.7657ZM584.898 26.1876H565.375V28.672H584.898V26.1876ZM566.898 14.0939H569.852V20.5626H566.992V22.9064H583.164V20.5626H580.258V14.0939H583.258V11.7032H566.898V14.0939ZM572.852 20.5626V14.0939H577.305V20.5626H572.852ZM602.945 9.82825H599.992V31.2032H602.945V20.3517H606.086V17.8907H602.945V9.82825ZM586.984 14.0236H593.875V17.5157H587.008V26.2345H588.812C592.562 26.2345 595.492 26.1056 598.75 25.5079L598.492 23.1173C595.656 23.5978 593.09 23.7384 589.984 23.7501V19.8829H596.852V11.6095H586.984V14.0236ZM624.719 9.85168H621.719V25.1798H624.719V9.85168ZM607.188 16.5782C607.188 19.754 609.742 21.9923 613.023 21.9923C616.293 21.9923 618.848 19.754 618.859 16.5782C618.848 13.4493 616.293 11.1993 613.023 11.2111C609.742 11.1993 607.188 13.4493 607.188 16.5782ZM610.117 16.5782C610.094 14.8439 611.348 13.8009 613.023 13.8126C614.641 13.8009 615.895 14.8439 615.906 16.5782C615.895 18.3595 614.641 19.3907 613.023 19.3907C611.348 19.3907 610.094 18.3595 610.117 16.5782ZM610.422 30.7814H625.281V28.3907H613.445V23.6329H610.422V30.7814ZM642.742 23.1173C638.113 23.1173 635.137 24.5939 635.148 27.1486C635.137 29.6681 638.113 31.1681 642.742 31.1564C647.406 31.1681 650.336 29.6681 650.359 27.1486C650.336 24.5939 647.406 23.1173 642.742 23.1173ZM633.18 21.7579H652.539V19.3439H643.398V15.6173H640.445V19.3439H633.18V21.7579ZM635.359 13.1329H647.266C647.242 14.5861 647.184 16.0275 646.703 17.9611L649.633 18.2423C650.254 16.0509 650.254 14.2228 650.242 12.5236V10.7892H635.359V13.1329ZM638.125 27.1486C638.113 25.965 639.801 25.3322 642.742 25.3439C645.684 25.3322 647.383 25.965 647.383 27.1486C647.383 28.297 645.684 28.8829 642.742 28.8829C639.801 28.8829 638.113 28.297 638.125 27.1486ZM670.797 9.82825H667.773V25.1095H670.797V18.2657H673.68V15.8048H670.797V9.82825ZM653.734 20.6564L654.977 23.0236C661.375 21.2189 664.973 17.1876 664.984 11.422H654.672V13.8595H661.691C661.223 16.8595 658.516 19.3322 653.734 20.6564ZM656.922 30.7814H671.523V28.3907H659.945V23.5392H656.922V30.7814ZM693.109 9.82825H690.25V31.1564H693.109V9.82825ZM674.805 19.0626C674.805 23.8556 676.621 26.8204 679.445 26.8204C682.07 26.8204 683.863 24.2775 684.121 20.0939H685.844V30.172H688.656V10.1329H685.844V17.7267H684.098C683.77 13.7423 682.012 11.34 679.445 11.3517C676.621 11.34 674.805 14.2931 674.805 19.0626ZM677.57 19.0626C677.547 15.7931 678.25 14.1642 679.445 14.1642C680.676 14.1642 681.402 15.7931 681.391 19.0626C681.402 22.3439 680.676 23.9611 679.445 23.9376C678.25 23.9611 677.547 22.3439 677.57 19.0626ZM709.445 21.3595H706.469V24.7111C704.477 24.7697 702.59 24.7814 700.984 24.7814L701.336 27.1954C705.062 27.1837 710.125 27.1368 714.859 26.2345L714.625 24.0548C712.961 24.3009 711.203 24.465 709.445 24.5704V21.3595ZM701.406 19.7657L702.812 22.0157C705.332 21.3712 707.031 19.9298 707.957 18.0665C708.93 19.8361 710.652 21.2189 713.148 21.8517L714.508 19.5314C711.285 18.7462 709.691 16.8126 709.492 14.7501H713.852V12.3361H709.445V10.0157H706.469V12.3361H702.086V14.7501H706.398C706.199 16.9181 704.629 18.9103 701.406 19.7657ZM715.844 31.2032H718.82V9.82825H715.844V31.2032ZM733.938 11.0236H722.359V13.3907H726.648C726.625 16.0392 725.031 18.8634 721.516 19.9767L723.039 22.3439C725.559 21.5353 727.258 19.8243 728.207 17.7032C729.133 19.6134 730.762 21.1603 733.117 21.8986L734.594 19.6017C731.23 18.4884 729.707 15.8986 729.695 13.3907H733.938V11.0236ZM724.961 25.8595H736.633V31.1564H739.609V23.4689H724.961V25.8595ZM733.328 17.3986H736.633V22.5314H739.609V9.82825H736.633V14.9611H733.328V17.3986ZM759.438 9.82825H756.414V31.1564H759.438V20.9845H762.227V18.5001H759.438V9.82825ZM742.117 25.1329L742.516 27.5704C746.113 27.5822 751.012 27.547 755.547 26.7032L755.359 24.5236C753.777 24.7462 752.078 24.8868 750.391 24.9806V23.2579C752.641 22.8243 754.141 21.3712 754.164 19.3907C754.141 17.0118 751.961 15.3829 748.914 15.3829C745.809 15.3829 743.652 17.0118 743.664 19.3907C743.652 21.3712 745.129 22.8126 747.391 23.2579V25.0861C745.492 25.1329 743.676 25.1329 742.117 25.1329ZM742.539 14.5392H755.195V12.1954H750.391V9.94543H747.391V12.1954H742.539V14.5392ZM746.5 19.3907C746.488 18.2892 747.449 17.6681 748.914 17.6564C750.332 17.6681 751.281 18.2892 751.281 19.3907C751.281 20.5157 750.332 21.1251 748.914 21.1251C747.449 21.1251 746.488 20.5157 746.5 19.3907ZM775.562 16.3673H768.016V13.5079H775.375V11.1173H765.016V18.7579H768.742V21.0079C766.809 21.0548 764.922 21.0782 763.211 21.0782L763.609 23.4454C767.559 23.4454 772.375 23.3282 776.898 22.6954L776.688 20.5626C775.105 20.7267 773.43 20.8322 771.742 20.9142V18.7579H775.562V16.3673ZM766.516 30.7814H781.609V28.3907H769.539V24.6642H766.516V30.7814ZM778 25.8829H781.047V9.80481H778V25.8829ZM790.094 29.0001H802.234V26.0939H794.992V26.0001L797.57 23.4923C801.062 20.3282 802 18.7462 802 16.8126C802 13.8712 799.586 11.797 795.953 11.797C792.379 11.797 789.918 13.9181 789.93 17.2345H793.281C793.27 15.6056 794.312 14.5978 795.906 14.6095C797.465 14.5978 798.602 15.5353 798.602 17.047C798.602 18.3947 797.746 19.3322 796.164 20.8439L790.07 26.4454L790.094 29.0001ZM805.398 29.0001H809.055L816.203 14.9611V12.0314H804.227V14.9142H812.547V15.0314L805.398 29.0001ZM836.242 9.82825H833.359V17.9142H831.414V10.3907H828.625V30.2189H831.414V20.3048H833.359V31.1564H836.242V9.82825ZM817.586 24.7111L819.32 26.7736C825.332 23.2814 827.113 18.4064 827.125 12.4532H818.664V14.8439H824.207C823.809 19.0275 821.934 22.1564 817.586 24.7111ZM845.5 11.2579C842.137 11.2462 839.559 13.4259 839.57 16.4845C839.559 19.5548 842.137 21.7228 845.5 21.7345C848.887 21.7228 851.395 19.5548 851.406 16.4845C851.395 13.4259 848.887 11.2462 845.5 11.2579ZM838.68 24.4064L839.031 26.8439C842.758 26.8439 847.82 26.8087 852.555 25.8829L852.32 23.7267C847.762 24.3712 842.488 24.4181 838.68 24.4064ZM842.547 16.4845C842.535 14.8204 843.812 13.8361 845.5 13.8361C847.199 13.8361 848.488 14.8204 848.5 16.4845C848.488 18.172 847.199 19.1447 845.5 19.1329C843.812 19.1447 842.535 18.172 842.547 16.4845ZM853.539 31.2032H856.516V9.82825H853.539V31.2032ZM882.062 10.6954H867.25V13.0626H879.074C879.051 14.2462 878.98 15.6407 878.641 17.3751H864.859V19.7189H884.383V17.3751H881.652C882.074 15.2306 882.074 13.5197 882.062 12.1486V10.6954ZM867.062 23.5392H879.016V24.9454H867.086V30.9923H882.555V28.6954H870.062V27.1954H881.969V21.2189H867.062V23.5392ZM903.484 9.82825H900.508V31.2032H903.484V9.82825ZM886.727 14.0236H893.828V17.4689H886.75V26.2111H888.672C892.562 26.2111 895.738 26.0822 899.242 25.4611L898.984 23.047C895.855 23.5626 893.102 23.7267 889.844 23.7501V19.8361H896.875V11.6095H886.727V14.0236ZM925.867 26.1876H906.344V28.672H925.867V26.1876ZM907.867 14.0939H910.82V20.5626H907.961V22.9064H924.133V20.5626H921.227V14.0939H924.227V11.7032H907.867V14.0939ZM913.82 20.5626V14.0939H918.273V20.5626H913.82ZM551.453 111.234C554.84 111.234 557.371 109.172 557.359 106.383C557.371 104.227 556.035 102.645 553.82 102.305V102.188C555.602 101.684 556.727 100.277 556.703 98.3439C556.727 95.9181 554.758 93.797 551.523 93.797C548.512 93.797 546.004 95.6017 545.898 98.297H547.938C548.031 96.6329 549.684 95.6368 551.5 95.6251C553.434 95.6368 554.676 96.7618 554.664 98.4611C554.676 100.207 553.234 101.367 551.172 101.367H549.789V103.219H551.172C553.809 103.231 555.285 104.531 555.297 106.383C555.285 108.152 553.668 109.359 551.43 109.359C549.402 109.359 547.797 108.352 547.68 106.734H545.547C545.652 109.43 548.078 111.234 551.453 111.234ZM563.641 103.57H565.281L565.141 99.9376L568.211 101.906L569.008 100.477L565.773 98.8126L569.008 97.1251L568.211 95.6954L565.141 97.6642L565.281 94.0314H563.641L563.781 97.6642L560.711 95.6954L559.914 97.1251L563.148 98.8126L559.914 100.477L560.711 101.906L563.781 99.9376L563.641 103.57ZM577.562 111.234C580.949 111.234 583.48 109.172 583.469 106.383C583.48 104.227 582.145 102.645 579.93 102.305V102.188C581.711 101.684 582.836 100.277 582.812 98.3439C582.836 95.9181 580.867 93.797 577.633 93.797C574.621 93.797 572.113 95.6017 572.008 98.297H574.047C574.141 96.6329 575.793 95.6368 577.609 95.6251C579.543 95.6368 580.785 96.7618 580.773 98.4611C580.785 100.207 579.344 101.367 577.281 101.367H575.898V103.219H577.281C579.918 103.231 581.395 104.531 581.406 106.383C581.395 108.152 579.777 109.359 577.539 109.359C575.512 109.359 573.906 108.352 573.789 106.734H571.656C571.762 109.43 574.188 111.234 577.562 111.234ZM589.75 103.57H591.391L591.25 99.9376L594.32 101.906L595.117 100.477L591.883 98.8126L595.117 97.1251L594.32 95.6954L591.25 97.6642L591.391 94.0314H589.75L589.891 97.6642L586.82 95.6954L586.023 97.1251L589.258 98.8126L586.023 100.477L586.82 101.906L589.891 99.9376L589.75 103.57ZM603.672 111.234C607.059 111.234 609.59 109.172 609.578 106.383C609.59 104.227 608.254 102.645 606.039 102.305V102.188C607.82 101.684 608.945 100.277 608.922 98.3439C608.945 95.9181 606.977 93.797 603.742 93.797C600.73 93.797 598.223 95.6017 598.117 98.297H600.156C600.25 96.6329 601.902 95.6368 603.719 95.6251C605.652 95.6368 606.895 96.7618 606.883 98.4611C606.895 100.207 605.453 101.367 603.391 101.367H602.008V103.219H603.391C606.027 103.231 607.504 104.531 607.516 106.383C607.504 108.152 605.887 109.359 603.648 109.359C601.621 109.359 600.016 108.352 599.898 106.734H597.766C597.871 109.43 600.297 111.234 603.672 111.234ZM630.859 103.055H611.875V104.555H630.859V103.055ZM613.984 96.9376C613.984 99.5275 616.844 101.086 621.367 101.086C625.844 101.086 628.715 99.5275 628.727 96.9376C628.715 94.3243 625.844 92.7892 621.367 92.8126C616.844 92.7892 613.984 94.3243 613.984 96.9376ZM614.336 112.453H628.75V110.906H616.188V106.383H614.336V112.453ZM615.883 96.9376C615.871 95.3087 618.004 94.2892 621.367 94.2892C624.707 94.2892 626.84 95.3087 626.852 96.9376C626.84 98.59 624.707 99.5861 621.367 99.5861C618.004 99.5861 615.871 98.59 615.883 96.9376ZM648.133 93.422C643.715 93.4454 640.516 95.6017 640.516 98.8829C640.516 101.977 643.281 104.027 647.219 104.309V108.68H638.641V110.227H657.719V108.68H649.023V104.309C652.984 104.039 655.75 101.988 655.75 98.8829C655.75 95.6017 652.562 93.4454 648.133 93.422ZM642.297 98.8829C642.285 96.5275 644.758 94.9337 648.133 94.9454C651.508 94.9337 653.969 96.5275 653.969 98.8829C653.969 101.285 651.508 102.844 648.133 102.867C644.758 102.844 642.285 101.285 642.297 98.8829ZM678.461 108.656H659.383V110.227H678.461V108.656ZM661.07 95.6954H664.375V102.984H661.117V104.484H676.586V102.984H673.328V95.6954H676.633V94.172H661.07V95.6954ZM666.203 102.984V95.6954H671.523V102.984H666.203ZM696.25 92.0626H694.422V112.945H696.25V101.906H699.742V100.359H696.25V92.0626ZM680.945 95.5314H688.586V99.9376H680.992V107.906H682.656C686.676 107.883 689.453 107.731 692.734 107.133L692.547 105.609C689.395 106.195 686.688 106.348 682.82 106.336V101.461H690.414V94.0079H680.945V95.5314ZM718.07 92.0861H716.242V107.32H718.07V92.0861ZM701.359 98.6486C701.348 101.684 703.703 103.793 706.82 103.781C709.938 103.793 712.27 101.684 712.281 98.6486C712.27 95.6486 709.938 93.5509 706.82 93.5392C703.703 93.5509 701.348 95.6486 701.359 98.6486ZM703.164 98.6486C703.141 96.6095 704.711 95.1564 706.82 95.1564C708.895 95.1564 710.477 96.6095 710.477 98.6486C710.477 100.723 708.895 102.164 706.82 102.164C704.711 102.164 703.141 100.723 703.164 98.6486ZM704.617 112.453H718.727V110.906H706.445V105.774H704.617V112.453ZM737.055 105.234C732.59 105.234 729.754 106.641 729.766 109.055C729.754 111.445 732.59 112.852 737.055 112.852C741.52 112.852 744.355 111.445 744.367 109.055C744.355 106.641 741.52 105.234 737.055 105.234ZM727.656 103.289H746.617V101.789H737.312V97.7579H735.508V101.789H727.656V103.289ZM729.906 94.6407H742.375V94.8986C742.375 96.5275 742.375 98.0743 741.812 100.219L743.617 100.43C744.191 98.2736 744.191 96.5861 744.203 94.8986V93.1407H729.906V94.6407ZM731.594 109.055C731.582 107.567 733.738 106.652 737.055 106.641C740.383 106.652 742.516 107.567 742.539 109.055C742.516 110.508 740.383 111.399 737.055 111.399C733.738 111.399 731.582 110.508 731.594 109.055ZM764.664 92.0626H762.812V107.32H764.664V99.9611H767.805V98.4142H764.664V92.0626ZM748.398 103.43L749.195 104.906C755.207 103.031 759.039 99.047 759.039 93.6798H749.266V95.2267H757.035C756.648 98.9064 753.402 101.871 748.398 103.43ZM751.609 112.453H765.625V110.906H753.438V105.774H751.609V112.453ZM786.977 92.0626H785.195V112.899H786.977V92.0626ZM769.375 101.063C769.387 105.492 771.145 108.317 773.852 108.305C776.418 108.317 778.164 105.774 778.34 101.719H781.023V111.844H782.781V92.5079H781.023V100.195H778.328C778.094 96.2697 776.383 93.8322 773.852 93.8204C771.145 93.8322 769.387 96.6329 769.375 101.063ZM771.109 101.063C771.086 97.6759 772.164 95.5548 773.852 95.5548C775.551 95.5548 776.629 97.6759 776.617 101.063C776.629 104.438 775.551 106.57 773.852 106.547C772.164 106.57 771.086 104.438 771.109 101.063ZM797.195 97.6642V93.8673H795.32V97.6642C795.309 101.508 792.895 105.516 789.836 107.016L791.031 108.492C793.398 107.238 795.355 104.567 796.281 101.449C797.207 104.414 799.164 106.899 801.531 108.117L802.633 106.617C799.609 105.234 797.184 101.438 797.195 97.6642ZM800.359 100.688H805.305V112.945H807.133V92.0626H805.305V99.1876H800.359V100.688ZM823.609 97.6642V93.8673H821.805V97.6642C821.781 101.473 819.367 105.469 816.32 106.969L817.492 108.445C819.836 107.192 821.805 104.555 822.73 101.484C823.656 104.379 825.578 106.852 827.875 108.047L829 106.57C826.035 105.117 823.609 101.332 823.609 97.6642ZM830.922 112.899H832.75V102.117H836.242V100.524H832.75V92.0626H830.922V112.899ZM856.352 102.375H851.641V99.4337C853.281 98.7775 854.207 97.7228 854.219 96.3282C854.207 93.879 851.395 92.4728 846.859 92.4611C842.289 92.4728 839.477 93.879 839.477 96.3282C839.477 97.7345 840.414 98.7892 842.078 99.4337V102.375H837.367V103.899H856.352V102.375ZM839.664 109.172C839.652 111.551 842.336 112.852 846.859 112.852C851.324 112.852 854.008 111.551 854.031 109.172C854.008 106.793 851.324 105.481 846.859 105.492C842.336 105.481 839.652 106.793 839.664 109.172ZM841.375 96.3282C841.363 94.8282 843.449 93.9142 846.859 93.9142C850.234 93.9142 852.332 94.8282 852.344 96.3282C852.332 97.8517 850.234 98.7306 846.859 98.7423C843.449 98.7306 841.363 97.8517 841.375 96.3282ZM841.539 109.172C841.516 107.754 843.52 106.922 846.859 106.899C850.164 106.922 852.168 107.754 852.18 109.172C852.168 110.59 850.164 111.434 846.859 111.422C843.52 111.434 841.516 110.59 841.539 109.172ZM843.906 102.375V99.9376C844.785 100.09 845.77 100.172 846.859 100.172C847.949 100.172 848.934 100.09 849.812 99.9259V102.375H843.906ZM867.062 93.5626H865.234V103.828H875.031V93.5626H873.203V97.0548H867.062V93.5626ZM867.062 102.352V98.5079H873.203V102.352H867.062ZM867.742 112.453H881.828V110.906H869.594V105.914H867.742V112.453ZM879.508 107.461H881.336V92.0861H879.508V107.461ZM901.703 101.836H889.164V95.2736H901.492V93.7736H887.312V103.336H893.453V108.727H884.875V110.274H903.953V108.727H895.258V103.336H901.703V101.836ZM916.07 94.0079V92.8126H914.172V94.0079C914.172 96.9962 910.363 99.4806 906.602 100.008L907.352 101.508C910.598 100.969 913.797 99.1993 915.133 96.6212C916.469 99.1759 919.68 100.969 922.914 101.508L923.664 100.008C919.902 99.4806 916.082 96.9493 916.07 94.0079ZM905.617 105.352H914.172V112.899H915.977V105.352H924.602V103.805H905.617V105.352ZM942.484 92.0626H940.656V112.899H942.484V102.094H945.859V100.547H942.484V92.0626ZM926.5 107.484L927.531 108.938C934.316 105.586 937.082 100.207 937.094 94.3126H927.461V95.8595H935.23C934.809 100.793 931.879 104.813 926.5 107.484ZM970 97.4532H957.555V92.5314H955.727V98.9298H961.703V101.578H953.125V103.102H972.109V101.578H963.531V98.9298H970V97.4532ZM955.07 112.617H970.188V111.117H966.789V106.664H970.023V105.188H955.258V106.664H958.469V111.117H955.07V112.617ZM960.297 111.117V106.664H964.984V111.117H960.297ZM992.852 103.055H973.867V104.555H992.852V103.055ZM975.977 96.9376C975.977 99.5275 978.836 101.086 983.359 101.086C987.836 101.086 990.707 99.5275 990.719 96.9376C990.707 94.3243 987.836 92.7892 983.359 92.8126C978.836 92.7892 975.977 94.3243 975.977 96.9376ZM976.328 112.453H990.742V110.906H978.18V106.383H976.328V112.453ZM977.875 96.9376C977.863 95.3087 979.996 94.2892 983.359 94.2892C986.699 94.2892 988.832 95.3087 988.844 96.9376C988.832 98.59 986.699 99.5861 983.359 99.5861C979.996 99.5861 977.863 98.59 977.875 96.9376ZM545.594 152H556.609V150.125H548.523V149.984L552.414 145.977C555.414 142.883 556.293 141.406 556.305 139.508C556.293 136.871 554.113 134.797 551.031 134.797C547.961 134.797 545.641 136.813 545.664 139.813H547.656C547.668 137.914 548.934 136.637 550.961 136.625C552.871 136.637 554.324 137.762 554.336 139.508C554.324 141.078 553.363 142.227 551.359 144.359L545.57 150.453L545.594 152ZM560.219 152H562.422L570.18 137V135.031H559.023V136.906H568V137.024L560.219 152ZM589.961 133.063H588.156V141.477H585.273V133.625H583.516V152.867H585.273V143H588.156V153.899H589.961V133.063ZM572.195 148.133L573.273 149.422C579.262 146.082 581.125 141.078 581.148 135.781H572.992V137.305H579.344C579.027 141.617 577.035 145.426 572.195 148.133ZM599.734 134.586C596.441 134.598 594.098 136.59 594.109 139.484C594.098 142.391 596.441 144.371 599.734 144.383C603.004 144.371 605.324 142.391 605.336 139.484C605.324 136.59 603.004 134.598 599.734 134.586ZM593.031 147.781L593.289 149.352C597.039 149.352 602.16 149.328 606.93 148.438L606.789 147.078C602.184 147.758 596.875 147.793 593.031 147.781ZM595.914 139.484C595.902 137.551 597.508 136.203 599.734 136.203C601.938 136.203 603.543 137.551 603.531 139.484C603.543 141.43 601.938 142.766 599.734 142.766C597.508 142.766 595.902 141.43 595.914 139.484ZM608.172 153.945H610V133.063H608.172V153.945ZM631.891 134.774H620.617V136.297H622.703V142.824C621.766 142.836 620.863 142.836 620.031 142.836L620.266 144.406C623.875 144.406 628.785 144.348 633.062 143.703L632.922 142.32C631.914 142.438 630.859 142.52 629.781 142.59V136.297H631.891V134.774ZM622.867 148.25H635.055V153.899H636.883V146.727H622.867V148.25ZM624.484 142.801V136.297H628V142.684C626.816 142.742 625.633 142.777 624.484 142.801ZM635.055 145.719H636.883V133.063H635.055V145.719ZM657.297 143.914H644.758V140.774H656.617V139.274H644.758V136.297H657.062V134.774H642.883V145.414H649V149.774H640.422V151.297H659.5V149.774H650.828V145.414H657.297V143.914ZM677.594 135.289H663.227V136.813H675.789V137.375C675.789 139.93 675.789 143.047 674.945 147.313L676.82 147.5C677.594 142.965 677.594 140 677.594 137.375V135.289ZM661.164 150.828H680.148V149.305H661.164V150.828ZM699.602 133.086H697.844V138.383H694.914V133.484H693.203V145.227H694.914V139.906H697.844V145.508H699.602V133.086ZM682.82 135.945H688.961V138.688H682.867V144.57H684.227C687.25 144.57 689.465 144.488 692.172 143.984L691.961 142.484C689.5 142.977 687.391 143.106 684.648 143.117V140.117H690.719V134.445H682.82V135.945ZM685.844 153.617H699.602V146.492H685.844V153.617ZM687.648 152.117V147.992H697.797V152.117H687.648ZM712.141 134.422C707.793 134.434 704.523 136.707 704.523 140.141C704.523 143.609 707.793 145.883 712.141 145.859C716.488 145.883 719.758 143.609 719.758 140.141C719.758 136.707 716.488 134.434 712.141 134.422ZM702.648 151.133H721.727V149.586H702.648V151.133ZM706.281 140.141C706.258 137.645 708.777 135.91 712.141 135.922C715.48 135.91 717.977 137.645 717.977 140.141C717.977 142.672 715.48 144.359 712.141 144.359C708.777 144.359 706.258 142.672 706.281 140.141ZM742.469 149.774H733.773V145.836H740.547V144.313H727.609V140.914H740.055V134.609H725.734V136.133H738.25V139.414H725.781V145.836H731.969V149.774H723.391V151.32H742.469V149.774ZM766.633 134.422H752.547V135.945H764.805V136.25C764.805 138.195 764.805 140.375 764.172 143.375H750.156V144.899H758.688V153.945H760.539V144.899H769.141V143.375H766.035C766.633 140.387 766.633 138.219 766.633 136.25V134.422ZM778.07 136.344V134.258H776.242V136.414C776.219 139.649 774.086 142.414 770.875 143.539L771.883 145.039C774.402 144.09 776.301 142.156 777.191 139.66C778.094 141.852 779.898 143.551 782.195 144.406L783.227 142.977C780.168 141.934 778.047 139.32 778.07 136.344ZM774.273 149.961C774.262 152.445 776.922 153.852 781.258 153.852C785.582 153.852 788.242 152.445 788.242 149.961C788.242 147.453 785.582 146.012 781.258 146.024C776.922 146.012 774.262 147.453 774.273 149.961ZM776.102 149.961C776.09 148.402 778.059 147.477 781.258 147.477C784.445 147.477 786.414 148.402 786.414 149.961C786.414 151.473 784.445 152.387 781.258 152.375C778.059 152.387 776.09 151.473 776.102 149.961ZM781.68 139.063H786.32V145.414H788.172V133.063H786.32V137.539H781.68V139.063ZM804.062 142.063H795.156V136.555H803.969V135.055H793.352V143.586H797.664V147.758C795.59 147.817 793.574 147.828 791.758 147.828L792.016 149.375C796 149.387 801.039 149.293 805.656 148.625L805.516 147.242C803.582 147.465 801.531 147.606 799.492 147.688V143.586H804.062V142.063ZM806.898 153.945H808.727V133.063H806.898V153.945ZM817.984 134.68C814.902 134.692 812.746 137.516 812.758 141.945C812.746 146.387 814.902 149.199 817.984 149.188C820.891 149.199 822.977 146.645 823.176 142.555H827.828V153.945H829.656V133.063H827.828V141.031H823.152C822.871 137.129 820.82 134.692 817.984 134.68ZM814.516 141.945C814.527 138.559 815.934 136.332 817.984 136.32C820.023 136.332 821.453 138.559 821.453 141.945C821.453 145.332 820.023 147.559 817.984 147.547C815.934 147.559 814.527 145.332 814.516 141.945ZM846.203 147.055V145.906H844.422V147.055C844.398 149.047 842.816 151.274 840.18 152.258L841.117 153.617C843.109 152.867 844.539 151.414 845.289 149.738C845.91 151.484 847.199 153.008 849.227 153.781C851.148 152.973 852.426 151.367 853.07 149.68C853.797 151.426 855.25 152.879 857.336 153.617L858.25 152.258C855.578 151.332 853.996 149.199 854.008 147.055V145.906H852.203V147.055C852.215 148.66 851.16 150.746 849.168 151.977C847.188 150.852 846.191 148.895 846.203 147.055ZM839.641 139.18C839.629 142.039 841.938 144.008 845.102 144.008C848.266 144.008 850.551 142.039 850.562 139.18C850.551 136.274 848.266 134.293 845.102 134.305C841.938 134.293 839.629 136.274 839.641 139.18ZM841.445 139.18C841.422 137.234 842.957 135.852 845.102 135.875C847.223 135.852 848.758 137.234 848.758 139.18C848.758 141.113 847.223 142.473 845.102 142.484C842.957 142.473 841.422 141.113 841.445 139.18ZM854.523 144.992H856.352V133.086H854.523V144.992ZM864.133 145.578H862.305V153.617H876.391V145.578H874.539V148.016H864.133V145.578ZM859.891 144.102H878.875V142.578H859.891V144.102ZM860.969 139.625L861.672 141.102C864.883 140.621 868.07 138.992 869.395 136.649C870.719 138.981 873.895 140.621 877.117 141.102L877.797 139.625C874.129 139.156 870.332 136.848 870.344 134.281V133.297H868.445V134.281C868.445 136.93 864.684 139.121 860.969 139.625ZM864.133 152.141V149.469H874.539V152.141H864.133ZM897.812 133.063H895.984V153.899H897.812V133.063ZM881.992 148.531H883.68C887.02 148.531 890.312 148.274 894.016 147.5L893.758 145.93C890.266 146.668 886.984 146.914 883.797 146.938V135.125H881.992V148.531ZM917.5 133.063H915.672V153.945H917.5V142.859H920.992V141.313H917.5V133.063ZM902.289 148.719H903.93C907.891 148.719 910.621 148.602 913.891 148.016L913.656 146.422C910.551 146.996 907.891 147.16 904.117 147.172V136.625H912.016V135.102H902.289V148.719ZM924.32 152.141C925.152 152.129 925.832 151.449 925.82 150.617C925.832 149.797 925.152 149.117 924.32 149.117C923.5 149.117 922.797 149.797 922.82 150.617C922.797 151.449 923.5 152.129 924.32 152.141ZM547.621 186.428H548.852L548.746 183.703L551.049 185.18L551.646 184.108L549.221 182.859L551.646 181.594L551.049 180.522L548.746 181.998L548.852 179.274H547.621L547.727 181.998L545.424 180.522L544.826 181.594L547.252 182.859L544.826 184.108L545.424 185.18L547.727 183.703L547.621 186.428ZM565.533 178.483H554.916V179.608H564.162C564.171 180.636 564.153 181.91 563.793 183.651H553.105V184.758H567.414V183.651H565.182C565.533 181.893 565.533 180.539 565.533 179.484V178.483ZM554.811 187.447H564.215V189.188H554.828V193.248H565.99V192.123H556.217V190.277H565.586V186.34H554.811V187.447ZM581.564 177.797H580.193V193.459H581.564V177.797ZM569.541 180.399H575.43V183.686H569.576V189.662H570.877C573.575 189.662 575.948 189.548 578.822 189.1L578.682 187.94C575.887 188.388 573.575 188.511 570.982 188.502V184.811H576.818V179.256H569.541V180.399ZM598.527 190.242H584.219V191.42H598.527V190.242ZM585.484 180.522H587.963V185.988H585.52V187.113H597.121V185.988H594.678V180.522H597.156V179.379H585.484V180.522ZM589.334 185.988V180.522H593.324V185.988H589.334ZM611.166 179.256H605.084V180.381H609.742C609.479 183.079 607.782 185.233 604.416 186.621L605.172 187.658C609.241 185.901 611.157 183 611.166 179.256ZM606.314 192.281L606.859 193.354C609.188 192.941 611.403 191.719 612.361 189.943C613.311 191.719 615.543 192.941 617.881 193.354L618.408 192.281C615.692 191.851 613.047 190.11 613.047 188.027V187.324H611.676V188.027C611.676 190.11 609.03 191.851 606.314 192.281ZM612.801 186.586H614.119V183.088H616.246V188.01H617.564V177.815H616.246V181.928H614.119V178.113H612.801V186.586ZM627.689 179.256V178.359H626.266V179.256C626.266 181.497 623.409 183.36 620.588 183.756L621.15 184.881C623.585 184.477 625.984 183.15 626.986 181.216C627.988 183.132 630.396 184.477 632.822 184.881L633.385 183.756C630.563 183.36 627.698 181.462 627.689 179.256ZM619.85 187.764H626.266V193.424H627.619V187.764H634.088V186.604H619.85V187.764ZM644.23 178.535C641.849 178.526 640.161 180.021 640.17 182.139C640.161 184.283 641.849 185.76 644.23 185.76C646.349 185.76 647.957 184.529 648.229 182.684H651.49V186.182H652.879V177.797H651.49V181.541H648.221C647.922 179.748 646.322 178.526 644.23 178.535ZM641.488 182.139C641.488 180.697 642.622 179.695 644.23 179.713C645.804 179.695 646.938 180.697 646.938 182.139C646.938 183.563 645.804 184.591 644.23 184.6C642.622 184.591 641.488 183.563 641.488 182.139ZM642.807 193.213H652.879V186.973H651.49V188.959H644.195V186.973H642.807V193.213ZM644.195 192.088V190.067H651.49V192.088H644.195ZM668.857 177.797H667.521V193.424H668.857V177.797ZM656.096 189.662H657.08C659.594 189.653 661.123 189.574 662.934 189.205L662.793 188.027C661.114 188.405 659.69 188.484 657.432 188.502V180.873H661.984V179.731H656.096V189.662ZM660.93 184.934H664.34V192.615H665.658V178.184H664.34V183.774H660.93V184.934ZM683.922 177.797H682.533V193.459H683.922V177.797ZM671.617 184.459C671.626 187.79 673.278 189.9 675.607 189.891C677.928 189.9 679.606 187.79 679.598 184.459C679.606 181.137 677.928 179.019 675.607 179.01C673.278 179.019 671.626 181.137 671.617 184.459ZM672.953 184.459C672.953 181.919 674.043 180.249 675.607 180.24C677.181 180.249 678.262 181.919 678.262 184.459C678.262 186.999 677.181 188.669 675.607 188.66C674.043 188.669 672.953 186.999 672.953 184.459ZM699.25 186.252H689.846V183.738H698.74V182.631H689.846V180.311H699.074V179.151H688.439V187.377H699.25V186.252ZM686.594 191.385H700.902V190.242H686.594V191.385ZM712.293 181.154V180.24H715.896V179.115H707.248V180.24H710.904V181.154C710.896 183.369 709.243 185.4 706.896 186.217L707.617 187.324C709.48 186.639 710.948 185.233 711.625 183.457C712.337 185.101 713.778 186.384 715.598 187.008L716.301 185.901C713.963 185.162 712.302 183.264 712.293 181.154ZM709.48 193.09H720.062V191.93H710.852V188.186H709.48V193.09ZM718.199 189.276H719.57V177.815H718.199V189.276ZM735.496 177.797H734.178V182.068H732.086V178.113H730.785V187.131H732.086V183.211H734.178V187.693H735.496V177.797ZM722.137 180.785H730.152V179.678H726.848V177.92H725.477V179.678H722.137V180.785ZM722.822 184.301C722.813 185.909 724.193 186.955 726.162 186.955C728.14 186.955 729.511 185.909 729.52 184.301C729.511 182.666 728.14 181.62 726.162 181.629C724.193 181.62 722.813 182.666 722.822 184.301ZM724.053 184.301C724.053 183.308 724.914 182.649 726.162 182.649C727.41 182.649 728.271 183.308 728.271 184.301C728.271 185.259 727.41 185.918 726.162 185.918C724.914 185.918 724.053 185.259 724.053 184.301ZM725.09 190.699C725.072 192.413 727.032 193.389 730.328 193.389C733.615 193.389 735.575 192.413 735.584 190.699C735.575 188.942 733.615 187.957 730.328 187.957C727.032 187.957 725.072 188.942 725.09 190.699ZM726.461 190.699C726.443 189.627 727.894 189.029 730.328 189.047C732.754 189.029 734.195 189.627 734.213 190.699C734.195 191.71 732.754 192.325 730.328 192.317C727.894 192.325 726.443 191.71 726.461 190.699ZM756.537 185.109H742.299V186.252H748.732V187.922C745.753 188.054 744.013 189.012 744.021 190.664C744.013 192.413 746.025 193.389 749.418 193.389C752.767 193.389 754.779 192.413 754.797 190.664C754.779 189.012 753.03 188.054 750.086 187.922V186.252H756.537V185.109ZM743.107 183.07L743.6 184.16C746.175 183.853 748.557 182.701 749.418 180.97C750.279 182.701 752.679 183.853 755.236 184.16L755.746 183.07C752.995 182.789 750.411 181.409 750.314 179.66H755.271V178.535H743.6V179.66H748.521C748.425 181.409 745.814 182.789 743.107 183.07ZM745.428 190.664C745.41 189.601 746.913 188.994 749.418 188.977C751.896 188.994 753.399 189.601 753.408 190.664C753.399 191.701 751.896 192.325 749.418 192.317C746.913 192.325 745.41 191.701 745.428 190.664ZM775.275 177.797H773.904V186.182H775.275V177.797ZM762.742 182.156C762.733 184.283 764.465 185.751 766.838 185.742C769.211 185.751 770.925 184.283 770.934 182.156C770.925 180.021 769.211 178.553 766.838 178.57C764.465 178.553 762.733 180.021 762.742 182.156ZM764.096 182.156C764.078 180.724 765.229 179.722 766.838 179.731C768.429 179.722 769.58 180.724 769.58 182.156C769.58 183.58 768.429 184.591 766.838 184.6C765.229 184.591 764.078 183.58 764.096 182.156ZM765.15 193.213H775.275V186.973H773.904V188.871H766.521V186.973H765.15V193.213ZM766.521 192.088V189.979H773.904V192.088H766.521ZM790.814 177.797H789.443V193.424H790.814V177.797ZM778.949 189.399H780.215C782.72 189.399 785.189 189.205 787.967 188.625L787.773 187.447C785.154 188.001 782.693 188.186 780.303 188.203V179.344H778.949V189.399ZM805.58 177.797H804.209V193.459H805.58V185.145H808.199V183.984H805.58V177.797ZM794.172 189.539H795.402C798.373 189.539 800.421 189.451 802.873 189.012L802.697 187.817C800.368 188.247 798.373 188.37 795.543 188.379V180.469H801.467V179.326H794.172V189.539ZM811.574 179.274H809.852L809.975 188.414H811.451L811.574 179.274ZM809.588 190.963C809.57 191.587 810.098 192.097 810.713 192.106C811.337 192.097 811.847 191.587 811.838 190.963C811.847 190.348 811.337 189.838 810.713 189.838C810.098 189.838 809.57 190.348 809.588 190.963ZM819.273 186.639C819.282 189.776 820.126 192.387 821.646 194.602H823C821.805 192.958 820.847 189.601 820.838 186.639C820.847 183.686 821.805 180.328 823 178.693H821.646C820.126 180.9 819.282 183.51 819.273 186.639ZM824.881 192H833.143V190.594H827.078V190.488L829.996 187.483C832.246 185.162 832.905 184.055 832.914 182.631C832.905 180.653 831.271 179.098 828.959 179.098C826.656 179.098 824.916 180.609 824.934 182.859H826.428C826.437 181.436 827.386 180.478 828.906 180.469C830.339 180.478 831.429 181.321 831.438 182.631C831.429 183.809 830.708 184.67 829.205 186.27L824.863 190.84L824.881 192ZM839.945 179.274H838.346L835.182 181.383V182.983L838.275 180.926H838.346V192H839.945V179.274ZM847.838 179.274H846.238L843.074 181.383V182.983L846.168 180.926H846.238V192H847.838V179.274ZM851.23 192H859.492V190.594H853.428V190.488L856.346 187.483C858.596 185.162 859.255 184.055 859.264 182.631C859.255 180.653 857.62 179.098 855.309 179.098C853.006 179.098 851.266 180.609 851.283 182.859H852.777C852.786 181.436 853.735 180.478 855.256 180.469C856.688 180.478 857.778 181.321 857.787 182.631C857.778 183.809 857.058 184.67 855.555 186.27L851.213 190.84L851.23 192ZM866.189 192.176C868.729 192.176 870.628 190.629 870.619 188.537C870.628 186.92 869.626 185.734 867.965 185.479V185.391C869.301 185.013 870.145 183.958 870.127 182.508C870.145 180.689 868.668 179.098 866.242 179.098C863.983 179.098 862.103 180.451 862.023 182.473H863.553C863.623 181.225 864.862 180.478 866.225 180.469C867.675 180.478 868.606 181.321 868.598 182.596C868.606 183.905 867.525 184.776 865.979 184.776H864.941V186.164H865.979C867.956 186.173 869.063 187.149 869.072 188.537C869.063 189.864 867.851 190.77 866.172 190.77C864.651 190.77 863.447 190.014 863.359 188.801H861.76C861.839 190.822 863.658 192.176 866.189 192.176ZM877.07 192.176C879.892 192.176 881.518 189.803 881.518 185.637C881.518 181.506 879.865 179.098 877.07 179.098C874.267 179.098 872.614 181.506 872.623 185.637C872.614 189.803 874.249 192.176 877.07 192.176ZM874.152 185.637C874.161 182.341 875.242 180.478 877.07 180.469C878.898 180.478 879.979 182.341 879.971 185.637C879.979 188.933 878.907 190.77 877.07 190.77C875.225 190.77 874.161 188.933 874.152 185.637ZM900.502 177.797H899.113V193.424H900.502V177.797ZM887.775 189.363L888.531 190.488C893.77 187.975 895.861 183.993 895.879 179.502H888.496V180.627H894.473C894.165 184.362 892.003 187.359 887.775 189.363ZM911.154 179.748V179.713H916.111V178.588H904.439V179.713H909.361V179.748C909.37 181.673 906.769 183.237 904.018 183.615L904.527 184.705C907.059 184.336 909.405 183.079 910.258 181.251C911.102 183.079 913.466 184.336 915.988 184.705L916.533 183.615C913.765 183.237 911.146 181.673 911.154 179.748ZM903.121 186.99H909.695V190.19H911.066V186.99H917.43V185.848H903.121V186.99ZM904.949 193.09H915.83V191.93H906.338V188.625H904.949V193.09ZM927.941 192.176C930.763 192.176 932.389 189.803 932.389 185.637C932.389 181.506 930.736 179.098 927.941 179.098C925.138 179.098 923.485 181.506 923.494 185.637C923.485 189.803 925.12 192.176 927.941 192.176ZM925.023 185.637C925.032 182.341 926.113 180.478 927.941 180.469C929.77 180.478 930.851 182.341 930.842 185.637C930.851 188.933 929.778 190.77 927.941 190.77C926.096 190.77 925.032 188.933 925.023 185.637ZM935.131 192.106C935.755 192.097 936.265 191.587 936.256 190.963C936.265 190.348 935.755 189.838 935.131 189.838C934.516 189.838 933.988 190.348 934.006 190.963C933.988 191.587 934.516 192.097 935.131 192.106ZM941.582 179.274H939.982L936.818 181.383V182.983L939.912 180.926H939.982V192H941.582V179.274ZM952.85 182.455H951.197L948.596 190.031H948.49L945.889 182.455H944.236L947.752 192H949.316L952.85 182.455ZM963.52 179.274H961.92L958.756 181.383V182.983L961.85 180.926H961.92V192H963.52V179.274ZM966.596 189.399H972.766V192H974.277V189.399H976.053V188.01H974.277V179.274H972.326L966.596 188.098V189.399ZM968.301 188.01V187.904L972.607 181.277H972.766V188.01H968.301ZM990.924 177.797H989.57V184.108H987.408V178.219H986.09V192.651H987.408V185.25H989.57V193.424H990.924V177.797ZM977.6 189.1L978.408 190.067C982.899 187.562 984.297 183.809 984.314 179.836H978.197V180.979H982.961C982.724 184.213 981.229 187.069 977.6 189.1ZM996.918 186.639C996.909 183.501 996.065 180.891 994.545 178.676H993.191C994.387 180.319 995.345 183.677 995.354 186.639C995.345 189.592 994.387 192.949 993.191 194.584H994.545C996.065 192.378 996.909 189.768 996.918 186.639ZM547.621 214.428H548.852L548.746 211.703L551.049 213.18L551.646 212.108L549.221 210.859L551.646 209.594L551.049 208.522L548.746 209.998L548.852 207.274H547.621L547.727 209.998L545.424 208.522L544.826 209.594L547.252 210.859L544.826 212.108L545.424 213.18L547.727 211.703L547.621 214.428ZM556.094 214.428H557.324L557.219 211.703L559.521 213.18L560.119 212.108L557.693 210.859L560.119 209.594L559.521 208.522L557.219 209.998L557.324 207.274H556.094L556.199 209.998L553.896 208.522L553.299 209.594L555.725 210.859L553.299 212.108L553.896 213.18L556.199 211.703L556.094 214.428ZM573.795 205.797H572.424V217.328H573.795V211.721H576.15V210.561H573.795V205.797ZM561.877 210.754C561.868 213.013 563.644 214.604 565.973 214.604C568.319 214.604 570.068 213.013 570.086 210.754C570.068 208.486 568.319 206.913 565.973 206.904C563.644 206.913 561.868 208.486 561.877 210.754ZM563.23 210.754C563.222 209.207 564.426 208.117 565.973 208.117C567.546 208.117 568.724 209.207 568.732 210.754C568.724 212.292 567.546 213.391 565.973 213.391C564.426 213.391 563.222 212.292 563.23 210.754ZM564.021 221.09H574.516V219.93H565.375V216.133H564.021V221.09ZM590.09 205.815H588.701V210.139H585.484V211.281H588.701V217.276H590.09V205.815ZM577.205 214.147L577.926 215.272C579.78 214.577 581.222 213.145 581.898 211.334C582.575 212.951 583.938 214.261 585.695 214.902L586.416 213.795C584.131 213.013 582.566 211.053 582.566 209.031V208.223H586.064V207.08H577.645V208.223H581.178V209.031C581.178 211.273 579.508 213.338 577.205 214.147ZM580.053 221.09H590.529V219.93H581.441V216.238H580.053V221.09ZM599.811 206.078C596.321 206.078 594.273 207.036 594.273 208.768C594.273 210.543 596.321 211.501 599.811 211.51C603.282 211.501 605.321 210.543 605.33 208.768C605.321 207.036 603.282 206.078 599.811 206.078ZM592.691 213.69H606.93V212.565H592.691V213.69ZM594.414 216.098H603.748V217.522H594.449V221.248H605.576V220.158H595.82V218.541H605.102V215.043H594.414V216.098ZM595.715 208.768C595.697 207.739 597.218 207.124 599.811 207.115C602.403 207.124 603.915 207.739 603.924 208.768C603.915 209.858 602.403 210.455 599.811 210.455C597.218 210.455 595.697 209.858 595.715 208.768ZM617.916 206.57C615.578 206.553 613.908 207.845 613.908 209.752C613.908 211.659 615.578 212.96 617.916 212.951C620.254 212.96 621.933 211.659 621.924 209.752C621.933 207.845 620.254 206.553 617.916 206.57ZM612.73 214.287L612.924 215.465C614.225 215.456 615.728 215.447 617.318 215.377V220.949H618.689V215.298C620.201 215.201 621.748 215.034 623.242 214.762L623.154 213.725C619.683 214.234 615.666 214.296 612.73 214.287ZM615.262 209.752C615.244 208.539 616.36 207.678 617.916 207.695C619.489 207.678 620.614 208.539 620.605 209.752C620.614 210.974 619.489 211.818 617.916 211.809C616.36 211.818 615.244 210.974 615.262 209.752ZM624.297 221.442H625.65V205.815H624.297V221.442ZM636.127 208.504H632.91V206.272H631.539V208.504H628.287V209.629H636.127V208.504ZM628.85 214.234C628.85 216.335 630.265 217.812 632.207 217.82C634.176 217.812 635.582 216.335 635.6 214.234C635.582 212.16 634.176 210.693 632.207 210.684C630.265 210.693 628.85 212.16 628.85 214.234ZM630.08 214.234C630.08 212.863 630.968 211.861 632.207 211.844C633.455 211.861 634.369 212.863 634.369 214.234C634.369 215.623 633.455 216.616 632.207 216.608C630.968 216.616 630.08 215.623 630.08 214.234ZM636.936 220.651H638.236V213.531H640.311V221.424H641.629V205.797H640.311V212.389H638.236V206.184H636.936V220.651ZM653.547 206.57C651.209 206.553 649.539 207.845 649.539 209.752C649.539 211.659 651.209 212.96 653.547 212.951C655.885 212.96 657.563 211.659 657.555 209.752C657.563 207.845 655.885 206.553 653.547 206.57ZM648.361 214.287L648.555 215.465C649.855 215.456 651.358 215.447 652.949 215.377V220.949H654.32V215.298C655.832 215.201 657.379 215.034 658.873 214.762L658.785 213.725C655.313 214.234 651.297 214.296 648.361 214.287ZM650.893 209.752C650.875 208.539 651.991 207.678 653.547 207.695C655.12 207.678 656.245 208.539 656.236 209.752C656.245 210.974 655.12 211.818 653.547 211.809C651.991 211.818 650.875 210.974 650.893 209.752ZM659.928 221.442H661.281V205.815H659.928V221.442ZM676.908 205.797H675.52V210.561H672.865V211.703H675.52V215.272H676.908V205.797ZM663.971 208.574H673.094V207.449H669.209V205.656H667.855V207.449H663.971V208.574ZM664.902 212.16C664.902 213.848 666.405 214.955 668.523 214.955C670.65 214.955 672.145 213.848 672.162 212.16C672.145 210.526 670.65 209.383 668.523 209.383C666.405 209.383 664.902 210.526 664.902 212.16ZM666.221 212.16C666.221 211.158 667.161 210.455 668.523 210.455C669.886 210.455 670.826 211.158 670.826 212.16C670.826 213.197 669.886 213.883 668.523 213.901C667.161 213.883 666.221 213.197 666.221 212.16ZM666.695 221.213H676.908V216.115H666.695V221.213ZM668.066 220.088V217.223H675.555V220.088H668.066ZM688.176 207.537H680.23V208.662H686.787C686.796 209.91 686.761 211.809 686.33 214.428L687.719 214.551C688.167 211.651 688.167 209.585 688.176 208.346V207.537ZM679.352 216.836L679.527 217.979C682.322 217.996 685.996 217.926 689.283 217.416L689.213 216.379C687.587 216.572 685.812 216.687 684.08 216.748V212.002H682.727V216.792C681.522 216.818 680.38 216.827 679.352 216.836ZM690.197 221.424H691.568V213.531H694.1V212.336H691.568V205.797H690.197V221.424ZM705.209 208.697V208.029H708.812V206.904H700.164V208.029H703.82V208.697C703.812 210.912 702.159 212.951 699.812 213.777L700.533 214.85C702.396 214.182 703.855 212.776 704.541 211C705.253 212.652 706.694 213.936 708.514 214.551L709.217 213.479C706.879 212.714 705.218 210.798 705.209 208.697ZM701.975 217.223H711.115V221.424H712.486V216.08H701.975V217.223ZM711.115 215.254H712.486V205.797H711.115V215.254ZM728.096 205.797H726.707V208.082H723.095C723.191 207.608 723.244 207.107 723.244 206.588H716.195V207.731H721.724C721.46 210.253 719.236 212.116 715.404 213.004L715.896 214.147C719.368 213.312 721.794 211.651 722.77 209.19H726.707V211.07H722.541V212.16H726.707V213.795H728.096V205.797ZM717.971 215.623H726.707V217.258H718.006V221.283H728.623V220.141H719.377V218.313H728.096V214.498H717.971V215.623ZM739.785 210.93H733.58V207.959H739.662V206.817H732.191V212.055H735.25V214.296C733.677 214.349 732.139 214.366 730.768 214.375L730.979 215.5C733.914 215.5 737.632 215.403 740.998 214.938L740.893 213.918C739.539 214.068 738.08 214.173 736.621 214.234V212.055H739.785V210.93ZM733.439 221.09H744.092V219.93H734.811V216.695H733.439V221.09ZM742.193 217.504H743.582V205.815H742.193V217.504ZM763.727 205.797H762.338V209.875H759.191V211.018H762.338V215.113H763.727V205.797ZM750.842 213.865L751.562 214.973C753.426 214.261 754.876 212.802 755.544 210.974C756.221 212.582 757.583 213.901 759.332 214.533L760.053 213.426C757.768 212.644 756.203 210.701 756.203 208.662V208.1H759.701V206.94H751.281V208.1H754.814V208.68C754.814 210.912 753.162 213.03 750.842 213.865ZM753.303 218.506C753.294 220.352 755.289 221.406 758.541 221.424C761.784 221.406 763.779 220.352 763.779 218.506C763.779 216.669 761.784 215.597 758.541 215.606C755.289 215.597 753.294 216.669 753.303 218.506ZM754.674 218.506C754.665 217.363 756.142 216.678 758.541 216.678C760.932 216.678 762.408 217.363 762.408 218.506C762.408 219.64 760.932 220.325 758.541 220.317C756.142 220.325 754.665 219.64 754.674 218.506ZM780.637 218.277H774.115V214.902H778.879V206.904H777.525V209.734H769.404V206.904H768.016V214.902H772.762V218.277H766.328V219.42H780.637V218.277ZM769.404 213.777V210.859H777.525V213.777H769.404ZM796.176 213.057H781.867V214.147H796.176V213.057ZM783.59 216.432H793.012V217.768H783.607V221.213H794.893V220.211H784.996V218.717H794.383V215.395H783.59V216.432ZM783.678 207.274H792.941V208.557H783.73V211.879H794.611V210.877H785.102V209.506H794.33V206.272H783.678V207.274ZM814.053 205.797H812.682V221.424H814.053V213.32H816.584V212.16H814.053V205.797ZM802.064 217.363L802.838 218.453C807.927 215.94 810.001 211.905 810.01 207.484H802.785V208.645H808.612C808.296 212.345 806.099 215.359 802.064 217.363ZM823.141 209.154V208.24H826.744V207.115H818.096V208.24H821.752V209.154C821.743 211.369 820.091 213.4 817.744 214.217L818.465 215.324C820.328 214.639 821.796 213.233 822.473 211.457C823.185 213.101 824.626 214.384 826.445 215.008L827.148 213.901C824.811 213.162 823.149 211.264 823.141 209.154ZM820.328 221.09H830.91V219.93H821.699V216.186H820.328V221.09ZM829.047 217.276H830.418V205.815H829.047V217.276ZM846.748 207.08H838.293V208.223H839.857V213.118C839.154 213.127 838.478 213.127 837.854 213.127L838.029 214.305C840.736 214.305 844.419 214.261 847.627 213.777L847.521 212.74C846.766 212.828 845.975 212.89 845.166 212.943V208.223H846.748V207.08ZM839.98 217.188H849.121V221.424H850.492V216.045H839.98V217.188ZM841.193 213.101V208.223H843.83V213.013C842.942 213.057 842.055 213.083 841.193 213.101ZM849.121 215.289H850.492V205.797H849.121V215.289ZM865.803 213.936H856.398V211.58H865.293V210.455H856.398V208.223H865.627V207.08H854.992V215.061H859.58V218.33H853.146V219.473H867.455V218.33H860.951V215.061H865.803V213.936ZM881.025 207.467H870.25V208.609H879.672V209.031C879.672 210.947 879.672 213.285 879.039 216.484L880.445 216.625C881.025 213.224 881.025 211 881.025 209.031V207.467ZM868.703 219.121H882.941V217.979H868.703V219.121ZM897.531 205.815H896.213V209.787H894.016V206.113H892.732V214.92H894.016V210.93H896.213V215.131H897.531V205.815ZM884.945 207.959H889.551V210.016H884.98V214.428H886C888.268 214.428 889.929 214.366 891.959 213.988L891.801 212.863C889.955 213.233 888.373 213.329 886.316 213.338V211.088H890.869V206.834H884.945V207.959ZM887.213 221.213H897.531V215.869H887.213V221.213ZM888.566 220.088V216.994H896.178V220.088H888.566ZM914.055 214.041H899.816V215.166H914.055V214.041ZM901.398 209.453C901.398 211.396 903.543 212.565 906.936 212.565C910.293 212.565 912.446 211.396 912.455 209.453C912.446 207.493 910.293 206.342 906.936 206.359C903.543 206.342 901.398 207.493 901.398 209.453ZM901.662 221.09H912.473V219.93H903.051V216.537H901.662V221.09ZM902.822 209.453C902.813 208.232 904.413 207.467 906.936 207.467C909.44 207.467 911.04 208.232 911.049 209.453C911.04 210.693 909.44 211.44 906.936 211.44C904.413 211.44 902.813 210.693 902.822 209.453ZM933.25 205.797H931.932V221.424H933.25V205.797ZM919.697 217.258L920.576 218.295C922.141 217.319 923.274 215.483 923.837 213.329C924.382 215.316 925.472 217.003 927.01 217.926L927.854 216.906C925.7 215.658 924.479 212.96 924.479 210.262V208.785H927.344V207.643H920.137V208.785H923.143V210.262C923.151 213.101 921.877 215.957 919.697 217.258ZM926.148 212.565H928.785V220.615H930.086V206.184H928.785V211.44H926.148V212.565ZM940.562 206.817C938.093 206.834 936.335 208.311 936.344 210.49C936.335 212.459 937.768 213.848 939.859 214.103V216.818C938.295 216.871 936.81 216.871 935.535 216.871L935.729 218.031C938.541 218.023 942.382 218.014 945.959 217.346L945.854 216.326C944.377 216.555 942.795 216.687 941.248 216.766V214.103C943.331 213.857 944.755 212.459 944.764 210.49C944.755 208.311 943.015 206.834 940.562 206.817ZM937.697 210.49C937.688 209.023 938.893 208.029 940.562 208.029C942.215 208.029 943.419 209.023 943.41 210.49C943.419 211.941 942.215 212.96 940.562 212.951C938.893 212.96 937.688 211.941 937.697 210.49ZM946.891 221.459H948.262V205.797H946.891V221.459ZM960.32 212.547H953.641V208.416H960.25V207.291H952.287V213.69H955.521V216.818C953.966 216.862 952.454 216.871 951.092 216.871L951.285 218.031C954.273 218.04 958.053 217.97 961.516 217.469L961.41 216.432C959.96 216.599 958.422 216.704 956.893 216.766V213.69H960.32V212.547ZM962.447 221.459H963.818V205.797H962.447V221.459ZM971.939 216.274V215.324H970.621V216.274C970.604 217.785 969.417 219.482 967.439 220.193L968.125 221.231C969.619 220.659 970.691 219.561 971.254 218.304C971.729 219.622 972.695 220.774 974.189 221.354C975.648 220.738 976.606 219.526 977.099 218.251C977.626 219.569 978.716 220.659 980.271 221.231L980.992 220.193C978.953 219.517 977.784 217.891 977.793 216.274V215.324H976.439V216.274C976.431 217.478 975.666 219.068 974.163 220.009C972.678 219.148 971.931 217.68 971.939 216.274ZM966.824 210.35C966.824 212.503 968.529 214.006 970.867 214.006C972.959 214.006 974.585 212.74 974.849 210.877H978.127V214.727H979.516V205.797H978.127V209.734H974.84C974.532 207.924 972.924 206.685 970.867 206.693C968.529 206.685 966.824 208.205 966.824 210.35ZM968.16 210.35C968.143 208.9 969.294 207.854 970.867 207.871C972.405 207.854 973.557 208.9 973.557 210.35C973.557 211.8 972.405 212.855 970.867 212.863C969.294 212.855 968.143 211.8 968.16 210.35ZM985.299 215.184H983.928V221.213H994.492V215.184H993.104V217.012H985.299V215.184ZM982.117 214.076H996.355V212.934H982.117V214.076ZM982.926 210.719L983.453 211.826C985.861 211.466 988.252 210.244 989.245 208.486C990.238 210.235 992.62 211.466 995.037 211.826L995.547 210.719C992.796 210.367 989.948 208.636 989.957 206.711V205.973H988.533V206.711C988.533 208.697 985.712 210.341 982.926 210.719ZM985.299 220.106V218.102H993.104V220.106H985.299ZM1010.56 205.797H1009.19V221.424H1010.56V205.797ZM998.693 217.399H999.959C1002.46 217.399 1004.93 217.205 1007.71 216.625L1007.52 215.447C1004.9 216.001 1002.44 216.186 1000.05 216.203V207.344H998.693V217.399ZM1025.32 205.797H1023.95V221.459H1025.32V213.145H1027.94V211.984H1025.32V205.797ZM1013.92 217.539H1015.15C1018.12 217.539 1020.17 217.451 1022.62 217.012L1022.44 215.817C1020.11 216.247 1018.12 216.37 1015.29 216.379V208.469H1021.21V207.326H1013.92V217.539ZM1030.44 220.106C1031.06 220.097 1031.57 219.587 1031.56 218.963C1031.57 218.348 1031.06 217.838 1030.44 217.838C1029.82 217.838 1029.3 218.348 1029.31 218.963C1029.3 219.587 1029.82 220.097 1030.44 220.106Z" fill="black"/>
<path d="M6.37293 11.3233C3.10774 11.3233 0.729282 14.2736 0.745856 18.9145C0.729282 23.6051 3.10774 26.5388 6.37293 26.5388C9.62983 26.5388 11.9834 23.6051 12 18.9145C11.9834 14.2736 9.62983 11.3233 6.37293 11.3233ZM3.63812 18.9145C3.62983 15.757 4.74033 14.025 6.37293 14.025C8.04696 14.025 9.12431 15.757 9.1326 18.9145C9.12431 22.1051 8.04696 23.8289 6.37293 23.8289C4.74033 23.8289 3.62983 22.1051 3.63812 18.9145ZM14.4696 31.1631H17.4613V20.3648H20.6105V17.8703H17.4613V9.81504H14.4696V31.1631ZM39.2311 9.81504H36.2063V31.2128H39.2311V9.81504ZM22.0019 18.9145C21.9936 23.6051 24.3803 26.5388 27.6455 26.5388C30.8693 26.5388 33.256 23.6051 33.2643 18.9145C33.256 14.2736 30.8693 11.3233 27.6455 11.3233C24.3803 11.3233 21.9936 14.2736 22.0019 18.9145ZM24.8941 18.9145C24.8775 15.757 25.988 14.025 27.6455 14.025C29.2698 14.025 30.372 15.757 30.372 18.9145C30.372 22.1051 29.2698 23.8289 27.6455 23.8289C25.988 23.8289 24.8775 22.1051 24.8941 18.9145ZM51.3545 11.4393H43.0258V22.4366H44.5009C47.3601 22.4283 49.5479 22.3869 52.175 21.8813L51.9181 19.536C49.8628 19.9504 48.0562 20.0664 45.9761 20.0913V13.8012H51.3545V11.4393ZM46.117 30.7902H61.1087V28.3371H49.1087V23.8289H46.117V30.7902ZM50.07 17.8786H53.4015V25.0388H56.2358V10.2294H53.4015V15.525H50.07V17.8786ZM57.7275 25.5775H60.57V9.84819H57.7275V25.5775ZM74.873 11.5968H64.0332V26.315H65.8647C69.71 26.3068 72.7763 26.2073 76.1326 25.7101L75.8509 23.3068C72.8592 23.7626 70.2569 23.8951 66.9918 23.92V19.8924H73.9945V17.5471H66.9918V14.025H74.873V11.5968ZM77.757 31.1631H80.7818V9.81504H77.757V31.1631ZM95.6152 11.5968H84.7754V26.315H86.6069C90.4522 26.3068 93.5185 26.2073 96.8748 25.7101L96.5931 23.3068C93.6013 23.7626 90.9991 23.8951 87.7339 23.92V19.8924H94.7367V17.5471H87.7339V14.025H95.6152V11.5968ZM98.4991 31.1631H101.524V9.81504H98.4991V31.1631ZM111.244 11.2487C107.888 11.2487 105.319 13.4283 105.327 16.4863C105.319 19.5526 107.888 21.7239 111.244 21.7239C114.642 21.7239 117.153 19.5526 117.17 16.4863C117.153 13.4283 114.642 11.2487 111.244 11.2487ZM104.44 24.4172L104.78 26.8454C108.518 26.8454 113.581 26.804 118.305 25.8841L118.081 23.7294C113.515 24.3675 108.244 24.4172 104.44 24.4172ZM108.294 16.4863C108.294 14.8206 109.562 13.8344 111.244 13.8344C112.96 13.8344 114.244 14.8206 114.252 16.4863C114.244 18.1769 112.951 19.1382 111.244 19.1382C109.57 19.1382 108.294 18.1769 108.294 16.4863ZM119.291 31.2128H122.266V9.81504H119.291V31.2128ZM150.131 26.3979H145.192V22.3454H148.407V19.9338H145.498V13.9338H148.506V11.5305H132.147V13.9338H135.098V19.9338H132.239V22.3454H135.462V26.3979H130.622V28.7929H150.131V26.3979ZM138.081 19.9338V13.9338H142.548V19.9338H138.081ZM138.462 26.3979V22.3454H142.192V26.3979H138.462ZM169.34 9.84819H166.356V15.1521H163.464V17.5637H166.356V19.7018H163.464V22.0719H166.356V26.0996H169.34V9.84819ZM151.406 14.4393H163.257V12.0858H158.972V9.79846H155.997V12.0858H151.406V14.4393ZM152.459 19.3869C152.442 21.8482 154.555 23.5637 157.456 23.5637C160.381 23.5637 162.495 21.8482 162.511 19.3869C162.495 16.9338 160.381 15.1935 157.456 15.1935C154.555 15.1935 152.442 16.9338 152.459 19.3869ZM155.135 30.7902H169.796V28.3786H158.16V24.7073H155.135V30.7902ZM155.243 19.3869C155.235 18.1935 156.146 17.5305 157.456 17.5139C158.74 17.5305 159.685 18.1935 159.702 19.3869C159.685 20.6217 158.74 21.2847 157.456 21.2847C156.146 21.2847 155.235 20.6217 155.243 19.3869ZM189.958 9.81504H186.933V31.2128H189.958V9.81504ZM172.728 18.9145C172.72 23.6051 175.107 26.5388 178.372 26.5388C181.596 26.5388 183.983 23.6051 183.991 18.9145C183.983 14.2736 181.596 11.3233 178.372 11.3233C175.107 11.3233 172.72 14.2736 172.728 18.9145ZM175.621 18.9145C175.604 15.757 176.715 14.025 178.372 14.025C179.996 14.025 181.099 15.757 181.099 18.9145C181.099 22.1051 179.996 23.8289 178.372 23.8289C176.715 23.8289 175.604 22.1051 175.621 18.9145ZM206.253 15.6327V14.3233H210.546V11.8786H198.728V14.3233H203.245V15.6327C203.228 19.1631 201.438 23.1327 197.883 24.7902L199.623 27.1521C202.076 25.9918 203.833 23.6051 204.795 20.7791C205.739 23.3399 207.43 25.5112 209.808 26.6051L211.474 24.2598C207.969 22.6438 206.237 18.8896 206.253 15.6327ZM212.212 31.1631H215.204V20.4642H218.353V17.9697H215.204V9.81504H212.212V31.1631ZM238.606 21.699H219.098V24.1023H223.564V31.1631H226.631V24.1023H231.006V31.1631H234.04V24.1023H238.606V21.699ZM221.053 15.3592C221.045 18.2349 224.219 20.0581 228.794 20.0498C233.377 20.0581 236.576 18.2349 236.576 15.3592C236.576 12.4172 233.377 10.536 228.794 10.536C224.219 10.536 221.045 12.4172 221.053 15.3592ZM224.136 15.3592C224.12 13.7847 225.935 12.9311 228.794 12.9228C231.678 12.9311 233.484 13.7847 233.484 15.3592C233.484 16.8592 231.678 17.688 228.794 17.6963C225.935 17.688 224.12 16.8592 224.136 15.3592ZM259.373 26.3316H251.053V23.1079H257.624V20.6797H245.094V18.2764H257.127V11.2073H242.077V13.6106H254.169V15.9311H242.111V23.1079H248.094V26.3316H239.865V28.7764H259.373V26.3316ZM280.09 20.2239H260.582V22.594H268.994V26.3068H272.027V22.594H280.09V20.2239ZM262.596 14.6631C262.588 17.373 265.687 19.0554 270.32 19.0554C274.952 19.0554 278.027 17.373 278.035 14.6631C278.027 11.9532 274.952 10.246 270.32 10.2377C265.687 10.246 262.588 11.9532 262.596 14.6631ZM262.902 30.7902H277.944V28.362H265.919V24.4007H262.902V30.7902ZM265.828 14.6631C265.811 13.304 267.576 12.5913 270.32 12.5996C273.079 12.5913 274.828 13.304 274.828 14.6631C274.828 15.9642 273.079 16.6603 270.32 16.6686C267.576 16.6603 265.811 15.9642 265.828 14.6631ZM293.866 29.2322C297.687 29.2322 300.447 27.1438 300.43 24.2432C300.447 22.1217 299.071 20.6051 296.568 20.2985V20.1659C298.483 19.8261 299.808 18.4753 299.792 16.5692C299.808 13.8924 297.447 11.7957 293.916 11.7957C290.436 11.7957 287.8 13.8261 287.742 16.7432H291.123C291.173 15.4421 292.4 14.6051 293.9 14.6051C295.4 14.6051 296.402 15.4918 296.394 16.7847C296.402 18.1272 295.234 19.0388 293.552 19.0388H291.977V21.6493H293.552C295.549 21.6493 296.775 22.6272 296.767 24.0112C296.775 25.3786 295.565 26.315 293.875 26.315C292.242 26.315 291.016 25.478 290.958 24.2266H287.402C287.46 27.1852 290.129 29.2322 293.866 29.2322ZM320.598 9.81504H317.722V17.9034H315.766V10.3786H312.99V30.2101H315.766V20.3068H317.722V31.1631H320.598V9.81504ZM301.943 24.699L303.667 26.7708C309.692 23.2819 311.465 18.409 311.474 12.4587H303.021V14.8537H308.557C308.159 19.0388 306.286 22.1631 301.943 24.699ZM329.846 11.2487C326.489 11.2487 323.92 13.4283 323.929 16.4863C323.92 19.5526 326.489 21.7239 329.846 21.7239C333.243 21.7239 335.754 19.5526 335.771 16.4863C335.754 13.4283 333.243 11.2487 329.846 11.2487ZM323.042 24.4172L323.382 26.8454C327.119 26.8454 332.183 26.804 336.906 25.8841L336.683 23.7294C332.116 24.3675 326.846 24.4172 323.042 24.4172ZM326.895 16.4863C326.895 14.8206 328.163 13.8344 329.846 13.8344C331.561 13.8344 332.846 14.8206 332.854 16.4863C332.846 18.1769 331.553 19.1382 329.846 19.1382C328.172 19.1382 326.895 18.1769 326.895 16.4863ZM337.893 31.2128H340.868V9.81504H337.893V31.2128ZM352.846 29.0001L354.122 25.0885H360.279L361.556 29.0001H365.335L359.467 12.0277H354.934L349.067 29.0001H352.846ZM355.017 22.3289L357.13 15.8565H357.263L359.376 22.3289H355.017ZM370.064 16.2708H366.467L370.13 22.6355L366.335 29.0001H369.931L372.417 24.5747L374.953 29.0001H378.509L374.705 22.6355L378.417 16.2708H374.837L372.417 20.746L370.064 16.2708ZM385.69 29.2487C388.83 29.2487 390.935 27.7239 391.433 25.3786H388.134C387.786 26.1327 386.941 26.6465 385.748 26.6465C383.966 26.6465 382.822 25.4614 382.822 23.5305H391.524V22.5609C391.524 18.2184 388.888 16.1051 385.549 16.1051C381.819 16.1051 379.391 18.7653 379.391 22.6935C379.391 26.7294 381.786 29.2487 385.69 29.2487ZM382.822 21.3592C382.905 19.9007 384.016 18.699 385.615 18.699C387.165 18.699 388.234 19.8178 388.25 21.3592H382.822ZM400.971 20.0581H404.219C404.037 17.63 402.048 16.1051 398.824 16.1051C395.551 16.1051 393.454 17.63 393.463 20.0747C393.454 21.9559 394.697 23.2073 397.134 23.688L399.239 24.1023C400.432 24.351 400.963 24.757 400.971 25.42C400.963 26.2405 400.126 26.7377 398.866 26.7377C397.581 26.7377 396.777 26.2239 396.603 25.2294H393.123C393.405 27.7156 395.418 29.2487 398.866 29.2487C402.247 29.2487 404.493 27.5747 404.501 25.0719C404.493 23.2322 403.3 22.13 400.838 21.6244L398.543 21.1603C397.349 20.9034 396.902 20.4559 396.91 19.8758C396.902 19.1134 397.755 18.583 398.882 18.583C400.043 18.583 400.822 19.1548 400.971 20.0581ZM7.85635 95.188V93.1327H6.04972V95.2211C6.03315 98.42 3.92818 101.205 0.762431 102.365L1.75691 103.823C4.25138 102.87 6.14088 100.939 7.02762 98.4614C7.94751 100.641 9.75414 102.365 12.0331 103.227L13.0442 101.768C9.99448 100.724 7.83978 98.0554 7.85635 95.188ZM3.9779 112.624H17.1381V105.232H3.9779V112.624ZM5.78453 111.116V106.724H15.3149V111.116H5.78453ZM15.2983 104.271H17.1381V98.8178H20.2707V97.2764H17.1381V92.0719H15.2983V104.271ZM25.582 103.575H27.2063L27.0737 99.9449L30.14 101.901L30.9356 100.475L27.7035 98.8012L30.9356 97.1272L30.14 95.7018L27.0737 97.6576L27.2063 94.0277H25.582L25.7146 97.6576L22.6483 95.7018L21.8527 97.1272L25.0847 98.8012L21.8527 100.475L22.6483 101.901L25.7146 99.9449L25.582 103.575ZM39.8954 95.188V93.1327H38.0888V95.2211C38.0722 98.42 35.9672 101.205 32.8015 102.365L33.796 103.823C36.2904 102.87 38.1799 100.939 39.0667 98.4614C39.9866 100.641 41.7932 102.365 44.0722 103.227L45.0833 101.768C42.0335 100.724 39.8788 98.0554 39.8954 95.188ZM36.017 112.624H49.1772V105.232H36.017V112.624ZM37.8236 111.116V106.724H47.354V111.116H37.8236ZM47.3374 104.271H49.1772V98.8178H52.3098V97.2764H49.1772V92.0719H47.3374V104.271ZM57.621 103.575H59.2453L59.1127 99.9449L62.179 101.901L62.9746 100.475L59.7426 98.8012L62.9746 97.1272L62.179 95.7018L59.1127 97.6576L59.2453 94.0277H57.621L57.7536 97.6576L54.6873 95.7018L53.8917 97.1272L57.1238 98.8012L53.8917 100.475L54.6873 101.901L57.7536 99.9449L57.621 103.575ZM71.9345 95.188V93.1327H70.1278V95.2211C70.1113 98.42 68.0063 101.205 64.8406 102.365L65.835 103.823C68.3295 102.87 70.219 100.939 71.1057 98.4614C72.0256 100.641 73.8323 102.365 76.1113 103.227L77.1223 101.768C74.0726 100.724 71.9179 98.0554 71.9345 95.188ZM68.056 112.624H81.2162V105.232H68.056V112.624ZM69.8627 111.116V106.724H79.393V111.116H69.8627ZM79.3765 104.271H81.2162V98.8178H84.3488V97.2764H81.2162V92.0719H79.3765V104.271ZM104.66 103.061H85.6656V104.553H104.66V103.061ZM87.7706 96.9283C87.7706 99.5305 90.638 101.089 95.1463 101.089C99.638 101.089 102.505 99.5305 102.505 96.9283C102.505 94.3261 99.638 92.7847 95.1463 92.8012C90.638 92.7847 87.7706 94.3261 87.7706 96.9283ZM88.1187 112.442H102.539V110.917H89.975V106.392H88.1187V112.442ZM89.6767 96.9283C89.6601 95.304 91.7982 94.2929 95.1463 94.2929C98.4943 94.2929 100.632 95.304 100.632 96.9283C100.632 98.5858 98.4943 99.5802 95.1463 99.5802C91.7982 99.5802 89.6601 98.5858 89.6767 96.9283ZM128.558 92.0719H126.719V112.89H128.558V102.1H131.94V100.542H128.558V92.0719ZM112.564 107.486L113.591 108.928C120.387 105.58 123.155 100.21 123.172 94.3095H113.542V95.8509H121.299C120.884 100.798 117.951 104.81 112.564 107.486ZM150.444 92.0885H148.604V95.9172H143.682V93.4642H141.859V97.1769H136.057V93.4642H134.218V103.939H143.682V101.917H148.604V107.503H150.444V92.0885ZM136.057 102.431V98.6189H141.859V102.431H136.057ZM136.969 112.442H150.925V110.917H138.825V105.995H136.969V112.442ZM143.682 100.392V97.4421H148.604V100.392H143.682ZM176.066 92.0719H174.226V112.89H176.066V102.1H179.447V100.542H176.066V92.0719ZM160.072 107.486L161.099 108.928C167.895 105.58 170.663 100.21 170.679 94.3095H161.05V95.8509H168.806C168.392 100.798 165.458 104.81 160.072 107.486ZM197.504 97.9062H185.107V92.4863H183.283V99.4145H197.504V97.9062ZM180.681 103.376H199.692V101.851H180.681V103.376ZM182.969 109.028C182.969 111.448 185.67 112.807 190.162 112.807C194.637 112.807 197.322 111.448 197.339 109.028C197.322 106.608 194.637 105.249 190.162 105.249C185.67 105.249 182.969 106.608 182.969 109.028ZM184.841 109.028C184.825 107.553 186.83 106.724 190.162 106.707C193.477 106.724 195.482 107.553 195.499 109.028C195.482 110.486 193.477 111.365 190.162 111.365C186.83 111.365 184.825 110.486 184.841 109.028ZM217.716 92.0885H215.876V107.702H217.716V100.508H220.849V98.9504H217.716V92.0885ZM201.473 96.1493H213.888V94.641H208.6V92.0885H206.777V94.641H201.473V96.1493ZM202.667 101.188C202.65 103.525 204.672 105.033 207.689 105.033C210.655 105.033 212.678 103.525 212.694 101.188C212.678 98.8178 210.655 97.2929 207.689 97.2929C204.672 97.2929 202.65 98.8178 202.667 101.188ZM204.423 101.188C204.407 99.6963 205.716 98.7349 207.689 98.7349C209.628 98.7349 210.937 99.6963 210.954 101.188C210.937 102.647 209.628 103.591 207.689 103.575C205.716 103.591 204.407 102.647 204.423 101.188ZM204.672 112.442H218.678V110.917H206.495V106.442H204.672V112.442ZM234.802 111.232C238.184 111.232 240.719 109.177 240.703 106.392C240.719 104.221 239.377 102.647 237.172 102.315V102.182C238.946 101.685 240.073 100.276 240.056 98.3537C240.073 95.9172 238.101 93.7957 234.869 93.7957C231.852 93.7957 229.349 95.6023 229.25 98.2874H231.289C231.371 96.63 233.029 95.6355 234.835 95.6355C236.775 95.6355 238.018 96.7626 238.018 98.4532C238.018 100.21 236.576 101.37 234.504 101.37H233.128V103.227H234.504C237.156 103.227 238.631 104.536 238.631 106.376C238.631 108.149 237.007 109.359 234.769 109.359C232.747 109.359 231.139 108.348 231.023 106.74H228.885C229.001 109.426 231.421 111.232 234.802 111.232ZM260.786 92.0719H258.996V100.475H256.095V92.6355H254.355V111.862H256.095V102H258.996V112.906H260.786V92.0719ZM243.018 107.122L244.095 108.431C250.095 105.083 251.952 100.077 251.968 94.7736H243.814V96.2985H250.17C249.863 100.608 247.874 104.42 243.018 107.122ZM270.556 93.5968C267.274 93.5968 264.921 95.5858 264.937 98.4863C264.921 101.387 267.274 103.376 270.556 103.376C273.838 103.376 276.158 101.387 276.175 98.4863C276.158 95.5858 273.838 93.5968 270.556 93.5968ZM263.86 106.774L264.108 108.348C267.871 108.348 272.992 108.332 277.766 107.437L277.617 106.077C273.009 106.757 267.705 106.79 263.86 106.774ZM266.744 98.4863C266.727 96.5471 268.335 95.2045 270.556 95.2045C272.76 95.2045 274.368 96.5471 274.368 98.4863C274.368 100.426 272.76 101.768 270.556 101.768C268.335 101.768 266.727 100.426 266.744 98.4863ZM278.992 112.939H280.832V92.0719H278.992V112.939ZM309.504 102.564H290.509V104.055H299.095V106.442H292.614V107.95H305.294V112.84H307.15V106.442H300.902V104.055H309.504V102.564ZM291.636 99.978L292.233 101.387C295.656 101.022 298.73 99.7626 299.998 97.641C301.25 99.7626 304.316 101.022 307.764 101.387L308.36 99.978C304.424 99.5885 301.134 97.9808 301.001 95.6023H307.565V94.1272H300.902V91.9725H299.095V94.1272H292.465V95.6023H298.987C298.846 97.9808 295.54 99.5885 291.636 99.978ZM320.732 92.4366C316.091 92.4366 313.357 93.7128 313.357 96.0333C313.357 98.3869 316.091 99.6631 320.732 99.6797C325.373 99.6631 328.091 98.3869 328.091 96.0333C328.091 93.7128 325.373 92.4366 320.732 92.4366ZM311.252 102.58H330.246V101.089H311.252V102.58ZM313.555 105.796H325.986V107.685H313.605V112.674H328.423V111.216H315.412V109.044H327.793V104.387H313.555V105.796ZM315.279 96.0333C315.263 94.6576 317.285 93.8289 320.732 93.8289C324.196 93.8289 326.218 94.6576 326.218 96.0333C326.218 97.4753 324.196 98.2708 320.732 98.2708C317.285 98.2708 315.263 97.4753 315.279 96.0333ZM354.144 92.0719H352.304V112.89H354.144V102.1H357.525V100.542H354.144V92.0719ZM338.15 107.486L339.177 108.928C345.973 105.58 348.741 100.21 348.758 94.3095H339.128V95.8509H346.885C346.47 100.798 343.537 104.81 338.15 107.486ZM366.218 98.4697V95.7515H371.174V94.2101H359.439V95.7515H364.362V98.4697C364.345 102.066 361.743 106.011 358.759 107.437L359.853 108.895C362.232 107.702 364.337 105.05 365.315 102C366.293 104.876 368.389 107.271 370.826 108.381L371.853 106.923C368.787 105.597 366.218 102 366.218 98.4697ZM374.091 112.906H375.931V92.0719H374.091V112.906ZM396.209 94.1769H381.524V95.7018H394.369V96.2487C394.352 98.7515 394.352 101.669 393.573 105.647L395.43 105.862C396.192 101.669 396.192 98.8178 396.209 96.2487V94.1769ZM379.502 109.956H398.496V108.414H388.767V100.972H386.944V108.414H379.502V109.956ZM413.311 106.044V104.901H411.538V106.044C411.521 108.05 409.93 110.271 407.295 111.249L408.223 112.608C410.22 111.862 411.654 110.42 412.408 108.738C413.03 110.486 414.314 112.011 416.345 112.79C418.275 111.97 419.543 110.37 420.19 108.671C420.911 110.42 422.369 111.879 424.45 112.608L425.378 111.249C422.693 110.337 421.118 108.199 421.135 106.044V104.901H419.328V106.044C419.328 107.66 418.275 109.757 416.287 110.984C414.314 109.856 413.311 107.892 413.311 106.044ZM406.748 98.1714C406.748 101.039 409.052 103.011 412.217 103.011C415.383 103.011 417.67 101.039 417.67 98.1714C417.67 95.2708 415.383 93.2985 412.217 93.2985C409.052 93.2985 406.748 95.2708 406.748 98.1714ZM408.554 98.1714C408.538 96.2322 410.079 94.8565 412.217 94.873C414.339 94.8565 415.88 96.2322 415.88 98.1714C415.88 100.111 414.339 101.47 412.217 101.486C410.079 101.47 408.538 100.111 408.554 98.1714ZM421.632 103.989H423.472V92.0885H421.632V103.989ZM431.252 104.569H429.429V112.624H443.518V104.569H441.661V107.006H431.252V104.569ZM427.009 103.111H446.004V101.569H427.009V103.111ZM428.087 98.6355L428.783 100.094C431.998 99.6134 435.189 97.9891 436.515 95.6438C437.833 97.9642 441.007 99.6134 444.23 100.094L444.91 98.6355C441.247 98.1548 437.451 95.8509 437.451 93.2819V92.304H435.562V93.2819C435.562 95.9338 431.799 98.1217 428.087 98.6355ZM431.252 111.133V108.464H441.661V111.133H431.252ZM464.923 92.0719H463.1V112.906H464.923V92.0719ZM449.111 107.536H450.801C454.133 107.536 457.431 107.271 461.127 106.508L460.879 104.934C457.373 105.671 454.1 105.92 450.917 105.928V94.1272H449.111V107.536ZM484.621 92.0719H482.781V112.939H484.621V101.851H488.101V100.31H484.621V92.0719ZM469.405 107.718H471.046C475.008 107.718 477.742 107.602 481.008 107.022L480.776 105.431C477.684 106.003 475.016 106.152 471.245 106.16V95.6189H479.135V94.1106H469.405V107.718ZM491.44 111.133C492.269 111.133 492.949 110.453 492.949 109.624C492.949 108.796 492.269 108.116 491.44 108.116C490.612 108.116 489.915 108.796 489.932 109.624C489.915 110.453 490.612 111.133 491.44 111.133ZM17.4199 133.901H3.26519V135.409H15.5967C15.5967 136.776 15.5718 138.442 15.1077 140.729H0.812155V142.238H9.41436V145.304H11.2376V142.238H19.8895V140.729H16.9558C17.4199 138.434 17.4199 136.627 17.4199 135.227V133.901ZM2.90055 146.796H8.07182V148.702H2.9337V153.674H4.22652C7.75691 153.658 9.44751 153.591 11.6188 153.127L11.4365 151.702C9.4558 152.141 7.83149 152.24 4.74033 152.249V150.061H9.8453V145.387H2.90055V146.796ZM10.9724 146.895H15.8122V153.79H17.6519V145.387H10.9724V146.895ZM38.8085 133.072H36.9687V153.906H38.8085V133.072ZM21.8527 148.486L22.8472 149.995C29.8416 146.63 32.6262 141.326 32.6427 135.343H22.814V136.834H30.7698C30.3637 141.807 27.488 145.818 21.8527 148.486ZM43.7882 144.856C43.7882 149.033 44.9153 152.514 46.954 155.464H48.744C47.1529 153.276 45.8766 148.801 45.8766 144.856C45.8766 140.912 47.1529 136.437 48.744 134.249H46.954C44.9153 137.199 43.7882 140.68 43.7882 144.856ZM54.6696 152H56.8574L60.5867 138.575H60.7193L64.432 152H66.6199L71.2607 135.028H69.1061L65.5757 148.768H65.4265L61.8298 135.028H59.4596L55.8795 148.768H55.7138L52.1834 135.028H50.0287L54.6696 152ZM77.391 152.265C80.0098 152.265 81.8993 150.956 82.496 149.017H80.3413C79.8772 149.812 78.9159 150.475 77.391 150.475C75.1286 150.475 73.5623 149 73.4711 146.315H82.6949V145.47C82.6949 140.746 79.8772 139.105 77.1921 139.105C73.7446 139.105 71.4407 141.823 71.4407 145.735C71.4407 149.647 73.7115 152.265 77.391 152.265ZM73.4711 144.591C73.6037 142.635 74.996 140.895 77.2087 140.895C79.2971 140.895 80.6396 142.47 80.6396 144.591H73.4711ZM85.303 152H87.3251V139.271H85.303V152ZM84.9053 135.823C84.9053 136.569 85.5517 137.166 86.3307 137.166C87.0931 137.166 87.7395 136.569 87.7395 135.823C87.7395 135.077 87.0931 134.481 86.3307 134.481C85.5517 134.481 84.9053 135.077 84.9053 135.823ZM95.7009 157.039C98.8003 157.039 101.22 155.63 101.22 152.348V139.271H99.2644V141.293H99.0821C98.6346 140.613 97.839 139.105 95.3694 139.105C92.1705 139.105 89.9329 141.542 89.9329 145.47C89.9329 149.464 92.2534 151.801 95.3362 151.801C97.8059 151.801 98.618 150.359 99.0489 149.647H99.2147V152.232C99.2147 154.337 97.8722 155.282 95.7009 155.282C93.8943 155.282 92.6843 154.635 92.4191 153.326H90.2976C90.5296 155.696 92.618 157.039 95.7009 157.039ZM91.9716 145.536C91.9716 142.967 93.1815 140.912 95.6346 140.912C97.9882 140.912 99.2478 142.801 99.2478 145.536C99.2478 148.337 97.955 150.011 95.6346 150.011C93.2147 150.011 91.9716 148.171 91.9716 145.536ZM106.45 144.359C106.45 142.155 107.859 140.912 109.765 140.912C111.588 140.912 112.682 142.055 112.682 144.061V152H114.704V143.912C114.704 140.647 112.964 139.105 110.362 139.105C108.356 139.105 107.213 139.95 106.616 141.276H106.45V135.028H104.428V152H106.45V144.359ZM123.497 139.271H120.812V136.221H118.79V139.271H116.867V140.961H118.79V148.868C118.79 151.105 120.58 152.166 122.271 152.166C122.867 152.166 123.365 152.116 123.679 152.066V150.193C123.381 150.21 122.851 150.243 122.486 150.243C121.624 150.243 120.812 149.978 120.812 148.337V140.961H123.497V139.271ZM130.344 144.856C130.344 140.68 129.217 137.199 127.178 134.249H125.388C126.979 136.437 128.256 140.912 128.256 144.856C128.256 148.801 126.979 153.276 125.388 155.464H127.178C129.217 152.514 130.344 149.033 130.344 144.856ZM136.916 150.409H134.662L133.369 156.79H135.109L136.916 150.409ZM162.86 133.072H161.021V153.939H162.86V133.072ZM146.899 148.901H156.761V134.845H154.938V140.348H148.739V134.845H146.899V148.901ZM148.739 147.359V141.823H154.938V147.359H148.739ZM175.912 133.321C171.271 133.321 168.536 134.613 168.536 136.934C168.536 139.271 171.271 140.547 175.912 140.564C180.553 140.547 183.271 139.271 183.271 136.934C183.271 134.613 180.553 133.321 175.912 133.321ZM166.431 143.332H171.603V145.387H168.735V146.796H181.166V148.685H168.785V153.674H183.603V152.216H170.591V150.044H182.973V145.387H180.122V143.332H185.426V141.823H166.431V143.332ZM170.459 136.934C170.442 135.558 172.464 134.746 175.912 134.729C179.376 134.746 181.398 135.558 181.398 136.934C181.398 138.359 179.376 139.138 175.912 139.155C172.464 139.138 170.442 138.359 170.459 136.934ZM173.426 145.387V143.332H178.282V145.387H173.426ZM188.632 144.856C188.632 149.033 189.759 152.514 191.798 155.464H193.588C191.997 153.276 190.72 148.801 190.72 144.856C190.72 140.912 191.997 136.437 193.588 134.249H191.798C189.759 137.199 188.632 140.68 188.632 144.856ZM196.381 152H198.486V145.403H202.182C202.314 145.403 202.455 145.403 202.58 145.395L206.143 152H208.596L204.767 145.014C206.922 144.268 207.933 142.503 207.933 140.249C207.933 137.232 206.127 135.028 202.149 135.028H196.381V152ZM198.486 143.497V136.901H202.066C204.784 136.901 205.845 138.227 205.845 140.249C205.845 142.271 204.784 143.497 202.082 143.497H198.486ZM210.12 148.387C210.12 150.873 212.043 152.298 214.463 152.298C216.667 152.298 217.828 151.122 218.242 150.276H218.341V152H220.347V143.613C220.347 139.602 217.214 139.105 215.557 139.105C212.739 139.105 210.75 140.531 210.502 142.586H212.59C212.888 141.608 213.85 140.862 215.457 140.862C217.38 140.862 218.341 141.807 218.341 143.414V144.45C217.778 144.467 215.723 144.583 214.894 144.641C212.689 144.807 210.12 145.47 210.12 148.387ZM212.143 148.486C212.143 147.094 213.303 146.448 215.143 146.332C215.747 146.29 217.745 146.141 218.341 146.108V147.392C218.341 148.984 217.082 150.508 214.794 150.508C213.253 150.508 212.143 149.829 212.143 148.486ZM229.13 139.271H226.445V136.221H224.423V139.271H222.5V140.961H224.423V148.868C224.423 151.105 226.213 152.166 227.903 152.166C228.5 152.166 228.997 152.116 229.312 152.066V150.193C229.014 150.21 228.484 150.243 228.119 150.243C227.257 150.243 226.445 149.978 226.445 148.337V140.961H229.13V139.271ZM231.717 152H233.739V139.271H231.717V152ZM231.319 135.823C231.319 136.569 231.966 137.166 232.745 137.166C233.507 137.166 234.154 136.569 234.154 135.823C234.154 135.077 233.507 134.481 232.745 134.481C231.966 134.481 231.319 135.077 231.319 135.823ZM242.148 152.265C245.612 152.265 247.933 149.647 247.933 145.702C247.933 141.724 245.612 139.105 242.148 139.105C238.684 139.105 236.347 141.724 236.347 145.702C236.347 149.647 238.684 152.265 242.148 152.265ZM238.369 145.702C238.369 143.166 239.562 140.895 242.148 140.895C244.717 140.895 245.911 143.166 245.911 145.702C245.911 148.238 244.717 150.475 242.148 150.475C239.562 150.475 238.369 148.238 238.369 145.702ZM254.563 144.856C254.563 140.68 253.436 137.199 251.397 134.249H249.607C251.198 136.437 252.474 140.912 252.474 144.856C252.474 148.801 251.198 153.276 249.607 155.464H251.397C253.436 152.514 254.563 149.033 254.563 144.856ZM261.135 150.409H258.881L257.588 156.79H259.328L261.135 150.409ZM288.886 142.984H279.587V138.757H277.781V142.984H269.924V144.508H288.886V142.984ZM271.946 148.403H284.609V153.906H286.466V146.895H271.946V148.403ZM272.179 135.707H284.643V135.79C284.643 137.348 284.643 139.022 284.112 141.359L285.969 141.542C286.466 139.171 286.466 137.381 286.482 135.79V134.216H272.179V135.707ZM309.694 142.586H290.617V144.011H295.805V145.901H292.921V147.26H305.484V149.05H292.954V153.674H307.987V152.332H294.794V150.326H307.307V145.901H304.539V144.011H309.694V142.586ZM293.037 135.011H305.401V136.735H293.103V141.111H307.606V139.768H294.926V137.978H307.241V133.685H293.037V135.011ZM297.611 145.901V144.011H302.716V145.901H297.611ZM312.851 144.856C312.851 149.033 313.978 152.514 316.016 155.464H317.807C316.215 153.276 314.939 148.801 314.939 144.856C314.939 140.912 316.215 136.437 317.807 134.249H316.016C313.978 137.199 312.851 140.68 312.851 144.856ZM320.599 152H322.704V145.403H326.401C326.533 145.403 326.674 145.403 326.798 145.395L330.362 152H332.815L328.986 145.014C331.141 144.268 332.152 142.503 332.152 140.249C332.152 137.232 330.345 135.028 326.367 135.028H320.599V152ZM322.704 143.497V136.901H326.285C329.003 136.901 330.064 138.227 330.064 140.249C330.064 142.271 329.003 143.497 326.301 143.497H322.704ZM334.339 148.387C334.339 150.873 336.262 152.298 338.682 152.298C340.886 152.298 342.046 151.122 342.461 150.276H342.56V152H344.566V143.613C344.566 139.602 341.433 139.105 339.776 139.105C336.958 139.105 334.969 140.531 334.72 142.586H336.809C337.107 141.608 338.068 140.862 339.676 140.862C341.599 140.862 342.56 141.807 342.56 143.414V144.45C341.997 144.467 339.941 144.583 339.113 144.641C336.908 144.807 334.339 145.47 334.339 148.387ZM336.361 148.486C336.361 147.094 337.521 146.448 339.361 146.332C339.966 146.29 341.963 146.141 342.56 146.108V147.392C342.56 148.984 341.301 150.508 339.013 150.508C337.472 150.508 336.361 149.829 336.361 148.486ZM352.586 152.265C355.023 152.265 355.851 150.757 356.299 150.044H356.514V152H358.47V135.028H356.448V141.293H356.299C355.868 140.613 355.089 139.105 352.619 139.105C349.42 139.105 347.183 141.641 347.183 145.669C347.183 149.713 349.42 152.265 352.586 152.265ZM349.222 145.635C349.222 142.967 350.432 140.912 352.885 140.912C355.238 140.912 356.498 142.801 356.498 145.635C356.498 148.486 355.205 150.459 352.885 150.459C350.465 150.459 349.222 148.337 349.222 145.635ZM361.959 152H363.981V139.271H361.959V152ZM361.562 135.823C361.562 136.569 362.208 137.166 362.987 137.166C363.749 137.166 364.396 136.569 364.396 135.823C364.396 135.077 363.749 134.481 362.987 134.481C362.208 134.481 361.562 135.077 361.562 135.823ZM375.225 146.779C375.225 149.149 373.418 150.227 371.976 150.227C370.352 150.227 369.208 149.05 369.208 147.21V139.271H367.186V147.359C367.186 150.591 368.91 152.166 371.313 152.166C373.236 152.166 374.495 151.138 375.092 149.845H375.225V152H377.23V139.271H375.225V146.779ZM387.529 142.586H389.518C389.253 140.514 387.595 139.105 384.96 139.105C382.159 139.105 380.253 140.68 380.253 142.851C380.253 144.558 381.429 145.768 383.65 146.282L385.573 146.729C387.015 147.061 387.661 147.658 387.661 148.553C387.661 149.746 386.518 150.508 384.711 150.508C383.103 150.508 382.192 149.912 381.96 148.669H379.855C380.186 150.989 381.893 152.265 384.744 152.265C387.943 152.265 389.733 150.641 389.733 148.437C389.733 146.663 388.623 145.536 386.352 144.989L384.446 144.525C382.954 144.16 382.275 143.58 382.275 142.735C382.275 141.674 383.385 140.829 384.96 140.829C386.451 140.829 387.264 141.525 387.529 142.586ZM396.617 144.856C396.617 140.68 395.49 137.199 393.452 134.249H391.662C393.253 136.437 394.529 140.912 394.529 144.856C394.529 148.801 393.253 153.276 391.662 155.464H393.452C395.49 152.514 396.617 149.033 396.617 144.856ZM409.256 133.437C404.615 133.437 401.88 134.713 401.88 137.033C401.88 139.387 404.615 140.663 409.256 140.68C413.897 140.663 416.615 139.387 416.615 137.033C416.615 134.713 413.897 133.437 409.256 133.437ZM399.775 143.58H418.769V142.089H399.775V143.58ZM402.079 146.796H414.51V148.685H402.129V153.674H416.946V152.216H403.935V150.044H416.316V145.387H402.079V146.796ZM403.803 137.033C403.786 135.658 405.808 134.829 409.256 134.829C412.72 134.829 414.742 135.658 414.742 137.033C414.742 138.475 412.72 139.271 409.256 139.271C405.808 139.271 403.786 138.475 403.803 137.033ZM443.712 133.089H441.856V145.403H437.563V146.746H441.856V148.917H443.712V133.089ZM426.425 142.735L426.673 144.243C428.422 144.252 430.436 144.243 432.541 144.16V148.188H434.38V144.069C436.303 143.953 438.251 143.763 440.115 143.464L439.983 142.122C435.524 142.685 430.303 142.718 426.425 142.735ZM428.099 137.564C428.099 139.785 430.187 141.177 433.27 141.177C436.32 141.177 438.408 139.785 438.425 137.564C438.408 135.376 436.32 133.934 433.27 133.934C430.187 133.934 428.099 135.376 428.099 137.564ZM429.425 153.442H444.226V151.917H431.264V147.359H429.425V153.442ZM429.856 137.564C429.839 136.221 431.231 135.31 433.27 135.326C435.242 135.31 436.651 136.221 436.668 137.564C436.651 138.923 435.242 139.801 433.27 139.801C431.231 139.801 429.839 138.923 429.856 137.564ZM463.41 133.072H461.587V153.906H463.41V143.199H466.891V141.658H463.41V133.072ZM447.167 137.945H459.565V136.42H454.36V133.321H452.52V136.42H447.167V137.945ZM448.36 144.459C448.344 147.276 450.498 149.232 453.465 149.232C456.415 149.232 458.554 147.276 458.57 144.459C458.554 141.641 456.415 139.669 453.465 139.669C450.498 139.669 448.344 141.641 448.36 144.459ZM450.117 144.459C450.1 142.569 451.526 141.21 453.465 141.21C455.388 141.21 456.797 142.569 456.813 144.459C456.797 146.348 455.388 147.691 453.465 147.674C451.526 147.691 450.1 146.348 450.117 144.459ZM484.865 139.387H472.434V133.834H470.611V140.879H484.865V139.387ZM467.992 145.205H487.069V143.713H467.992V145.205ZM470.478 153.392H484.997V151.868H472.301V147.326H470.478V153.392ZM18.6464 173.072H16.8895V181.442H13.8398V173.536H12.1326V192.812H13.8398V182.967H16.8895V193.906H18.6464V173.072ZM1.60773 188.752H2.95028C6.14917 188.735 8.27072 188.652 10.7735 188.122L10.6077 186.58C8.30387 187.053 6.3232 187.169 3.44751 187.177V177.133H9.41436V175.624H1.60773V188.752ZM40.6648 189.763H31.9798V185.834H38.7422V184.31H25.7974V180.912H38.2615V174.613H23.9245V176.138H36.4383V179.403H23.9742V185.834H30.1566V189.763H21.5875V191.321H40.6648V189.763ZM67.4305 189.68H58.7951V184.608H56.9553V189.68H48.3531V191.221H67.4305V189.68ZM49.2979 183.879L50.0603 185.337C53.1846 184.691 56.5327 182.619 57.8752 179.727C59.2178 182.602 62.5824 184.624 65.7564 185.254L66.5189 183.796C62.9222 183.216 58.8117 180.348 58.8117 177.033V176.519H65.7896V174.961H49.9277V176.519H56.9056V177.033C56.9056 180.348 52.8117 183.265 49.2979 183.879ZM86.366 173.072H84.5262V178.508H80.3163V180.033H84.5262V185.486H86.366V173.072ZM69.1782 183.829L70.1395 185.287C72.6257 184.351 74.5566 182.403 75.4517 179.967C76.355 182.113 78.1699 183.862 80.5152 184.707L81.4765 183.232C78.4268 182.188 76.3384 179.602 76.3384 176.884V176.122H80.9959V174.597H69.7749V176.122H74.482V176.901C74.482 179.884 72.2776 182.702 69.1782 183.829ZM72.4765 190.011C72.4599 192.464 75.1119 193.873 79.4544 193.89C83.7804 193.873 86.4323 192.464 86.4323 190.011C86.4323 187.558 83.7804 186.133 79.4544 186.133C75.1119 186.133 72.4599 187.558 72.4765 190.011ZM74.2997 190.011C74.2831 188.486 76.2555 187.575 79.4544 187.575C82.6367 187.575 84.6091 188.486 84.6091 190.011C84.6091 191.519 82.6367 192.431 79.4544 192.414C76.2555 192.431 74.2831 191.519 74.2997 190.011ZM100.246 176.669H95.9535V173.702H94.1137V176.669H89.7878V178.177H100.246V176.669ZM90.5502 184.31C90.5336 187.111 92.4231 189.083 95.0253 189.083C97.6441 189.083 99.517 187.111 99.5336 184.31C99.517 181.542 97.6441 179.586 95.0253 179.586C92.4231 179.586 90.5336 181.542 90.5502 184.31ZM92.1745 184.31C92.1745 182.486 93.3679 181.144 95.0253 181.127C96.6828 181.144 97.8927 182.486 97.8927 184.31C97.8927 186.166 96.6828 187.492 95.0253 187.475C93.3679 187.492 92.1745 186.166 92.1745 184.31ZM101.324 192.879H103.064V183.381H105.832V193.906H107.589V173.072H105.832V181.856H103.064V173.569H101.324V192.879ZM132.73 173.072H130.89V193.939H132.73V182.851H136.211V181.31H132.73V173.072ZM117.515 188.718H119.156C123.117 188.718 125.852 188.602 129.117 188.022L128.885 186.431C125.794 187.003 123.125 187.152 119.354 187.16V176.619H127.244V175.111H117.515V188.718ZM156.721 176.221H153.638V173.072H151.798V185.437H153.638V182.205H156.721V180.647H153.638V177.746H156.721V176.221ZM137.743 179.221C137.727 182.122 140.047 184.111 143.213 184.127C146.378 184.111 148.666 182.122 148.682 179.221C148.666 176.321 146.378 174.315 143.213 174.332C140.047 174.315 137.727 176.321 137.743 179.221ZM139.55 179.221C139.533 177.265 141.091 175.873 143.213 175.89C145.334 175.873 146.876 177.265 146.892 179.221C146.876 181.193 145.334 182.553 143.213 182.569C141.091 182.553 139.533 181.193 139.55 179.221ZM140.047 189.978C140.047 192.414 142.699 193.856 146.959 193.856C151.202 193.856 153.82 192.414 153.82 189.978C153.82 187.508 151.202 186.083 146.959 186.066C142.699 186.083 140.047 187.508 140.047 189.978ZM141.887 189.978C141.87 188.47 143.809 187.575 146.959 187.575C150.108 187.575 152.03 188.47 152.03 189.978C152.03 191.486 150.108 192.365 146.959 192.365C143.809 192.365 141.87 191.486 141.887 189.978ZM174.215 173.072H172.391V193.906H174.215V183.199H177.695V181.658H174.215V173.072ZM157.971 177.945H170.369V176.42H165.165V173.321H163.325V176.42H157.971V177.945ZM159.165 184.459C159.148 187.276 161.303 189.232 164.27 189.232C167.22 189.232 169.358 187.276 169.375 184.459C169.358 181.641 167.22 179.669 164.27 179.669C161.303 179.669 159.148 181.641 159.165 184.459ZM160.922 184.459C160.905 182.569 162.331 181.21 164.27 181.21C166.192 181.21 167.601 182.569 167.618 184.459C167.601 186.348 166.192 187.691 164.27 187.674C162.331 187.691 160.905 186.348 160.922 184.459ZM196.664 173.072H194.907V193.906H196.664V173.072ZM178.846 188.072L179.924 189.398C182.832 187.682 184.846 185.536 186.106 183.116H190.531V192.845H192.288V173.635H190.531V181.624H186.785C187.498 179.768 187.821 177.779 187.83 175.724H179.741V177.265H185.99C185.642 181.624 183.371 185.387 178.846 188.072ZM221.855 173.072H220.015V185.37H221.855V179.984H224.971V178.409H221.855V173.072ZM205.496 183.497L205.711 184.873C209.374 184.873 214.38 184.84 218.872 184.094L218.722 182.868C216.899 183.124 214.935 183.274 212.988 183.365V182.138C215.407 181.939 216.916 180.961 216.932 179.387C216.916 177.68 215.01 176.685 212.043 176.685C209.076 176.685 207.153 177.68 207.17 179.387C207.153 180.978 208.695 181.948 211.148 182.138V183.439C209.109 183.497 207.162 183.497 205.496 183.497ZM206.026 175.989H218.093V174.663H212.988V172.873H211.148V174.663H206.026V175.989ZM208.28 187.624H220.032V189.265H208.33V193.674H222.651V192.348H210.153V190.492H221.855V186.315H208.28V187.624ZM208.927 179.387C208.91 178.475 210.12 177.928 212.043 177.912C213.965 177.928 215.175 178.475 215.175 179.387C215.175 180.332 213.965 180.928 212.043 180.928C210.12 180.928 208.91 180.332 208.927 179.387ZM245.332 183.381H240.608V180.423C242.249 179.785 243.177 178.724 243.177 177.332C243.177 174.879 240.36 173.47 235.818 173.47C231.26 173.47 228.442 174.879 228.442 177.332C228.442 178.732 229.379 179.793 231.045 180.439V183.381H226.337V184.89H245.332V183.381ZM228.625 190.16C228.625 192.547 231.31 193.856 235.818 193.856C240.293 193.856 242.978 192.547 242.995 190.16C242.978 187.79 240.293 186.481 235.818 186.497C231.31 186.481 228.625 187.79 228.625 190.16ZM230.349 177.332C230.332 175.823 232.42 174.912 235.818 174.912C239.199 174.912 241.304 175.823 241.304 177.332C241.304 178.856 239.199 179.735 235.818 179.735C232.42 179.735 230.332 178.856 230.349 177.332ZM230.498 190.16C230.481 188.752 232.487 187.923 235.818 187.906C239.133 187.923 241.139 188.752 241.155 190.16C241.139 191.586 239.133 192.431 235.818 192.414C232.487 192.431 230.481 191.586 230.498 190.16ZM232.884 183.381V180.928C233.755 181.086 234.741 181.16 235.818 181.16C236.912 181.16 237.907 181.077 238.785 180.92V183.381H232.884ZM257.489 176.669H253.196V173.702H251.356V176.669H247.03V178.177H257.489V176.669ZM247.792 184.31C247.776 187.111 249.665 189.083 252.268 189.083C254.886 189.083 256.759 187.111 256.776 184.31C256.759 181.542 254.886 179.586 252.268 179.586C249.665 179.586 247.776 181.542 247.792 184.31ZM249.417 184.31C249.417 182.486 250.61 181.144 252.268 181.127C253.925 181.144 255.135 182.486 255.135 184.31C255.135 186.166 253.925 187.492 252.268 187.475C250.61 187.492 249.417 186.166 249.417 184.31ZM258.566 192.879H260.306V183.381H263.074V193.906H264.831V173.072H263.074V181.856H260.306V173.569H258.566V192.879ZM286.899 189.696H278.214V185.205H284.562V174.547H282.739V178.31H271.916V174.547H270.076V185.205H276.391V189.696H267.822V191.238H286.899V189.696ZM271.916 183.696V179.818H282.739V183.696H271.916ZM294.746 178.989V175.028H292.973V179.072C292.973 182.635 291.216 186.332 288.332 188.022L289.509 189.398C291.589 188.13 293.13 185.743 293.893 182.984C294.63 185.511 296.064 187.74 298.078 188.95L299.139 187.525C296.371 185.884 294.746 182.304 294.746 178.989ZM296.835 182.105H300.365V192.845H302.105V173.519H300.365V180.547H296.835V182.105ZM304.641 193.906H306.415V173.072H304.641V193.906ZM328.384 189.68H323.643V184.011C325.367 183.083 326.411 181.608 326.411 179.752C326.411 176.519 323.245 174.398 318.787 174.381C314.345 174.398 311.179 176.519 311.179 179.752C311.179 181.633 312.257 183.133 314.03 184.061V189.68H309.306V191.221H328.384V189.68ZM312.953 179.752C312.953 177.414 315.373 175.873 318.787 175.89C322.185 175.873 324.638 177.414 324.638 179.752C324.638 182.072 322.185 183.63 318.787 183.63C315.373 183.63 312.953 182.072 312.953 179.752ZM315.837 189.68V184.74C316.732 184.964 317.718 185.089 318.787 185.089C319.873 185.089 320.884 184.964 321.787 184.732V189.68H315.837ZM332.253 192.133C333.082 192.133 333.761 191.453 333.761 190.624C333.761 189.796 333.082 189.116 332.253 189.116C331.424 189.116 330.728 189.796 330.745 190.624C330.728 191.453 331.424 192.133 332.253 192.133Z" fill="black"/>
</svg>
