<svg width="290" height="76" viewBox="0 0 290 76" fill="none" xmlns="http://www.w3.org/2000/svg">
<path d="M1.27592 47.5L21.4835 22H158.517L178.724 47.5L158.517 73H21.4835L1.27592 47.5Z" fill="white" stroke="black" stroke-width="2"/>
<path d="M40.8125 44.4688H37.8594V47.0234H29.6328V49.4375H49.0859V47.0234H40.8125V44.4688ZM30.4766 43.3438L31.5312 45.6875C35.5391 45.2891 38.2109 43.7891 39.3359 41.7383C40.4727 43.8008 43.168 45.2891 47.1875 45.6875L48.2422 43.3438C44.2344 42.9688 42.0547 41.5508 41.5273 40.0859H47.3281V37.7422H31.4141V40.0859H37.168C36.6289 41.5625 34.4492 42.9688 30.4766 43.3438ZM31.8594 54.3828C31.8594 56.8086 34.6602 58.168 39.3359 58.1562C43.9766 58.168 46.7422 56.8086 46.7656 54.3828C46.7422 51.957 43.9766 50.6094 39.3359 50.6094C34.6602 50.6094 31.8594 51.957 31.8594 54.3828ZM34.9062 54.3828C34.8945 53.3633 36.3477 52.8828 39.3359 52.8828C42.2539 52.8828 43.7539 53.3633 43.7656 54.3828C43.7539 55.4258 42.2539 55.9297 39.3359 55.9297C36.3477 55.9297 34.8945 55.4258 34.9062 54.3828ZM69.875 49.3438H50.3516V51.6875H54.9219V58.1562H57.8984V51.6875H62.3516V58.1562H65.375V51.6875H69.875V49.3438ZM52.6016 39.8984H64.5547V41.4922H52.6719V47.7969H68.1172V45.4062H55.6953V43.6719H67.625V37.4609H52.6016V39.8984ZM89.4688 44.3281H91.6484C91.0156 41.0469 88.25 38.7969 84.6641 38.7969C80.3047 38.7969 77.2227 42.1484 77.2344 47.5156C77.2227 52.8828 80.2695 56.2344 84.8047 56.2344C88.8477 56.2344 91.7422 53.5273 91.7422 49.3203V47.4922H85.25V49.3438H89.6797C89.6445 52.3555 87.6641 54.2539 84.8047 54.2656C81.6641 54.2539 79.2852 51.8867 79.2734 47.5156C79.2852 43.1328 81.6641 40.7656 84.6641 40.7656C87.0898 40.7656 88.7422 42.1484 89.4688 44.3281ZM96.6641 39.0312H94.6484V56H96.6641V39.0312ZM101.164 60.7812C102.969 60.7695 104.211 59.832 104.961 57.8281L110.352 43.2734H108.148L104.68 53.375H104.539L101.07 43.2734H98.8672L103.578 56.0938L103.203 57.0547C102.535 58.918 101.844 58.9648 101.023 58.9766C100.707 58.9648 100.25 58.9531 100.039 58.9297V60.7344C100.297 60.7578 100.73 60.7695 101.164 60.7812ZM112.578 60.7812H114.594V54.0547H114.758C115.191 54.7578 116.035 56.2695 118.461 56.2578C121.637 56.2695 123.852 53.7148 123.852 49.6719C123.852 45.6406 121.637 43.1094 118.438 43.1094C115.965 43.1094 115.191 44.6094 114.758 45.2891H114.523V43.2734H112.578V60.7812ZM114.547 49.625C114.559 46.8008 115.801 44.9141 118.18 44.9141C120.629 44.9141 121.836 46.9648 121.836 49.625C121.836 52.332 120.594 54.4531 118.18 54.4531C115.836 54.4531 114.559 52.4844 114.547 49.625ZM128.492 48.3594C128.492 46.1562 129.898 44.9141 131.797 44.9141C133.625 44.9141 134.727 46.0508 134.727 48.0547V56H136.742V47.9141C136.742 44.6445 135.008 43.1094 132.406 43.1094C130.391 43.1094 129.254 43.9531 128.656 45.2656H128.492V39.0312H126.477V56H128.492V48.3594ZM147.055 46.5781H149.023C148.766 44.5156 147.113 43.1094 144.477 43.1094C141.676 43.1094 139.766 44.6797 139.766 46.8594C139.766 48.5586 140.949 49.7656 143.164 50.2812L145.086 50.7266C146.527 51.0664 147.172 51.6523 147.172 52.5547C147.172 53.75 146.035 54.5117 144.219 54.5C142.613 54.5117 141.711 53.9141 141.477 52.6719H139.367C139.707 54.9922 141.406 56.2695 144.266 56.2578C147.453 56.2695 149.246 54.6406 149.258 52.4375C149.246 50.668 148.133 49.5312 145.859 48.9922L143.961 48.5234C142.473 48.1602 141.793 47.5859 141.781 46.7422C141.793 45.6758 142.906 44.832 144.477 44.8203C145.965 44.832 146.773 45.5234 147.055 46.5781Z" fill="black"/>
<line x1="49" y1="4.37114e-08" x2="49" y2="20" stroke="black" stroke-width="2"/>
<line x1="130" y1="4.37114e-08" x2="130" y2="20" stroke="black" stroke-width="2"/>
<line x1="53" y1="4.37114e-08" x2="53" y2="20" stroke="black" stroke-width="2"/>
<line x1="134" y1="4.37114e-08" x2="134" y2="20" stroke="black" stroke-width="2"/>
<circle cx="207.5" cy="47.5" r="25.5" fill="white" stroke="black" stroke-width="2"/>
<line x1="206" y1="4.37114e-08" x2="206" y2="20" stroke="black" stroke-width="2"/>
<line x1="210" y1="4.37114e-08" x2="210" y2="20" stroke="black" stroke-width="2"/>
<path d="M202.43 62.368C202.195 62.304 202.003 62.1653 201.854 61.952C201.726 61.7387 201.683 61.5147 201.726 61.28C202.024 59.872 202.312 58.4533 202.59 57.024C202.867 55.5947 203.144 54.176 203.422 52.768C203.443 52.6827 203.464 52.5973 203.486 52.512C203.528 52.4267 203.582 52.3413 203.646 52.256L207.838 46.528L206.398 38.976L203.134 42.464C203.07 42.5493 202.995 42.624 202.91 42.688C202.824 42.7307 202.728 42.7733 202.622 42.816C201.747 43.136 200.872 43.456 199.998 43.776C199.123 44.096 198.248 44.416 197.374 44.736C197.139 44.8213 196.904 44.8107 196.67 44.704C196.435 44.576 196.275 44.3947 196.19 44.16L196.158 44.096C196.072 43.8613 196.083 43.6267 196.19 43.392C196.296 43.1573 196.467 42.9973 196.702 42.912L201.694 41.088C201.715 41.0667 201.726 41.056 201.726 41.056C202.536 40.1813 203.347 39.3173 204.158 38.464L206.302 36.16C206.387 36.0747 206.472 36 206.558 35.936C206.643 35.8507 206.739 35.776 206.846 35.712L206.878 35.68C207.134 35.552 207.39 35.4667 207.646 35.424C207.923 35.36 208.19 35.3387 208.446 35.36H208.478C208.606 35.3813 208.723 35.4133 208.83 35.456C208.936 35.4773 209.054 35.5093 209.182 35.552C210.718 36.192 212.243 36.8427 213.758 37.504C214.675 37.888 215.582 38.272 216.478 38.656C216.648 38.7413 216.798 38.8587 216.926 39.008C217.054 39.136 217.15 39.2853 217.214 39.456L217.758 41.28C218.142 42.496 218.515 43.7227 218.878 44.96C218.963 45.216 218.942 45.4613 218.814 45.696C218.686 45.9307 218.504 46.0907 218.27 46.176L218.206 46.208C217.95 46.2933 217.704 46.272 217.47 46.144C217.235 45.9947 217.075 45.792 216.99 45.536C216.478 43.808 215.955 42.0907 215.422 40.384C215.422 40.384 215.411 40.384 215.39 40.384C215.39 40.3627 215.39 40.352 215.39 40.352L210.27 38.176L213.342 53.632C213.342 53.632 213.342 53.6427 213.342 53.664L216.702 60.544C216.808 60.7787 216.819 61.0133 216.734 61.248C216.67 61.504 216.52 61.696 216.286 61.824C216.286 61.824 216.275 61.824 216.254 61.824C216.254 61.8453 216.254 61.856 216.254 61.856C216.254 61.856 216.243 61.856 216.222 61.856C215.987 61.984 215.731 62.0053 215.454 61.92C215.198 61.856 215.016 61.696 214.91 61.44C214.27 60.1813 213.63 58.912 212.99 57.632C212.456 56.5867 211.923 55.5413 211.39 54.496C211.368 54.4533 211.347 54.4107 211.326 54.368C211.304 54.304 211.294 54.2507 211.294 54.208L209.854 47.584L207.998 50.016C207.123 51.1467 206.238 52.288 205.342 53.44C205.342 53.44 205.331 53.4507 205.31 53.472C205.054 54.816 204.787 56.1707 204.51 57.536C204.318 58.4533 204.179 59.136 204.094 59.584C204.008 60.032 203.87 60.704 203.678 61.6C203.614 61.8773 203.464 62.0907 203.23 62.24C202.995 62.3893 202.739 62.432 202.462 62.368H202.43ZM206.846 34.816C206.654 34.816 206.472 34.784 206.302 34.72C206.088 34.6133 205.928 34.5067 205.822 34.4C205.694 34.272 205.598 34.1227 205.534 33.952C205.448 33.7813 205.406 33.5893 205.406 33.376C205.406 33.1627 205.448 32.9813 205.534 32.832C205.598 32.64 205.694 32.48 205.822 32.352C205.95 32.224 206.11 32.128 206.302 32.064C206.451 31.9787 206.632 31.936 206.846 31.936C207.059 31.936 207.251 31.9787 207.422 32.064C207.592 32.128 207.742 32.224 207.87 32.352C207.976 32.4587 208.083 32.6187 208.19 32.832C208.254 32.9813 208.286 33.1627 208.286 33.376C208.286 33.568 208.254 33.76 208.19 33.952C208.062 34.1653 207.955 34.3147 207.87 34.4C207.784 34.4853 207.635 34.592 207.422 34.72C207.23 34.784 207.038 34.816 206.846 34.816Z" fill="black"/>
<path d="M288.021 48.0454L262.472 73.5946L236.414 47.5367L261.963 21.9875L288.021 48.0454Z" fill="white" stroke="black" stroke-width="2"/>
<line x1="260" y1="4.6012e-08" x2="260" y2="21" stroke="black" stroke-width="2"/>
<line x1="264" y1="4.6012e-08" x2="264" y2="21" stroke="black" stroke-width="2"/>
<path d="M261.998 62.208C261.763 62.1227 261.593 61.952 261.486 61.696C261.379 61.4613 261.379 61.2267 261.486 60.992C262.041 59.6693 262.585 58.336 263.118 56.992C263.651 55.648 264.185 54.304 264.718 52.96C264.718 52.9387 264.718 52.928 264.718 52.928C264.185 52.1173 263.641 51.3067 263.086 50.496C262.723 49.9413 262.446 49.536 262.254 49.28C262.083 49.024 261.817 48.6293 261.454 48.096L257.998 54.304C257.913 54.4747 257.785 54.6027 257.614 54.688C257.443 54.7733 257.262 54.816 257.07 54.816C256.899 54.816 256.729 54.7733 256.558 54.688C253.849 53.152 251.139 51.6267 248.43 50.112C248.195 49.984 248.035 49.792 247.95 49.536C247.886 49.28 247.907 49.0347 248.014 48.8C248.035 48.7787 248.046 48.768 248.046 48.768C248.046 48.7467 248.046 48.736 248.046 48.736C248.174 48.5013 248.366 48.3413 248.622 48.256C248.899 48.1707 249.155 48.192 249.39 48.32C250.158 48.7467 250.723 49.0667 251.086 49.28C251.47 49.472 252.035 49.7707 252.782 50.176C254.062 50.8587 255.331 51.5413 256.59 52.224C256.611 52.224 256.622 52.224 256.622 52.224C256.643 52.224 256.665 52.224 256.686 52.224C256.707 52.224 256.718 52.2133 256.718 52.192C257.635 50.4213 258.307 49.1093 258.734 48.256C259.182 47.4027 259.854 46.112 260.75 44.384C261.027 43.8507 261.881 42.1973 263.31 39.424H258.03C258.009 39.424 257.998 39.424 257.998 39.424C257.998 39.424 257.987 39.424 257.966 39.424L254.734 43.744C254.563 43.9573 254.35 44.0853 254.094 44.128C253.838 44.1493 253.603 44.0853 253.39 43.936L253.326 43.872C253.113 43.7013 252.985 43.488 252.942 43.232C252.921 42.976 252.985 42.7413 253.134 42.528C254.329 40.9707 255.513 39.4133 256.686 37.856C256.771 37.7067 256.889 37.6 257.038 37.536C257.187 37.4507 257.347 37.408 257.518 37.408H260.238C262.073 37.408 263.897 37.408 265.71 37.408C265.859 37.408 265.998 37.44 266.126 37.504C266.275 37.568 266.393 37.6533 266.478 37.76C267.758 39.1253 269.038 40.4907 270.318 41.856L270.99 42.592C271.011 42.592 271.022 42.592 271.022 42.592C272.707 42.592 274.393 42.592 276.078 42.592C276.334 42.592 276.547 42.688 276.718 42.88C276.91 43.0507 277.006 43.264 277.006 43.52V43.616C277.006 43.872 276.91 44.096 276.718 44.288C276.547 44.4587 276.334 44.544 276.078 44.544C275.139 44.544 274.446 44.544 273.998 44.544C273.55 44.544 272.867 44.544 271.95 44.544C271.502 44.544 271.043 44.544 270.574 44.544C270.425 44.544 270.286 44.5227 270.158 44.48C270.03 44.416 269.913 44.3307 269.806 44.224L266.83 41.024L263.726 47.2L266.894 52.16C266.979 52.3093 267.022 52.4693 267.022 52.64C267.043 52.8107 267.022 52.9707 266.958 53.12C266.297 54.72 265.625 56.32 264.942 57.92C264.601 58.7733 264.067 60.0533 263.342 61.76C263.257 61.9947 263.075 62.1547 262.798 62.24C262.542 62.3467 262.297 62.3467 262.062 62.24L261.998 62.208ZM267.118 37.28C267.011 37.28 266.926 37.2693 266.862 37.248C266.755 37.248 266.649 37.216 266.542 37.152C266.478 37.1093 266.414 37.0773 266.35 37.056C266.265 36.992 266.179 36.928 266.094 36.864C266.03 36.7573 265.955 36.6613 265.87 36.576C265.849 36.512 265.817 36.448 265.774 36.384C265.71 36.2773 265.678 36.1813 265.678 36.096C265.657 36.032 265.646 35.936 265.646 35.808C265.646 35.7013 265.657 35.616 265.678 35.552C265.678 35.424 265.71 35.3173 265.774 35.232C265.817 35.1467 265.849 35.072 265.87 35.008C265.891 34.9653 265.923 34.9227 265.966 34.88C266.009 34.8373 266.051 34.7947 266.094 34.752C266.179 34.6667 266.265 34.592 266.35 34.528C266.414 34.4853 266.478 34.4533 266.542 34.432C266.649 34.368 266.755 34.336 266.862 34.336C266.926 34.3147 267.011 34.304 267.118 34.304C267.246 34.304 267.331 34.3147 267.374 34.336C267.523 34.336 267.641 34.368 267.726 34.432L267.886 34.528C267.95 34.5707 267.993 34.6133 268.014 34.656C268.057 34.6773 268.11 34.7093 268.174 34.752C268.217 34.816 268.249 34.8587 268.27 34.88C268.313 34.9013 268.355 34.944 268.398 35.008C268.419 35.0507 268.43 35.0933 268.43 35.136C268.451 35.1573 268.473 35.1893 268.494 35.232C268.558 35.3173 268.59 35.424 268.59 35.552C268.611 35.616 268.622 35.7013 268.622 35.808C268.622 35.936 268.611 36.032 268.59 36.096C268.59 36.1813 268.558 36.2773 268.494 36.384C268.473 36.448 268.441 36.512 268.398 36.576C268.334 36.6613 268.259 36.7573 268.174 36.864C268.11 36.9067 268.057 36.9493 268.014 36.992C267.993 37.0133 267.95 37.0453 267.886 37.088L267.726 37.152C267.641 37.216 267.523 37.248 267.374 37.248C267.331 37.2693 267.246 37.28 267.118 37.28Z" fill="black"/>
</svg>
