<svg width="42" height="39" viewBox="0 0 42 39" fill="none" xmlns="http://www.w3.org/2000/svg">
<path d="M4.88596 38.86C2.07018 38.86 0.0526316 37.3281 0 35.121H2.69298C2.73684 36.0644 3.66667 36.6876 4.90351 36.6962C6.17544 36.6876 7.08772 35.9865 7.07895 34.9652C7.08772 33.9353 6.15789 33.2082 4.65789 33.1996H3.46491V31.2608H4.64912C5.91228 31.2608 6.79825 30.5771 6.78947 29.5817C6.79825 28.6124 6.04386 27.9459 4.91228 27.9546C3.7807 27.9459 2.85088 28.5777 2.80702 29.5471H0.263158C0.307018 27.3747 2.28947 25.86 4.92105 25.86C7.59649 25.86 9.36842 27.4266 9.35965 29.4173C9.36842 30.8281 8.36842 31.8321 6.9386 32.0917V32.1956C8.82456 32.4206 9.85965 33.5458 9.84211 35.1297C9.85965 37.3021 7.7807 38.86 4.88596 38.86Z" fill="black"/>
<path d="M24.8772 25.9458L24.0439 27.3499L21.7982 25.9115L21.6754 25.9886L21.7632 27.3585L21.8333 28.6H20.1667L20.3246 25.9886L20.2632 25.9543L20.2018 25.9201L18.5351 26.9818L17.9561 27.3499L17.1228 25.9458L19.5175 24.7728V24.6358L17.1228 23.4542L17.8421 22.2384L17.9561 22.0501L19.7544 23.1974L20.2018 23.4885L20.3246 23.42L20.2368 21.9901L20.1667 20.8H21.8333L21.6754 23.4114L21.7982 23.4885L24.0439 22.0501L24.8772 23.4542L22.4825 24.6272V24.7728L24.8772 25.9458Z" fill="black"/>
<path d="M20.9649 13.4312C18.1491 13.4312 16.1316 11.8915 16.0789 9.65195H18.7719C18.8158 10.6055 19.7456 11.2354 20.9825 11.2441C22.2544 11.2354 23.1667 10.5268 23.1579 9.49448C23.1667 8.45343 22.2368 7.71858 20.7368 7.70983H19.5526V5.7502H20.7368C22 5.7502 22.886 5.05909 22.8772 4.05303C22.886 3.07322 22.1316 2.3996 21 2.40835C19.8684 2.3996 18.9386 3.03823 18.8947 4.01804H16.3509C16.3947 1.82221 18.3684 0.300003 21 0.300003C23.6754 0.300003 25.4474 1.88345 25.4386 3.89556C25.4474 5.32154 24.4474 6.33634 23.0175 6.59879V6.70377C24.9035 6.93123 25.9386 8.06851 25.9211 9.66945C25.9386 11.8565 23.8596 13.4312 20.9649 13.4312Z" fill="black"/>
<path d="M37.0439 38.86C34.2281 38.86 32.2105 37.3281 32.1579 35.121H34.8509C34.8947 36.0644 35.8246 36.6876 37.0614 36.6963C38.3333 36.6876 39.2456 35.9865 39.2368 34.9652C39.2456 33.9353 38.3158 33.2082 36.8158 33.1996H35.6316V31.2608H36.8158C38.079 31.2608 38.9649 30.5771 38.9561 29.5817C38.9649 28.6124 38.2105 27.9459 37.079 27.9546C35.9474 27.9459 35.0175 28.5777 34.9737 29.5471H32.4298C32.4737 27.3747 34.4561 25.86 37.0877 25.86C39.7632 25.86 41.5351 27.4266 41.5263 29.4173C41.5351 30.8281 40.5351 31.8321 39.1053 32.0917V32.1956C40.9912 32.4206 42.0263 33.5458 42.0088 35.1297C42.0175 37.3021 39.9386 38.86 37.0439 38.86Z" fill="black"/>
</svg>
