<svg width="525" height="303" viewBox="0 0 525 303" fill="none" xmlns="http://www.w3.org/2000/svg">
<path d="M7.70688 180.68L7.7069 180.674C8.08008 82.796 87.7306 3.14546 185.609 2.77232L185.615 2.77225L260 2C260.002 2 260.003 2 260.005 2C285.96 2.00278 307 23.0443 307 49C307 74.9574 285.957 96 260 96L202 96C146.219 96 101 141.219 101 197L101 255C101 280.957 79.9574 302 54 302C28.0442 302 7.00255 280.96 7 255.005C7 255.003 7 255.002 7 255L7.70688 180.68Z" fill="white" stroke="#62DF85" stroke-width="2"/>
<path d="M1.70688 179.68L1.7069 179.674C2.08008 81.796 81.7306 2.14546 179.609 1.77232L179.615 1.77225L254 1C254.002 1 254.003 1 254.005 1C279.96 1.00278 301 22.0443 301 48C301 73.9574 279.957 95 254 95L196 95C140.219 95 95 140.219 95 196L95 254C95 279.957 73.9574 301 48 301C22.0442 301 1.00255 279.96 1 254.005C1 254.003 1 254.002 1 254L1.70688 179.68Z" fill="white" stroke="#62DF85" stroke-width="2"/>
<path d="M222.968 45.4034H200.344V35.8523H191.021V45.4034H173.887V52.8206H222.968V45.4034ZM178.756 63.967H207.202V75.2999H216.649V56.5291H178.756V63.967ZM179.211 30.9421H207.948C207.865 34.112 207.595 37.7584 206.663 42.3993L216.069 43.2073C217.354 36.536 217.354 31.315 217.354 27.3579V23.6493H179.211V30.9421ZM273.831 44.6161H224.335V51.3496H235.834V53.3592H229.784V59.7405H258.769V61.2115H229.805V75.072H269.563V68.815H239.128V67.0126H268.092V53.3592H262.394V51.3496H273.831V44.6161ZM230.281 27.8758H258.686V29.4711H230.323V43.0001H269.004V36.7432H239.646V35.3137H268.092V21.6603H230.281V27.8758ZM245.157 53.3592V51.3496H253.03V53.3592H245.157Z" fill="#62DF85"/>
<path d="M68.4779 268.071L68.4779 265.025L50.9503 265.025L50.9503 254.728C50.9503 254.065 50.9089 253.402 50.8467 252.781L68.4779 243.271L68.4779 239.749L50.2252 249.673C48.5884 244.493 44.279 241.593 38.5608 241.593C31.1644 241.593 26.047 246.42 26.047 254.769L26.047 268.071L68.4779 268.071ZM48.1326 265.025L28.844 265.025L28.844 254.873C28.844 248.305 32.6975 244.618 38.5608 244.618C44.4033 244.618 48.1326 248.305 48.1326 254.852L48.1326 265.025ZM59.6727 236.366C65.7638 236.366 69.1824 231.746 69.1824 226.152C69.1824 221.055 66.3025 217.595 62.9462 216.021L62.9462 215.814L68.4779 215.814L68.4779 212.872L46.4337 212.872C39.0166 212.872 36.1989 218.528 36.1989 223.935C36.1989 230.068 39.2859 234.792 44.1547 235.496L44.1547 232.45C40.8605 231.642 38.8509 228.39 38.8509 224.039C38.8509 218.901 41.71 215.814 46.2266 215.814L49.6036 215.814C49.7072 217.347 50.0594 222.609 50.2459 224.847C50.826 232.305 54.058 236.366 59.6727 236.366ZM59.797 233.403C55.9848 233.403 53.2708 230.897 52.7942 224.308L52.152 215.814L55.7984 215.814C61.8688 215.814 66.4683 219.895 66.4683 225.8C66.4683 230.151 63.9614 233.403 59.797 233.403ZM69.1409 193.79C69.1409 188.259 65.5981 185.13 61.8688 183.68L61.8688 183.348L68.4779 183.348L68.4779 180.469L26.047 180.469L26.047 183.411L43.4296 183.411L43.4296 183.68C39.7003 185.068 36.1989 188.217 36.1989 193.749C36.1989 201.456 42.9738 206.594 52.6492 206.594C62.3661 206.594 69.1409 201.498 69.1409 193.79ZM52.6078 203.632C44.8384 203.632 38.913 199.923 38.913 193.459C38.913 187.119 44.6727 183.369 52.6078 183.369C60.5843 183.369 66.4268 187.14 66.4268 193.459C66.4268 199.923 60.4185 203.632 52.6078 203.632ZM68.4779 171.597L68.4779 168.635L36.6547 168.635L36.6547 171.597L68.4779 171.597ZM28.8854 172.385C30.1078 172.385 31.0815 171.349 31.0815 170.085C31.0815 168.842 30.1078 167.806 28.8854 167.806C27.663 167.806 26.6685 168.842 26.6685 170.085C26.6685 171.349 27.663 172.385 28.8854 172.385ZM56.8964 140.289C62.6147 140.289 66.0332 144.536 66.0332 149.301C66.0332 154.232 62.5525 157.671 57.373 157.671L36.6547 157.671L36.6547 160.634L57.5387 160.634C64.6451 160.634 68.8923 156.242 68.8923 150.006C68.8923 145.448 66.5511 142.008 63.2777 140.517L63.2777 140.289L68.4779 140.289L68.4779 137.347L36.6547 137.347L36.6547 140.289L56.8964 140.289ZM44.1547 111.759L44.1547 108.796C39.4724 109.563 36.2196 113.375 36.1989 119.28C36.1782 125.599 39.8246 129.97 45.0042 129.97C49.1064 129.97 52.0277 127.236 53.2707 122.077L54.4517 117.167C55.4047 113.272 57.4144 111.428 60.2321 111.428C64.0235 111.428 66.4683 114.763 66.4683 119.881C66.4683 124.501 64.4586 127.339 60.6464 128.023L60.6464 131.11C66.0539 130.302 69.1409 126.241 69.1409 119.839C69.1409 112.795 65.3702 108.423 60.0663 108.423C55.9227 108.423 53.0636 111.013 51.8205 116.131L50.5981 121.02C49.6036 125.06 47.6561 127.028 44.8799 127.028C41.3578 127.028 38.7887 123.859 38.8301 119.28C38.8509 115.157 40.8812 112.505 44.1547 111.759Z" fill="#62DF85"/>
<line x1="-8.74228e-08" y1="37" x2="71" y2="37" stroke="#62DF85" stroke-width="2"/>
<line x1="-8.74228e-08" y1="61" x2="45" y2="61" stroke="#62DF85" stroke-width="2"/>
<line x1="-8.74228e-08" y1="31" x2="80" y2="31" stroke="#62DF85" stroke-width="2"/>
<line x1="-8.74228e-08" y1="55" x2="51" y2="55" stroke="#62DF85" stroke-width="2"/>
</svg>
