<svg width="525" height="347" viewBox="0 0 525 347" fill="none" xmlns="http://www.w3.org/2000/svg">
<path d="M156.898 165.016H137.82V166.562H146.398V173.898H148.203V166.562H156.898V165.016ZM139.977 158.5C139.988 161.277 142.93 163.035 147.312 163.023C151.684 163.035 154.648 161.277 154.648 158.5C154.648 155.676 151.684 153.918 147.312 153.906C142.93 153.918 139.988 155.676 139.977 158.5ZM141.875 158.5C141.852 156.613 144.066 155.406 147.312 155.406C150.559 155.406 152.762 156.613 152.773 158.5C152.762 160.352 150.559 161.547 147.312 161.547C144.066 161.547 141.852 160.352 141.875 158.5ZM175.789 153.062H173.961V173.945H175.789V153.062ZM159.758 156.531H167.609V160.914H159.805V168.883H161.539C165.137 168.883 168.301 168.73 172.133 168.133L171.945 166.586C168.219 167.184 165.137 167.348 161.68 167.336V162.414H169.461V155.008H159.758V156.531ZM195.453 153.062H193.625V173.898H195.453V163.094H198.828V161.547H195.453V153.062ZM179.469 168.484L180.5 169.938C187.285 166.586 190.051 161.207 190.062 155.312H180.43V156.859H188.199C187.777 161.793 184.848 165.812 179.469 168.484ZM225.078 165.672H206.094V167.219H214.672V173.945H216.477V167.219H225.078V165.672ZM207.289 162.578L207.969 164.055C211.191 163.562 214.273 161.969 215.598 159.684C216.922 161.945 219.957 163.562 223.18 164.055L223.859 162.578C220.133 162.074 216.5 159.789 216.5 157.188V157.164H223.25V155.664H216.477V153.062H214.672V155.664H207.945V157.164H214.672V157.188C214.66 159.801 211.004 162.074 207.289 162.578ZM243.312 154.422H229.227V155.945H241.484V156.25C241.484 158.195 241.484 160.375 240.852 163.375H226.836V164.898H235.367V173.945H237.219V164.898H245.82V163.375H242.715C243.312 160.387 243.312 158.219 243.312 156.25V154.422ZM263.703 153.062H261.875V173.898H263.703V163.188H267.195V161.664H263.703V153.062ZM247.461 157.938H259.859V156.414H254.656V153.32H252.828V156.414H247.461V157.938ZM248.656 164.453C248.645 167.277 250.801 169.234 253.766 169.234C256.707 169.234 258.852 167.277 258.875 164.453C258.852 161.641 256.707 159.672 253.766 159.672C250.801 159.672 248.645 161.641 248.656 164.453ZM250.414 164.453C250.402 162.566 251.82 161.207 253.766 161.219C255.688 161.207 257.094 162.566 257.117 164.453C257.094 166.352 255.688 167.688 253.766 167.664C251.82 167.688 250.402 166.352 250.414 164.453ZM285.172 159.391H272.727V153.836H270.898V160.867H285.172V159.391ZM268.297 165.203H287.375V163.703H268.297V165.203ZM270.781 173.383H285.289V171.859H272.609V167.336H270.781V173.383ZM304.508 166.234C300.043 166.234 297.207 167.641 297.219 170.055C297.207 172.445 300.043 173.852 304.508 173.852C308.973 173.852 311.809 172.445 311.82 170.055C311.809 167.641 308.973 166.234 304.508 166.234ZM295.109 164.289H314.07V162.789H304.766V158.758H302.961V162.789H295.109V164.289ZM297.359 155.641H309.828V155.898C309.828 157.527 309.828 159.074 309.266 161.219L311.07 161.43C311.645 159.273 311.645 157.586 311.656 155.898V154.141H297.359V155.641ZM299.047 170.055C299.035 168.566 301.191 167.652 304.508 167.641C307.836 167.652 309.969 168.566 309.992 170.055C309.969 171.508 307.836 172.398 304.508 172.398C301.191 172.398 299.035 171.508 299.047 170.055ZM332.117 153.062H330.266V168.32H332.117V160.961H335.258V159.414H332.117V153.062ZM315.852 164.43L316.648 165.906C322.66 164.031 326.492 160.047 326.492 154.68H316.719V156.227H324.488C324.102 159.906 320.855 162.871 315.852 164.43ZM319.062 173.453H333.078V171.906H320.891V166.773H319.062V173.453ZM355.555 164.055H336.57V165.555H355.555V164.055ZM338.68 157.938C338.68 160.527 341.539 162.086 346.062 162.086C350.539 162.086 353.41 160.527 353.422 157.938C353.41 155.324 350.539 153.789 346.062 153.812C341.539 153.789 338.68 155.324 338.68 157.938ZM339.031 173.453H353.445V171.906H340.883V167.383H339.031V173.453ZM340.578 157.938C340.566 156.309 342.699 155.289 346.062 155.289C349.402 155.289 351.535 156.309 351.547 157.938C351.535 159.59 349.402 160.586 346.062 160.586C342.699 160.586 340.566 159.59 340.578 157.938ZM382.344 162.812H363.336V164.336H371.914V166.398C367.965 166.586 365.621 167.91 365.633 170.102C365.621 172.527 368.328 173.852 372.828 173.852C377.293 173.852 379.977 172.527 380 170.102C379.977 167.91 377.656 166.586 373.742 166.398V164.336H382.344V162.812ZM365.75 160.891H380.117V159.414H367.555V155.523H379.977V154.047H365.75V160.891ZM367.508 170.102C367.484 168.648 369.488 167.828 372.828 167.828C376.133 167.828 378.137 168.648 378.148 170.102C378.137 171.566 376.133 172.434 372.828 172.422C369.488 172.434 367.484 171.566 367.508 170.102ZM400.648 153.977H386.492V155.477H398.82C398.832 156.848 398.809 158.547 398.328 160.867H384.078V162.344H403.156V160.867H400.18C400.648 158.523 400.648 156.719 400.648 155.312V153.977ZM386.352 165.93H398.891V168.25H386.375V173.664H401.258V172.164H388.227V169.703H400.719V164.453H386.352V165.93ZM421.531 155.172H406.836V156.695H419.68V157.258C419.668 159.754 419.668 162.672 418.883 166.656L420.758 166.867C421.508 162.672 421.508 159.812 421.531 157.258V155.172ZM404.82 170.945H423.805V169.422H414.078V161.969H412.273V169.422H404.82V170.945ZM448.766 153.086H446.914V165.414H442.602V166.75H446.914V168.906H448.766V153.086ZM431.469 162.742L431.727 164.242C433.473 164.242 435.477 164.242 437.586 164.16V168.18H439.438V164.066C441.348 163.949 443.305 163.762 445.156 163.469L445.039 162.133C440.574 162.684 435.348 162.719 431.469 162.742ZM433.156 157.562C433.145 159.789 435.23 161.172 438.312 161.172C441.371 161.172 443.457 159.789 443.469 157.562C443.457 155.371 441.371 153.93 438.312 153.93C435.23 153.93 433.145 155.371 433.156 157.562ZM434.469 173.453H449.281V171.906H436.32V167.359H434.469V173.453ZM434.914 157.562C434.891 156.227 436.273 155.312 438.312 155.336C440.293 155.312 441.699 156.227 441.711 157.562C441.699 158.922 440.293 159.801 438.312 159.812C436.273 159.801 434.891 158.922 434.914 157.562ZM462.852 154.961H453.219V164.547H462.852V154.961ZM455.023 163.07V156.461H461.07V163.07H455.023ZM455.586 173.453H469.578V171.906H457.391V166.891H455.586V173.453ZM466.789 168.344H468.617V160.961H471.758V159.414H468.617V153.062H466.789V168.344ZM489.359 152.992H487.531V164.523H489.359V159.578H492.523V158.055H489.359V152.992ZM473.117 156.438H485.539V154.961H480.242V152.852H478.414V154.961H473.117V156.438ZM474.312 160.797C474.301 162.918 476.293 164.207 479.328 164.219C482.352 164.207 484.32 162.918 484.344 160.797C484.32 158.688 482.352 157.387 479.328 157.375C476.293 157.387 474.301 158.688 474.312 160.797ZM476.07 166.984H487.531V168.859H476.117V173.664H490.133V172.258H477.922V170.219H489.359V165.602H476.07V166.984ZM476.07 160.797C476.059 159.555 477.348 158.746 479.328 158.734C481.297 158.746 482.586 159.555 482.609 160.797C482.586 162.051 481.297 162.836 479.328 162.836C477.348 162.836 476.059 162.051 476.07 160.797ZM510.289 155.008V153.812H508.391V155.008C508.391 157.996 504.582 160.48 500.82 161.008L501.57 162.508C504.816 161.969 508.016 160.199 509.352 157.621C510.688 160.176 513.898 161.969 517.133 162.508L517.883 161.008C514.121 160.48 510.301 157.949 510.289 155.008ZM499.836 166.352H508.391V173.898H510.195V166.352H518.82V164.805H499.836V166.352ZM154.672 203.836H142.133V197.273H154.461V195.773H140.281V205.336H146.422V210.727H137.844V212.273H156.922V210.727H148.227V205.336H154.672V203.836ZM162.008 211.43H159.734L158.445 217.805H160.18L162.008 211.43ZM187.039 194.062H185.211V206.297H187.039V200.93H190.18V199.359H187.039V194.062ZM170.727 204.633L171.477 206.062C177.629 204.434 181.309 200.672 181.32 195.398H171.664V196.922H179.363C178.988 200.461 175.836 203.25 170.727 204.633ZM173.398 208.758H185.211V214.898H187.039V207.258H173.398V208.758ZM198.945 200.461V197.742H203.914V196.219H192.172V197.742H197.094V200.461C197.082 204.07 194.48 208.008 191.492 209.438L192.594 210.891C194.973 209.695 197.082 207.047 198.055 203.988C199.027 206.871 201.125 209.273 203.562 210.375L204.594 208.922C201.523 207.598 198.957 204 198.945 200.461ZM206.82 214.898H208.672V194.062H206.82V214.898ZM228.945 196.172H214.25V197.695H227.094V198.258C227.082 200.754 227.082 203.672 226.297 207.656L228.172 207.867C228.922 203.672 228.922 200.812 228.945 198.258V196.172ZM212.234 211.945H231.219V210.422H221.492V202.969H219.688V210.422H212.234V211.945ZM256.789 194.062H254.984V202.477H252.102V194.625H250.344V213.867H252.102V204H254.984V214.898H256.789V194.062ZM239.023 209.133L240.102 210.422C246.09 207.082 247.953 202.078 247.977 196.781H239.82V198.305H246.172C245.855 202.617 243.863 206.426 239.023 209.133ZM266.914 197.344V195.258H265.086V197.414C265.062 200.648 262.93 203.414 259.719 204.539L260.727 206.039C263.246 205.09 265.145 203.156 266.035 200.66C266.938 202.852 268.742 204.551 271.039 205.406L272.07 203.977C269.012 202.934 266.891 200.32 266.914 197.344ZM263.117 210.961C263.105 213.445 265.766 214.852 270.102 214.852C274.426 214.852 277.086 213.445 277.086 210.961C277.086 208.453 274.426 207.012 270.102 207.023C265.766 207.012 263.105 208.453 263.117 210.961ZM264.945 210.961C264.934 209.402 266.902 208.477 270.102 208.477C273.289 208.477 275.258 209.402 275.258 210.961C275.258 212.473 273.289 213.387 270.102 213.375C266.902 213.387 264.934 212.473 264.945 210.961ZM270.523 200.062H275.164V206.414H277.016V194.062H275.164V198.539H270.523V200.062ZM287.727 197.906V197.016H292.391V195.516H281.164V197.016H285.875V197.93C285.875 200.871 283.648 203.648 280.578 204.75L281.539 206.203C284.012 205.289 285.945 203.367 286.848 200.977C287.738 203.121 289.555 204.867 291.898 205.711L292.859 204.258C289.812 203.203 287.727 200.613 287.727 197.906ZM283.742 209.18H295.906V214.898H297.758V207.656H283.742V209.18ZM291.734 201.07H295.906V206.555H297.758V194.062H295.906V199.523H291.734V201.07ZM307.133 194.836C303.98 194.848 301.707 196.746 301.719 199.453C301.707 202.172 303.98 204.047 307.133 204.047C310.25 204.047 312.512 202.172 312.523 199.453C312.512 196.746 310.25 194.848 307.133 194.836ZM303.523 199.453C303.5 197.648 305.035 196.371 307.133 196.383C309.195 196.371 310.742 197.648 310.742 199.453C310.742 201.281 309.195 202.547 307.133 202.547C305.035 202.547 303.5 201.281 303.523 199.453ZM304.883 207.258H316.602V209.414H304.93V214.617H319.18V213.141H306.734V210.797H318.43V205.781H304.883V207.258ZM316.602 204.773H318.43V194.062H316.602V204.773ZM338.445 196.008V194.812H336.547V196.008C336.547 198.996 332.738 201.48 328.977 202.008L329.727 203.508C332.973 202.969 336.172 201.199 337.508 198.621C338.844 201.176 342.055 202.969 345.289 203.508L346.039 202.008C342.277 201.48 338.457 198.949 338.445 196.008ZM327.992 207.352H336.547V214.898H338.352V207.352H346.977V205.805H327.992V207.352ZM365.562 203.836H353.023V197.273H365.352V195.773H351.172V205.336H357.312V210.727H348.734V212.273H367.812V210.727H359.117V205.336H365.562V203.836ZM382.555 208.055V206.906H380.773V208.055C380.75 210.047 379.168 212.273 376.531 213.258L377.469 214.617C379.461 213.867 380.891 212.414 381.641 210.738C382.262 212.484 383.551 214.008 385.578 214.781C387.5 213.973 388.777 212.367 389.422 210.68C390.148 212.426 391.602 213.879 393.688 214.617L394.602 213.258C391.93 212.332 390.348 210.199 390.359 208.055V206.906H388.555V208.055C388.566 209.66 387.512 211.746 385.52 212.977C383.539 211.852 382.543 209.895 382.555 208.055ZM375.992 200.18C375.98 203.039 378.289 205.008 381.453 205.008C384.617 205.008 386.902 203.039 386.914 200.18C386.902 197.273 384.617 195.293 381.453 195.305C378.289 195.293 375.98 197.273 375.992 200.18ZM377.797 200.18C377.773 198.234 379.309 196.852 381.453 196.875C383.574 196.852 385.109 198.234 385.109 200.18C385.109 202.113 383.574 203.473 381.453 203.484C379.309 203.473 377.773 202.113 377.797 200.18ZM390.875 205.992H392.703V194.086H390.875V205.992ZM400.484 206.578H398.656V214.617H412.742V206.578H410.891V209.016H400.484V206.578ZM396.242 205.102H415.227V203.578H396.242V205.102ZM397.32 200.625L398.023 202.102C401.234 201.621 404.422 199.992 405.746 197.648C407.07 199.98 410.246 201.621 413.469 202.102L414.148 200.625C410.48 200.156 406.684 197.848 406.695 195.281V194.297H404.797V195.281C404.797 197.93 401.035 200.121 397.32 200.625ZM400.484 213.141V210.469H410.891V213.141H400.484ZM434.164 194.062H432.336V214.898H434.164V194.062ZM418.344 209.531H420.031C423.371 209.531 426.664 209.273 430.367 208.5L430.109 206.93C426.617 207.668 423.336 207.914 420.148 207.938V196.125H418.344V209.531ZM453.852 194.062H452.023V214.945H453.852V203.859H457.344V202.312H453.852V194.062ZM438.641 209.719H440.281C444.242 209.719 446.973 209.602 450.242 209.016L450.008 207.422C446.902 207.996 444.242 208.16 440.469 208.172V197.625H448.367V196.102H438.641V209.719ZM460.672 213.141C461.504 213.129 462.184 212.449 462.172 211.617C462.184 210.797 461.504 210.117 460.672 210.117C459.852 210.117 459.148 210.797 459.172 211.617C459.148 212.449 459.852 213.129 460.672 213.141ZM489.523 203.977H480.219V199.758H478.414V203.977H470.562V205.5H489.523V203.977ZM472.578 209.414H485.234V214.898H487.109V207.891H472.578V209.414ZM472.812 196.711H485.281V196.781C485.281 198.352 485.281 200.027 484.742 202.359L486.594 202.547C487.098 200.168 487.098 198.387 487.109 196.781V195.211H472.812V196.711ZM510.336 203.578H491.258V205.008H496.438V206.906H493.555V208.266H506.117V210.047H493.578V214.664H508.625V213.328H495.43V211.336H507.945V206.906H505.18V205.008H510.336V203.578ZM493.672 196.008H506.023V197.742H493.742V202.102H508.25V200.766H495.57V198.984H507.875V194.695H493.672V196.008ZM498.242 206.906V205.008H503.352V206.906H498.242ZM156.922 251.773H148.227V247.836H155V246.312H142.062V242.914H154.508V236.609H140.188V238.133H152.703V241.414H140.234V247.836H146.422V251.773H137.844V253.32H156.922V251.773ZM180.734 235.062H178.906V255.945H180.734V244.859H184.227V243.312H180.734V235.062ZM165.523 250.719H167.164C171.125 250.719 173.855 250.602 177.125 250.016L176.891 248.422C173.785 248.996 171.125 249.16 167.352 249.172V238.625H175.25V237.102H165.523V250.719ZM204.734 238.227H201.641V235.062H199.812V247.438H201.641V244.203H204.734V242.656H201.641V239.75H204.734V238.227ZM185.75 241.227C185.738 244.121 188.059 246.113 191.211 246.125C194.387 246.113 196.672 244.121 196.695 241.227C196.672 238.32 194.387 236.316 191.211 236.328C188.059 236.316 185.738 238.32 185.75 241.227ZM187.555 241.227C187.543 239.27 189.102 237.875 191.211 237.898C193.344 237.875 194.879 239.27 194.891 241.227C194.879 243.195 193.344 244.555 191.211 244.578C189.102 244.555 187.543 243.195 187.555 241.227ZM188.047 251.984C188.059 254.41 190.707 255.852 194.961 255.852C199.215 255.852 201.828 254.41 201.828 251.984C201.828 249.512 199.215 248.082 194.961 248.07C190.707 248.082 188.059 249.512 188.047 251.984ZM189.898 251.984C189.875 250.473 191.82 249.57 194.961 249.57C198.113 249.57 200.035 250.473 200.047 251.984C200.035 253.484 198.113 254.363 194.961 254.375C191.82 254.363 189.875 253.484 189.898 251.984ZM222.383 235.086H220.555V250.695H222.383V243.5H225.523V241.953H222.383V235.086ZM206.141 239.141H218.562V237.641H213.266V235.086H211.438V237.641H206.141V239.141ZM207.336 244.18C207.324 246.523 209.34 248.035 212.352 248.023C215.328 248.035 217.344 246.523 217.367 244.18C217.344 241.812 215.328 240.289 212.352 240.289C209.34 240.289 207.324 241.812 207.336 244.18ZM209.094 244.18C209.082 242.691 210.383 241.73 212.352 241.742C214.297 241.73 215.609 242.691 215.633 244.18C215.609 245.645 214.297 246.594 212.352 246.57C210.383 246.594 209.082 245.645 209.094 244.18ZM209.352 255.453H223.344V253.906H211.156V249.453H209.352V255.453ZM242.281 248.234C237.816 248.234 234.98 249.641 234.992 252.055C234.98 254.445 237.816 255.852 242.281 255.852C246.746 255.852 249.582 254.445 249.594 252.055C249.582 249.641 246.746 248.234 242.281 248.234ZM232.883 246.289H251.844V244.789H242.539V240.758H240.734V244.789H232.883V246.289ZM235.133 237.641H247.602V237.898C247.602 239.527 247.602 241.074 247.039 243.219L248.844 243.43C249.418 241.273 249.418 239.586 249.43 237.898V236.141H235.133V237.641ZM236.82 252.055C236.809 250.566 238.965 249.652 242.281 249.641C245.609 249.652 247.742 250.566 247.766 252.055C247.742 253.508 245.609 254.398 242.281 254.398C238.965 254.398 236.809 253.508 236.82 252.055ZM269.891 235.062H268.039V250.32H269.891V242.961H273.031V241.414H269.891V235.062ZM253.625 246.43L254.422 247.906C260.434 246.031 264.266 242.047 264.266 236.68H254.492V238.227H262.262C261.875 241.906 258.629 244.871 253.625 246.43ZM256.836 255.453H270.852V253.906H258.664V248.773H256.836V255.453ZM283.836 235.438C279.184 235.438 276.453 236.715 276.453 239.023C276.453 241.391 279.184 242.668 283.836 242.68C288.465 242.668 291.184 241.391 291.195 239.023C291.184 236.715 288.465 235.438 283.836 235.438ZM274.344 245.586H293.328V244.086H274.344V245.586ZM276.641 248.797H289.086V250.695H276.688V255.664H291.523V254.211H278.516V252.055H290.891V247.391H276.641V248.797ZM278.375 239.023C278.352 237.652 280.379 236.832 283.836 236.82C287.293 236.832 289.309 237.652 289.32 239.023C289.309 240.477 287.293 241.273 283.836 241.273C280.379 241.273 278.352 240.477 278.375 239.023ZM318.383 235.062H316.531V239.188H311.891V240.711H316.531V247.086H318.383V235.062ZM301.109 245.023L302.094 246.5C304.555 245.586 306.43 243.746 307.32 241.367C308.234 243.5 310.074 245.199 312.406 246.055L313.367 244.578C310.344 243.57 308.188 241.004 308.211 238.25V235.977H306.406V238.18C306.383 241.285 304.273 243.957 301.109 245.023ZM304.766 255.617H318.383V248.141H304.766V255.617ZM306.594 254.117V249.617H316.578V254.117H306.594ZM328.039 240.992V237.031H326.258V241.062C326.258 244.637 324.5 248.328 321.617 250.016L322.789 251.398C324.875 250.133 326.422 247.742 327.184 244.965C327.91 247.508 329.352 249.734 331.367 250.953L332.422 249.523C329.656 247.883 328.039 244.309 328.039 240.992ZM330.125 244.109H333.664V254.844H335.398V235.508H333.664V242.539H330.125V244.109ZM337.93 255.898H339.711V235.062H337.93V255.898ZM358.719 235.062H356.891V255.898H358.719V245.188H362.211V243.664H358.719V235.062ZM342.477 239.938H354.875V238.414H349.672V235.32H347.844V238.414H342.477V239.938ZM343.672 246.453C343.66 249.277 345.816 251.234 348.781 251.234C351.723 251.234 353.867 249.277 353.891 246.453C353.867 243.641 351.723 241.672 348.781 241.672C345.816 241.672 343.66 243.641 343.672 246.453ZM345.43 246.453C345.418 244.566 346.836 243.207 348.781 243.219C350.703 243.207 352.109 244.566 352.133 246.453C352.109 248.352 350.703 249.688 348.781 249.664C346.836 249.688 345.418 248.352 345.43 246.453ZM381.172 235.062H379.414V255.898H381.172V235.062ZM363.359 250.062L364.438 251.398C367.344 249.688 369.359 247.543 370.613 245.117H375.031V254.844H376.789V235.625H375.031V243.617H371.293C372.008 241.766 372.336 239.785 372.336 237.734H364.25V239.258H370.508C370.156 243.617 367.883 247.379 363.359 250.062ZM409.18 251.82H403.719V246.852H407.305V245.328H404.047V238.531H407.352V237.008H391.789V238.531H395.094V245.328H391.836V246.852H395.422V251.82H390.102V253.344H409.18V251.82ZM396.922 245.328V238.531H402.242V245.328H396.922ZM397.273 251.82V246.852H401.891V251.82H397.273ZM428.117 235.086H426.266V240.641H422.656V242.164H426.266V245H422.656V246.5H426.266V250.977H428.117V235.086ZM410.867 239.141H422.656V237.641H417.758V235.062H415.93V237.641H410.867V239.141ZM412.109 244.273C412.086 246.641 414.031 248.246 416.82 248.258C419.609 248.246 421.566 246.641 421.578 244.273C421.566 241.883 419.609 240.289 416.82 240.289C414.031 240.289 412.086 241.883 412.109 244.273ZM413.82 244.273C413.809 242.773 415.039 241.766 416.82 241.742C418.602 241.766 419.832 242.773 419.844 244.273C419.832 245.773 418.602 246.793 416.82 246.781C415.039 246.793 413.809 245.773 413.82 244.273ZM414.641 255.453H428.586V253.906H416.492V249.57H414.641V255.453ZM441.992 238.672H437.703V235.695H435.875V238.672H431.539V240.172H441.992V238.672ZM432.289 246.312C432.289 249.113 434.176 251.082 436.766 251.094C439.391 251.082 441.266 249.113 441.289 246.312C441.266 243.547 439.391 241.59 436.766 241.578C434.176 241.59 432.289 243.547 432.289 246.312ZM433.93 246.312C433.93 244.484 435.113 243.148 436.766 243.125C438.43 243.148 439.648 244.484 439.648 246.312C439.648 248.164 438.43 249.488 436.766 249.477C435.113 249.488 433.93 248.164 433.93 246.312ZM443.07 254.867H444.805V245.375H447.57V255.898H449.328V235.062H447.57V243.852H444.805V235.578H443.07V254.867ZM471.406 251.703H462.711V247.203H469.062V236.539H467.258V240.312H456.43V236.539H454.578V247.203H460.906V251.703H452.328V253.227H471.406V251.703ZM456.43 245.703V241.812H467.258V245.703H456.43ZM479.258 240.992V237.031H477.477V241.062C477.477 244.637 475.719 248.328 472.836 250.016L474.008 251.398C476.094 250.133 477.641 247.742 478.402 244.965C479.129 247.508 480.57 249.734 482.586 250.953L483.641 249.523C480.875 247.883 479.258 244.309 479.258 240.992ZM481.344 244.109H484.883V254.844H486.617V235.508H484.883V242.539H481.344V244.109ZM489.148 255.898H490.93V235.062H489.148V255.898ZM512.891 251.68H508.156V246.008C509.879 245.082 510.922 243.605 510.922 241.742C510.922 238.52 507.758 236.398 503.305 236.375C498.852 236.398 495.688 238.52 495.688 241.742C495.688 243.641 496.766 245.141 498.547 246.066V251.68H493.812V253.227H512.891V251.68ZM497.469 241.742C497.457 239.41 499.883 237.875 503.305 237.898C506.691 237.875 509.141 239.41 509.141 241.742C509.141 244.074 506.691 245.633 503.305 245.633C499.883 245.633 497.457 244.074 497.469 241.742ZM500.352 251.68V246.734C501.242 246.969 502.238 247.086 503.305 247.086C504.395 247.086 505.402 246.957 506.305 246.723V251.68H500.352ZM516.758 254.141C517.59 254.129 518.27 253.449 518.258 252.617C518.27 251.797 517.59 251.117 516.758 251.117C515.938 251.117 515.234 251.797 515.258 252.617C515.234 253.449 515.938 254.129 516.758 254.141ZM154.133 276.062H152.305V286.68H154.133V282.133H157.273V280.586H154.133V276.062ZM138.734 285.578H148.367V277.258H138.734V285.578ZM140.539 284.102V278.758H146.586V284.102H140.539ZM140.844 289.141H152.305V291.344H140.891V296.617H154.906V295.141H142.695V292.75H154.133V287.664H140.844V289.141ZM174.875 276.062H173.047V291.156H174.875V283.82H178.039V282.273H174.875V276.062ZM159.57 287.453H161.188C165.57 287.453 168.055 287.312 170.984 286.75L170.75 285.227C167.961 285.789 165.582 285.918 161.398 285.906V279.414H168.852V277.867H159.57V287.453ZM161.844 296.453H175.836V294.906H163.648V289.633H161.844V296.453ZM186.148 277.586C182.855 277.598 180.512 279.59 180.523 282.484C180.512 285.391 182.855 287.371 186.148 287.383C189.418 287.371 191.738 285.391 191.75 282.484C191.738 279.59 189.418 277.598 186.148 277.586ZM179.445 290.781L179.703 292.352C183.453 292.352 188.574 292.328 193.344 291.438L193.203 290.078C188.598 290.758 183.289 290.793 179.445 290.781ZM182.328 282.484C182.316 280.551 183.922 279.203 186.148 279.203C188.352 279.203 189.957 280.551 189.945 282.484C189.957 284.43 188.352 285.766 186.148 285.766C183.922 285.766 182.316 284.43 182.328 282.484ZM194.586 296.945H196.414V276.062H194.586V296.945ZM213.148 279.93V279.039H217.836V277.539H206.586V279.039H211.344V279.93C211.32 282.918 209.141 285.602 206.023 286.703L207.008 288.133C209.457 287.242 211.367 285.402 212.258 283.035C213.148 285.191 214.965 286.891 217.344 287.734L218.281 286.305C215.199 285.238 213.16 282.707 213.148 279.93ZM208.742 291.227H220.555V296.898H222.383V289.727H208.742V291.227ZM220.555 288.625H222.383V283.141H225.523V281.57H222.383V276.062H220.555V288.625ZM245.82 287.055H226.836V288.555H245.82V287.055ZM228.945 280.938C228.945 283.527 231.805 285.086 236.328 285.086C240.805 285.086 243.676 283.527 243.688 280.938C243.676 278.324 240.805 276.789 236.328 276.812C231.805 276.789 228.945 278.324 228.945 280.938ZM229.297 296.453H243.711V294.906H231.148V290.383H229.297V296.453ZM230.844 280.938C230.832 279.309 232.965 278.289 236.328 278.289C239.668 278.289 241.801 279.309 241.812 280.938C241.801 282.59 239.668 283.586 236.328 283.586C232.965 283.586 230.832 282.59 230.844 280.938ZM272.609 285.812H253.602V287.336H262.18V289.398C258.23 289.586 255.887 290.91 255.898 293.102C255.887 295.527 258.594 296.852 263.094 296.852C267.559 296.852 270.242 295.527 270.266 293.102C270.242 290.91 267.922 289.586 264.008 289.398V287.336H272.609V285.812ZM256.016 283.891H270.383V282.414H257.82V278.523H270.242V277.047H256.016V283.891ZM257.773 293.102C257.75 291.648 259.754 290.828 263.094 290.828C266.398 290.828 268.402 291.648 268.414 293.102C268.402 294.566 266.398 295.434 263.094 295.422C259.754 295.434 257.75 294.566 257.773 293.102ZM290.914 276.977H276.758V278.477H289.086C289.098 279.848 289.074 281.547 288.594 283.867H274.344V285.344H293.422V283.867H290.445C290.914 281.523 290.914 279.719 290.914 278.312V276.977ZM276.617 288.93H289.156V291.25H276.641V296.664H291.523V295.164H278.492V292.703H290.984V287.453H276.617V288.93ZM312.312 276.062H310.461V296.898H312.312V276.062ZM295.344 291.484L296.352 292.984C303.336 289.633 306.125 284.324 306.148 278.336H296.305V279.836H304.273C303.863 284.816 300.98 288.812 295.344 291.484ZM334.883 288.438H315.805V289.938H324.383V296.898H326.188V289.938H334.883V288.438ZM318.242 285.906H332.422V276.93H330.57V279.812H320.07V276.93H318.242V285.906ZM320.07 284.406V281.312H330.57V284.406H320.07ZM353.844 276.062H352.016V283.938H347.609V285.461H352.016V296.945H353.844V276.062ZM337.531 291.906H339.125C343.156 291.906 345.699 291.766 348.734 291.273L348.523 289.75C345.664 290.266 343.203 290.371 339.383 290.383V285.344H346.344V283.844H339.383V279.508H347.258V277.984H337.531V291.906ZM379.812 277.422H365.727V278.945H377.984V279.25C377.984 281.195 377.984 283.375 377.352 286.375H363.336V287.898H371.867V296.945H373.719V287.898H382.32V286.375H379.215C379.812 283.387 379.812 281.219 379.812 279.25V277.422ZM403.156 292.68H394.531V287.617H392.68V292.68H384.078V294.227H403.156V292.68ZM385.016 286.867L385.789 288.344C388.918 287.699 392.27 285.625 393.605 282.707C394.941 285.59 398.305 287.617 401.492 288.25L402.242 286.797C398.645 286.211 394.543 283.352 394.531 280.023V279.508H401.516V277.961H385.648V279.508H392.633V280.023C392.633 283.352 388.543 286.27 385.016 286.867ZM428.117 276.086H426.266V281.852H421.977V283.375H426.266V291.367H428.117V276.086ZM410.938 287.195L411.898 288.695C414.371 287.77 416.293 285.859 417.195 283.445C418.098 285.602 419.914 287.348 422.258 288.203L423.219 286.727C420.172 285.684 418.086 283.07 418.086 280.375V279.297H422.75V277.773H411.523V279.297H416.234V280.375C416.234 283.363 414.008 286.117 410.938 287.195ZM414.734 296.453H428.703V294.906H416.586V289.984H414.734V296.453ZM437.68 282.484V281.453H441.594V279.93H437.703V276.836H435.945V279.93H431.984V281.453H435.945V282.484C435.934 285.93 434.258 289.586 431.422 291.227L432.523 292.633C434.609 291.379 436.098 289.035 436.836 286.363C437.598 288.871 439.098 291.027 441.172 292.164L442.227 290.781C439.391 289.27 437.691 285.836 437.68 282.484ZM440.164 285.859H443.445V295.82H445.18V276.578H443.445V284.289H440.164V285.859ZM447.641 296.898H449.398V276.062H447.641V296.898ZM470.188 276.062H468.406V296.898H470.188V276.062ZM452.586 285.062C452.598 289.492 454.355 292.316 457.062 292.305C459.629 292.316 461.375 289.773 461.551 285.719H464.234V295.844H465.992V276.508H464.234V284.195H461.539C461.305 280.27 459.594 277.832 457.062 277.82C454.355 277.832 452.598 280.633 452.586 285.062ZM454.32 285.062C454.297 281.676 455.375 279.555 457.062 279.555C458.762 279.555 459.84 281.676 459.828 285.062C459.84 288.438 458.762 290.57 457.062 290.547C455.375 290.57 454.297 288.438 454.32 285.062ZM486.336 279.906V279.016H491V277.516H479.773V279.016H484.484V279.93C484.484 282.871 482.258 285.648 479.188 286.75L480.148 288.203C482.621 287.289 484.555 285.367 485.457 282.977C486.348 285.121 488.164 286.867 490.508 287.711L491.469 286.258C488.422 285.203 486.336 282.613 486.336 279.906ZM482.352 291.18H494.516V296.898H496.367V289.656H482.352V291.18ZM490.344 283.07H494.516V288.555H496.367V276.062H494.516V281.523H490.344V283.07ZM518.82 286.375H514.109V283.434C515.75 282.777 516.676 281.723 516.688 280.328C516.676 277.879 513.863 276.473 509.328 276.461C504.758 276.473 501.945 277.879 501.945 280.328C501.945 281.734 502.883 282.789 504.547 283.434V286.375H499.836V287.898H518.82V286.375ZM502.133 293.172C502.121 295.551 504.805 296.852 509.328 296.852C513.793 296.852 516.477 295.551 516.5 293.172C516.477 290.793 513.793 289.48 509.328 289.492C504.805 289.48 502.121 290.793 502.133 293.172ZM503.844 280.328C503.832 278.828 505.918 277.914 509.328 277.914C512.703 277.914 514.801 278.828 514.812 280.328C514.801 281.852 512.703 282.73 509.328 282.742C505.918 282.73 503.832 281.852 503.844 280.328ZM504.008 293.172C503.984 291.754 505.988 290.922 509.328 290.898C512.633 290.922 514.637 291.754 514.648 293.172C514.637 294.59 512.633 295.434 509.328 295.422C505.988 295.434 503.984 294.59 504.008 293.172ZM506.375 286.375V283.938C507.254 284.09 508.238 284.172 509.328 284.172C510.418 284.172 511.402 284.09 512.281 283.926V286.375H506.375ZM150.266 325.062H141.359V319.555H150.172V318.055H139.555V326.586H143.867V330.758C141.793 330.816 139.777 330.828 137.961 330.828L138.219 332.375C142.203 332.387 147.242 332.293 151.859 331.625L151.719 330.242C149.785 330.465 147.734 330.605 145.695 330.688V326.586H150.266V325.062ZM153.102 336.945H154.93V316.062H153.102V336.945ZM175.438 322.391H162.992V316.836H161.164V323.867H175.438V322.391ZM158.562 328.203H177.641V326.703H158.562V328.203ZM161.047 336.383H175.555V334.859H162.875V330.336H161.047V336.383ZM204.359 325.812H185.352V327.336H193.93V329.398C189.98 329.586 187.637 330.91 187.648 333.102C187.637 335.527 190.344 336.852 194.844 336.852C199.309 336.852 201.992 335.527 202.016 333.102C201.992 330.91 199.672 329.586 195.758 329.398V327.336H204.359V325.812ZM187.766 323.891H202.133V322.414H189.57V318.523H201.992V317.047H187.766V323.891ZM189.523 333.102C189.5 331.648 191.504 330.828 194.844 330.828C198.148 330.828 200.152 331.648 200.164 333.102C200.152 334.566 198.148 335.434 194.844 335.422C191.504 335.434 189.5 334.566 189.523 333.102ZM222.664 316.977H208.508V318.477H220.836C220.848 319.848 220.824 321.547 220.344 323.867H206.094V325.344H225.172V323.867H222.195C222.664 321.523 222.664 319.719 222.664 318.312V316.977ZM208.367 328.93H220.906V331.25H208.391V336.664H223.273V335.164H210.242V332.703H222.734V327.453H208.367V328.93ZM244.062 316.062H242.211V336.898H244.062V316.062ZM227.094 331.484L228.102 332.984C235.086 329.633 237.875 324.324 237.898 318.336H228.055V319.836H236.023C235.613 324.816 232.73 328.812 227.094 331.484ZM264.078 316.062H262.227V336.898H264.078V326.211H267.242V324.664H264.078V316.062ZM247.508 331.133L248.984 332.188C252.77 328.191 253.883 323.293 253.906 318.336H248.164V319.883H252.16C251.926 324.031 250.648 327.91 247.508 331.133ZM253.484 332.539L254.984 333.57C258.887 329.035 259.613 323.281 259.625 318.336H254.562V319.883H257.891C257.715 324.23 256.742 328.859 253.484 332.539ZM275.773 322.461V319.742H280.742V318.219H269V319.742H273.922V322.461C273.91 326.07 271.309 330.008 268.32 331.438L269.422 332.891C271.801 331.695 273.91 329.047 274.883 325.988C275.855 328.871 277.953 331.273 280.391 332.375L281.422 330.922C278.352 329.598 275.785 326 275.773 322.461ZM283.648 336.898H285.5V316.062H283.648V336.898ZM314.164 332.68H305.539V327.617H303.688V332.68H295.086V334.227H314.164V332.68ZM296.023 326.867L296.797 328.344C299.926 327.699 303.277 325.625 304.613 322.707C305.949 325.59 309.312 327.617 312.5 328.25L313.25 326.797C309.652 326.211 305.551 323.352 305.539 320.023V319.508H312.523V317.961H296.656V319.508H303.641V320.023C303.641 323.352 299.551 326.27 296.023 326.867ZM333.102 316.062H331.25V321.5H327.055V323.023H331.25V328.484H333.102V316.062ZM315.922 326.82L316.883 328.297C319.367 327.348 321.301 325.402 322.191 322.965C323.094 325.109 324.91 326.867 327.242 327.711L328.203 326.234C325.156 325.191 323.07 322.602 323.07 319.883V319.133H327.734V317.586H316.508V319.133H321.219V319.906C321.219 322.883 319.016 325.707 315.922 326.82ZM319.203 333.008C319.191 335.469 321.852 336.875 326.188 336.898C330.512 336.875 333.172 335.469 333.172 333.008C333.172 330.559 330.512 329.129 326.188 329.141C321.852 329.129 319.191 330.559 319.203 333.008ZM321.031 333.008C321.02 331.484 322.988 330.57 326.188 330.57C329.375 330.57 331.344 331.484 331.344 333.008C331.344 334.52 329.375 335.434 326.188 335.422C322.988 335.434 321.02 334.52 321.031 333.008ZM352.859 315.992H351.031V327.523H352.859V322.578H356.023V321.055H352.859V315.992ZM336.617 319.438H349.039V317.961H343.742V315.852H341.914V317.961H336.617V319.438ZM337.812 323.797C337.801 325.918 339.793 327.207 342.828 327.219C345.852 327.207 347.82 325.918 347.844 323.797C347.82 321.688 345.852 320.387 342.828 320.375C339.793 320.387 337.801 321.688 337.812 323.797ZM339.57 329.984H351.031V331.859H339.617V336.664H353.633V335.258H341.422V333.219H352.859V328.602H339.57V329.984ZM339.57 323.797C339.559 322.555 340.848 321.746 342.828 321.734C344.797 321.746 346.086 322.555 346.109 323.797C346.086 325.051 344.797 325.836 342.828 325.836C340.848 325.836 339.559 325.051 339.57 323.797ZM373.789 318.008V316.812H371.891V318.008C371.891 320.996 368.082 323.48 364.32 324.008L365.07 325.508C368.316 324.969 371.516 323.199 372.852 320.621C374.188 323.176 377.398 324.969 380.633 325.508L381.383 324.008C377.621 323.48 373.801 320.949 373.789 318.008ZM363.336 329.352H371.891V336.898H373.695V329.352H382.32V327.805H363.336V329.352ZM397.156 330.055V328.906H395.375V330.055C395.352 332.047 393.77 334.273 391.133 335.258L392.07 336.617C394.062 335.867 395.492 334.414 396.242 332.738C396.863 334.484 398.152 336.008 400.18 336.781C402.102 335.973 403.379 334.367 404.023 332.68C404.75 334.426 406.203 335.879 408.289 336.617L409.203 335.258C406.531 334.332 404.949 332.199 404.961 330.055V328.906H403.156V330.055C403.168 331.66 402.113 333.746 400.121 334.977C398.141 333.852 397.145 331.895 397.156 330.055ZM390.594 322.18C390.582 325.039 392.891 327.008 396.055 327.008C399.219 327.008 401.504 325.039 401.516 322.18C401.504 319.273 399.219 317.293 396.055 317.305C392.891 317.293 390.582 319.273 390.594 322.18ZM392.398 322.18C392.375 320.234 393.91 318.852 396.055 318.875C398.176 318.852 399.711 320.234 399.711 322.18C399.711 324.113 398.176 325.473 396.055 325.484C393.91 325.473 392.375 324.113 392.398 322.18ZM405.477 327.992H407.305V316.086H405.477V327.992ZM415.086 328.578H413.258V336.617H427.344V328.578H425.492V331.016H415.086V328.578ZM410.844 327.102H429.828V325.578H410.844V327.102ZM411.922 322.625L412.625 324.102C415.836 323.621 419.023 321.992 420.348 319.648C421.672 321.98 424.848 323.621 428.07 324.102L428.75 322.625C425.082 322.156 421.285 319.848 421.297 317.281V316.297H419.398V317.281C419.398 319.93 415.637 322.121 411.922 322.625ZM415.086 335.141V332.469H425.492V335.141H415.086ZM448.766 316.062H446.938V336.898H448.766V316.062ZM432.945 331.531H434.633C437.973 331.531 441.266 331.273 444.969 330.5L444.711 328.93C441.219 329.668 437.938 329.914 434.75 329.938V318.125H432.945V331.531ZM468.453 316.062H466.625V336.945H468.453V325.859H471.945V324.312H468.453V316.062ZM453.242 331.719H454.883C458.844 331.719 461.574 331.602 464.844 331.016L464.609 329.422C461.504 329.996 458.844 330.16 455.07 330.172V319.625H462.969V318.102H453.242V331.719ZM475.273 335.141C476.105 335.129 476.785 334.449 476.773 333.617C476.785 332.797 476.105 332.117 475.273 332.117C474.453 332.117 473.75 332.797 473.773 333.617C473.75 334.449 474.453 335.129 475.273 335.141Z" fill="black"/>
<path d="M185.609 2.77232L185.615 2.77225L260 2C260.002 2 260.003 2 260.005 2C285.96 2.00278 307 23.0443 307 49C307 74.9574 285.957 96 260 96L202 96C146.219 96 101 141.219 101 197L101 255C101 280.957 79.9574 302 54 302C28.0442 302 7.00255 280.96 7 255.005C7 255.003 7 255.002 7 255L7.70688 180.68L7.7069 180.674C8.08008 82.796 87.7306 3.14546 185.609 2.77232Z" fill="white" stroke="#62DF85" stroke-width="2"/>
<path d="M179.609 1.77232L179.615 1.77225L254 1C254.002 1 254.003 1 254.005 1C279.96 1.00278 301 22.0443 301 48C301 73.9574 279.957 95 254 95L196 95C140.219 95 95 140.219 95 196L95 254C95 279.957 73.9574 301 48 301C22.0442 301 1.00255 279.96 1 254.005C1 254.003 1 254.002 1 254L1.70688 179.68L1.7069 179.674C2.08008 81.796 81.7306 2.14546 179.609 1.77232Z" fill="white" stroke="#62DF85" stroke-width="2"/>
<path d="M222.968 45.4034H200.344V35.8523H191.021V45.4034H173.887V52.8206H222.968V45.4034ZM178.756 63.967H207.202V75.2999H216.649V56.5291H178.756V63.967ZM179.211 30.9421H207.948C207.865 34.112 207.595 37.7584 206.663 42.3993L216.069 43.2073C217.354 36.536 217.354 31.315 217.354 27.3579V23.6493H179.211V30.9421ZM273.831 44.6161H224.335V51.3496H235.834V53.3592H229.784V59.7405H258.769V61.2115H229.805V75.072H269.563V68.815H239.128V67.0126H268.092V53.3592H262.394V51.3496H273.831V44.6161ZM230.281 27.8758H258.686V29.4711H230.323V43.0001H269.004V36.7432H239.646V35.3137H268.092V21.6603H230.281V27.8758ZM245.157 53.3592V51.3496H253.03V53.3592H245.157Z" fill="#62DF85"/>
<path d="M68.4779 268.071L68.4779 265.025L50.9503 265.025L50.9503 254.728C50.9503 254.065 50.9089 253.402 50.8467 252.781L68.4779 243.271L68.4779 239.749L50.2252 249.673C48.5884 244.493 44.279 241.593 38.5608 241.593C31.1644 241.593 26.047 246.42 26.047 254.769L26.047 268.071L68.4779 268.071ZM48.1326 265.025L28.844 265.025L28.844 254.873C28.844 248.305 32.6975 244.618 38.5608 244.618C44.4033 244.618 48.1326 248.305 48.1326 254.852L48.1326 265.025ZM59.6727 236.366C65.7638 236.366 69.1824 231.746 69.1824 226.152C69.1824 221.055 66.3025 217.595 62.9462 216.021L62.9462 215.814L68.4779 215.814L68.4779 212.872L46.4337 212.872C39.0166 212.872 36.1989 218.528 36.1989 223.935C36.1989 230.068 39.2859 234.792 44.1547 235.496L44.1547 232.45C40.8605 231.642 38.8509 228.39 38.8509 224.039C38.8509 218.901 41.71 215.814 46.2266 215.814L49.6036 215.814C49.7072 217.347 50.0594 222.609 50.2459 224.847C50.826 232.305 54.058 236.366 59.6727 236.366ZM59.797 233.403C55.9848 233.403 53.2708 230.897 52.7942 224.308L52.152 215.814L55.7984 215.814C61.8688 215.814 66.4683 219.895 66.4683 225.8C66.4683 230.151 63.9614 233.403 59.797 233.403ZM69.1409 193.79C69.1409 188.259 65.5981 185.13 61.8688 183.68L61.8688 183.348L68.4779 183.348L68.4779 180.469L26.047 180.469L26.047 183.411L43.4296 183.411L43.4296 183.68C39.7003 185.068 36.1989 188.217 36.1989 193.749C36.1989 201.456 42.9738 206.594 52.6492 206.594C62.3661 206.594 69.1409 201.498 69.1409 193.79ZM52.6078 203.632C44.8384 203.632 38.913 199.923 38.913 193.459C38.913 187.119 44.6727 183.369 52.6078 183.369C60.5843 183.369 66.4268 187.14 66.4268 193.459C66.4268 199.923 60.4185 203.632 52.6078 203.632ZM68.4779 171.597L68.4779 168.635L36.6547 168.635L36.6547 171.597L68.4779 171.597ZM28.8854 172.385C30.1078 172.385 31.0815 171.349 31.0815 170.085C31.0815 168.842 30.1078 167.806 28.8854 167.806C27.663 167.806 26.6685 168.842 26.6685 170.085C26.6685 171.349 27.663 172.385 28.8854 172.385ZM56.8964 140.289C62.6147 140.289 66.0332 144.536 66.0332 149.301C66.0332 154.232 62.5525 157.671 57.373 157.671L36.6547 157.671L36.6547 160.634L57.5387 160.634C64.6451 160.634 68.8923 156.242 68.8923 150.006C68.8923 145.448 66.5511 142.008 63.2777 140.517L63.2777 140.289L68.4779 140.289L68.4779 137.347L36.6547 137.347L36.6547 140.289L56.8964 140.289ZM44.1547 111.759L44.1547 108.796C39.4724 109.563 36.2196 113.375 36.1989 119.28C36.1782 125.599 39.8246 129.97 45.0042 129.97C49.1064 129.97 52.0277 127.236 53.2707 122.077L54.4517 117.167C55.4047 113.272 57.4144 111.428 60.2321 111.428C64.0235 111.428 66.4683 114.763 66.4683 119.881C66.4683 124.501 64.4586 127.339 60.6464 128.023L60.6464 131.11C66.0539 130.302 69.1409 126.241 69.1409 119.839C69.1409 112.795 65.3702 108.423 60.0663 108.423C55.9227 108.423 53.0636 111.013 51.8205 116.131L50.5981 121.02C49.6036 125.06 47.6561 127.028 44.8799 127.028C41.3578 127.028 38.7887 123.859 38.8301 119.28C38.8509 115.157 40.8812 112.505 44.1547 111.759Z" fill="#62DF85"/>
<line x1="-8.74228e-08" y1="37" x2="71" y2="37" stroke="#62DF85" stroke-width="2"/>
<line x1="-8.74228e-08" y1="61" x2="45" y2="61" stroke="#62DF85" stroke-width="2"/>
<line x1="-8.74228e-08" y1="31" x2="80" y2="31" stroke="#62DF85" stroke-width="2"/>
<line x1="-8.74228e-08" y1="55" x2="51" y2="55" stroke="#62DF85" stroke-width="2"/>
</svg>
