<svg width="434" height="406" viewBox="0 0 434 406" fill="none" xmlns="http://www.w3.org/2000/svg">
<path d="M6.44751 172.68C3.36464 172.696 1.20994 175.514 1.22652 179.939C1.20994 184.381 3.36464 187.199 6.44751 187.199C8.46133 187.199 10.0773 185.964 10.9475 183.851H16.2928V191.939H18.116V171.072H16.2928V175.729H10.8149C9.91989 173.807 8.36188 172.688 6.44751 172.68ZM2.98343 179.939C2.98343 176.558 4.39227 174.337 6.44751 174.32C8.48619 174.337 9.9116 176.558 9.9116 179.939C9.9116 183.337 8.48619 185.558 6.44751 185.558C4.39227 185.558 2.98343 183.337 2.98343 179.939ZM11.3453 177.271H16.2928V182.326H11.4116C11.5691 181.597 11.6519 180.801 11.6519 179.939C11.6519 178.97 11.5442 178.075 11.3453 177.271ZM38.8416 171.072H37.0184V179.077H32.9577V180.619H37.0184V191.939H38.8416V171.072ZM22.3168 174.536H29.9079V178.762H22.3831V186.934H23.9742C27.7532 186.917 30.4549 186.785 33.5875 186.221L33.4383 184.68C30.4052 185.251 27.7947 185.351 24.2063 185.359V180.287H31.698V173.011H22.3168V174.536ZM67.4305 187.68H58.7951V182.608H56.9553V187.68H48.3531V189.221H67.4305V187.68ZM49.2979 181.878L50.0603 183.337C53.1846 182.691 56.5327 180.619 57.8752 177.727C59.2178 180.602 62.5824 182.624 65.7564 183.254L66.5189 181.796C62.9222 181.215 58.8117 178.348 58.8117 175.033V174.519H65.7896V172.961H49.9277V174.519H56.9056V175.033C56.9056 178.348 52.8117 181.265 49.2979 181.878ZM80.913 173.409H76.0069V170.89H74.1837V173.409H69.1119V174.901H80.913V173.409ZM70.355 179.84C70.3384 182.16 72.261 183.685 75.0787 183.685C77.8633 183.685 79.8191 182.16 79.8356 179.84C79.8191 177.503 77.8633 175.978 75.0787 175.978C72.261 175.978 70.3384 177.503 70.355 179.84ZM72.0787 179.84C72.0622 178.365 73.2555 177.387 75.0787 177.37C76.8688 177.387 78.0953 178.365 78.1119 179.84C78.0953 181.298 76.8688 182.276 75.0787 182.276C73.2555 182.276 72.0622 181.298 72.0787 179.84ZM72.4931 188.309C72.4931 190.547 75.1285 191.856 79.5041 191.856C83.8467 191.856 86.482 190.547 86.482 188.309C86.482 186.039 83.8467 184.746 79.5041 184.746C75.1285 184.746 72.4931 186.039 72.4931 188.309ZM74.3992 188.309C74.3992 186.95 76.3384 186.188 79.5041 186.188C82.6202 186.188 84.5428 186.95 84.5428 188.309C84.5428 189.635 82.6202 190.431 79.5041 190.414C76.3384 190.431 74.3992 189.635 74.3992 188.309ZM80.8798 181.663H84.5262V184.547H86.366V171.072H84.5262V176.077H80.8964V177.602H84.5262V180.138H80.8798V181.663ZM114.938 187.68H110.198V182.011C111.922 181.083 112.966 179.608 112.966 177.751C112.966 174.519 109.8 172.398 105.342 172.381C100.9 172.398 97.7339 174.519 97.7339 177.751C97.7339 179.633 98.8112 181.133 100.585 182.061V187.68H95.8609V189.221H114.938V187.68ZM99.5073 177.751C99.5073 175.414 101.927 173.873 105.342 173.89C108.739 173.873 111.192 175.414 111.192 177.751C111.192 180.072 108.739 181.63 105.342 181.63C101.927 181.63 99.5073 180.072 99.5073 177.751ZM102.391 187.68V182.74C103.286 182.964 104.273 183.088 105.342 183.088C106.427 183.088 107.438 182.964 108.342 182.732V187.68H102.391ZM135.68 187.646H126.946V182.558H125.139V187.646H116.603V189.171H135.68V187.646ZM117.349 181.265L118.178 182.79C121.352 182.127 124.675 179.972 126.042 176.981C127.401 179.981 130.75 182.127 133.924 182.79L134.752 181.265C131.106 180.635 126.995 177.569 126.995 174.088V172.481H125.073V174.088C125.056 177.586 120.995 180.635 117.349 181.265ZM156.423 187.762H147.738V183.834H154.5V182.309H141.555V178.912H154.019V172.613H139.682V174.138H152.196V177.403H139.732V183.834H145.914V187.762H137.345V189.32H156.423V187.762ZM180.586 172.431H166.498V173.956H178.763V174.254C178.763 176.193 178.763 178.39 178.116 181.381H164.111V182.906H172.647V191.939H174.487V182.906H183.105V181.381H179.989C180.586 178.381 180.586 176.227 180.586 174.254V172.431ZM192.013 174.354V172.265H190.19V174.42C190.174 177.652 188.035 180.42 184.837 181.547L185.831 183.039C188.35 182.094 190.256 180.155 191.143 177.66C192.046 179.856 193.853 181.547 196.157 182.409L197.185 180.967C194.118 179.939 191.997 177.32 192.013 174.354ZM188.234 187.961C188.218 190.448 190.87 191.856 195.212 191.856C199.538 191.856 202.19 190.448 202.19 187.961C202.19 185.459 199.538 184.017 195.212 184.017C190.87 184.017 188.218 185.459 188.234 187.961ZM190.058 187.961C190.041 186.403 192.013 185.475 195.212 185.475C198.395 185.475 200.367 186.403 200.367 187.961C200.367 189.47 198.395 190.381 195.212 190.381C192.013 190.381 190.041 189.47 190.058 187.961ZM195.643 177.055H200.284V183.42H202.124V171.072H200.284V175.53H195.643V177.055ZM218.01 180.072H209.109V174.552H217.927V173.061H207.302V181.597H211.612V185.749C209.54 185.807 207.526 185.823 205.711 185.823L205.96 187.381C209.954 187.381 214.993 187.298 219.617 186.619L219.468 185.243C217.537 185.467 215.49 185.599 213.452 185.691V181.597H218.01V180.072ZM220.844 191.939H222.684V171.072H220.844V191.939ZM231.94 172.68C228.857 172.696 226.702 175.514 226.719 179.939C226.702 184.381 228.857 187.199 231.94 187.199C234.849 187.199 236.929 184.638 237.128 180.552H241.785V191.939H243.608V171.072H241.785V179.028H237.111C236.821 175.133 234.774 172.696 231.94 172.68ZM228.476 179.939C228.476 176.558 229.884 174.337 231.94 174.32C233.978 174.337 235.404 176.558 235.404 179.939C235.404 183.337 233.978 185.558 231.94 185.558C229.884 185.558 228.476 183.337 228.476 179.939ZM254.124 185.044V183.901H252.35V185.044C252.334 187.05 250.743 189.271 248.107 190.249L249.035 191.608C251.033 190.862 252.466 189.42 253.221 187.738C253.842 189.486 255.127 191.011 257.157 191.79C259.088 190.97 260.356 189.37 261.002 187.671C261.723 189.42 263.182 190.878 265.262 191.608L266.19 190.249C263.505 189.337 261.931 187.199 261.947 185.044V183.901H260.14V185.044C260.14 186.66 259.088 188.757 257.099 189.983C255.127 188.856 254.124 186.892 254.124 185.044ZM247.56 177.171C247.56 180.039 249.864 182.011 253.03 182.011C256.196 182.011 258.483 180.039 258.483 177.171C258.483 174.271 256.196 172.298 253.03 172.298C249.864 172.298 247.56 174.271 247.56 177.171ZM249.367 177.171C249.35 175.232 250.892 173.856 253.03 173.873C255.152 173.856 256.693 175.232 256.693 177.171C256.693 179.11 255.152 180.47 253.03 180.486C250.892 180.47 249.35 179.11 249.367 177.171ZM262.444 182.989H264.284V171.088H262.444V182.989ZM284.662 177.387H272.231V171.834H270.408V178.878H284.662V177.387ZM267.789 183.204H286.866V181.713H267.789V183.204ZM270.275 191.392H284.794V189.867H272.098V185.326H270.275V191.392ZM306.803 172.762H295.516V174.304H297.621V180.826C296.676 180.834 295.773 180.834 294.936 180.834L295.168 182.409C298.781 182.409 303.687 182.343 307.963 181.696L307.831 180.32C306.82 180.436 305.759 180.519 304.681 180.586V174.304H306.803V172.762ZM297.77 186.254H309.952V191.906H311.792V184.729H297.77V186.254ZM299.394 180.793V174.304H302.908V180.685C301.723 180.743 300.538 180.776 299.394 180.793ZM309.952 183.718H311.792V171.072H309.952V183.718ZM332.203 181.912H319.656V178.762H331.523V177.271H319.656V174.304H331.971V172.779H317.799V183.42H323.899V187.762H315.33V189.287H334.407V187.762H325.739V183.42H332.203V181.912ZM352.497 173.293H338.144V174.818H350.691V175.381C350.691 177.934 350.691 181.05 349.845 185.309L351.718 185.492C352.497 180.967 352.497 178 352.497 175.381V173.293ZM336.072 188.84H355.066V187.298H336.072V188.84ZM374.499 171.088H372.759V176.376H369.825V171.486H368.101V183.238H369.825V177.917H372.759V183.519H374.499V171.088ZM357.726 173.956H363.858V176.691H357.775V182.575H359.134C362.151 182.575 364.372 182.492 367.074 181.978L366.875 180.486C364.397 180.975 362.3 181.108 359.565 181.116V178.116H365.615V172.448H357.726V173.956ZM360.742 191.624H374.499V184.497H360.742V191.624ZM362.565 190.116V185.989H372.709V190.116H362.565ZM396.551 182.061H377.556V183.552H396.551V182.061ZM379.661 175.928C379.661 178.53 382.529 180.088 387.037 180.088C391.529 180.088 394.396 178.53 394.396 175.928C394.396 173.326 391.529 171.785 387.037 171.801C382.529 171.785 379.661 173.326 379.661 175.928ZM380.009 191.442H394.429V189.917H381.866V185.392H380.009V191.442ZM381.567 175.928C381.551 174.304 383.689 173.293 387.037 173.293C390.385 173.293 392.523 174.304 392.523 175.928C392.523 177.586 390.385 178.58 387.037 178.58C383.689 178.58 381.551 177.586 381.567 175.928ZM19.9227 228.68H15.1823V223.011C16.9061 222.083 17.9503 220.608 17.9503 218.751C17.9503 215.519 14.7845 213.398 10.326 213.381C5.88398 213.398 2.71823 215.519 2.71823 218.751C2.71823 220.633 3.79558 222.133 5.56906 223.061V228.68H0.845304V230.221H19.9227V228.68ZM4.49171 218.751C4.49171 216.414 6.9116 214.873 10.326 214.89C13.7238 214.873 16.1768 216.414 16.1768 218.751C16.1768 221.072 13.7238 222.63 10.326 222.63C6.9116 222.63 4.49171 221.072 4.49171 218.751ZM7.37569 228.68V223.74C8.27072 223.964 9.25691 224.088 10.326 224.088C11.4116 224.088 12.4227 223.964 13.326 223.732V228.68H7.37569ZM40.6648 228.646H31.93V223.558H30.1234V228.646H21.5875V230.171H40.6648V228.646ZM22.3333 222.265L23.1621 223.79C26.3361 223.127 29.6593 220.972 31.0267 217.981C32.3858 220.981 35.7339 223.127 38.9079 223.79L39.7367 222.265C36.0903 221.635 31.9798 218.569 31.9798 215.088V213.481H30.0571V215.088C30.0405 218.586 25.9798 221.635 22.3333 222.265ZM64.6459 212.072H62.7896V227.32H64.6459V219.961H67.7785V218.403H64.6459V212.072ZM48.3863 223.425L49.1818 224.901C55.1818 223.028 59.0106 219.05 59.0106 213.68H49.2481V215.221H57.0133C56.6238 218.909 53.3835 221.867 48.3863 223.425ZM51.5852 232.442H65.5907V230.917H53.4249V225.762H51.5852V232.442ZM75.9075 213.597C72.6257 213.597 70.2721 215.586 70.2887 218.486C70.2721 221.387 72.6257 223.376 75.9075 223.376C79.1892 223.376 81.5097 221.387 81.5262 218.486C81.5097 215.586 79.1892 213.597 75.9075 213.597ZM69.2113 226.773L69.4599 228.348C73.2224 228.348 78.3439 228.331 83.1174 227.436L82.9682 226.077C78.3605 226.757 73.0566 226.79 69.2113 226.773ZM72.0953 218.486C72.0787 216.547 73.6865 215.204 75.9075 215.204C78.1119 215.204 79.7196 216.547 79.7196 218.486C79.7196 220.425 78.1119 221.768 75.9075 221.768C73.6865 221.768 72.0787 220.425 72.0953 218.486ZM84.3439 232.939H86.1837V212.072H84.3439V232.939ZM102.822 215.436V213.149H101.016V215.304C100.999 218.519 98.9107 221.304 95.7781 222.464L96.7725 223.939C99.209 223.003 101.074 221.08 101.969 218.619C102.872 220.79 104.695 222.514 106.999 223.359L107.994 221.901C104.977 220.873 102.822 218.271 102.822 215.436ZM98.5626 229.061C98.5626 231.481 101.181 232.856 105.474 232.856C109.75 232.856 112.336 231.481 112.336 229.061C112.336 226.674 109.75 225.282 105.474 225.282C101.181 225.282 98.5626 226.674 98.5626 229.061ZM100.402 229.061C100.386 227.635 102.325 226.757 105.474 226.757C108.623 226.757 110.546 227.635 110.546 229.061C110.546 230.536 108.623 231.381 105.474 231.398C102.325 231.381 100.386 230.536 100.402 229.061ZM110.314 224.751H112.154V219.05H115.286V217.508H112.154V212.072H110.314V224.751ZM134.404 212.072H132.647V220.442H129.598V212.536H127.89V231.812H129.598V221.967H132.647V232.906H134.404V212.072ZM117.366 227.751H118.708C121.907 227.735 124.029 227.652 126.531 227.122L126.366 225.58C124.062 226.052 122.081 226.169 119.205 226.177V216.133H125.172V214.624H117.366V227.751ZM144.588 215.917V215.022H149.246V213.514H138.025V215.022H142.732V215.934C142.732 218.867 140.511 221.652 137.428 222.746L138.39 224.204C140.867 223.293 142.798 221.378 143.693 218.983C144.597 221.13 146.412 222.87 148.765 223.707L149.727 222.265C146.677 221.204 144.588 218.619 144.588 215.917ZM140.594 227.171H152.776V232.906H154.616V225.663H140.594V227.171ZM148.583 219.066H152.776V224.552H154.616V212.072H152.776V217.525H148.583V219.066ZM175.292 212.088H173.452V227.32H175.292V212.088ZM158.568 218.652C158.568 221.685 160.922 223.79 164.038 223.773C167.154 223.79 169.491 221.685 169.491 218.652C169.491 215.652 167.154 213.547 164.038 213.547C160.922 213.547 158.568 215.652 158.568 218.652ZM160.375 218.652C160.358 216.613 161.933 215.155 164.038 215.155C166.11 215.155 167.701 216.613 167.701 218.652C167.701 220.724 166.11 222.166 164.038 222.166C161.933 222.166 160.358 220.724 160.375 218.652ZM161.833 232.442H175.938V230.917H163.673V225.762H161.833V232.442ZM202.024 212.072H200.185V232.939H202.024V212.072ZM186.063 227.901H195.925V213.845H194.102V219.348H187.903V213.845H186.063V227.901ZM187.903 226.359V220.823H194.102V226.359H187.903ZM215.076 212.32C210.435 212.32 207.7 213.613 207.7 215.934C207.7 218.271 210.435 219.547 215.076 219.564C219.717 219.547 222.435 218.271 222.435 215.934C222.435 213.613 219.717 212.32 215.076 212.32ZM205.595 222.331H210.767V224.387H207.899V225.796H220.33V227.685H207.949V232.674H222.767V231.215H209.756V229.044H222.137V224.387H219.286V222.331H224.59V220.823H205.595V222.331ZM209.623 215.934C209.606 214.558 211.628 213.746 215.076 213.729C218.54 213.746 220.562 214.558 220.562 215.934C220.562 217.359 218.54 218.138 215.076 218.155C211.628 218.138 209.606 217.359 209.623 215.934ZM212.59 224.387V222.331H217.446V224.387H212.59ZM244.188 212.072H242.415V232.906H244.188V212.072ZM226.603 221.055C226.603 225.497 228.36 228.315 231.061 228.298C233.639 228.315 235.371 225.779 235.553 221.718H238.238V231.845H240.012V212.519H238.238V220.193H235.545C235.313 216.265 233.597 213.829 231.061 213.829C228.36 213.829 226.603 216.63 226.603 221.055ZM228.326 221.055C228.31 217.674 229.387 215.552 231.061 215.552C232.768 215.552 233.846 217.674 233.846 221.055C233.846 224.436 232.768 226.575 231.061 226.558C229.387 226.575 228.31 224.436 228.326 221.055ZM269.578 212.039H267.738V232.906H269.578V221.834H272.628V220.26H269.578V212.039ZM253.733 227.436H254.645C255.888 227.436 257.462 227.403 259.435 226.989L259.252 225.448C257.86 225.746 256.609 225.854 255.573 225.878V215.785H259.037V214.26H253.733V227.436ZM260.23 227.436H261.225C263.346 227.436 264.821 227.387 266.645 226.939L266.462 225.398C264.995 225.771 263.686 225.87 262.053 225.887V215.785H265.783V214.26H260.23V227.436ZM289.972 212.072H288.149V232.939H289.972V221.917H293.453V220.359H289.972V212.072ZM274.657 215.536H282.298V219.945H274.707V227.901H276.365C280.392 227.884 283.177 227.735 286.459 227.138L286.276 225.613C283.102 226.202 280.401 226.343 276.53 226.343V221.47H284.138V214.011H274.657V215.536ZM301.913 217.674V213.878H300.057V217.674C300.041 221.503 297.621 225.514 294.571 227.022L295.748 228.497C298.126 227.229 300.082 224.561 301.002 221.445C301.93 224.403 303.886 226.898 306.256 228.116L307.366 226.624C304.333 225.232 301.913 221.436 301.913 217.674ZM305.096 220.691H310.035V232.939H311.858V212.072H310.035V219.182H305.096V220.691ZM340.397 224.188H321.32V225.696H329.906V232.89H331.712V225.696H340.397V224.188ZM323.79 221.337H337.928V213.232H323.79V221.337ZM325.596 219.895V214.74H336.104V219.895H325.596ZM358.388 212.088H356.548V227.702H358.388V220.508H361.521V218.95H358.388V212.088ZM342.145 216.149H354.559V214.641H349.272V212.088H347.449V214.641H342.145V216.149ZM343.338 221.188C343.322 223.525 345.344 225.033 348.36 225.033C351.327 225.033 353.349 223.525 353.366 221.188C353.349 218.818 351.327 217.293 348.36 217.293C345.344 217.293 343.322 218.818 343.338 221.188ZM345.095 221.188C345.079 219.696 346.388 218.735 348.36 218.735C350.3 218.735 351.609 219.696 351.626 221.188C351.609 222.646 350.3 223.591 348.36 223.575C346.388 223.591 345.079 222.646 345.095 221.188ZM345.344 232.442H359.349V230.917H347.167V226.442H345.344V232.442ZM379.13 212.088H377.291V227.702H379.13V220.508H382.263V218.95H379.13V212.088ZM362.887 216.149H375.302V214.641H370.014V212.088H368.191V214.641H362.887V216.149ZM364.081 221.188C364.064 223.525 366.086 225.033 369.103 225.033C372.07 225.033 374.092 223.525 374.108 221.188C374.092 218.818 372.07 217.293 369.103 217.293C366.086 217.293 364.064 218.818 364.081 221.188ZM365.837 221.188C365.821 219.696 367.13 218.735 369.103 218.735C371.042 218.735 372.351 219.696 372.368 221.188C372.351 222.646 371.042 223.591 369.103 223.575C367.13 223.591 365.821 222.646 365.837 221.188ZM366.086 232.442H380.092V230.917H367.909V226.442H366.086V232.442ZM8.25414 258.674V254.878H6.41436V258.674C6.39779 262.619 3.82873 266.597 0.729282 268.022L1.8895 269.564C4.33425 268.337 6.3895 265.693 7.35083 262.552C8.3453 265.519 10.3923 267.989 12.7624 269.149L13.8895 267.691C10.8232 266.298 8.23757 262.47 8.25414 258.674ZM16.1768 273.939H18.0166V253.072H16.1768V273.939ZM37.8803 253.072H36.0405V265.304H37.8803V259.934H41.0129V258.359H37.8803V253.072ZM21.5543 263.63L22.3168 265.055C28.4659 263.431 32.1455 259.669 32.1621 254.398H22.4991V255.923H30.198C29.8251 259.453 26.6759 262.246 21.5543 263.63ZM24.2394 267.757H36.0405V273.906H37.8803V266.249H24.2394V267.757ZM49.5728 256.917V256.022H54.2302V254.514H43.0092V256.022H47.7164V256.934C47.7164 259.867 45.4954 262.652 42.4126 263.746L43.3739 265.204C45.8518 264.293 47.7827 262.378 48.6777 259.983C49.5811 262.13 51.396 263.87 53.7496 264.707L54.7109 263.265C51.6612 262.204 49.5728 259.619 49.5728 256.917ZM45.5783 268.171H57.7606V273.906H59.6004V266.663H45.5783V268.171ZM53.5672 260.066H57.7606V265.552H59.6004V253.072H57.7606V258.525H53.5672V260.066ZM85.2224 253.072H83.3826V273.89H85.2224V263.099H88.6036V261.541H85.2224V253.072ZM69.2279 268.486L70.2555 269.928C77.0511 266.58 79.8191 261.21 79.8356 255.309H70.2058V256.851H77.9627C77.5483 261.798 74.6146 265.809 69.2279 268.486ZM106.661 258.906H94.2629V253.486H92.4397V260.414H106.661V258.906ZM89.8375 264.376H108.849V262.851H89.8375V264.376ZM92.1248 270.028C92.1248 272.448 94.8264 273.807 99.3182 273.807C103.793 273.807 106.478 272.448 106.495 270.028C106.478 267.608 103.793 266.249 99.3182 266.249C94.8264 266.249 92.1248 267.608 92.1248 270.028ZM93.9977 270.028C93.9811 268.552 95.9867 267.724 99.3182 267.707C102.633 267.724 104.639 268.552 104.655 270.028C104.639 271.486 102.633 272.365 99.3182 272.365C95.9867 272.365 93.9811 271.486 93.9977 270.028ZM117.74 256.354V254.265H115.917V256.42C115.9 259.652 113.762 262.42 110.563 263.547L111.558 265.039C114.077 264.094 115.983 262.155 116.87 259.66C117.773 261.856 119.58 263.547 121.884 264.409L122.911 262.967C119.845 261.939 117.723 259.32 117.74 256.354ZM113.961 269.961C113.944 272.448 116.596 273.856 120.939 273.856C125.265 273.856 127.917 272.448 127.917 269.961C127.917 267.459 125.265 266.017 120.939 266.017C116.596 266.017 113.944 267.459 113.961 269.961ZM115.784 269.961C115.768 268.403 117.74 267.475 120.939 267.475C124.121 267.475 126.093 268.403 126.093 269.961C126.093 271.47 124.121 272.381 120.939 272.381C117.74 272.381 115.768 271.47 115.784 269.961ZM121.37 259.055H126.011V265.42H127.85V253.072H126.011V257.53H121.37V259.055ZM140.803 253.436C136.162 253.436 133.427 254.713 133.427 257.033C133.427 259.387 136.162 260.663 140.803 260.68C145.443 260.663 148.162 259.387 148.162 257.033C148.162 254.713 145.443 253.436 140.803 253.436ZM131.322 263.58H150.316V262.088H131.322V263.58ZM133.626 266.796H146.057V268.685H133.675V273.674H148.493V272.215H135.482V270.044H147.863V265.387H133.626V266.796ZM135.349 257.033C135.333 255.657 137.355 254.829 140.803 254.829C144.267 254.829 146.289 255.657 146.289 257.033C146.289 258.475 144.267 259.271 140.803 259.271C137.355 259.271 135.333 258.475 135.349 257.033ZM174.215 253.072H172.375V273.89H174.215V263.099H177.596V261.541H174.215V253.072ZM158.22 268.486L159.248 269.928C166.043 266.58 168.811 261.21 168.828 255.309H159.198V256.851H166.955C166.541 261.798 163.607 265.809 158.22 268.486ZM186.288 259.47V256.751H191.244V255.21H179.509V256.751H184.432V259.47C184.415 263.066 181.813 267.011 178.83 268.436L179.924 269.895C182.302 268.702 184.407 266.05 185.385 263C186.363 265.876 188.46 268.271 190.896 269.381L191.924 267.923C188.857 266.597 186.288 263 186.288 259.47ZM194.161 273.906H196.001V253.072H194.161V273.906ZM217.406 253.072H215.649V273.906H217.406V253.072ZM199.588 268.072L200.666 269.398C203.575 267.682 205.588 265.536 206.848 263.116H211.274V272.845H213.03V253.635H211.274V261.624H207.528C208.24 259.768 208.564 257.779 208.572 255.724H200.483V257.265H206.732C206.384 261.624 204.113 265.387 199.588 268.072ZM243.542 253.088H241.686V265.055H243.542V253.088ZM226.404 263.033L226.686 264.558C230.448 264.541 235.503 264.475 240.061 263.696L239.962 262.37C238.13 262.619 236.175 262.776 234.227 262.876V260.696H238.387V259.221H230.15V255.641H238.188V254.116H228.293V260.696H232.387V262.95C230.241 263.025 228.177 263.033 226.404 263.033ZM229.802 273.624H243.542V266H241.735V268.221H231.641V266H229.802V273.624ZM231.641 272.116V269.663H241.735V272.116H231.641ZM264.251 253.072H262.428V273.906H264.251V253.072ZM248.439 268.536H250.129C253.461 268.536 256.759 268.271 260.455 267.508L260.207 265.934C256.701 266.671 253.428 266.92 250.245 266.928V255.127H248.439V268.536ZM283.949 253.072H282.109V273.939H283.949V262.851H287.43V261.309H283.949V253.072ZM268.733 268.718H270.374C274.336 268.718 277.07 268.602 280.336 268.022L280.104 266.431C277.012 267.003 274.344 267.152 270.573 267.16V256.619H278.463V255.11H268.733V268.718ZM290.768 272.133C291.597 272.133 292.277 271.453 292.277 270.624C292.277 269.796 291.597 269.116 290.768 269.116C289.94 269.116 289.244 269.796 289.26 270.624C289.244 271.453 289.94 272.133 290.768 272.133ZM307.271 272.232C310.652 272.232 313.188 270.177 313.172 267.392C313.188 265.221 311.846 263.646 309.641 263.315V263.182C311.415 262.685 312.542 261.276 312.525 259.354C312.542 256.917 310.569 254.796 307.337 254.796C304.321 254.796 301.818 256.602 301.719 259.287H303.757C303.84 257.63 305.498 256.635 307.304 256.635C309.243 256.635 310.487 257.762 310.487 259.453C310.487 261.21 309.045 262.37 306.973 262.37H305.597V264.227H306.973C309.625 264.227 311.1 265.536 311.1 267.376C311.1 269.149 309.475 270.359 307.238 270.359C305.216 270.359 303.608 269.348 303.492 267.74H301.354C301.47 270.425 303.89 272.232 307.271 272.232ZM334.481 262.983H315.47V264.525H334.481V262.983ZM317.758 270.11C317.758 272.514 320.459 273.856 324.951 273.856C329.426 273.856 332.111 272.514 332.128 270.11C332.111 267.707 329.426 266.348 324.951 266.348C320.459 266.348 317.758 267.707 317.758 270.11ZM317.874 260.994H332.244V259.486H319.697V255.442H332.111V253.917H317.874V260.994ZM319.631 270.11C319.614 268.652 321.619 267.807 324.951 267.79C328.266 267.807 330.271 268.652 330.288 270.11C330.271 271.569 328.266 272.398 324.951 272.398C321.619 272.398 319.614 271.569 319.631 270.11ZM353.417 253.088H351.577V268.37H353.417V253.088ZM336.428 263.912L337.439 265.354C339.875 264.367 341.765 262.32 342.668 259.76C343.588 262.163 345.469 264.036 347.881 264.972L348.842 263.497C345.743 262.37 343.572 259.519 343.588 256.337V254.249H341.715V256.337C341.715 259.635 339.577 262.685 336.428 263.912ZM339.958 273.442H354.063V271.917H341.798V266.961H339.958V273.442ZM375.999 265.436H356.922V266.928H365.507V273.906H367.314V266.928H375.999V265.436ZM359.375 262.901H373.546V253.934H371.706V256.818H361.198V253.934H359.375V262.901ZM361.198 261.409V258.309H371.706V261.409H361.198ZM394.968 253.072H393.144V260.945H388.736V262.47H393.144V273.939H394.968V253.072ZM378.658 268.917H380.249C384.277 268.901 386.829 268.768 389.863 268.271L389.647 266.746C386.796 267.268 384.343 267.367 380.515 267.376V262.337H387.459V260.845H380.515V256.503H388.387V254.978H378.658V268.917ZM7.59116 296.028H5.46961L1.24309 298.845V300.967L5.37017 298.232H5.46961V313H7.59116V296.028ZM17.6671 313.232C21.4295 313.232 23.6008 310.066 23.6008 304.514C23.6008 299.011 21.3964 295.796 17.6671 295.796C13.9378 295.796 11.7334 299.011 11.7334 304.514C11.7334 310.066 13.9047 313.232 17.6671 313.232ZM13.7886 304.514C13.7886 300.122 15.2306 297.635 17.6671 297.635C20.1035 297.635 21.5455 300.122 21.5455 304.514C21.5455 308.906 20.1201 311.359 17.6671 311.359C15.214 311.359 13.7886 308.906 13.7886 304.514ZM44.6767 303.983H25.6656V305.525H44.6767V303.983ZM27.9529 311.11C27.9529 313.514 30.6546 314.856 35.1463 314.856C39.6214 314.856 42.3065 313.514 42.3231 311.11C42.3065 308.707 39.6214 307.348 35.1463 307.348C30.6546 307.348 27.9529 308.707 27.9529 311.11ZM28.0689 301.994H42.4391V300.486H29.8921V296.442H42.3065V294.917H28.0689V301.994ZM29.8258 311.11C29.8093 309.652 31.8148 308.807 35.1463 308.79C38.4612 308.807 40.4667 309.652 40.4833 311.11C40.4667 312.569 38.4612 313.398 35.1463 313.398C31.8148 313.398 29.8093 312.569 29.8258 311.11ZM63.6122 294.088H61.7724V309.37H63.6122V294.088ZM46.6233 304.912L47.6343 306.354C50.0708 305.367 51.9603 303.32 52.8636 300.76C53.7835 303.163 55.6647 305.036 58.0763 305.972L59.0376 304.497C55.9382 303.37 53.7669 300.519 53.7835 297.337V295.249H51.9106V297.337C51.9106 300.635 49.7724 303.685 46.6233 304.912ZM50.1537 314.442H64.2586V312.917H51.9934V307.961H50.1537V314.442ZM83.6417 294.072H81.8019V314.906H83.6417V304.215H86.8075V302.674H83.6417V294.072ZM67.0671 309.138L68.5588 310.182C72.3378 306.188 73.4483 301.298 73.4649 296.343H67.7301V297.884H71.7163C71.4925 302.036 70.2246 305.923 67.0671 309.138ZM73.0505 310.547L74.5588 311.575C78.4539 307.033 79.1831 301.282 79.1997 296.343H74.1279V297.884H77.4677C77.2936 302.227 76.3157 306.859 73.0505 310.547ZM95.3507 300.47V297.751H100.307V296.21H88.5717V297.751H93.4944V300.47C93.4778 304.066 90.8756 308.011 87.8922 309.436L88.9861 310.895C91.3646 309.702 93.4695 307.05 94.4474 304C95.4253 306.876 97.522 309.271 99.9585 310.381L100.986 308.923C97.9198 307.597 95.3507 304 95.3507 300.47ZM103.224 314.906H105.063V294.072H103.224V314.906ZM133.735 310.829H128.282V305.856H131.862V304.331H128.597V297.536H131.912V296.011H116.348V297.536H119.647V304.331H116.382V305.856H119.978V310.829H114.658V312.354H133.735V310.829ZM121.47 304.331V297.536H126.79V304.331H121.47ZM121.818 310.829V305.856H126.442V310.829H121.818ZM152.671 294.088H150.831V299.641H147.201V301.166H150.831V304H147.201V305.492H150.831V309.983H152.671V294.088ZM135.417 298.149H147.218V296.641H142.312V294.072H140.488V296.641H135.417V298.149ZM136.66 303.271C136.643 305.641 138.582 307.249 141.383 307.249C144.168 307.249 146.124 305.641 146.14 303.271C146.124 300.884 144.168 299.293 141.383 299.293C138.582 299.293 136.643 300.884 136.66 303.271ZM138.383 303.271C138.367 301.779 139.593 300.768 141.383 300.751C143.157 300.768 144.383 301.779 144.4 303.271C144.383 304.779 143.157 305.79 141.383 305.79C139.593 305.79 138.367 304.779 138.383 303.271ZM139.196 314.442H153.151V312.917H141.052V308.575H139.196V314.442ZM178.293 294.072H176.453V314.89H178.293V304.099H181.674V302.541H178.293V294.072ZM162.298 309.486L163.326 310.928C170.121 307.58 172.889 302.21 172.906 296.309H163.276V297.851H171.033C170.619 302.798 167.685 306.809 162.298 309.486ZM199.731 299.906H187.333V294.486H185.51V301.414H199.731V299.906ZM182.908 305.376H201.919V303.851H182.908V305.376ZM185.195 311.028C185.195 313.448 187.897 314.807 192.388 314.807C196.864 314.807 199.549 313.448 199.565 311.028C199.549 308.608 196.864 307.249 192.388 307.249C187.897 307.249 185.195 308.608 185.195 311.028ZM187.068 311.028C187.051 309.552 189.057 308.724 192.388 308.707C195.703 308.724 197.709 309.552 197.725 311.028C197.709 312.486 195.703 313.365 192.388 313.365C189.057 313.365 187.051 312.486 187.068 311.028ZM219.943 294.088H218.103V309.702H219.943V302.508H223.075V300.95H219.943V294.088ZM203.7 298.149H216.114V296.641H210.827V294.088H209.004V296.641H203.7V298.149ZM204.893 303.188C204.877 305.525 206.899 307.033 209.915 307.033C212.882 307.033 214.904 305.525 214.921 303.188C214.904 300.818 212.882 299.293 209.915 299.293C206.899 299.293 204.877 300.818 204.893 303.188ZM206.65 303.188C206.633 301.696 207.943 300.735 209.915 300.735C211.854 300.735 213.164 301.696 213.18 303.188C213.164 304.646 211.854 305.591 209.915 305.575C207.943 305.591 206.633 304.646 206.65 303.188ZM206.899 314.442H220.904V312.917H208.722V308.442H206.899V314.442ZM247.62 294.088H245.78V309.32H247.62V294.088ZM230.896 300.652C230.896 303.685 233.25 305.79 236.366 305.773C239.482 305.79 241.819 303.685 241.819 300.652C241.819 297.652 239.482 295.547 236.366 295.547C233.25 295.547 230.896 297.652 230.896 300.652ZM232.703 300.652C232.686 298.613 234.261 297.155 236.366 297.155C238.438 297.155 240.029 298.613 240.029 300.652C240.029 302.724 238.438 304.166 236.366 304.166C234.261 304.166 232.686 302.724 232.703 300.652ZM234.161 314.442H248.266V312.917H236.001V307.762H234.161V314.442ZM270.152 302.873H251.158V304.365H259.71V306.436H253.462V307.862H265.893V309.718H253.511V314.674H268.329V313.215H255.318V311.094H267.699V306.436H261.55V304.365H270.152V302.873ZM253.627 301.116H267.683V294.768H253.627V301.116ZM255.434 299.641V296.243H265.843V299.641H255.434ZM290.139 295.762H278.852V297.304H280.957V303.826C280.012 303.834 279.109 303.834 278.271 303.834L278.504 305.409C282.117 305.409 287.023 305.343 291.299 304.696L291.167 303.32C290.155 303.436 289.095 303.519 288.017 303.586V297.304H290.139V295.762ZM281.106 309.254H293.288V314.906H295.128V307.729H281.106V309.254ZM282.73 303.793V297.304H286.244V303.685C285.059 303.743 283.874 303.776 282.73 303.793ZM293.288 306.718H295.128V294.072H293.288V306.718ZM315.539 304.912H302.992V301.762H314.859V300.271H302.992V297.304H315.307V295.779H301.135V306.42H307.235V310.762H298.666V312.287H317.743V310.762H309.074V306.42H315.539V304.912ZM335.833 296.293H321.48V297.818H334.027V298.381C334.027 300.934 334.027 304.05 333.181 308.309L335.054 308.492C335.833 303.967 335.833 301 335.833 298.381V296.293ZM319.408 311.84H338.402V310.298H319.408V311.84ZM357.835 294.088H356.095V299.376H353.161V294.486H351.437V306.238H353.161V300.917H356.095V306.519H357.835V294.088ZM341.062 296.956H347.194V299.691H341.111V305.575H342.47C345.487 305.575 347.708 305.492 350.41 304.978L350.211 303.486C347.733 303.975 345.636 304.108 342.901 304.116V301.116H348.951V295.448H341.062V296.956ZM344.078 314.624H357.835V307.497H344.078V314.624ZM345.901 313.116V308.989H356.045V313.116H345.901ZM372.445 296.376H361.854V297.884H370.605C370.605 299.541 370.555 302.086 369.992 305.575L371.831 305.724C372.428 301.862 372.428 299.11 372.445 297.47V296.376ZM360.677 308.773L360.909 310.315C364.638 310.331 369.544 310.232 373.92 309.552L373.82 308.16C371.657 308.425 369.295 308.575 366.992 308.666V302.326H365.168V308.715C363.569 308.757 362.044 308.765 360.677 308.773ZM375.13 314.906H376.97V304.381H380.351V302.79H376.97V294.072H375.13V314.906ZM7.65746 335.597C4.37569 335.597 2.0221 337.586 2.03867 340.486C2.0221 343.387 4.37569 345.376 7.65746 345.376C10.9392 345.376 13.2597 343.387 13.2762 340.486C13.2597 337.586 10.9392 335.597 7.65746 335.597ZM0.961326 348.773L1.20994 350.348C4.97238 350.348 10.0939 350.331 14.8674 349.436L14.7182 348.077C10.1105 348.757 4.80663 348.79 0.961326 348.773ZM3.8453 340.486C3.82873 338.547 5.43646 337.204 7.65746 337.204C9.86188 337.204 11.4696 338.547 11.4696 340.486C11.4696 342.425 9.86188 343.768 7.65746 343.768C5.43646 343.768 3.82873 342.425 3.8453 340.486ZM16.0939 354.939H17.9337V334.072H16.0939V354.939ZM32.4273 336.127H22.7974V349.669H32.4273V336.127ZM24.6206 348.16V337.602H30.6372V348.16H24.6206ZM36.919 354.939H38.7588V334.072H36.919V354.939ZM61.3739 343.751H42.2965V345.193H61.3739V343.751ZM44.6004 348.243H57.1639V350.017H44.6335V354.624H59.6667V353.282H46.4733V351.293H58.9871V346.867H44.6004V348.243ZM44.7164 336.028H57.0811V337.751H44.7827V342.177H59.2855V340.834H46.6059V339.011H58.9208V334.702H44.7164V336.028ZM88.1395 345.939H69.0622V347.464H74.018V354.906H75.9075V347.464H81.261V354.906H83.1174V347.464H88.1395V345.939ZM71.2334 339.459C71.2334 342.227 74.1837 343.967 78.5594 343.95C82.9351 343.967 85.9019 342.227 85.9019 339.459C85.9019 336.674 82.9351 334.917 78.5594 334.901C74.1837 334.917 71.2334 336.674 71.2334 339.459ZM73.1229 339.459C73.1064 337.602 75.3108 336.409 78.5594 336.409C81.808 336.409 84.0124 337.602 84.0124 339.459C84.0124 341.298 81.808 342.475 78.5594 342.475C75.3108 342.475 73.1064 341.298 73.1229 339.459ZM97.2961 340.47V337.751H102.252V336.21H90.517V337.751H95.4397V340.47C95.4231 344.066 92.8209 348.011 89.8375 349.436L90.9314 350.895C93.3099 349.702 95.4148 347.05 96.3927 344C97.3706 346.876 99.4673 349.271 101.904 350.381L102.931 348.923C99.8651 347.597 97.2961 344 97.2961 340.47ZM105.169 354.906H107.009V334.072H105.169V354.906ZM126.707 334.072H124.884V354.906H126.707V344.199H130.187V342.657H126.707V334.072ZM110.464 338.945H122.861V337.42H117.657V334.32H115.817V337.42H110.464V338.945ZM111.657 345.459C111.64 348.276 113.795 350.232 116.762 350.232C119.712 350.232 121.85 348.276 121.867 345.459C121.85 342.641 119.712 340.669 116.762 340.669C113.795 340.669 111.64 342.641 111.657 345.459ZM113.414 345.459C113.397 343.569 114.823 342.21 116.762 342.21C118.685 342.21 120.093 343.569 120.11 345.459C120.093 347.348 118.685 348.691 116.762 348.674C114.823 348.691 113.397 347.348 113.414 345.459ZM148.162 340.387H135.731V334.834H133.908V341.878H148.162V340.387ZM131.289 346.204H150.366V344.713H131.289V346.204ZM133.775 354.392H148.294V352.867H135.598V348.326H133.775V354.392ZM165.215 338V335.348H163.408V337.934C163.391 341.133 161.237 344.05 158.121 345.193L159.099 346.685C161.552 345.707 163.449 343.718 164.328 341.207C165.231 343.47 167.046 345.276 169.342 346.188L170.369 344.746C167.32 343.652 165.215 340.901 165.215 338ZM161.883 354.442H175.839V352.917H163.739V347.912H161.883V354.442ZM168.878 340.536H173.518V349.702H175.358V334.088H173.518V338.994H168.878V340.536ZM196.681 334.072H194.907V354.906H196.681V334.072ZM179.095 343.055C179.095 347.497 180.852 350.315 183.553 350.298C186.131 350.315 187.863 347.779 188.045 343.718H190.73V353.845H192.504V334.519H190.73V342.193H188.037C187.805 338.265 186.089 335.829 183.553 335.829C180.852 335.829 179.095 338.63 179.095 343.055ZM180.819 343.055C180.802 339.674 181.879 337.552 183.553 337.552C185.261 337.552 186.338 339.674 186.338 343.055C186.338 346.436 185.261 348.575 183.553 348.558C181.879 348.575 180.802 346.436 180.819 343.055ZM206.898 339.674V335.878H205.041V339.674C205.025 343.503 202.605 347.514 199.555 349.022L200.732 350.497C203.111 349.229 205.066 346.561 205.986 343.445C206.914 346.403 208.87 348.898 211.24 350.116L212.351 348.624C209.318 347.232 206.898 343.436 206.898 339.674ZM210.08 342.691H215.019V354.939H216.843V334.072H215.019V341.182H210.08V342.691ZM233.382 340.47V337.751H238.072V336.21H226.735V337.751H231.575V340.47C231.558 344.017 228.989 347.978 225.989 349.436L227.1 350.895C229.437 349.702 231.525 347.008 232.495 343.959C233.431 346.776 235.412 349.229 237.741 350.381L238.802 348.923C235.785 347.481 233.365 343.801 233.382 340.47ZM240.625 354.906H242.465V344.066H245.945V342.492H242.465V334.072H240.625V354.906ZM266.124 345.939H247.047V347.464H252.002V354.906H253.892V347.464H259.245V354.906H261.102V347.464H266.124V345.939ZM249.218 339.459C249.218 342.227 252.168 343.967 256.544 343.95C260.919 343.967 263.886 342.227 263.886 339.459C263.886 336.674 260.919 334.917 256.544 334.901C252.168 334.917 249.218 336.674 249.218 339.459ZM251.107 339.459C251.091 337.602 253.295 336.409 256.544 336.409C259.792 336.409 261.997 337.602 261.997 339.459C261.997 341.298 259.792 342.475 256.544 342.475C253.295 342.475 251.091 341.298 251.107 339.459ZM286.866 346.188H267.789V347.696H276.374V354.89H278.181V347.696H286.866V346.188ZM270.258 343.337H284.396V335.232H270.258V343.337ZM272.065 341.895V336.74H282.573V341.895H272.065ZM305.271 334.072H303.448V346.834H305.271V341.066H307.956V339.508H305.271V334.072ZM288.398 343.801L289.426 345.11C291.001 344.166 291.97 342.558 292.509 340.859C292.956 342.599 293.835 344.323 295.443 345.326C297.009 344.365 297.887 342.707 298.351 340.983C298.873 342.682 299.851 344.215 301.443 345.11L302.503 343.801C300.083 342.442 299.188 339.707 299.188 337.387V335.348H297.448V337.387C297.448 339.086 297.05 341.547 295.451 343.18C293.835 341.522 293.42 339.003 293.42 337.387V335.348H291.68V337.387C291.664 339.425 290.785 342.392 288.398 343.801ZM291.498 350.961C291.498 353.414 294.166 354.856 298.476 354.856C302.802 354.856 305.47 353.414 305.47 350.961C305.47 348.492 302.802 347.05 298.476 347.033C294.166 347.05 291.498 348.492 291.498 350.961ZM293.354 350.961C293.354 349.436 295.277 348.541 298.476 348.541C301.658 348.541 303.597 349.436 303.614 350.961C303.597 352.47 301.658 353.381 298.476 353.398C295.277 353.381 293.354 352.47 293.354 350.961ZM325.599 334.088H323.759V349.702H325.599V342.508H328.732V340.95H325.599V334.088ZM309.356 338.149H321.77V336.641H316.483V334.088H314.66V336.641H309.356V338.149ZM310.549 343.188C310.533 345.525 312.555 347.033 315.571 347.033C318.538 347.033 320.56 345.525 320.577 343.188C320.56 340.818 318.538 339.293 315.571 339.293C312.555 339.293 310.533 340.818 310.549 343.188ZM312.306 343.188C312.29 341.696 313.599 340.735 315.571 340.735C317.511 340.735 318.82 341.696 318.837 343.188C318.82 344.646 317.511 345.591 315.571 345.575C313.599 345.591 312.29 344.646 312.306 343.188ZM312.555 354.442H326.56V352.917H314.378V348.442H312.555V354.442ZM353.243 334.072H351.403V354.939H353.243V334.072ZM337.282 349.901H347.144V335.845H345.32V341.348H339.122V335.845H337.282V349.901ZM339.122 348.359V342.823H345.32V348.359H339.122ZM366.295 334.32C361.654 334.32 358.919 335.613 358.919 337.934C358.919 340.271 361.654 341.547 366.295 341.564C370.936 341.547 373.654 340.271 373.654 337.934C373.654 335.613 370.936 334.32 366.295 334.32ZM356.814 344.331H361.985V346.387H359.118V347.796H371.549V349.685H359.168V354.674H373.985V353.215H360.974V351.044H373.355V346.387H370.505V344.331H375.809V342.823H356.814V344.331ZM360.842 337.934C360.825 336.558 362.847 335.746 366.295 335.729C369.759 335.746 371.781 336.558 371.781 337.934C371.781 339.359 369.759 340.138 366.295 340.155C362.847 340.138 360.825 339.359 360.842 337.934ZM363.809 346.387V344.331H368.665V346.387H363.809ZM387.037 334.436C382.396 334.436 379.661 335.713 379.661 338.033C379.661 340.387 382.396 341.663 387.037 341.68C391.678 341.663 394.396 340.387 394.396 338.033C394.396 335.713 391.678 334.436 387.037 334.436ZM377.556 344.58H396.551V343.088H377.556V344.58ZM379.86 347.796H392.291V349.685H379.91V354.674H394.728V353.215H381.716V351.044H394.098V346.387H379.86V347.796ZM381.584 338.033C381.567 336.657 383.589 335.829 387.037 335.829C390.501 335.829 392.523 336.657 392.523 338.033C392.523 339.475 390.501 340.271 387.037 340.271C383.589 340.271 381.567 339.475 381.584 338.033ZM19.9227 391.696H11.2376V387.204H17.5856V376.547H15.7624V380.309H4.93923V376.547H3.09945V387.204H9.41436V391.696H0.845304V393.238H19.9227V391.696ZM4.93923 385.696V381.818H15.7624V385.696H4.93923ZM27.1897 376.68C24.1068 376.696 21.9521 379.514 21.9687 383.939C21.9521 388.381 24.1068 391.199 27.1897 391.199C29.2035 391.199 30.8195 389.964 31.6897 387.851H37.035V395.939H38.8582V375.072H37.035V379.729H31.5571C30.6621 377.807 29.1041 376.688 27.1897 376.68ZM23.7256 383.939C23.7256 380.558 25.1345 378.337 27.1897 378.32C29.2284 378.337 30.6538 380.558 30.6538 383.939C30.6538 387.337 29.2284 389.558 27.1897 389.558C25.1345 389.558 23.7256 387.337 23.7256 383.939ZM32.0875 381.271H37.035V386.326H32.1538C32.3112 385.597 32.3941 384.801 32.3941 383.939C32.3941 382.97 32.2864 382.075 32.0875 381.271ZM52.8545 378.006V377.873H59.501V376.381H44.1197V377.873H50.7993V378.006C50.7827 380.807 47.07 383.177 43.4568 383.707L44.1695 385.166C47.3766 384.61 50.5507 382.878 51.8186 380.376C53.0866 382.878 56.2523 384.61 59.501 385.166L60.1971 383.707C56.5507 383.177 52.838 380.807 52.8545 378.006ZM42.3297 388.464H50.8822V395.89H52.6888V388.464H61.3242V386.939H42.3297V388.464ZM79.9116 381.387H67.4807V375.834H65.6575V382.878H79.9116V381.387ZM63.0387 387.204H82.1161V385.713H63.0387V387.204ZM65.5249 395.392H80.0442V393.867H67.3481V389.326H65.5249V395.392ZM96.832 380.674V376.878H95.0088V380.674C94.9922 384.47 92.5723 388.464 89.5391 389.972L90.6994 391.448C93.0447 390.188 95.017 387.561 95.9452 384.486C96.8734 387.378 98.7878 389.848 101.075 391.05L102.219 389.575C99.2519 388.116 96.8154 384.337 96.832 380.674ZM104.125 395.906H105.965V385.116H109.445V383.525H105.965V375.072H104.125V395.906ZM129.574 383.873H110.58V385.365H119.132V387.436H112.884V388.862H125.314V390.718H112.933V395.674H127.751V394.215H114.74V392.094H127.121V387.436H120.972V385.365H129.574V383.873ZM113.049 382.116H127.105V375.768H113.049V382.116ZM114.856 380.641V377.243H125.265V380.641H114.856ZM149.561 376.762H138.273V378.304H140.378V384.826C139.434 384.834 138.53 384.834 137.693 384.834L137.925 386.409C141.539 386.409 146.445 386.343 150.721 385.696L150.588 384.32C149.577 384.436 148.517 384.519 147.439 384.586V378.304H149.561V376.762ZM140.528 390.254H152.71V395.906H154.55V388.729H140.528V390.254ZM142.152 384.793V378.304H145.666V384.685C144.481 384.743 143.296 384.776 142.152 384.793ZM152.71 387.718H154.55V375.072H152.71V387.718ZM174.96 385.912H162.413V382.762H174.281V381.271H162.413V378.304H174.728V376.779H160.557V387.42H166.657V391.762H158.087V393.287H177.165V391.762H168.496V387.42H174.96V385.912ZM195.255 377.293H180.902V378.818H193.448V379.381C193.448 381.934 193.448 385.05 192.603 389.309L194.476 389.492C195.255 384.967 195.255 382 195.255 379.381V377.293ZM178.83 392.84H197.824V391.298H178.83V392.84ZM217.257 375.088H215.517V380.376H212.583V375.486H210.859V387.238H212.583V381.917H215.517V387.519H217.257V375.088ZM200.483 377.956H206.616V380.691H200.533V386.575H201.892C204.909 386.575 207.13 386.492 209.832 385.978L209.633 384.486C207.155 384.975 205.058 385.108 202.323 385.116V382.116H208.373V376.448H200.483V377.956ZM203.5 395.624H217.257V388.497H203.5V395.624ZM205.323 394.116V389.989H215.467V394.116H205.323ZM229.795 375.436C225.154 375.436 222.419 376.713 222.419 379.033C222.419 381.387 225.154 382.663 229.795 382.68C234.436 382.663 237.154 381.387 237.154 379.033C237.154 376.713 234.436 375.436 229.795 375.436ZM220.314 385.58H239.309V384.088H220.314V385.58ZM222.618 388.796H235.049V390.685H222.668V395.674H237.485V394.215H224.474V392.044H236.855V387.387H222.618V388.796ZM224.342 379.033C224.325 377.657 226.347 376.829 229.795 376.829C233.259 376.829 235.281 377.657 235.281 379.033C235.281 380.475 233.259 381.271 229.795 381.271C226.347 381.271 224.325 380.475 224.342 379.033ZM257.605 376.961H247.975V386.558H257.605V376.961ZM249.765 385.066V378.47H255.814V385.066H249.765ZM250.328 395.442H264.334V393.917H252.152V388.895H250.328V395.442ZM261.533 390.337H263.372V382.961H266.505V381.403H263.372V375.055H261.533V390.337ZM287.33 383.392H283.949V375.072H282.109V395.89H283.949V384.934H287.33V383.392ZM268.684 390.602H270.341C273.507 390.602 276.739 390.387 280.336 389.674L280.104 388.099C276.673 388.812 273.557 389.052 270.507 389.061V377.127H268.684V390.602ZM307.641 391.696H298.956V387.204H305.304V376.547H303.481V380.309H292.658V376.547H290.818V387.204H297.133V391.696H288.564V393.238H307.641V391.696ZM292.658 385.696V381.818H303.481V385.696H292.658ZM315.489 380.989V377.028H313.715V381.072C313.715 384.635 311.958 388.331 309.074 390.022L310.251 391.398C312.331 390.13 313.873 387.743 314.635 384.983C315.373 387.511 316.806 389.74 318.82 390.95L319.881 389.525C317.113 387.884 315.489 384.304 315.489 380.989ZM317.577 384.105H321.107V394.845H322.848V375.519H321.107V382.547H317.577V384.105ZM325.384 395.906H327.157V375.072H325.384V395.906ZM349.126 391.68H344.385V386.011C346.109 385.083 347.153 383.608 347.153 381.751C347.153 378.519 343.988 376.398 339.529 376.381C335.087 376.398 331.921 378.519 331.921 381.751C331.921 383.633 332.999 385.133 334.772 386.061V391.68H330.048V393.221H349.126V391.68ZM333.695 381.751C333.695 379.414 336.115 377.873 339.529 377.89C342.927 377.873 345.38 379.414 345.38 381.751C345.38 384.072 342.927 385.63 339.529 385.63C336.115 385.63 333.695 384.072 333.695 381.751ZM336.579 391.68V386.74C337.474 386.964 338.46 387.088 339.529 387.088C340.615 387.088 341.626 386.964 342.529 386.732V391.68H336.579ZM352.995 394.133C353.824 394.133 354.503 393.453 354.503 392.624C354.503 391.796 353.824 391.116 352.995 391.116C352.166 391.116 351.47 391.796 351.487 392.624C351.47 393.453 352.166 394.133 352.995 394.133Z" fill="black"/>
<rect x="1" y="32.0001" width="149" height="94" rx="47" fill="white"/>
<rect x="1" y="32.0001" width="149" height="94" rx="47" stroke="#3461FF" stroke-width="2"/>
<rect x="152" y="32.0001" width="173" height="94" rx="47" fill="white"/>
<rect x="152" y="32.0001" width="173" height="94" rx="47" stroke="#3461FF" stroke-width="2"/>
<rect x="3" y="28.0001" width="149" height="94" rx="47" fill="white"/>
<path d="M72.9922 48.6017H63.5V102.977H72.9922V48.6017ZM29.6328 90.5548H57.1133V52.7618H47.8555V65.1837H39.0664V52.7618H29.6328V90.5548ZM39.0664 82.9962V72.4493H47.8555V82.9962H39.0664ZM102.612 49.0118C89.8098 49.0411 82.4562 52.2638 82.5148 58.2111C82.4562 64.129 89.8098 67.3517 102.612 67.3517C115.327 67.3517 122.622 64.129 122.652 58.2111C122.622 52.2638 115.327 49.0411 102.612 49.0118ZM77.8859 76.1993H89.6633V78.9532H83.4523V85.8087H112.222V87.4493H83.3937V102.567H122.769V95.6525H92.593V93.8947H121.48V78.9532H115.855V76.1993H127.339V68.9337H77.8859V76.1993ZM92.3586 58.2111C92.3293 56.4825 95.2883 55.8673 102.612 55.8673C109.966 55.8673 112.896 56.4825 112.925 58.2111C112.896 60.1154 109.966 60.5841 102.612 60.6134C95.2883 60.5841 92.3293 60.1154 92.3586 58.2111ZM98.9797 78.9532V76.1993H106.48V78.9532H98.9797Z" fill="#3461FF"/>
<rect x="3" y="28.0001" width="149" height="94" rx="47" stroke="#3461FF" stroke-width="2"/>
<rect x="154" y="28.0001" width="173" height="94" rx="47" fill="white"/>
<path d="M182.391 97.0001H185.438V79.4806H195.75C196.424 79.4806 197.098 79.4513 197.713 79.3927L207.234 97.0001H210.75L200.789 78.7482C205.975 77.1075 208.875 72.8009 208.875 67.0587C208.875 59.7052 204.07 54.5782 195.691 54.5782H182.391V97.0001ZM185.438 76.6681V57.3322H195.633C202.166 57.3615 205.857 61.1993 205.828 67.0587C205.857 72.9474 202.166 76.6681 195.633 76.6681H185.438ZM214.12 88.2111C214.12 94.2755 218.749 97.7032 224.316 97.7032C229.443 97.7032 232.9 94.8322 234.452 91.4923H234.687V97.0001H237.616V74.9689C237.616 67.5568 231.933 64.715 226.542 64.715C220.419 64.715 215.702 67.8204 214.999 72.6837H218.046C218.837 69.3732 222.089 67.381 226.425 67.3517C231.581 67.381 234.657 70.2228 234.687 74.7345V78.1329C233.163 78.2208 227.89 78.6017 225.605 78.7775C218.193 79.3634 214.12 82.5861 214.12 88.2111ZM217.05 88.3282C217.079 84.4904 219.599 81.795 226.191 81.297C227.89 81.1798 233.075 80.7697 234.687 80.6818V84.2853C234.657 90.379 230.585 95.0079 224.667 95.0079C220.331 95.0079 217.079 92.4884 217.05 88.3282ZM257.276 65.1837H250.596V57.5665H247.666V65.1837H242.979V67.7618H247.666V89.7931C247.666 94.7736 251.534 97.4982 255.577 97.5275C256.778 97.4982 257.51 97.4396 258.096 97.3517V94.5978C257.481 94.6271 256.426 94.6564 255.811 94.6564C253.086 94.6564 250.625 93.1036 250.596 89.2072V67.7618H257.276V65.1837ZM264.045 97.0001H267.033V65.1837H264.045V97.0001ZM263.224 57.3907C263.254 58.6212 264.279 59.6173 265.568 59.6173C266.798 59.6173 267.824 58.6212 267.853 57.3907C267.824 56.1896 266.798 55.1935 265.568 55.1642C264.279 55.1935 263.254 56.1896 263.224 57.3907ZM287.044 97.6447C295.042 97.674 300.784 90.7892 300.813 81.1798C300.784 71.5997 295.042 64.715 287.044 64.715C279.046 64.715 273.304 71.5704 273.274 81.1798C273.304 90.7892 279.046 97.674 287.044 97.6447ZM276.262 81.1798C276.233 73.5919 280.452 67.4103 287.044 67.4103C293.636 67.4103 297.825 73.5919 297.825 81.1798C297.825 88.8556 293.665 94.9493 287.044 94.9493C280.423 94.9493 276.233 88.8556 276.262 81.1798Z" fill="#3461FF"/>
<rect x="154" y="28.0001" width="173" height="94" rx="47" stroke="#3461FF" stroke-width="2"/>
<line x1="75" y1="0.000122035" x2="75" y2="26.0001" stroke="#3461FF" stroke-width="2"/>
<line x1="238" y1="0.000122035" x2="238" y2="26.0001" stroke="#3461FF" stroke-width="2"/>
<line x1="81" y1="0.000122035" x2="81" y2="26.0001" stroke="#3461FF" stroke-width="2"/>
<line x1="244" y1="0.000122035" x2="244" y2="26.0001" stroke="#3461FF" stroke-width="2"/>
</svg>
