<svg width="434" height="127" viewBox="0 0 434 127" fill="none" xmlns="http://www.w3.org/2000/svg">
<rect x="1" y="32.0001" width="149" height="94" rx="47" fill="white"/>
<rect x="1" y="32.0001" width="149" height="94" rx="47" stroke="#3461FF" stroke-width="2"/>
<rect x="152" y="32.0001" width="173" height="94" rx="47" fill="white"/>
<rect x="152" y="32.0001" width="173" height="94" rx="47" stroke="#3461FF" stroke-width="2"/>
<rect x="3" y="28.0001" width="149" height="94" rx="47" fill="white"/>
<path d="M72.9922 48.6017H63.5V102.977H72.9922V48.6017ZM29.6328 90.5548H57.1133V52.7618H47.8555V65.1837H39.0664V52.7618H29.6328V90.5548ZM39.0664 82.9962V72.4493H47.8555V82.9962H39.0664ZM102.612 49.0118C89.8098 49.0411 82.4562 52.2638 82.5148 58.2111C82.4562 64.129 89.8098 67.3517 102.612 67.3517C115.327 67.3517 122.622 64.129 122.652 58.2111C122.622 52.2638 115.327 49.0411 102.612 49.0118ZM77.8859 76.1993H89.6633V78.9532H83.4523V85.8087H112.222V87.4493H83.3937V102.567H122.769V95.6525H92.593V93.8947H121.48V78.9532H115.855V76.1993H127.339V68.9337H77.8859V76.1993ZM92.3586 58.2111C92.3293 56.4825 95.2883 55.8673 102.612 55.8673C109.966 55.8673 112.896 56.4825 112.925 58.2111C112.896 60.1154 109.966 60.5841 102.612 60.6134C95.2883 60.5841 92.3293 60.1154 92.3586 58.2111ZM98.9797 78.9532V76.1993H106.48V78.9532H98.9797Z" fill="#3461FF"/>
<rect x="3" y="28.0001" width="149" height="94" rx="47" stroke="#3461FF" stroke-width="2"/>
<rect x="154" y="28.0001" width="173" height="94" rx="47" fill="white"/>
<path d="M182.391 97.0001H185.438V79.4806H195.75C196.424 79.4806 197.098 79.4513 197.713 79.3927L207.234 97.0001H210.75L200.789 78.7482C205.975 77.1075 208.875 72.8009 208.875 67.0587C208.875 59.7052 204.07 54.5782 195.691 54.5782H182.391V97.0001ZM185.438 76.6681V57.3322H195.633C202.166 57.3615 205.857 61.1993 205.828 67.0587C205.857 72.9474 202.166 76.6681 195.633 76.6681H185.438ZM214.12 88.2111C214.12 94.2755 218.749 97.7032 224.316 97.7032C229.443 97.7032 232.9 94.8322 234.452 91.4923H234.687V97.0001H237.616V74.9689C237.616 67.5568 231.933 64.715 226.542 64.715C220.419 64.715 215.702 67.8204 214.999 72.6837H218.046C218.837 69.3732 222.089 67.381 226.425 67.3517C231.581 67.381 234.657 70.2228 234.687 74.7345V78.1329C233.163 78.2208 227.89 78.6017 225.605 78.7775C218.193 79.3634 214.12 82.5861 214.12 88.2111ZM217.05 88.3282C217.079 84.4904 219.599 81.795 226.191 81.297C227.89 81.1798 233.075 80.7697 234.687 80.6818V84.2853C234.657 90.379 230.585 95.0079 224.667 95.0079C220.331 95.0079 217.079 92.4884 217.05 88.3282ZM257.276 65.1837H250.596V57.5665H247.666V65.1837H242.979V67.7618H247.666V89.7931C247.666 94.7736 251.534 97.4982 255.577 97.5275C256.778 97.4982 257.51 97.4396 258.096 97.3517V94.5978C257.481 94.6271 256.426 94.6564 255.811 94.6564C253.086 94.6564 250.625 93.1036 250.596 89.2072V67.7618H257.276V65.1837ZM264.045 97.0001H267.033V65.1837H264.045V97.0001ZM263.224 57.3907C263.254 58.6212 264.279 59.6173 265.568 59.6173C266.798 59.6173 267.824 58.6212 267.853 57.3907C267.824 56.1896 266.798 55.1935 265.568 55.1642C264.279 55.1935 263.254 56.1896 263.224 57.3907ZM287.044 97.6447C295.042 97.674 300.784 90.7892 300.813 81.1798C300.784 71.5997 295.042 64.715 287.044 64.715C279.046 64.715 273.304 71.5704 273.274 81.1798C273.304 90.7892 279.046 97.674 287.044 97.6447ZM276.262 81.1798C276.233 73.5919 280.452 67.4103 287.044 67.4103C293.636 67.4103 297.825 73.5919 297.825 81.1798C297.825 88.8556 293.665 94.9493 287.044 94.9493C280.423 94.9493 276.233 88.8556 276.262 81.1798Z" fill="#3461FF"/>
<rect x="154" y="28.0001" width="173" height="94" rx="47" stroke="#3461FF" stroke-width="2"/>
<line x1="75" y1="0.000122035" x2="75" y2="26.0001" stroke="#3461FF" stroke-width="2"/>
<line x1="238" y1="0.000122035" x2="238" y2="26.0001" stroke="#3461FF" stroke-width="2"/>
<line x1="81" y1="0.000122035" x2="81" y2="26.0001" stroke="#3461FF" stroke-width="2"/>
<line x1="244" y1="0.000122035" x2="244" y2="26.0001" stroke="#3461FF" stroke-width="2"/>
</svg>
