<svg width="525" height="131" viewBox="0 0 525 131" fill="none" xmlns="http://www.w3.org/2000/svg">
<rect x="1" y="29.0001" width="523" height="94" fill="white"/>
<path d="M65.293 51.5939H27.1484V58.8595H55.8594C55.8008 61.4376 55.5664 64.2794 54.9219 67.7657H21.2305V75.2072H41.2695V80.0704H26.2109V86.8087H35.6445V88.5665H26.2109V103.567H29.9609C41.6797 103.625 45.0781 103.508 48.8867 102.57L48.0664 95.8322C45.0781 96.5939 42.4121 96.799 35.3516 96.8575V94.9532H44.668V81.3009H47.1289V87.4532H55.918V103.742H65.1758V80.0704H50.7031V75.2072H70.6836V67.7657H64.4141C65.3223 62.8732 65.3223 58.6837 65.293 55.4025V51.5939ZM117.882 49.6017H108.331V103.801H117.882V49.6017ZM71.7687 87.6876L76.5734 95.0704C96.7004 85.6954 101.505 72.131 101.476 55.1681H74.8742V62.4923H91.925C90.6945 73.8302 85.2746 81.2716 71.7687 87.6876Z" fill="#F25A39"/>
<path d="M343.246 98.0001H346.645L356.84 60.6173H357.074L367.152 98.0001H370.609L382.211 55.5782H379.105L368.969 93.3126H368.734L358.715 55.5782H355.141L345.121 93.3126H344.887L334.75 55.5782H331.586L343.246 98.0001ZM396.128 98.6447C402.486 98.674 406.792 94.9825 408.14 91.0275H404.976C403.862 93.0782 401.109 95.9493 396.128 95.9493C389.185 95.9493 384.907 90.5001 384.82 82.8243H408.902V81.1837C408.902 71.3693 402.661 65.715 395.542 65.715C387.544 65.715 381.861 72.6876 381.831 82.2384C381.861 91.7892 387.427 98.674 396.128 98.6447ZM384.849 80.1876C385.2 73.6251 389.624 68.4103 395.542 68.4103C401.489 68.4103 405.884 73.5665 405.913 80.1876H384.849ZM415.143 98.0001H418.131V66.1837H415.143V98.0001ZM414.323 58.3907C414.352 59.6212 415.377 60.6173 416.666 60.6173C417.897 60.6173 418.922 59.6212 418.952 58.3907C418.922 57.1896 417.897 56.1935 416.666 56.1642C415.377 56.1935 414.352 57.1896 414.323 58.3907ZM437.849 110.598C445.349 110.598 450.535 106.76 450.505 98.7618V66.1837H447.634V72.9806H447.341C445.877 69.2306 442.83 65.715 437.263 65.715C429.5 65.715 424.402 72.3361 424.373 81.9454C424.402 91.5841 429.646 97.795 437.205 97.7657C442.566 97.795 445.906 94.7189 447.341 90.9689H447.576V98.6447C447.605 104.943 443.943 107.932 437.849 107.961C433.162 107.932 429.47 106.203 428.591 102.688H425.486C426.394 107.932 431.463 110.598 437.849 110.598ZM427.361 82.004C427.361 74.3575 431.052 68.4396 437.498 68.4103C443.914 68.4396 447.634 74.1818 447.634 82.004C447.634 90.1193 443.796 95.0704 437.498 95.0704C431.111 95.0704 427.361 89.7677 427.361 82.004ZM461.493 77.6095C461.493 72.0724 465.331 68.4689 470.575 68.4689C475.761 68.4689 479.13 71.9259 479.13 77.3165V98.0001H482.118V77.1407C482.089 69.963 477.665 65.7736 471.22 65.7736C466.561 65.7736 463.28 67.9122 461.786 71.2228H461.493V55.5782H458.563V98.0001H461.493V77.6095ZM501.66 66.1837H494.98V58.5665H492.051V66.1837H487.363V68.7618H492.051V90.7931C492.051 95.7736 495.918 98.4982 499.961 98.5275C501.162 98.4982 501.895 98.4396 502.48 98.3517V95.5978C501.865 95.6271 500.811 95.6564 500.195 95.6564C497.471 95.6564 495.01 94.1036 494.98 90.2072V68.7618H501.66V66.1837Z" fill="#F25A39"/>
<rect x="1" y="29.0001" width="523" height="94" stroke="#F25A39" stroke-width="2"/>
<rect x="1" y="123" width="523" height="7" fill="white" stroke="#F25A39" stroke-width="2"/>
<line x1="103" y1="0.00012205" x2="103" y2="27.0001" stroke="#F25A39" stroke-width="2"/>
<line x1="410" y1="0.00012205" x2="410" y2="27.0001" stroke="#F25A39" stroke-width="2"/>
<line x1="115" y1="0.00012205" x2="115" y2="27.0001" stroke="#F25A39" stroke-width="2"/>
<line x1="422" y1="0.00012205" x2="422" y2="27.0001" stroke="#F25A39" stroke-width="2"/>
</svg>
