<svg width="525" height="376" viewBox="0 0 525 376" fill="none" xmlns="http://www.w3.org/2000/svg">
<path d="M8.0884 185.917V185.022H12.7459V183.514H1.52486V185.022H6.23204V185.934C6.23204 188.868 4.01105 191.652 0.928177 192.746L1.8895 194.205C4.3674 193.293 6.29834 191.379 7.19337 188.984C8.09669 191.13 9.9116 192.87 12.2652 193.707L13.2265 192.265C10.1768 191.205 8.0884 188.619 8.0884 185.917ZM4.09392 197.171H16.2762V202.906H18.116V195.663H4.09392V197.171ZM12.0829 189.066H16.2762V194.553H18.116V182.072H16.2762V187.525H12.0829V189.066ZM39.488 182.072H37.7146V190.492H34.8637V182.519H33.1234V201.845H34.8637V192.066H37.7146V202.906H39.488V182.072ZM21.372 197.188L22.5322 198.597C24.7201 197.304 26.1952 195.033 26.9079 192.133C27.6455 194.685 29.0958 196.732 31.2008 197.884L32.2947 196.459C29.3278 194.934 27.7532 191.569 27.7532 187.757V186.083H31.6151V184.558H21.8693V186.083H25.9798V187.757C25.9798 191.984 24.372 195.531 21.372 197.188ZM49.5728 185.917V185.022H54.2302V183.514H43.0092V185.022H47.7164V185.934C47.7164 188.868 45.4954 191.652 42.4126 192.746L43.3739 194.205C45.8518 193.293 47.7827 191.379 48.6777 188.984C49.5811 191.13 51.396 192.87 53.7496 193.707L54.7109 192.265C51.6612 191.205 49.5728 188.619 49.5728 185.917ZM45.5783 197.171H57.7606V202.906H59.6004V195.663H45.5783V197.171ZM53.5672 189.066H57.7606V194.553H59.6004V182.072H57.7606V187.525H53.5672V189.066ZM82.1492 198.647H73.4144V193.558H71.6078V198.647H63.0719V200.171H82.1492V198.647ZM63.8177 192.265L64.6465 193.79C67.8205 193.127 71.1437 190.972 72.5111 187.981C73.8702 190.981 77.2183 193.127 80.3923 193.79L81.221 192.265C77.5746 191.635 73.4641 188.569 73.4641 185.089V183.481H71.5415V185.089C71.5249 188.586 67.4641 191.635 63.8177 192.265ZM101.665 182.072H99.8914V202.906H101.665V182.072ZM84.0792 191.055C84.0792 195.497 85.8362 198.315 88.5378 198.298C91.1152 198.315 92.8472 195.779 93.0295 191.718H95.7146V201.845H97.4881V182.519H95.7146V190.193H93.0212C92.7892 186.265 91.0737 183.829 88.5378 183.829C85.8362 183.829 84.0792 186.63 84.0792 191.055ZM85.803 191.055C85.7864 187.674 86.8638 185.553 88.5378 185.553C90.245 185.553 91.3223 187.674 91.3223 191.055C91.3223 194.437 90.245 196.575 88.5378 196.558C86.8638 196.575 85.7864 194.437 85.803 191.055ZM113.099 184.061H111.342V197.685H119.348V184.061H117.64V189.149H113.099V184.061ZM113.099 196.16V190.641H117.64V196.16H113.099ZM121.983 201.845H123.74V191.868H126.657V202.906H128.431V182.072H126.657V190.326H123.74V182.519H121.983V201.845ZM148.493 182.072H146.653V202.906H148.493V182.072ZM131.736 197.437L132.78 198.862C135.184 197.727 137.198 195.332 138.142 192.414C139.112 195.166 141.151 197.428 143.554 198.497L144.582 197.055C141.449 195.729 139.012 192.348 139.012 188.851V187.193H143.852V185.702H139.012V182.453H137.189V185.702H132.3V187.193H137.206V188.851C137.206 192.514 134.836 196.028 131.736 197.437ZM164.478 191.072H155.578V185.553H164.396V184.061H153.771V192.597H158.081V196.749C156.009 196.807 153.995 196.823 152.18 196.823L152.429 198.381C156.423 198.381 161.462 198.298 166.086 197.619L165.937 196.243C164.006 196.467 161.959 196.6 159.92 196.691V192.597H164.478V191.072ZM167.313 202.939H169.152V182.072H167.313V202.939ZM190.027 182.072H188.187V202.906H190.027V182.072ZM173.071 197.486L174.066 198.995C181.06 195.63 183.845 190.326 183.861 184.343H174.033V185.834H181.989C181.582 190.807 178.707 194.818 173.071 197.486ZM206.434 183.083C203.318 183.066 201.097 184.79 201.097 187.343C201.097 189.879 203.318 191.619 206.434 191.602C209.55 191.619 211.787 189.879 211.787 187.343C211.787 184.79 209.55 183.066 206.434 183.083ZM199.522 193.392L199.771 194.95C201.511 194.942 203.517 194.926 205.638 194.834V202.26H207.478V194.735C209.483 194.602 211.555 194.387 213.544 194.022L213.412 192.63C208.787 193.31 203.434 193.392 199.522 193.392ZM202.887 187.343C202.87 185.718 204.362 184.575 206.434 184.591C208.539 184.575 210.03 185.718 210.03 187.343C210.03 188.967 208.539 190.094 206.434 190.077C204.362 190.094 202.87 188.967 202.887 187.343ZM214.953 202.923H216.76V182.089H214.953V202.923ZM230.723 185.669H226.43V182.702H224.59V185.669H220.264V187.177H230.723V185.669ZM221.027 193.31C221.01 196.111 222.9 198.083 225.502 198.083C228.121 198.083 229.994 196.111 230.01 193.31C229.994 190.542 228.121 188.586 225.502 188.586C222.9 188.586 221.01 190.542 221.027 193.31ZM222.651 193.31C222.651 191.486 223.844 190.144 225.502 190.127C227.159 190.144 228.369 191.486 228.369 193.31C228.369 195.166 227.159 196.492 225.502 196.475C223.844 196.492 222.651 195.166 222.651 193.31ZM231.8 201.879H233.541V192.381H236.309V202.906H238.065V182.072H236.309V190.856H233.541V182.569H231.8V201.879ZM263.654 182.984H249.5V184.475H261.831C261.831 185.843 261.814 187.55 261.334 189.862H247.08V191.354H266.157V189.862H263.182C263.654 187.517 263.654 185.71 263.654 184.31V182.984ZM249.35 194.934H261.897V197.254H249.384V202.658H264.251V201.166H251.223V198.696H263.721V193.442H249.35V194.934ZM284.645 182.752H277.601V184.243H282.847C282.814 185.337 282.722 186.887 282.258 189L284.065 189.232C284.645 186.63 284.645 184.674 284.645 183.531V182.752ZM267.838 192.05H286.8V190.542H278.612V186.912H276.805V190.542H267.838V192.05ZM269.479 184.243H274.029C273.996 185.312 273.847 186.845 273.109 189L274.866 189.282C275.827 186.663 275.827 184.591 275.844 183.497V182.752H269.479V184.243ZM270.242 195.431H282.557V197.453H270.291V202.674H285.109V201.166H272.098V198.862H284.38V193.939H270.242V195.431ZM306.415 182.072H304.641V202.906H306.415V182.072ZM288.829 191.055C288.829 195.497 290.586 198.315 293.288 198.298C295.865 198.315 297.597 195.779 297.78 191.718H300.465V201.845H302.238V182.519H300.465V190.193H297.771C297.539 186.265 295.824 183.829 293.288 183.829C290.586 183.829 288.829 186.63 288.829 191.055ZM290.553 191.055C290.536 187.674 291.614 185.553 293.288 185.553C294.995 185.553 296.072 187.674 296.072 191.055C296.072 194.437 294.995 196.575 293.288 196.558C291.614 196.575 290.536 194.437 290.553 191.055ZM319.49 201H321.678L325.407 187.575H325.54L329.252 201H331.44L336.081 184.028H333.926L330.396 197.768H330.247L326.65 184.028H324.28L320.7 197.768H320.534L317.004 184.028H314.849L319.49 201ZM342.211 201.265C344.83 201.265 346.72 199.956 347.316 198.017H345.162C344.698 198.812 343.736 199.475 342.211 199.475C339.949 199.475 338.383 198 338.291 195.315H347.515V194.47C347.515 189.746 344.698 188.105 342.012 188.105C338.565 188.105 336.261 190.823 336.261 194.735C336.261 198.647 338.532 201.265 342.211 201.265ZM338.291 193.591C338.424 191.635 339.816 189.895 342.029 189.895C344.117 189.895 345.46 191.47 345.46 193.591H338.291ZM350.123 201H352.145V188.271H350.123V201ZM349.726 184.823C349.726 185.569 350.372 186.166 351.151 186.166C351.913 186.166 352.56 185.569 352.56 184.823C352.56 184.077 351.913 183.481 351.151 183.481C350.372 183.481 349.726 184.077 349.726 184.823ZM360.521 206.039C363.621 206.039 366.041 204.63 366.041 201.348V188.271H364.085V190.293H363.902C363.455 189.613 362.659 188.105 360.19 188.105C356.991 188.105 354.753 190.542 354.753 194.47C354.753 198.464 357.074 200.801 360.157 200.801C362.626 200.801 363.438 199.359 363.869 198.647H364.035V201.232C364.035 203.337 362.692 204.282 360.521 204.282C358.715 204.282 357.505 203.635 357.239 202.326H355.118C355.35 204.696 357.438 206.039 360.521 206.039ZM356.792 194.536C356.792 191.967 358.002 189.912 360.455 189.912C362.808 189.912 364.068 191.801 364.068 194.536C364.068 197.337 362.775 199.011 360.455 199.011C358.035 199.011 356.792 197.171 356.792 194.536ZM371.27 193.359C371.27 191.155 372.679 189.912 374.585 189.912C376.409 189.912 377.503 191.055 377.503 193.061V201H379.525V192.912C379.525 189.647 377.784 188.105 375.182 188.105C373.177 188.105 372.033 188.95 371.436 190.276H371.27V184.028H369.248V201H371.27V193.359ZM388.317 188.271H385.632V185.221H383.61V188.271H381.688V189.961H383.61V197.868C383.61 200.105 385.4 201.166 387.091 201.166C387.688 201.166 388.185 201.116 388.5 201.066V199.193C388.201 199.21 387.671 199.243 387.306 199.243C386.444 199.243 385.632 198.978 385.632 197.337V189.961H388.317V188.271ZM397.193 201H399.298V193.426H406.641V191.569H399.298V185.901H407.403V184.028H397.193V201ZM409.691 197.387C409.691 199.873 411.613 201.298 414.033 201.298C416.238 201.298 417.398 200.122 417.812 199.276H417.912V201H419.917V192.613C419.917 188.602 416.785 188.105 415.127 188.105C412.31 188.105 410.321 189.531 410.072 191.586H412.16C412.459 190.608 413.42 189.862 415.028 189.862C416.95 189.862 417.912 190.807 417.912 192.414V193.45C417.348 193.467 415.293 193.583 414.464 193.641C412.26 193.807 409.691 194.47 409.691 197.387ZM411.713 197.486C411.713 196.094 412.873 195.448 414.713 195.332C415.318 195.29 417.315 195.141 417.912 195.108V196.392C417.912 197.984 416.652 199.508 414.365 199.508C412.823 199.508 411.713 198.829 411.713 197.486ZM423.131 201H425.153V193.061C425.153 191.205 426.496 189.912 428.004 189.912C429.479 189.912 430.507 190.873 430.507 192.315V201H432.546V192.729C432.546 191.105 433.557 189.912 435.33 189.912C436.722 189.912 437.899 190.641 437.899 192.514V201H439.921V192.481C439.921 189.497 438.297 188.105 436.026 188.105C434.203 188.105 432.86 188.95 432.214 190.276H432.081C431.468 188.901 430.341 188.105 428.667 188.105C427.01 188.105 425.783 188.901 425.253 190.276H425.087V188.271H423.131V201ZM443.147 201H445.169V188.271H443.147V201ZM442.749 184.823C442.749 185.569 443.395 186.166 444.174 186.166C444.937 186.166 445.583 185.569 445.583 184.823C445.583 184.077 444.937 183.481 444.174 183.481C443.395 183.481 442.749 184.077 442.749 184.823ZM450.395 184.028H448.373V201H450.395V184.028ZM454.893 205.774C456.699 205.774 457.942 204.829 458.688 202.84L464.075 188.271H461.887L458.407 198.381H458.274L454.793 188.271H452.605L457.313 201.083L456.948 202.061C456.268 203.917 455.572 203.967 454.76 203.967C454.445 203.967 453.981 203.95 453.782 203.934L453.766 205.724C454.031 205.757 454.462 205.774 454.893 205.774ZM481.668 182.072H479.828V202.89H481.668V192.1H485.049V190.542H481.668V182.072ZM465.673 197.486L466.701 198.928C473.496 195.58 476.264 190.21 476.281 184.31H466.651V185.851H474.408C473.994 190.798 471.06 194.81 465.673 197.486ZM7.8895 237.044V235.901H6.11602V237.044C6.09945 239.05 4.50829 241.271 1.87293 242.249L2.80111 243.608C4.79834 242.862 6.23204 241.42 6.98619 239.738C7.60774 241.486 8.89227 243.011 10.9227 243.79C12.8536 242.97 14.1215 241.37 14.768 239.671C15.489 241.42 16.9475 242.879 19.0276 243.608L19.9558 242.249C17.2707 241.337 15.6961 239.199 15.7127 237.044V235.901H13.9061V237.044C13.9061 238.66 12.8536 240.757 10.8646 241.984C8.89227 240.856 7.8895 238.892 7.8895 237.044ZM1.32597 229.171C1.32597 232.039 3.62983 234.011 6.79558 234.011C9.96133 234.011 12.2486 232.039 12.2486 229.171C12.2486 226.271 9.96133 224.298 6.79558 224.298C3.62983 224.298 1.32597 226.271 1.32597 229.171ZM3.1326 229.171C3.11602 227.232 4.65746 225.856 6.79558 225.873C8.91713 225.856 10.4586 227.232 10.4586 229.171C10.4586 231.111 8.91713 232.47 6.79558 232.486C4.65746 232.47 3.11602 231.111 3.1326 229.171ZM16.2099 234.989H18.0497V223.089H16.2099V234.989ZM40.5985 233.149H21.5875V234.674H40.5985V233.149ZM23.0792 242.348L23.7919 243.79C26.9577 243.26 29.8499 241.776 31.1013 239.497C32.3444 241.776 35.245 243.26 38.4107 243.79L39.1234 242.348C35.3278 241.785 32.0295 239.729 32.0295 236.945V236.265H30.1566V236.945C30.1566 239.729 26.8582 241.785 23.0792 242.348ZM23.9908 230.995H38.4438V229.486H25.8306V225.359H38.2284V223.834H23.9908V230.995ZM59.501 223.072H57.6612V243.939H59.501V223.072ZM43.1087 231.939C43.1087 236.381 45.3131 239.199 48.4291 239.199C51.512 239.199 53.7496 236.381 53.7496 231.939C53.7496 227.514 51.512 224.696 48.4291 224.68C45.3131 224.696 43.1087 227.514 43.1087 231.939ZM44.8822 231.939C44.8822 228.558 46.3407 226.337 48.4291 226.321C50.5175 226.337 51.9595 228.558 51.9595 231.939C51.9595 235.337 50.5175 237.558 48.4291 237.558C46.3407 237.558 44.8822 235.337 44.8822 231.939ZM66.4862 240.409H64.2321L62.9393 246.79H64.6796L66.4862 240.409ZM84.6737 236.232C80.2152 236.232 77.3809 237.641 77.3809 240.061C77.3809 242.448 80.2152 243.856 84.6737 243.856C89.1489 243.856 91.9831 242.448 91.9997 240.061C91.9831 237.641 89.1489 236.232 84.6737 236.232ZM75.2759 234.293H94.2373V232.785H84.9389V228.757H83.1323V232.785H75.2759V234.293ZM77.5301 225.641H89.9942V225.906C89.9942 227.531 89.9942 229.072 89.4306 231.227L91.2373 231.426C91.8174 229.271 91.8174 227.58 91.8174 225.906V224.133H77.5301V225.641ZM79.2207 240.061C79.2041 238.569 81.3588 237.658 84.6737 237.641C88.0052 237.658 90.1433 238.569 90.1599 240.061C90.1433 241.503 88.0052 242.398 84.6737 242.398C81.3588 242.398 79.2041 241.503 79.2207 240.061ZM112.294 223.072H110.438V238.321H112.294V230.961H115.427V229.403H112.294V223.072ZM96.0347 234.426L96.8303 235.901C102.83 234.028 106.659 230.05 106.659 224.68H96.8966V226.221H104.662C104.272 229.909 101.032 232.868 96.0347 234.426ZM99.2336 243.442H113.239V241.917H101.073V236.763H99.2336V243.442ZM134.595 223.072H132.821V243.906H134.595V223.072ZM117.009 232.055C117.009 236.497 118.766 239.315 121.467 239.298C124.045 239.315 125.777 236.779 125.959 232.718H128.644V242.845H130.418V223.519H128.644V231.193H125.951C125.719 227.265 124.003 224.829 121.467 224.829C118.766 224.829 117.009 227.63 117.009 232.055ZM118.733 232.055C118.716 228.674 119.793 226.553 121.467 226.553C123.175 226.553 124.252 228.674 124.252 232.055C124.252 235.437 123.175 237.575 121.467 237.558C119.793 237.575 118.716 235.437 118.733 232.055ZM149.112 224.68C146.029 224.696 143.874 227.514 143.891 231.939C143.874 236.381 146.029 239.199 149.112 239.199C152.02 239.199 154.101 236.638 154.299 232.553H158.957V243.939H160.78V223.072H158.957V231.028H154.283C153.993 227.133 151.946 224.696 149.112 224.68ZM145.647 231.939C145.647 228.558 147.056 226.337 149.112 226.321C151.15 226.337 152.576 228.558 152.576 231.939C152.576 235.337 151.15 237.558 149.112 237.558C147.056 237.558 145.647 235.337 145.647 231.939ZM173.732 223.321C169.091 223.321 166.357 224.613 166.357 226.934C166.357 229.271 169.091 230.547 173.732 230.564C178.373 230.547 181.091 229.271 181.091 226.934C181.091 224.613 178.373 223.321 173.732 223.321ZM164.252 233.414H172.804V235.387H166.555V236.796H178.986V238.685H166.605V243.674H181.423V242.216H168.412V240.044H180.793V235.387H174.644V233.414H183.246V231.939H164.252V233.414ZM168.279 226.934C168.263 225.558 170.285 224.746 173.732 224.729C177.196 224.746 179.218 225.558 179.218 226.934C179.218 228.359 177.196 229.138 173.732 229.155C170.285 229.138 168.263 228.359 168.279 226.934ZM202.198 223.072H200.375V243.939H202.198V223.072ZM186.171 226.536H194.01V230.912H186.204V238.884H187.944C191.541 238.884 194.706 238.735 198.535 238.122L198.353 236.58C194.624 237.185 191.549 237.334 188.093 237.343V232.42H195.867V225.011H186.171V226.536ZM222.576 229.387H210.145V223.834H208.322V230.879H222.576V229.387ZM205.703 235.205H224.78V233.713H205.703V235.205ZM208.189 243.392H222.708V241.868H210.012V237.326H208.189V243.392ZM244.717 224.763H233.43V226.304H235.535V232.826C234.59 232.834 233.687 232.834 232.85 232.834L233.082 234.409C236.695 234.409 241.601 234.343 245.877 233.696L245.745 232.321C244.734 232.437 243.673 232.519 242.595 232.586V226.304H244.717V224.763ZM235.684 238.254H247.866V243.906H249.706V236.729H235.684V238.254ZM237.308 232.793V226.304H240.822V232.685C239.637 232.743 238.452 232.776 237.308 232.793ZM247.866 235.718H249.706V223.072H247.866V235.718ZM270.117 233.912H257.57V230.763H269.437V229.271H257.57V226.304H269.885V224.779H255.713V235.42H261.813V239.763H253.244V241.287H272.321V239.763H263.653V235.42H270.117V233.912ZM290.411 225.293H276.058V226.818H288.605V227.381C288.605 229.934 288.605 233.05 287.759 237.31L289.632 237.492C290.411 232.967 290.411 230 290.411 227.381V225.293ZM273.986 240.84H292.98V239.298H273.986V240.84ZM312.413 223.089H310.673V228.376H307.739V223.486H306.015V235.238H307.739V229.917H310.673V235.519H312.413V223.089ZM295.64 225.956H301.772V228.691H295.689V234.575H297.049C300.065 234.575 302.286 234.492 304.988 233.978L304.789 232.486C302.311 232.975 300.214 233.108 297.479 233.116V230.116H303.529V224.448H295.64V225.956ZM298.656 243.624H312.413V236.497H298.656V243.624ZM300.479 242.116V237.989H310.623V242.116H300.479ZM324.951 223.437C320.31 223.437 317.575 224.713 317.575 227.033C317.575 229.387 320.31 230.663 324.951 230.68C329.592 230.663 332.31 229.387 332.31 227.033C332.31 224.713 329.592 223.437 324.951 223.437ZM315.47 233.58H334.465V232.089H315.47V233.58ZM317.774 236.796H330.205V238.685H317.824V243.674H332.642V242.216H319.631V240.044H332.012V235.387H317.774V236.796ZM319.498 227.033C319.481 225.658 321.503 224.829 324.951 224.829C328.415 224.829 330.437 225.658 330.437 227.033C330.437 228.475 328.415 229.271 324.951 229.271C321.503 229.271 319.481 228.475 319.498 227.033ZM358.711 224.431H344.623V225.956H356.888V226.254C356.888 228.193 356.888 230.39 356.241 233.381H342.236V234.906H350.772V243.939H352.612V234.906H361.23V233.381H358.114C358.711 230.381 358.711 228.227 358.711 226.254V224.431ZM369.939 226.437V224.149H368.133V226.304C368.116 229.519 366.028 232.304 362.895 233.464L363.89 234.939C366.326 234.003 368.191 232.08 369.086 229.619C369.989 231.79 371.812 233.514 374.116 234.359L375.111 232.901C372.094 231.873 369.939 229.271 369.939 226.437ZM365.68 240.061C365.68 242.481 368.299 243.856 372.591 243.856C376.868 243.856 379.453 242.481 379.453 240.061C379.453 237.674 376.868 236.282 372.591 236.282C368.299 236.282 365.68 237.674 365.68 240.061ZM367.52 240.061C367.503 238.635 369.442 237.757 372.591 237.757C375.741 237.757 377.663 238.635 377.663 240.061C377.663 241.536 375.741 242.381 372.591 242.398C369.442 242.381 367.503 241.536 367.52 240.061ZM377.431 235.752H379.271V230.05H382.404V228.508H379.271V223.072H377.431V235.752ZM399.847 223.072H398.024V243.906H399.847V233.199H403.328V231.658H399.847V223.072ZM383.604 227.945H396.002V226.42H390.798V223.321H388.958V226.42H383.604V227.945ZM384.798 234.459C384.781 237.276 386.936 239.232 389.903 239.232C392.853 239.232 394.991 237.276 395.008 234.459C394.991 231.641 392.853 229.669 389.903 229.669C386.936 229.669 384.781 231.641 384.798 234.459ZM386.555 234.459C386.538 232.569 387.963 231.21 389.903 231.21C391.825 231.21 393.234 232.569 393.251 234.459C393.234 236.348 391.825 237.691 389.903 237.674C387.963 237.691 386.538 236.348 386.555 234.459ZM421.302 229.387H408.871V223.834H407.048V230.879H421.302V229.387ZM404.429 235.205H423.507V233.713H404.429V235.205ZM406.916 243.392H421.435V241.868H408.739V237.326H406.916V243.392ZM442.781 225.376H432.189V226.884H440.941C440.941 228.542 440.891 231.086 440.328 234.575L442.167 234.724C442.764 230.862 442.764 228.111 442.781 226.47V225.376ZM431.013 237.774L431.245 239.315C434.974 239.332 439.88 239.232 444.256 238.553L444.156 237.16C441.993 237.426 439.631 237.575 437.328 237.666V231.326H435.504V237.716C433.905 237.757 432.38 237.765 431.013 237.774ZM445.466 243.906H447.305V233.381H450.687V231.79H447.305V223.072H445.466V243.906ZM469.241 223.072H467.401V228.508H463.191V230.033H467.401V235.486H469.241V223.072ZM452.053 233.829L453.015 235.287C455.501 234.351 457.432 232.403 458.327 229.967C459.23 232.113 461.045 233.862 463.39 234.707L464.352 233.232C461.302 232.188 459.213 229.602 459.213 226.884V226.122H463.871V224.597H452.65V226.122H457.357V226.901C457.357 229.884 455.153 232.702 452.053 233.829ZM455.352 240.011C455.335 242.464 457.987 243.873 462.329 243.89C466.655 243.873 469.307 242.464 469.307 240.011C469.307 237.558 466.655 236.133 462.329 236.133C457.987 236.133 455.335 237.558 455.352 240.011ZM457.175 240.011C457.158 238.486 459.131 237.575 462.329 237.575C465.512 237.575 467.484 238.486 467.484 240.011C467.484 241.519 465.512 242.431 462.329 242.414C459.131 242.431 457.158 241.519 457.175 240.011ZM490.563 223.072H488.79V243.906H490.563V223.072ZM472.978 232.055C472.978 236.497 474.735 239.315 477.436 239.298C480.014 239.315 481.746 236.779 481.928 232.718H484.613V242.845H486.387V223.519H484.613V231.193H481.92C481.688 227.265 479.972 224.829 477.436 224.829C474.735 224.829 472.978 227.63 472.978 232.055ZM474.701 232.055C474.685 228.674 475.762 226.553 477.436 226.553C479.143 226.553 480.221 228.674 480.221 232.055C480.221 235.437 479.143 237.575 477.436 237.558C475.762 237.575 474.685 235.437 474.701 232.055ZM500.781 228.674V224.879H498.924V228.674C498.908 232.503 496.488 236.514 493.438 238.022L494.615 239.497C496.993 238.229 498.949 235.561 499.869 232.445C500.797 235.403 502.753 237.898 505.123 239.116L506.234 237.624C503.201 236.232 500.781 232.437 500.781 228.674ZM503.963 231.691H508.902V243.939H510.725V223.072H508.902V230.182H503.963V231.691ZM17.4199 264.901H3.26519V266.409H15.5967C15.5967 267.776 15.5718 269.442 15.1077 271.729H0.812155V273.238H9.41436V276.304H11.2376V273.238H19.8895V271.729H16.9558C17.4199 269.434 17.4199 267.627 17.4199 266.227V264.901ZM2.90055 277.796H8.07182V279.702H2.9337V284.674H4.22652C7.75691 284.658 9.44751 284.591 11.6188 284.127L11.4365 282.702C9.4558 283.141 7.83149 283.24 4.74033 283.249V281.061H9.8453V276.387H2.90055V277.796ZM10.9724 277.895H15.8122V284.79H17.6519V276.387H10.9724V277.895ZM38.8085 264.072H36.9687V284.906H38.8085V264.072ZM21.8527 279.486L22.8472 280.995C29.8416 277.63 32.6262 272.326 32.6427 266.343H22.814V267.834H30.7698C30.3637 272.807 27.488 276.818 21.8527 279.486ZM59.1695 270.387H46.7385V264.834H44.9153V271.879H59.1695V270.387ZM42.2965 276.205H61.3739V274.713H42.2965V276.205ZM44.7827 284.392H59.3021V282.868H46.6059V278.326H44.7827V284.392ZM85.2224 264.072H83.3826V284.89H85.2224V274.1H88.6036V272.542H85.2224V264.072ZM69.2279 279.486L70.2555 280.928C77.0511 277.58 79.8191 272.21 79.8356 266.31H70.2058V267.851H77.9627C77.5483 272.798 74.6146 276.81 69.2279 279.486ZM96.8983 268.017V267.138H101.572V265.613H90.3182V267.138H95.0751V268.033C95.0585 271.033 92.8872 273.718 89.7546 274.779L90.6994 276.254C93.2021 275.351 95.1248 273.486 96.0198 271.1C96.9148 273.188 98.7298 274.845 101.125 275.641L102.003 274.199C98.9369 273.188 96.8983 270.752 96.8983 268.017ZM92.5391 281.011C92.5391 283.448 95.1579 284.856 99.4508 284.856C103.727 284.856 106.313 283.448 106.313 281.011C106.313 278.608 103.727 277.216 99.4508 277.216C95.1579 277.216 92.5391 278.608 92.5391 281.011ZM94.3789 281.011C94.3624 279.553 96.3016 278.691 99.4508 278.691C102.6 278.691 104.523 279.553 104.523 281.011C104.523 282.503 102.6 283.381 99.4508 283.381C96.3016 283.381 94.3624 282.503 94.3789 281.011ZM104.291 276.652H106.13V270.934H109.263V269.392H106.13V264.072H104.291V276.652ZM127.145 265.895H117.581V275.558H127.145V271.398H132.034V279.287H133.874V264.089H132.034V269.89H127.145V265.895ZM119.404 274.066V267.403H125.338V274.066H119.404ZM120.498 284.442H134.454V282.917H122.338V277.895H120.498V284.442ZM154.616 264.072H152.776V271.663H148.202V273.188H152.776V284.939H154.616V264.072ZM137.163 279.337L138.29 280.779C140.669 279.528 142.724 276.843 143.669 273.752C144.605 276.652 146.61 279.18 148.981 280.348L150.091 278.873C147.058 277.497 144.572 273.718 144.572 270.254V267.752H149.345V266.21H137.959V267.752H142.715V270.254C142.699 273.95 140.18 277.879 137.163 279.337ZM180.818 266.177H166.133V267.702H178.978V268.249C178.962 270.752 178.962 273.669 178.183 277.647L180.039 277.862C180.802 273.669 180.802 270.818 180.818 268.249V266.177ZM164.111 281.956H183.105V280.414H173.376V272.972H171.553V280.414H164.111V281.956ZM202.107 264.072H200.284V268.829H196.091V270.37H200.284V274.514H195.942V276.072H200.284V284.939H202.107V264.072ZM185.582 267.486H192.942V271.879H185.649V280.066H187.19C190.522 280.066 193.19 279.95 196.522 279.437L196.356 277.895C193.198 278.376 190.613 278.5 187.472 278.508V273.37H194.748V265.961H185.582V267.486ZM218.01 273.072H209.109V267.553H217.927V266.061H207.302V274.597H211.612V278.749C209.54 278.807 207.526 278.823 205.711 278.823L205.96 280.381C209.954 280.381 214.993 280.298 219.617 279.619L219.468 278.243C217.537 278.467 215.49 278.6 213.452 278.691V274.597H218.01V273.072ZM220.844 284.939H222.684V264.072H220.844V284.939ZM231.94 265.68C228.857 265.696 226.702 268.514 226.719 272.939C226.702 277.381 228.857 280.199 231.94 280.199C234.849 280.199 236.929 277.638 237.128 273.553H241.785V284.939H243.608V264.072H241.785V272.028H237.111C236.821 268.133 234.774 265.696 231.94 265.68ZM228.476 272.939C228.476 269.558 229.884 267.337 231.94 267.321C233.978 267.337 235.404 269.558 235.404 272.939C235.404 276.337 233.978 278.558 231.94 278.558C229.884 278.558 228.476 276.337 228.476 272.939ZM252.649 265.68C249.566 265.696 247.395 268.514 247.411 272.939C247.395 277.381 249.566 280.199 252.649 280.199C255.732 280.199 257.903 277.381 257.919 272.939C257.903 268.514 255.732 265.696 252.649 265.68ZM249.152 272.939C249.152 269.558 250.593 267.337 252.649 267.321C254.737 267.337 256.146 269.558 256.146 272.939C256.146 276.337 254.737 278.558 252.649 278.558C250.593 278.558 249.152 276.337 249.152 272.939ZM261.367 284.906H263.207V277.066H266.588V275.525H263.207V270.884H266.588V269.31H263.207V264.072H261.367V284.906ZM289.972 264.072H288.149V284.906H289.972V274.199H293.453V272.658H289.972V264.072ZM273.729 268.945H286.127V267.42H280.923V264.321H279.083V267.42H273.729V268.945ZM274.923 275.459C274.906 278.276 277.061 280.232 280.028 280.232C282.978 280.232 285.116 278.276 285.133 275.459C285.116 272.641 282.978 270.669 280.028 270.669C277.061 270.669 274.906 272.641 274.923 275.459ZM276.68 275.459C276.663 273.569 278.088 272.21 280.028 272.21C281.95 272.21 283.359 273.569 283.376 275.459C283.359 277.348 281.95 278.691 280.028 278.674C278.088 278.691 276.663 277.348 276.68 275.459ZM311.427 270.387H298.996V264.834H297.173V271.879H311.427V270.387ZM294.554 276.205H313.632V274.713H294.554V276.205ZM297.041 284.392H311.56V282.868H298.864V278.326H297.041V284.392ZM340.43 280.68H335.69V275.011C337.414 274.083 338.458 272.608 338.458 270.752C338.458 267.519 335.292 265.398 330.834 265.381C326.392 265.398 323.226 267.519 323.226 270.752C323.226 272.633 324.303 274.133 326.077 275.061V280.68H321.353V282.221H340.43V280.68ZM325 270.752C325 268.414 327.419 266.873 330.834 266.89C334.232 266.873 336.685 268.414 336.685 270.752C336.685 273.072 334.232 274.63 330.834 274.63C327.419 274.63 325 273.072 325 270.752ZM327.884 280.68V275.74C328.779 275.964 329.765 276.089 330.834 276.089C331.919 276.089 332.93 275.964 333.834 275.732V280.68H327.884ZM361.173 280.647H352.438V275.558H350.631V280.647H342.095V282.171H361.173V280.647ZM342.841 274.265L343.67 275.79C346.844 275.127 350.167 272.972 351.535 269.981C352.894 272.981 356.242 275.127 359.416 275.79L360.244 274.265C356.598 273.635 352.488 270.569 352.488 267.089V265.481H350.565V267.089C350.548 270.586 346.488 273.635 342.841 274.265ZM387.855 273.818H368.861V275.343H377.43V277.564C373.477 277.738 371.148 279.022 371.148 281.21C371.148 283.547 373.833 284.856 378.342 284.856C382.817 284.856 385.502 283.547 385.518 281.21C385.502 279.022 383.181 277.738 379.253 277.564V275.343H387.855V273.818ZM369.938 271.1L370.601 272.558C374.024 272.135 377.206 270.611 378.358 268.29C379.502 270.611 382.692 272.135 386.115 272.558L386.795 271.1C383.115 270.71 379.668 268.879 379.552 266.542H386.148V265.05H370.601V266.542H377.165C377.032 268.879 373.552 270.71 369.938 271.1ZM373.021 281.21C373.005 279.801 375.01 278.989 378.342 278.972C381.657 278.989 383.662 279.801 383.679 281.21C383.662 282.602 381.657 283.431 378.342 283.414C375.01 283.431 373.005 282.602 373.021 281.21ZM411.754 264.072H409.93V284.906H411.754V274.199H415.234V272.658H411.754V264.072ZM395.511 268.945H407.908V267.42H402.704V264.321H400.864V267.42H395.511V268.945ZM396.704 275.459C396.687 278.276 398.842 280.232 401.809 280.232C404.759 280.232 406.897 278.276 406.914 275.459C406.897 272.641 404.759 270.669 401.809 270.669C398.842 270.669 396.687 272.641 396.704 275.459ZM398.461 275.459C398.444 273.569 399.87 272.21 401.809 272.21C403.732 272.21 405.14 273.569 405.157 275.459C405.14 277.348 403.732 278.691 401.809 278.674C399.87 278.691 398.444 277.348 398.461 275.459ZM435.877 272.392H432.496V264.072H430.656V284.89H432.496V273.934H435.877V272.392ZM417.231 279.602H418.888C422.054 279.602 425.286 279.387 428.883 278.674L428.651 277.1C425.22 277.812 422.104 278.053 419.054 278.061V266.127H417.231V279.602ZM454.315 264.072H452.476V275.243H454.315V264.072ZM437.592 269.873C437.592 272.707 439.895 274.663 443.061 274.647C446.227 274.663 448.514 272.707 448.514 269.873C448.514 267.022 446.227 265.066 443.061 265.083C439.895 265.066 437.592 267.022 437.592 269.873ZM439.398 269.873C439.382 267.967 440.923 266.624 443.061 266.641C445.183 266.624 446.724 267.967 446.724 269.873C446.724 271.779 445.183 273.122 443.061 273.122C440.923 273.122 439.382 271.779 439.398 269.873ZM440.824 284.624H454.315V276.304H452.492V278.84H442.63V276.304H440.824V284.624ZM442.63 283.116V280.315H452.492V283.116H442.63ZM475.024 264.072H473.201V284.906H475.024V264.072ZM459.212 279.536H460.903C464.234 279.536 467.533 279.271 471.229 278.508L470.98 276.934C467.475 277.671 464.201 277.92 461.019 277.928V266.127H459.212V279.536ZM494.722 264.072H492.883V284.939H494.722V273.851H498.203V272.31H494.722V264.072ZM479.507 279.718H481.148C485.109 279.718 487.844 279.602 491.109 279.022L490.877 277.431C487.786 278.003 485.117 278.152 481.347 278.16V267.619H489.236V266.111H479.507V279.718ZM501.542 283.133C502.371 283.133 503.05 282.453 503.05 281.624C503.05 280.796 502.371 280.116 501.542 280.116C500.713 280.116 500.017 280.796 500.034 281.624C500.017 282.453 500.713 283.133 501.542 283.133ZM16.9724 305.072H15.1326V325.89H16.9724V315.1H20.3536V313.542H16.9724V305.072ZM0.977901 320.486L2.00552 321.928C8.80111 318.58 11.5691 313.21 11.5856 307.31H1.9558V308.851H9.71271C9.29834 313.798 6.36464 317.81 0.977901 320.486ZM38.4604 314.503H25.7809V306.895H23.9245V316.028H38.4604V314.503ZM21.5875 323.022H40.6648V321.464H21.5875V323.022ZM58.4568 305.072H56.617V325.939H58.4568V314.851H61.9374V313.31H58.4568V305.072ZM43.2413 320.718H44.8822C48.8435 320.718 51.5783 320.602 54.8435 320.022L54.6114 318.431C51.5203 319.003 48.8518 319.152 45.0811 319.16V308.619H52.9706V307.111H43.2413V320.718ZM79.3647 305.089H77.5249V320.42H79.3647V313.044H82.5139V311.486H79.3647V305.089ZM63.9503 307.989H71.5912V310.956H64V317.188H65.6244C69.5028 317.188 72.2873 317.072 75.6354 316.508L75.4531 314.967C72.1962 315.522 69.5194 315.671 65.8232 315.663V312.398H73.3978V306.448H63.9503V307.989ZM66.4531 325.442H80.3426V323.917H68.3094V319.243H66.4531V325.442ZM108.915 321.829H103.462V316.856H107.042V315.332H103.777V308.536H107.092V307.011H91.5281V308.536H94.8264V315.332H91.5612V316.856H95.1579V321.829H89.8375V323.354H108.915V321.829ZM96.6496 315.332V308.536H101.97V315.332H96.6496ZM96.9977 321.829V316.856H101.622V321.829H96.9977ZM121.27 307.674V307.624H127.867V306.116H112.32V307.624H118.884V307.674C118.884 310.227 115.419 312.315 111.74 312.812L112.436 314.271C115.809 313.782 118.942 312.108 120.077 309.671C121.204 312.108 124.345 313.782 127.718 314.271L128.431 312.812C124.751 312.315 121.254 310.227 121.27 307.674ZM110.547 317.321H119.314V321.58H121.138V317.321H129.624V315.796H110.547V317.321ZM113 325.442H127.502V323.917H114.839V319.508H113V325.442ZM149.561 306.763H138.273V308.304H140.378V314.826C139.434 314.834 138.53 314.834 137.693 314.834L137.925 316.409C141.539 316.409 146.445 316.343 150.721 315.696L150.588 314.321C149.577 314.437 148.517 314.519 147.439 314.586V308.304H149.561V306.763ZM140.528 320.254H152.71V325.906H154.55V318.729H140.528V320.254ZM142.152 314.793V308.304H145.666V314.685C144.481 314.743 143.296 314.776 142.152 314.793ZM152.71 317.718H154.55V305.072H152.71V317.718ZM174.96 315.912H162.413V312.763H174.281V311.271H162.413V308.304H174.728V306.779H160.557V317.42H166.657V321.763H158.087V323.287H177.165V321.763H168.496V317.42H174.96V315.912ZM195.255 307.293H180.902V308.818H193.448V309.381C193.448 311.934 193.448 315.05 192.603 319.31L194.476 319.492C195.255 314.967 195.255 312 195.255 309.381V307.293ZM178.83 322.84H197.824V321.298H178.83V322.84ZM217.257 305.089H215.517V310.376H212.583V305.486H210.859V317.238H212.583V311.917H215.517V317.519H217.257V305.089ZM200.483 307.956H206.616V310.691H200.533V316.575H201.892C204.909 316.575 207.13 316.492 209.832 315.978L209.633 314.486C207.155 314.975 205.058 315.108 202.323 315.116V312.116H208.373V306.448H200.483V307.956ZM203.5 325.624H217.257V318.497H203.5V325.624ZM205.323 324.116V319.989H215.467V324.116H205.323ZM228.409 316.044H230.15V307.028H228.409L226.105 308.553V310.326L228.326 308.851H228.409V316.044ZM227.917 324H229.807L241.475 307.028H239.586L227.917 324ZM238.582 324H245.642V322.591H241.134V322.525L242.924 321.05C244.648 319.641 245.327 318.812 245.327 317.602C245.327 316.044 244.001 314.851 241.93 314.851C239.874 314.851 238.482 316.011 238.482 317.702H240.156C240.156 316.823 240.902 316.227 241.896 316.227C242.891 316.227 243.653 316.79 243.653 317.635C243.653 318.332 243.173 318.862 242.129 319.74L238.582 322.724V324ZM269.771 305.901H255.617V307.409H267.948C267.948 308.776 267.923 310.442 267.459 312.729H253.164V314.238H261.766V317.304H263.589V314.238H272.241V312.729H269.307C269.771 310.434 269.771 308.627 269.771 307.227V305.901ZM255.252 318.796H260.423V320.702H255.285V325.674H256.578C260.108 325.658 261.799 325.591 263.97 325.127L263.788 323.702C261.807 324.141 260.183 324.24 257.092 324.249V322.061H262.197V317.387H255.252V318.796ZM263.324 318.895H268.164V325.79H270.003V317.387H263.324V318.895ZM291.16 305.072H289.32V325.906H291.16V305.072ZM274.204 320.486L275.199 321.995C282.193 318.63 284.978 313.326 284.994 307.343H275.166V308.834H283.121C282.715 313.807 279.84 317.818 274.204 320.486ZM313.725 317.437H294.648V318.928H303.234V325.906H305.04V318.928H313.725V317.437ZM297.101 314.901H311.272V305.934H309.433V308.818H298.924V305.934H297.101V314.901ZM298.924 313.409V310.31H309.433V313.409H298.924ZM332.694 305.072H330.871V312.945H326.462V314.47H330.871V325.939H332.694V305.072ZM316.385 320.917H317.976C322.004 320.901 324.556 320.768 327.589 320.271L327.374 318.746C324.523 319.268 322.07 319.368 318.241 319.376V314.337H325.186V312.845H318.241V308.503H326.114V306.978H316.385V320.917ZM361.266 321.68H352.631V316.608H350.791V321.68H342.189V323.221H361.266V321.68ZM343.134 315.879L343.896 317.337C347.021 316.691 350.369 314.619 351.711 311.727C353.054 314.602 356.418 316.624 359.592 317.254L360.355 315.796C356.758 315.216 352.648 312.348 352.648 309.033V308.519H359.626V306.961H343.764V308.519H350.742V309.033C350.742 312.348 346.648 315.265 343.134 315.879ZM374.749 307.409H369.843V304.89H368.02V307.409H362.948V308.901H374.749V307.409ZM364.191 313.84C364.174 316.16 366.097 317.685 368.915 317.685C371.699 317.685 373.655 316.16 373.672 313.84C373.655 311.503 371.699 309.978 368.915 309.978C366.097 309.978 364.174 311.503 364.191 313.84ZM365.915 313.84C365.898 312.365 367.091 311.387 368.915 311.37C370.705 311.387 371.931 312.365 371.948 313.84C371.931 315.298 370.705 316.276 368.915 316.276C367.091 316.276 365.898 315.298 365.915 313.84ZM366.329 322.31C366.329 324.547 368.964 325.856 373.34 325.856C377.683 325.856 380.318 324.547 380.318 322.31C380.318 320.039 377.683 318.746 373.34 318.746C368.964 318.746 366.329 320.039 366.329 322.31ZM368.235 322.31C368.235 320.95 370.174 320.188 373.34 320.188C376.456 320.188 378.379 320.95 378.379 322.31C378.379 323.635 376.456 324.431 373.34 324.414C370.174 324.431 368.235 323.635 368.235 322.31ZM374.716 315.663H378.362V318.547H380.202V305.072H378.362V310.077H374.732V311.602H378.362V314.138H374.716V315.663ZM396.691 310.674V306.879H394.868V310.674C394.852 314.47 392.432 318.464 389.399 319.972L390.559 321.448C392.904 320.188 394.876 317.561 395.805 314.486C396.733 317.379 398.647 319.848 400.934 321.05L402.078 319.575C399.111 318.116 396.675 314.337 396.691 310.674ZM403.984 325.906H405.824V315.116H409.305V313.525H405.824V305.072H403.984V325.906ZM427.61 305.072H425.771V325.939H427.61V305.072ZM411.218 313.939C411.218 318.381 413.422 321.199 416.539 321.199C419.621 321.199 421.859 318.381 421.859 313.939C421.859 309.514 419.621 306.696 416.539 306.68C413.422 306.696 411.218 309.514 411.218 313.939ZM412.992 313.939C412.992 310.558 414.45 308.337 416.539 308.321C418.627 308.337 420.069 310.558 420.069 313.939C420.069 317.337 418.627 319.558 416.539 319.558C414.45 319.558 412.992 317.337 412.992 313.939ZM440.596 318.232C436.137 318.232 433.303 319.641 433.303 322.061C433.303 324.448 436.137 325.856 440.596 325.856C445.071 325.856 447.905 324.448 447.922 322.061C447.905 319.641 445.071 318.232 440.596 318.232ZM431.198 316.293H450.159V314.785H440.861V310.757H439.054V314.785H431.198V316.293ZM433.452 307.641H445.916V307.906C445.916 309.531 445.916 311.072 445.353 313.227L447.159 313.426C447.739 311.271 447.739 309.58 447.739 307.906V306.133H433.452V307.641ZM435.143 322.061C435.126 320.569 437.281 319.658 440.596 319.641C443.927 319.658 446.065 320.569 446.082 322.061C446.065 323.503 443.927 324.398 440.596 324.398C437.281 324.398 435.126 323.503 435.143 322.061ZM468.216 305.072H466.36V320.321H468.216V312.961H471.349V311.403H468.216V305.072ZM451.957 316.426L452.752 317.901C458.752 316.028 462.581 312.05 462.581 306.68H452.818V308.221H460.584C460.194 311.909 456.954 314.868 451.957 316.426ZM455.155 325.442H469.161V323.917H456.995V318.763H455.155V325.442ZM489.837 305.072H487.997V325.939H489.837V305.072ZM473.445 313.939C473.445 318.381 475.649 321.199 478.765 321.199C481.848 321.199 484.086 318.381 484.086 313.939C484.086 309.514 481.848 306.696 478.765 306.68C475.649 306.696 473.445 309.514 473.445 313.939ZM475.218 313.939C475.218 310.558 476.677 308.337 478.765 308.321C480.853 308.337 482.295 310.558 482.295 313.939C482.295 317.337 480.853 319.558 478.765 319.558C476.677 319.558 475.218 317.337 475.218 313.939ZM18.0994 345.072H16.2762V353.442H11.3039V354.984H16.2762V365.906H18.0994V345.072ZM0.861879 360.47L1.87293 361.928C8.83425 358.481 11.337 353.243 11.3536 347.343H1.77348V348.834H9.49724C9.12431 353.707 6.51381 357.727 0.861879 360.47ZM28.3996 346.597C25.1179 346.597 22.7643 348.586 22.7809 351.486C22.7643 354.387 25.1179 356.376 28.3996 356.376C31.6814 356.376 34.0019 354.387 34.0184 351.486C34.0019 348.586 31.6814 346.597 28.3996 346.597ZM21.7035 359.774L21.9521 361.348C25.7146 361.348 30.8361 361.332 35.6096 360.437L35.4604 359.077C30.8527 359.757 25.5488 359.79 21.7035 359.774ZM24.5875 351.486C24.5709 349.547 26.1787 348.205 28.3996 348.205C30.6041 348.205 32.2118 349.547 32.2118 351.486C32.2118 353.426 30.6041 354.768 28.3996 354.768C26.1787 354.768 24.5709 353.426 24.5875 351.486ZM36.8361 365.939H38.6759V345.072H36.8361V365.939ZM55.3476 350.674V346.879H53.5244V350.674C53.5078 354.47 51.0879 358.464 48.0548 359.972L49.215 361.448C51.5603 360.188 53.5327 357.561 54.4609 354.486C55.389 357.379 57.3034 359.848 59.5907 361.05L60.7343 359.575C57.7675 358.116 55.331 354.337 55.3476 350.674ZM62.6404 365.906H64.4802V355.116H67.9609V353.525H64.4802V345.072H62.6404V365.906ZM85.2224 345.072H83.3992V365.939H85.2224V354.917H88.703V353.359H85.2224V345.072ZM69.9075 348.536H77.5483V352.945H69.9572V360.901H71.6146C75.6423 360.884 78.4268 360.735 81.7086 360.138L81.5262 358.613C78.3522 359.202 75.6506 359.343 71.7804 359.343V354.47H79.3881V347.011H69.9075V348.536ZM97.2961 351.47V348.752H102.252V347.21H90.517V348.752H95.4397V351.47C95.4231 355.066 92.8209 359.011 89.8375 360.437L90.9314 361.895C93.3099 360.702 95.4148 358.05 96.3927 355C97.3706 357.876 99.4673 360.271 101.904 361.381L102.931 359.923C99.8651 358.597 97.2961 355 97.2961 351.47ZM105.169 365.906H107.009V345.072H105.169V365.906ZM127.419 351.387H114.989V345.834H113.165V352.879H127.419V351.387ZM110.547 357.205H129.624V355.713H110.547V357.205ZM113.033 365.392H127.552V363.868H114.856V359.326H113.033V365.392ZM145.251 356.044H143.428V359.964C141.265 360.039 139.202 360.047 137.461 360.055L137.71 361.597C141.472 361.597 146.594 361.564 151.367 360.702L151.218 359.326C149.304 359.616 147.257 359.79 145.251 359.89V356.044ZM138.091 355.332L138.986 356.74C141.489 355.978 143.436 354.304 144.34 352.075C145.276 354.188 147.24 355.787 149.743 356.542L150.605 355.083C147.53 354.213 145.309 352.025 145.251 349.332H150.141V347.807H145.251V345.221H143.428V347.807H138.605V349.332H143.395C143.345 352.141 141.174 354.412 138.091 355.332ZM152.594 365.939H154.434V345.072H152.594V365.939ZM175.889 345.072H174.132V353.442H171.082V345.536H169.375V364.812H171.082V354.967H174.132V365.906H175.889V345.072ZM158.85 360.752H160.192C163.391 360.735 165.513 360.652 168.016 360.122L167.85 358.58C165.546 359.053 163.565 359.169 160.69 359.177V349.133H166.657V347.624H158.85V360.752ZM201.428 345.901H187.273V347.409H199.604C199.604 348.776 199.58 350.442 199.116 352.729H184.82V354.238H193.422V357.304H195.245V354.238H203.897V352.729H200.964C201.428 350.434 201.428 348.627 201.428 347.227V345.901ZM186.908 358.796H192.08V360.702H186.942V365.674H188.234C191.765 365.658 193.455 365.591 195.627 365.127L195.444 363.702C193.464 364.141 191.839 364.24 188.748 364.249V362.061H193.853V357.387H186.908V358.796ZM194.98 358.895H199.82V365.79H201.66V357.387H194.98V358.895ZM222.816 345.072H220.977V365.906H222.816V345.072ZM205.86 360.486L206.855 361.995C213.849 358.63 216.634 353.326 216.651 347.343H206.822V348.834H214.778C214.372 353.807 211.496 357.818 205.86 360.486ZM242.829 345.072H240.989V365.906H242.829V355.216H245.995V353.674H242.829V345.072ZM226.255 360.138L227.746 361.182C231.525 357.188 232.636 352.298 232.652 347.343H226.918V348.884H230.904C230.68 353.036 229.412 356.923 226.255 360.138ZM232.238 361.547L233.746 362.575C237.641 358.033 238.371 352.282 238.387 347.343H233.315V348.884H236.655C236.481 353.227 235.503 357.859 232.238 361.547ZM254.538 351.47V348.752H259.494V347.21H247.759V348.752H252.682V351.47C252.665 355.066 250.063 359.011 247.08 360.437L248.174 361.895C250.552 360.702 252.657 358.05 253.635 355C254.613 357.876 256.71 360.271 259.146 361.381L260.174 359.923C257.107 358.597 254.538 355 254.538 351.47ZM262.411 365.906H264.251V345.072H262.411V365.906ZM292.923 361.68H284.238V356.591H290.552V346.812H276.099V356.591H282.414V361.68H273.845V363.221H292.923V361.68ZM277.89 355.116V348.304H288.762V355.116H277.89ZM311.212 352.862H299.079V347.823H310.93V346.298H297.206V354.354H311.212V352.862ZM294.554 358.613H303.14V365.84H304.947V358.613H313.632V357.105H294.554V358.613ZM331.878 346.961H322.248V356.558H331.878V346.961ZM324.038 355.066V348.47H330.088V355.066H324.038ZM324.602 365.442H338.607V363.917H326.425V358.895H324.602V365.442ZM335.806 360.337H337.646V352.961H340.779V351.403H337.646V345.055H335.806V360.337ZM361.604 353.392H358.222V345.072H356.383V365.89H358.222V354.934H361.604V353.392ZM342.957 360.602H344.615C347.78 360.602 351.012 360.387 354.609 359.674L354.377 358.1C350.946 358.812 347.83 359.053 344.78 359.061V347.127H342.957V360.602ZM381.915 361.696H373.23V357.205H379.578V346.547H377.755V350.31H366.931V346.547H365.092V357.205H371.407V361.696H362.837V363.238H381.915V361.696ZM366.931 355.696V351.818H377.755V355.696H366.931ZM389.762 350.989V347.028H387.989V351.072C387.989 354.635 386.232 358.332 383.348 360.022L384.524 361.398C386.605 360.13 388.146 357.743 388.908 354.984C389.646 357.511 391.08 359.74 393.093 360.95L394.154 359.525C391.386 357.884 389.762 354.304 389.762 350.989ZM391.85 354.105H395.381V364.845H397.121V345.519H395.381V352.547H391.85V354.105ZM399.657 365.906H401.431V345.072H399.657V365.906ZM423.399 361.68H418.659V356.011C420.383 355.083 421.427 353.608 421.427 351.752C421.427 348.519 418.261 346.398 413.803 346.381C409.361 346.398 406.195 348.519 406.195 351.752C406.195 353.633 407.272 355.133 409.046 356.061V361.68H404.322V363.221H423.399V361.68ZM407.968 351.752C407.968 349.414 410.388 347.873 413.803 347.89C417.2 347.873 419.653 349.414 419.653 351.752C419.653 354.072 417.2 355.63 413.803 355.63C410.388 355.63 407.968 354.072 407.968 351.752ZM410.852 361.68V356.74C411.747 356.964 412.733 357.089 413.803 357.089C414.888 357.089 415.899 356.964 416.803 356.732V361.68H410.852ZM427.268 364.133C428.097 364.133 428.777 363.453 428.777 362.624C428.777 361.796 428.097 361.116 427.268 361.116C426.44 361.116 425.744 361.796 425.76 362.624C425.744 363.453 426.44 364.133 427.268 364.133Z" fill="black"/>
<rect x="1" y="29.0001" width="523" height="94" fill="white"/>
<path d="M65.293 51.5939H27.1484V58.8595H55.8594C55.8008 61.4376 55.5664 64.2794 54.9219 67.7657H21.2305V75.2072H41.2695V80.0704H26.2109V86.8087H35.6445V88.5665H26.2109V103.567H29.9609C41.6797 103.625 45.0781 103.508 48.8867 102.57L48.0664 95.8322C45.0781 96.5939 42.4121 96.799 35.3516 96.8575V94.9532H44.668V81.3009H47.1289V87.4532H55.918V103.742H65.1758V80.0704H50.7031V75.2072H70.6836V67.7657H64.4141C65.3223 62.8732 65.3223 58.6837 65.293 55.4025V51.5939ZM117.882 49.6017H108.331V103.801H117.882V49.6017ZM71.7687 87.6876L76.5734 95.0704C96.7004 85.6954 101.505 72.131 101.476 55.1681H74.8742V62.4923H91.925C90.6945 73.8302 85.2746 81.2716 71.7687 87.6876Z" fill="#F25A39"/>
<path d="M343.246 98.0001H346.645L356.84 60.6173H357.074L367.152 98.0001H370.609L382.211 55.5782H379.105L368.969 93.3126H368.734L358.715 55.5782H355.141L345.121 93.3126H344.887L334.75 55.5782H331.586L343.246 98.0001ZM396.128 98.6447C402.486 98.674 406.792 94.9825 408.14 91.0275H404.976C403.862 93.0782 401.109 95.9493 396.128 95.9493C389.185 95.9493 384.907 90.5001 384.82 82.8243H408.902V81.1837C408.902 71.3693 402.661 65.715 395.542 65.715C387.544 65.715 381.861 72.6876 381.831 82.2384C381.861 91.7892 387.427 98.674 396.128 98.6447ZM384.849 80.1876C385.2 73.6251 389.624 68.4103 395.542 68.4103C401.489 68.4103 405.884 73.5665 405.913 80.1876H384.849ZM415.143 98.0001H418.131V66.1837H415.143V98.0001ZM414.323 58.3907C414.352 59.6212 415.377 60.6173 416.666 60.6173C417.897 60.6173 418.922 59.6212 418.952 58.3907C418.922 57.1896 417.897 56.1935 416.666 56.1642C415.377 56.1935 414.352 57.1896 414.323 58.3907ZM437.849 110.598C445.349 110.598 450.535 106.76 450.505 98.7618V66.1837H447.634V72.9806H447.341C445.877 69.2306 442.83 65.715 437.263 65.715C429.5 65.715 424.402 72.3361 424.373 81.9454C424.402 91.5841 429.646 97.795 437.205 97.7657C442.566 97.795 445.906 94.7189 447.341 90.9689H447.576V98.6447C447.605 104.943 443.943 107.932 437.849 107.961C433.162 107.932 429.47 106.203 428.591 102.688H425.486C426.394 107.932 431.463 110.598 437.849 110.598ZM427.361 82.004C427.361 74.3575 431.052 68.4396 437.498 68.4103C443.914 68.4396 447.634 74.1818 447.634 82.004C447.634 90.1193 443.796 95.0704 437.498 95.0704C431.111 95.0704 427.361 89.7677 427.361 82.004ZM461.493 77.6095C461.493 72.0724 465.331 68.4689 470.575 68.4689C475.761 68.4689 479.13 71.9259 479.13 77.3165V98.0001H482.118V77.1407C482.089 69.963 477.665 65.7736 471.22 65.7736C466.561 65.7736 463.28 67.9122 461.786 71.2228H461.493V55.5782H458.563V98.0001H461.493V77.6095ZM501.66 66.1837H494.98V58.5665H492.051V66.1837H487.363V68.7618H492.051V90.7931C492.051 95.7736 495.918 98.4982 499.961 98.5275C501.162 98.4982 501.895 98.4396 502.48 98.3517V95.5978C501.865 95.6271 500.811 95.6564 500.195 95.6564C497.471 95.6564 495.01 94.1036 494.98 90.2072V68.7618H501.66V66.1837Z" fill="#F25A39"/>
<rect x="1" y="29.0001" width="523" height="94" stroke="#F25A39" stroke-width="2"/>
<rect x="1" y="123" width="523" height="7" fill="white" stroke="#F25A39" stroke-width="2"/>
<line x1="103" y1="0.00012205" x2="103" y2="27.0001" stroke="#F25A39" stroke-width="2"/>
<line x1="410" y1="0.00012205" x2="410" y2="27.0001" stroke="#F25A39" stroke-width="2"/>
<line x1="115" y1="0.00012205" x2="115" y2="27.0001" stroke="#F25A39" stroke-width="2"/>
<line x1="422" y1="0.00012205" x2="422" y2="27.0001" stroke="#F25A39" stroke-width="2"/>
</svg>
