<svg width="1194" height="834" viewBox="0 0 1194 834" fill="none" xmlns="http://www.w3.org/2000/svg">
<rect width="1194" height="834" fill="white"/>
<path d="M132.696 646.158H156.329V709H174.483V646.158H198.116V631.227H132.696V646.158ZM275.541 670.113C275.595 644.439 259.428 630.152 238.588 630.152C217.641 630.152 201.635 644.439 201.635 670.113C201.635 695.626 217.641 710.074 238.588 710.074C259.428 710.074 275.595 695.733 275.541 670.113ZM220.326 670.113C220.326 654.645 227.255 646.212 238.588 646.266C249.975 646.212 256.904 654.645 256.85 670.113C256.904 685.582 249.975 693.961 238.588 693.961C227.255 693.961 220.326 685.582 220.326 670.113ZM332.449 631.227V679.889C332.503 688.106 326.648 694.068 318.054 694.068C309.407 694.068 303.553 688.106 303.553 679.889V631.227H285.291V681.393C285.291 698.795 298.343 710.021 318.054 710.074C337.605 710.021 350.818 698.795 350.818 681.393V631.227H332.449ZM413.204 659.264H431.681C429.747 640.733 415.944 630.152 397.306 630.152C376.574 630.152 360.568 644.439 360.568 670.113C360.568 695.68 376.251 710.074 397.306 710.074C418.361 710.074 430.231 695.787 431.681 681.93L413.204 681.822C411.808 689.449 406.007 693.961 397.628 693.961C386.456 693.961 379.259 685.797 379.259 670.113C379.259 654.967 386.295 646.212 397.736 646.266C406.437 646.212 412.184 651.261 413.204 659.264ZM441.216 709H459.478V677.525H490.737V709H508.999V631.227H490.737V662.594H459.478V631.227H441.216V709ZM540.529 646.158H564.162V709H582.317V646.158H605.949V631.227H540.529V646.158ZM683.375 670.113C683.428 644.439 667.262 630.152 646.422 630.152C625.474 630.152 609.469 644.439 609.469 670.113C609.469 695.626 625.474 710.074 646.422 710.074C667.262 710.074 683.428 695.733 683.375 670.113ZM628.16 670.113C628.16 654.645 635.089 646.212 646.422 646.266C657.808 646.212 664.737 654.645 664.683 670.113C664.737 685.582 657.808 693.961 646.422 693.961C635.089 693.961 628.16 685.582 628.16 670.113ZM758.626 654.322H776.243C776.082 639.928 764.534 630.152 746.595 630.152C728.978 630.152 716.248 639.767 716.302 654.215C716.302 665.924 724.52 672.584 737.894 675.699L746.058 677.633C754.651 679.566 758.626 681.93 758.733 686.441C758.626 691.437 754.007 694.82 746.272 694.82C737.947 694.82 732.308 690.953 731.878 683.434H714.261C714.583 701.319 727.098 710.021 746.487 710.074C765.823 710.021 777.264 701.158 777.317 686.441C777.264 673.98 768.562 666.515 753.577 663.238L746.81 661.627C739.827 660.123 735.101 657.76 735.208 652.926C735.262 648.521 739.075 645.299 746.487 645.299C753.953 645.299 758.143 648.683 758.626 654.322ZM782.985 646.158H806.618V709H824.772V646.158H848.405V631.227H782.985V646.158ZM862.881 709L868.145 692.35H895.215L900.479 709H920.137L893.819 631.227H869.541L843.115 709H862.881ZM872.549 678.385L881.358 650.455H882.002L890.811 678.385H872.549ZM927.308 709H945.57V682.252H955.775L970.062 709H990.15L973.876 679.298C982.469 675.377 987.411 667.75 987.357 657.008C987.411 641.163 976.615 631.227 959.105 631.227H927.308V709ZM945.57 667.643V646.051H955.238C963.885 646.051 968.451 649.703 968.451 657.008C968.451 664.312 963.885 667.696 955.238 667.643H945.57ZM993.884 646.158H1017.52V709H1035.67V646.158H1059.3V631.227H993.884V646.158Z" fill="black"/>
<path d="M249.881 553.088H230.203V556.262H246.097C245.901 558.947 245.462 561.511 244.656 563.952L228.006 565.051L228.689 568.371L243.484 566.979C240.774 572.839 235.843 577.844 227.859 581.848L230.057 584.777C245.389 577.087 249.832 565.612 249.881 553.088ZM249.734 569.201H259.939V591.955H263.748V548.547H259.939V566.027H249.734V569.201ZM292.654 554.943V551.623H288.65V554.943C288.626 562.414 280.203 568.981 272.684 570.422L274.441 573.645C281.009 572.106 287.869 567.468 290.701 561.096C293.509 567.468 300.394 572.131 306.961 573.645L308.719 570.422C301.175 569.006 292.679 562.39 292.654 554.943ZM271.023 586.047H310.77V582.873H271.023V586.047ZM350.223 548.547H346.365V559.436H337.869V562.658H346.365V574.279H350.223V548.547ZM316.482 572.131H319.656C328.152 572.155 332.962 571.936 338.699 570.959L338.357 567.785C332.864 568.737 328.299 568.933 320.291 568.908V562.902H334.842V559.875H320.291V554.309H336.014V551.184H316.482V572.131ZM321.854 591.369H350.223V576.525H321.854V591.369ZM325.662 588.244V579.65H346.463V588.244H325.662ZM395.438 552.111H371.951V555.285H376.297V568.884C374.344 568.908 372.464 568.908 370.73 568.908L371.219 572.18C378.738 572.18 388.968 572.058 397.879 570.715L397.586 567.834C395.486 568.078 393.289 568.249 391.043 568.396V555.285H395.438V552.111ZM376.639 580.188H402.029V591.955H405.838V577.014H376.639V580.188ZM380.008 568.835V555.285H387.332V568.591C384.866 568.713 382.4 568.786 380.008 568.835ZM402.029 574.914H405.838V548.547H402.029V574.914ZM448.367 571.154H422.244V564.611H446.951V561.486H422.244V555.285H447.879V552.111H418.338V574.279H431.082V583.361H413.211V586.535H452.957V583.361H434.891V574.279H448.367V571.154ZM490.652 553.186H460.721V556.359H486.893V557.531C486.893 562.854 486.893 569.348 485.135 578.234L489.041 578.625C490.652 569.177 490.652 563 490.652 557.531V553.186ZM456.424 585.559H495.975V582.385H456.424V585.559ZM536.502 548.596H532.84V559.631H526.736V549.426H523.172V573.889H526.736V562.805H532.84V574.475H536.502V548.596ZM501.541 554.553H514.334V560.266H501.639V572.521H504.471C510.77 572.521 515.384 572.351 521.023 571.301L520.584 568.176C515.457 569.201 511.062 569.47 505.35 569.494V563.244H517.996V551.428H501.541V554.553ZM507.84 591.369H536.502V576.525H507.84V591.369ZM511.6 588.244V579.65H532.742V588.244H511.6ZM562.625 549.328C552.933 549.328 547.244 551.989 547.244 556.799C547.244 561.73 552.933 564.392 562.625 564.416C572.269 564.392 577.933 561.73 577.957 556.799C577.933 551.989 572.269 549.328 562.625 549.328ZM542.85 570.471H582.4V567.346H542.85V570.471ZM547.635 577.16H573.562V581.115H547.732V591.467H578.641V588.439H551.541V583.947H577.322V574.23H547.635V577.16ZM551.248 556.799C551.199 553.942 555.423 552.233 562.625 552.209C569.827 552.233 574.026 553.942 574.051 556.799C574.026 559.826 569.827 561.486 562.625 561.486C555.423 561.486 551.199 559.826 551.248 556.799ZM614.236 556.604V554.748H624.246V551.623H600.223V554.748H610.379V556.604C610.354 562.756 605.765 568.42 599.246 570.715L601.248 573.693C606.424 571.838 610.477 567.932 612.381 563C614.358 567.59 618.362 571.154 623.416 572.863L625.369 569.885C618.875 567.761 614.261 562.438 614.236 556.604ZM605.252 580.285H630.643V591.955H634.451V577.111H605.252V580.285ZM630.643 574.816H634.451V548.547H630.643V574.816ZM677.762 548.547H673.953V559.094H665.164V562.316H673.953V572.131H677.762V548.547ZM642.02 569.836L644.021 572.863C649.173 570.983 653.201 566.955 655.057 561.975C656.937 566.418 660.721 570.056 665.604 571.838L667.605 568.859C661.258 566.662 656.912 561.193 656.912 555.627V554.357H666.629V551.184H643.24V554.357H653.055V555.627C653.055 561.779 648.416 567.517 642.02 569.836ZM649.832 591.369H677.762V574.23H673.953V579.65H653.689V574.23H649.832V591.369ZM653.689 588.244V582.727H673.953V588.244H653.689ZM719.51 552.502H699.441V572.473H719.51V552.502ZM703.201 569.396V555.627H715.799V569.396H703.201ZM704.373 591.027H733.523V587.805H708.133V577.355H704.373V591.027ZM727.713 580.383H731.521V565.002H738.064V561.779H731.521V548.547H727.713V580.383ZM780.398 566.809H740.799V569.885H780.398V566.809ZM745.584 576.77H771.512V580.969H745.682V591.467H776.59V588.342H749.49V583.85H775.271V573.791H745.584V576.77ZM746.072 563.244H775.662V560.119H749.93V553.137H775.223V550.061H746.072V563.244ZM795.682 551.916C789.261 551.94 784.769 557.824 784.793 567.053C784.769 576.306 789.261 582.165 795.682 582.141C801.736 582.165 806.082 576.843 806.497 568.322H816.189V592.053H819.998V548.547H816.189V565.148H806.448C805.862 557.019 801.59 551.94 795.682 551.916ZM788.455 567.053C788.479 559.997 791.409 555.358 795.682 555.334C799.93 555.358 802.908 559.997 802.908 567.053C802.908 574.108 799.93 578.747 795.682 578.723C791.409 578.747 788.479 574.108 788.455 567.053ZM866.971 583.215H848.855V573.84H862.088V551.623H858.328V559.484H835.77V551.623H831.912V573.84H845.096V583.215H827.225V586.389H866.971V583.215ZM835.77 570.715V562.609H858.328V570.715H835.77ZM883.328 560.9V552.648H879.617V561.047C879.617 568.493 875.955 576.184 869.949 579.699L872.391 582.58C876.736 579.943 879.959 574.963 881.546 569.177C883.06 574.475 886.062 579.113 890.262 581.652L892.459 578.674C886.697 575.256 883.328 567.81 883.328 560.9ZM887.674 567.395H895.047V589.758H898.66V549.475H895.047V564.123H887.674V567.395ZM903.934 591.955H907.645V548.547H903.934V591.955ZM953.396 583.166H943.533V571.35C947.122 569.421 949.295 566.345 949.295 562.463C949.295 555.749 942.703 551.33 933.426 551.281C924.148 551.33 917.557 555.749 917.557 562.463C917.557 566.418 919.803 569.543 923.514 571.472V583.166H913.65V586.389H953.396V583.166ZM921.268 562.463C921.243 557.604 926.297 554.406 933.426 554.455C940.481 554.406 945.584 557.604 945.584 562.463C945.584 567.321 940.481 570.568 933.426 570.568C926.297 570.568 921.243 567.321 921.268 562.463ZM927.273 583.166V572.863C929.129 573.352 931.204 573.596 933.426 573.596C935.696 573.596 937.796 573.327 939.676 572.839V583.166H927.273ZM963.895 552.648H959.109L959.451 578.039H963.553L963.895 552.648ZM958.377 585.119C958.328 586.853 959.793 588.269 961.502 588.293C963.235 588.269 964.651 586.853 964.627 585.119C964.651 583.41 963.235 581.994 961.502 581.994C959.793 581.994 958.328 583.41 958.377 585.119Z" fill="black"/>
<g clip-path="url(#clip0_1_2)">
<path d="M810.812 399.038L642.781 108.654C622.19 73.0829 570.81 73.0829 550.316 108.654L382.187 399.038C361.596 434.609 387.335 479 428.42 479H764.483C805.665 479 831.306 434.609 810.812 399.038ZM482.326 436.547C462.415 436.547 448.137 425.595 447.749 409.796H466.786C467.077 416.581 473.682 421.039 482.423 421.039C491.456 420.942 497.867 415.999 497.867 408.633C497.964 401.267 491.359 396.033 480.675 396.033H472.322V382.173H480.675C489.611 382.173 495.924 377.327 495.827 370.154C495.924 363.176 490.582 358.427 482.52 358.524C474.459 358.427 467.951 362.982 467.563 369.864H449.594C449.885 354.259 463.969 343.5 482.52 343.5C501.46 343.5 514.087 354.743 513.99 368.991C514.087 379.168 506.997 386.341 496.798 388.085V388.861C510.105 390.508 517.486 398.553 517.389 409.893C517.584 425.401 502.82 436.547 482.326 436.547ZM623.939 337.491L618.014 347.668L602.182 337.297L601.308 337.782L601.891 347.765L602.376 356.682H590.624L591.692 337.782L591.206 337.491L590.721 337.2L578.871 344.954L574.792 347.571L568.867 337.394L585.864 328.865V327.896L568.867 319.366L574.015 310.546L574.792 309.189L587.516 317.525L590.624 319.56L591.498 319.076L590.915 308.802L590.429 300.175H602.182L601.114 319.076L601.988 319.56L617.819 309.189L623.744 319.366L606.747 327.896V328.865L623.939 337.491ZM596.257 244.638C576.346 244.638 562.068 233.686 561.68 217.887H580.717C581.008 224.672 587.613 229.13 596.354 229.13C605.387 229.033 611.798 224.09 611.798 216.724C611.895 209.358 605.29 204.124 594.606 204.124H586.253V190.264H594.606C603.542 190.264 609.855 185.418 609.758 178.245C609.855 171.267 604.513 166.517 596.451 166.614C588.39 166.517 581.882 171.073 581.494 177.954H563.428C563.719 162.35 577.803 151.591 596.354 151.591C615.294 151.591 627.921 162.834 627.824 177.082C627.921 187.259 620.83 194.432 610.632 196.176V196.952C623.939 198.599 631.32 206.644 631.223 217.984C631.515 233.492 616.751 244.638 596.257 244.638ZM710.188 436.547C690.277 436.547 675.999 425.595 675.611 409.796H694.648C694.939 416.581 701.544 421.039 710.285 421.039C719.318 420.942 725.729 415.999 725.729 408.633C725.826 401.267 719.221 396.033 708.537 396.033H700.184V382.173H708.537C717.473 382.173 723.786 377.327 723.689 370.154C723.786 363.176 718.444 358.427 710.382 358.524C702.321 358.427 695.813 362.982 695.425 369.864H677.359C677.65 354.259 691.734 343.5 710.285 343.5C729.225 343.5 741.852 354.743 741.755 368.991C741.852 379.168 734.761 386.341 724.563 388.085V388.861C737.869 390.508 745.251 398.553 745.154 409.893C745.445 425.401 730.682 436.547 710.188 436.547Z" fill="black"/>
</g>
<rect width="222" height="105" transform="translate(904.222 430) rotate(16.1589)" fill="#00E9B1"/>
<path d="M936.068 482.361C938.394 483.035 941.106 483.15 943.618 482.271L944.667 484.405L951.12 486.275L948.32 480.36C950.612 478.624 952.404 475.809 953.453 472.188L948.313 470.699C947.802 472.462 946.914 473.913 945.796 475.033L943.044 469.233L944.817 468.588C947.597 467.624 949.53 465.866 950.283 463.339C951.307 459.732 949.444 455.918 944.992 454.648C940.402 453.298 936.438 455.606 935.289 459.645C934.574 462.041 935.113 464.393 935.926 466.5C932.466 467.632 929.953 468.938 929.045 472.07C927.816 476.31 930.327 480.698 936.068 482.361ZM935.28 473.43C935.582 472.317 936.564 471.524 938.052 471.02L941.272 477.525C940.107 477.756 938.95 477.747 937.9 477.442C935.761 476.823 934.745 475.206 935.28 473.43ZM940.519 461.242C940.908 459.972 942.123 459.287 943.573 459.687C945.055 460.116 945.56 461.32 945.296 462.301C945 463.252 944.203 464.038 942.675 464.47L941.117 464.933C940.541 463.485 940.239 462.279 940.519 461.242ZM984.865 476.206L991.356 478.087C992.232 472.464 988.515 467.259 982.249 465.443C975.026 463.351 967.858 466.825 965.287 475.698C962.798 484.29 966.507 491.14 974.273 493.39C981.233 495.407 987.465 492.495 989.564 485.254L990.596 481.69L978.965 478.32L977.606 483.009L983.084 484.597C982.137 487.515 979.562 488.822 975.941 487.773C971.833 486.583 970.299 482.824 971.837 477.515C973.365 472.244 976.778 469.938 980.768 471.115C983.456 471.873 984.903 473.757 984.865 476.206ZM990.178 497.592L1009.01 503.049L1010.52 497.834L998.067 494.225L999.741 488.447L1011.18 491.763L1012.7 486.547L1001.25 483.232L1002.92 477.491L1015.33 481.09L1016.85 475.874L998.048 470.428L990.178 497.592ZM1018.49 482.003L1026.74 484.394L1020.38 506.343L1026.72 508.18L1033.08 486.232L1041.34 488.623L1042.85 483.408L1020 476.788L1018.49 482.003ZM1052.38 515.616L1055.91 510.334L1065.36 513.073L1065.52 519.421L1072.38 521.411L1071.06 491.583L1062.58 489.126L1045.48 513.616L1052.38 515.616ZM1058.86 505.902L1064.76 497.038L1064.99 497.103L1065.24 507.75L1058.86 505.902ZM921.234 506.889L927.387 508.672C928.787 503.628 925.743 499.045 919.477 497.23C913.324 495.447 907.905 497.517 906.462 502.568C905.277 506.658 907.473 509.816 911.829 512.257L914.485 513.759C917.291 515.304 918.44 516.532 918.021 518.118C917.478 519.852 915.522 520.567 912.821 519.784C909.913 518.941 908.334 517.02 908.945 514.35L902.792 512.567C901.095 518.847 904.585 523.152 911.352 525.133C918.111 527.071 923.003 525.134 924.512 519.999C925.754 515.641 923.47 512.153 918.568 509.492L916.367 508.245C914.081 507.013 912.669 505.709 913.196 504.032C913.66 502.499 915.318 501.759 917.907 502.509C920.515 503.265 921.636 504.871 921.234 506.889ZM930.952 506.614L939.206 509.006L932.847 530.955L939.187 532.792L945.547 510.843L953.801 513.235L955.312 508.02L932.463 501.399L930.952 506.614ZM964.88 510.792L958.501 508.944L950.631 536.108L957.009 537.956L964.88 510.792ZM984.216 527.009L990.67 528.879C991.869 522.211 988.119 517.119 981.609 515.232C974.368 513.134 967.332 516.505 964.734 525.472C962.146 534.401 966.168 541.016 973.521 543.147C980.875 545.278 986.467 541.489 988.376 536.796L981.933 534.888C980.674 537.411 978.191 538.399 975.265 537.552C971.363 536.421 969.675 532.841 971.262 527.363C972.795 522.073 976.138 519.727 980.129 520.904C983.173 521.766 984.67 524.111 984.216 527.009ZM989.351 547.327L995.729 549.175L997.881 541.746L1001.55 539.189L1005.3 551.947L1012.95 554.165L1007.44 536.26L1020.67 526.957L1013.09 524.761L1000.62 533.713L1000.24 533.604L1003.6 522.011L997.221 520.163L989.351 547.327ZM1015.35 554.86L1034.19 560.318L1035.7 555.102L1023.24 551.493L1024.91 545.715L1036.36 549.031L1037.87 543.816L1026.43 540.5L1028.09 534.76L1040.51 538.358L1042.02 533.143L1023.22 527.696L1015.35 554.86ZM1038.24 561.492L1044.62 563.34L1047.32 553.998L1050.89 555.03L1053.17 565.818L1060.19 567.851L1057.51 555.83C1060.91 555.331 1063.4 553.167 1064.47 549.409C1066.1 543.881 1063.33 539.318 1057.21 537.546L1046.11 534.328L1038.24 561.492ZM1048.8 548.895L1050.99 541.354L1054.36 542.332C1057.38 543.207 1058.61 544.945 1057.87 547.496C1057.13 550.047 1055.19 550.767 1052.18 549.873L1048.8 548.895ZM1078.08 543.59L1071.58 541.709L1066.68 560.745L1072.04 562.299L1078.08 543.59ZM1064.44 565.791C1063.86 567.675 1064.97 569.645 1066.83 570.183C1068.63 570.705 1070.67 569.648 1071.24 567.758C1071.75 565.914 1070.59 563.952 1068.79 563.43C1066.93 562.892 1064.94 563.941 1064.44 565.791Z" fill="black"/>
<defs>
<clipPath id="clip0_1_2">
<rect width="443" height="397" fill="white" transform="translate(375 82)"/>
</clipPath>
</defs>
</svg>
