<svg width="36" height="42" viewBox="0 0 36 42" fill="none" xmlns="http://www.w3.org/2000/svg">
<ellipse cx="18" cy="11.289" rx="13" ry="10.5" fill="white"/>
<path fill-rule="evenodd" clip-rule="evenodd" d="M19 21.7584C25.7124 21.346 31 16.8162 31 11.289C31 5.76178 25.7124 1.23204 19 0.819611L19 2.42195C25.1062 2.82722 29.4 6.91122 29.4 11.289C29.4 15.6668 25.1062 19.7508 19 20.1561L19 21.7584ZM17 2.42195C10.8938 2.82722 6.6 6.91122 6.6 11.289C6.6 15.6668 10.8938 19.7508 17 20.1561L17 21.7584C10.2876 21.346 5 16.8162 5 11.289C5 5.76178 10.2876 1.23204 17 0.819611L17 2.42195Z" fill="black"/>
<path d="M15.3882 7.01994H13.8853L11.8643 8.3216V9.77312L13.7611 8.5571H13.8125V14.5216H11.8643V15.789H17.1908V14.5216H15.3882V7.01994ZM18.6665 15.789H20.2379V12.0596H23.8902V10.7365H20.2379V8.34729H24.2756V7.01994H18.6665V15.789Z" fill="black"/>
<path d="M11.4358 37.9175C12.8322 37.9175 13.8101 37.2296 14.0918 36.1896H12.8239C12.6126 36.5832 12.1526 36.8898 11.4441 36.8898C10.3916 36.8898 9.67886 36.1978 9.64571 34.9838H14.1747V34.5404C14.1747 32.2407 12.7949 31.3415 11.3446 31.3415C9.57527 31.3415 8.40261 32.6923 8.40261 34.6481C8.40261 36.6246 9.55869 37.9175 11.4358 37.9175ZM9.64985 34.0473C9.70786 33.1523 10.3584 32.3691 11.3612 32.3691C12.3142 32.3691 12.9399 33.0818 12.9441 34.0473H9.64985ZM18.2702 31.4244H16.9733V29.8995H15.7219V31.4244H14.7896V32.423H15.7219V36.173C15.7177 37.3332 16.6003 37.8719 17.5824 37.8719C17.9222 37.8719 18.1915 37.847 18.3572 37.818V36.7407C18.1915 36.7489 17.9139 36.7655 17.7357 36.7655C17.3296 36.7614 16.9733 36.6329 16.9733 35.9161V32.423H18.2702V31.4244ZM21.9893 37.9175C23.4935 37.9175 24.4714 37.01 24.604 35.771H23.3899C23.2324 36.4589 22.702 36.8567 21.9935 36.8567C20.9493 36.8567 20.2738 35.9948 20.2738 34.6067C20.2738 33.2476 20.9617 32.3898 21.9935 32.3898C22.7849 32.3898 23.2573 32.8871 23.3899 33.4838H24.604C24.4755 32.1951 23.423 31.3415 21.9769 31.3415C20.1785 31.3415 19.0142 32.6923 19.0142 34.6357C19.0142 36.5542 20.1371 37.9175 21.9893 37.9175ZM26.4927 37.8677C26.9402 37.8677 27.3214 37.4948 27.3214 37.039C27.3214 36.5832 26.9402 36.2103 26.4927 36.2103C26.0328 36.2103 25.6516 36.5832 25.6598 37.039C25.6516 37.4948 26.0328 37.8677 26.4927 37.8677Z" fill="black"/>
</svg>
