<svg width="36" height="41" viewBox="0 0 36 41" fill="none" xmlns="http://www.w3.org/2000/svg">
<ellipse cx="18" cy="10.8417" rx="13" ry="10.5" fill="white"/>
<path fill-rule="evenodd" clip-rule="evenodd" d="M19 21.3111C25.7124 20.8987 31 16.369 31 10.8417C31 5.31452 25.7124 0.784774 19 0.372345L19 1.97468C25.1062 2.37995 29.4 6.46395 29.4 10.8417C29.4 15.2195 25.1062 19.3035 19 19.7088L19 21.3111ZM17 1.97468C10.8938 2.37995 6.6 6.46395 6.6 10.8417C6.6 15.2195 10.8938 19.3035 17 19.7088L17 21.3111C10.2876 20.8987 5 16.369 5 10.8417C5 5.31452 10.2876 0.784773 17 0.372345L17 1.97468Z" fill="black"/>
<path d="M11.5154 15.3417H17.6065V14.0218H13.7072V13.9613L15.2693 12.4113C16.9949 10.7826 17.4672 9.98334 17.4733 8.99642C17.4672 7.52513 16.2623 6.45345 14.4701 6.45345C12.7203 6.45345 11.4731 7.53119 11.4791 9.19017H12.9807C12.9746 8.30013 13.5559 7.73705 14.458 7.73705C15.3117 7.73705 15.9596 8.2517 15.9596 9.06908C15.9596 9.80775 15.4994 10.3285 14.6154 11.2124L11.5154 14.2035V15.3417ZM19.0717 15.3417H20.6459V11.612H24.3029V10.2921H20.6459V7.89447H24.6904V6.57455H19.0717V15.3417Z" fill="black"/>
<path d="M11.8798 27.8378H10.7548V31.5527H9.05555V32.5253H10.7548V38.3378H11.8798V27.8378ZM2.75086 35.1855L3.50086 35.9472C4.2157 35.3964 4.64344 34.5292 4.89539 33.5683C5.14148 34.5703 5.58094 35.496 6.36023 36.0644C7.13953 35.496 7.57898 34.5703 7.82508 33.5624C8.07703 34.541 8.52234 35.4257 9.2782 35.9824L9.98133 35.1855C8.65125 34.2187 8.35242 32.4023 8.36414 30.9433V28.7402H7.29773V30.9433C7.28602 32.0917 7.13367 33.5624 6.36609 34.6054C5.58094 33.539 5.41687 32.0507 5.42273 30.9433V28.7402H4.37977V30.9433C4.36805 32.373 4.0575 34.1953 2.75086 35.1855ZM22.8105 36.1113H18.5332V33.955H21.6738V28.5527H20.5723V30.3574H15.416V28.5527H14.3027V33.955H17.4316V36.1113H13.2012V37.037H22.8105V36.1113ZM15.416 33.0527V31.2597H20.5723V33.0527H15.416ZM32.1827 27.8378H31.0577V38.3378H32.1827V27.8378ZM23.5577 35.5253L24.1437 36.4277C27.7472 34.6992 29.0538 32.039 29.0538 28.9628H24.0616V29.8535H27.9288C27.712 32.3027 26.3468 34.1953 23.5577 35.5253Z" fill="black"/>
</svg>
