<svg width="36" height="42" viewBox="0 0 36 42" fill="none" xmlns="http://www.w3.org/2000/svg">
<ellipse cx="18" cy="11.3945" rx="13" ry="10.5" fill="white"/>
<path fill-rule="evenodd" clip-rule="evenodd" d="M19 21.8639C25.7124 21.4515 31 16.9217 31 11.3945C31 5.86728 25.7124 1.33754 19 0.92511L19 2.52745C25.1062 2.93272 29.4 7.01672 29.4 11.3945C29.4 15.7723 25.1062 19.8563 19 20.2616L19 21.8639ZM17 2.52745C10.8938 2.93271 6.6 7.01672 6.6 11.3945C6.6 15.7723 10.8938 19.8563 17 20.2616L17 21.8639C10.2876 21.4515 5 16.9217 5 11.3945C5 5.86728 10.2876 1.33754 17 0.92511L17 2.52745Z" fill="black"/>
<path d="M14.5186 16.0156C16.4137 16.0156 17.8002 14.9439 17.7881 13.4605C17.8002 12.3586 17.0979 11.5654 15.8627 11.4019V11.3293C16.8193 11.1295 17.4733 10.4211 17.4611 9.4402C17.4733 8.09606 16.3229 7.00622 14.5428 7.00622C12.8293 7.00622 11.4912 8.01735 11.4549 9.48864H12.9686C12.9988 8.74997 13.7072 8.28981 14.5307 8.28981C15.3844 8.28981 15.9414 8.7863 15.9354 9.52497C15.9414 10.2879 15.2936 10.8086 14.3611 10.8086H13.574V12.0195H14.3611C15.4994 12.0256 16.1776 12.5886 16.1776 13.3758C16.1776 14.1568 15.4813 14.6896 14.5186 14.6836C13.6043 14.6896 12.902 14.2234 12.8596 13.5211H11.2733C11.3096 14.9984 12.6477 16.0156 14.5186 16.0156ZM19.2533 15.8945H20.8276V12.1648H24.4846V10.8449H20.8276V8.44724H24.8721V7.12731H19.2533V15.8945Z" fill="black"/>
<path d="M13.4077 32.1289H12.3061V33.5468H8.07563V34.4609H17.6498V33.5468H13.4077V32.1289ZM8.56781 31.8008L8.96625 32.6797C10.7885 32.4687 12.2827 31.7187 12.8569 30.6113C13.4311 31.7187 14.937 32.4687 16.7592 32.6797L17.1577 31.8008C15.2534 31.6074 13.7651 30.7695 13.6069 29.7617H16.7944V28.8711H8.95453V29.7617H12.1069C11.9545 30.7754 10.4663 31.6074 8.56781 31.8008ZM9.21234 37.0508C9.21234 38.2226 10.5717 38.873 12.8569 38.8672C15.1245 38.873 16.4721 38.2226 16.478 37.0508C16.4721 35.873 15.1245 35.2226 12.8569 35.2226C10.5717 35.2226 9.21234 35.873 9.21234 37.0508ZM10.3373 37.0508C10.3315 36.4238 11.2338 36.084 12.8569 36.0781C14.4565 36.084 15.3647 36.4238 15.3647 37.0508C15.3647 37.6777 14.4565 38.0234 12.8569 38.0234C11.2338 38.0234 10.3315 37.6777 10.3373 37.0508ZM27.9244 34.625H18.315V35.5039H20.7408V38.8906H21.8541V35.5039H24.3853V38.8906H25.5103V35.5039H27.9244V34.625ZM19.4517 29.6797H25.6509V30.7461H19.4869V33.6406H27.0103V32.7383H20.6002V31.5781H26.7877V28.7656H19.4517V29.6797Z" fill="black"/>
</svg>
