<svg width="36" height="41" viewBox="0 0 36 41" fill="none" xmlns="http://www.w3.org/2000/svg">
<ellipse cx="18" cy="10.9473" rx="13" ry="10.5" fill="white"/>
<path fill-rule="evenodd" clip-rule="evenodd" d="M19 21.4167C25.7124 21.0042 31 16.4745 31 10.9473C31 5.42003 25.7124 0.890288 19 0.47786L19 2.0802C25.1062 2.48547 29.4 6.56947 29.4 10.9473C29.4 15.325 25.1062 19.409 19 19.8143L19 21.4167ZM17 2.0802C10.8938 2.48546 6.6 6.56947 6.6 10.9473C6.6 15.325 10.8938 19.409 17 19.8143L17 21.4167C10.2876 21.0042 5 16.4745 5 10.9473C5 5.42003 10.2876 0.890287 17 0.477859L17 2.0802Z" fill="black"/>
<path d="M11.0916 13.8125H15.342V15.4473H16.8315V13.8125H17.994V12.5168H16.8315V9.9617H15.3783V12.5168H12.6901V12.4562L16.0322 6.68006H14.5065L11.0916 12.5531V13.8125ZM19.3381 15.4473H20.9123V11.7176H24.5693V10.3976H20.9123V7.99998H24.9568V6.68006H19.3381V15.4473Z" fill="black"/>
<path d="M17.6498 33.4629H8.05219V34.3418H17.6498V33.4629ZM9.14203 36.1465H15.2944V38.4433H16.4311V35.2558H9.14203V36.1465ZM9.30609 32.5723H16.5483V31.7168H10.4311V30.791H16.2084V29.9473H10.4311V29.0918H16.478V28.2129H9.30609V32.5723ZM27.0338 27.9551H25.9205V34.2598H27.0338V27.9551ZM18.4439 33.1933L19.0298 34.0723C20.2838 33.6328 21.2095 32.7187 21.6783 31.5644C22.1588 32.6015 23.067 33.4101 24.2681 33.8027L24.8423 32.9238C23.2193 32.414 22.2173 31.166 22.2173 29.8183V29.6426H24.5259V28.7285H18.7369V29.6426H21.0923V29.8183C21.0865 31.2715 20.0845 32.6367 18.4439 33.1933ZM19.9322 36.4746C19.9322 37.7461 21.2916 38.4785 23.5064 38.4785C25.7095 38.4785 27.063 37.7461 27.0689 36.4746C27.063 35.209 25.7095 34.4765 23.5064 34.4707C21.2916 34.4765 19.9322 35.209 19.9322 36.4746ZM21.0572 36.4746C21.0572 35.7656 21.9537 35.3555 23.5064 35.3496C25.0474 35.3555 25.9732 35.7656 25.9673 36.4746C25.9732 37.1953 25.0474 37.6055 23.5064 37.5996C21.9537 37.6055 21.0572 37.1953 21.0572 36.4746Z" fill="black"/>
</svg>
