<svg width="36" height="41" viewBox="0 0 36 41" fill="none" xmlns="http://www.w3.org/2000/svg">
<ellipse cx="18" cy="10.5" rx="13" ry="10.5" fill="white"/>
<path fill-rule="evenodd" clip-rule="evenodd" d="M19 20.9694C25.7124 20.557 31 16.0272 31 10.5C31 4.97278 25.7124 0.443038 19 0.0306093L19 1.63295C25.1062 2.03821 29.4 6.12222 29.4 10.5C29.4 14.8778 25.1062 18.9618 19 19.3671L19 20.9694ZM17 1.63295C10.8938 2.03821 6.6 6.12222 6.6 10.5C6.6 14.8778 10.8938 18.9618 17 19.3671L17 20.9694C10.2876 20.557 5 16.0272 5 10.5C5 4.97278 10.2876 0.443037 17 0.0306091L17 1.63295Z" fill="black"/>
<path d="M14.5345 15.1199C16.4313 15.1199 17.7501 13.8696 17.7501 12.1184C17.7501 10.4314 16.5427 9.21533 14.9156 9.21533C14.192 9.21533 13.554 9.49365 13.2115 9.87901H13.1344L13.3999 7.54972H17.2791V6.23094H12.0982L11.5758 11.1935H13.0316C13.3099 10.6797 13.8066 10.4399 14.4874 10.4442C15.4979 10.4528 16.2215 11.1635 16.2215 12.1612C16.2215 13.1374 15.5193 13.8439 14.5345 13.8439C13.7081 13.8439 13.0359 13.3344 12.9802 12.6193H11.4474C11.4945 14.0751 12.7876 15.1199 14.5345 15.1199ZM19.169 15H20.7404V11.2706H24.3928V9.94751H20.7404V7.55829H24.7781V6.23094H19.169V15Z" fill="black"/>
<path d="M17.6875 35.7528H13.3781V33.25H12.2842V35.7528H8.07841V36.6602H17.6875V35.7528ZM8.40161 32.5166L8.89056 33.4406C10.5853 33.1091 12.1309 32.0442 12.827 30.6105C13.519 32.0525 15.0812 33.105 16.7801 33.4406L17.269 32.5166C15.2386 32.1851 13.4113 30.6271 13.4113 28.9572V28.1699H12.2386V28.9572C12.2303 30.6271 10.4237 32.1851 8.40161 32.5166ZM27.3212 27.4945H26.2439V31.6423H24.9511V27.7762H23.911V37.489H24.9511V32.5497H26.2439V37.9945H27.3212V27.4945ZM18.2881 34.9903L18.9345 35.7735C21.9386 34.0746 22.8544 31.5925 22.8627 28.8329H18.7356V29.7403H21.777C21.6071 31.8785 20.6292 33.6644 18.2881 34.9903Z" fill="black"/>
</svg>
