<svg width="36" height="41" viewBox="0 0 36 41" fill="none" xmlns="http://www.w3.org/2000/svg">
<ellipse cx="18" cy="10.5" rx="13" ry="10.5" fill="white"/>
<path fill-rule="evenodd" clip-rule="evenodd" d="M19 20.9694C25.7124 20.557 31 16.0272 31 10.5C31 4.97278 25.7124 0.443038 19 0.0306093L19 1.63295C25.1062 2.03821 29.4 6.12222 29.4 10.5C29.4 14.8778 25.1062 18.9618 19 19.3671L19 20.9694ZM17 1.63295C10.8938 2.03821 6.6 6.12222 6.6 10.5C6.6 14.8778 10.8938 18.9618 17 19.3671L17 20.9694C10.2876 20.557 5 16.0272 5 10.5C5 4.97278 10.2876 0.443037 17 0.0306091L17 1.63295Z" fill="black"/>
<path d="M11.439 12.1783C11.4261 13.9938 12.8348 15.1199 14.5775 15.1199C16.363 15.1199 17.6818 13.9296 17.6861 12.1826C17.6818 10.5127 16.4701 9.3395 14.813 9.3395C14.5689 9.3395 14.3292 9.38232 14.0937 9.44227L16.3887 6.23094H14.7359L12.6507 9.20249C11.7944 10.4228 11.4561 11.2877 11.439 12.1783ZM12.9804 12.2126C12.9804 11.2663 13.627 10.5941 14.5689 10.5941C15.5067 10.5941 16.1618 11.2663 16.1618 12.2211C16.1618 13.1717 15.5152 13.8482 14.5689 13.8482C13.627 13.8482 12.9804 13.1717 12.9804 12.2126ZM19.0661 15H20.6375V11.2706H24.2898V9.94751H20.6375V7.55829H24.6752V6.23094H19.0661V15Z" fill="black"/>
<path d="M5.0486 29.6243H6.56104V35.8895H5.0486V37H9.34557V35.8895H7.84971V29.6243H9.34557V28.5138H5.0486V29.6243ZM11.6787 33.2251C11.6787 32.2099 12.2961 31.634 13.158 31.634C13.9992 31.634 14.5006 32.1851 14.5006 33.105V37H15.7519V32.9517C15.7519 31.3812 14.8901 30.5525 13.5848 30.5525C12.6276 30.5525 12.0019 30.9959 11.7077 31.6754H11.629V30.6354H10.4274V37H11.6787V33.2251ZM20.1262 30.6354H18.8293V29.1105H17.5779V30.6354H16.6456V31.634H17.5779V35.384C17.5738 36.5442 18.4564 37.0829 19.4384 37.0829C19.7782 37.0829 20.0475 37.058 20.2133 37.029V35.9517C20.0475 35.9599 19.7699 35.9765 19.5917 35.9765C19.1856 35.9724 18.8293 35.8439 18.8293 35.1271V31.634H20.1262V30.6354ZM21.2264 37H22.4778V33.1215C22.4778 32.2887 23.1242 31.6878 23.9985 31.6878C24.2513 31.6878 24.5455 31.7376 24.6491 31.7624V30.5691C24.5206 30.5525 24.272 30.5401 24.1145 30.5401C23.3728 30.5401 22.7347 30.9627 22.5027 31.6506H22.4364V30.6354H21.2264V37ZM27.9558 37.1285C29.75 37.1285 30.9226 35.8149 30.9226 33.8467C30.9226 31.866 29.75 30.5525 27.9558 30.5525C26.1575 30.5525 24.9807 31.866 24.9807 33.8467C24.9807 35.8149 26.1575 37.1285 27.9558 37.1285ZM26.2403 33.8425C26.2403 32.6285 26.7956 31.5925 27.9599 31.5925C29.1119 31.5925 29.663 32.6285 29.663 33.8425C29.663 35.0608 29.1119 36.0843 27.9599 36.0843C26.7956 36.0843 26.2403 35.0608 26.2403 33.8425Z" fill="black"/>
</svg>
